<?xml version="1.0" encoding="UTF-8" standalone="no"?>
<svg
   xmlns:dc="http://purl.org/dc/elements/1.1/"
   xmlns:cc="http://creativecommons.org/ns#"
   xmlns:rdf="http://www.w3.org/1999/02/22-rdf-syntax-ns#"
   xmlns:svg="http://www.w3.org/2000/svg"
   xmlns="http://www.w3.org/2000/svg"
   xmlns:xlink="http://www.w3.org/1999/xlink"
   id="svg2688"
   version="1.1"
   viewBox="0 0 11.15059 13.25566"
   height="13.25566mm"
   width="11.15059mm">
  <defs
     id="defs2682" />
  <metadata
     id="metadata2685">
    <rdf:RDF>
      <cc:Work
         rdf:about="">
        <dc:format>image/svg+xml</dc:format>
        <dc:type
           rdf:resource="http://purl.org/dc/dcmitype/StillImage" />
        <dc:title></dc:title>
      </cc:Work>
    </rdf:RDF>
  </metadata>
  <g
     transform="translate(-70.405179,-142.77198)"
     id="layer1">
    <g
       transform="matrix(1.7572993,0,0,1.7572993,24.615054,86.626265)"
       id="g5135">
      <rect
         id="rect4686"
         fill="currentColor"
         ry="0.1"
         height="0.2"
         width="1.7410001"
         y="-0.1"
         x="28.0156"
         transform="translate(0.5691,38)" />
      <rect
         id="rect4688"
         fill="currentColor"
         ry="0.1"
         height="0.2"
         width="1.7410001"
         y="-0.1"
         x="28.0156"
         transform="translate(0.5691,39)" />
      <rect
         id="rect4690"
         fill="currentColor"
         ry="0.1"
         height="0.2"
         width="1.7410001"
         y="-0.1"
         x="25.488001"
         transform="translate(0.5691,38)" />
      <rect
         id="rect4692"
         fill="currentColor"
         ry="0.1"
         height="0.2"
         width="1.7410001"
         y="-0.1"
         x="25.488001"
         transform="translate(0.5691,39)" />
      <a
         id="a4712"
         xlink:href="textedit:///Users/jwy/Documents/GitHub/sf004/public/pieces/sf004/notation/notes02.ly:112:10:11"
         style="color:inherit">
        <path
           id="path4710"
           fill="currentColor"
           d="m 215,137 c 57,0 111,-29 111,-92 0,-71 -54,-120 -101,-148 -35,-21 -74,-34 -114,-34 -57,0 -111,29 -111,92 0,71 54,120 101,148 35,21 74,34 114,34 z"
           transform="matrix(0.0036,0,0,-0.0036,26.3472,39)" />
      </a>
      <rect
         id="rect4714"
         fill="currentColor"
         ry="0.039999999"
         height="6.6501999"
         width="0.13"
         y="-2.8099999"
         x="-0.064999998"
         transform="translate(27.4429,35)" />
      <a
         id="a4718"
         xlink:href="textedit:///Users/jwy/Documents/GitHub/sf004/public/pieces/sf004/notation/notes02.ly:112:15:16"
         style="color:inherit">
        <path
           id="path4716"
           fill="currentColor"
           d="m 215,137 c 57,0 111,-29 111,-92 0,-71 -54,-120 -101,-148 -35,-21 -74,-34 -114,-34 -57,0 -111,29 -111,92 0,71 54,120 101,148 35,21 74,34 114,34 z"
           transform="matrix(0.0036,0,0,-0.0036,28.8748,39)" />
      </a>
      <rect
         id="rect4720"
         fill="currentColor"
         ry="0.039999999"
         height="6.6501999"
         width="0.13"
         y="-2.8099999"
         x="-0.064999998"
         transform="translate(29.9705,35)" />
      <a
         id="a4724"
         xlink:href="textedit:///Users/jwy/Documents/GitHub/sf004/public/pieces/sf004/notation/notes02.ly:112:17:18"
         style="color:inherit">
        <path
           id="path4722"
           fill="currentColor"
           d="M 72,-250 189,76 C 155,64 120,54 84,54 38,54 -3,87 -3,133 c 0,40 33,72 73,72 25,0 48,-15 56,-39 10,-28 6,-59 35,-59 16,0 54,48 61,63 6,12 23,12 28,0 L 127,-250 c -8,-7 -17,-10 -27,-10 -10,0 -20,3 -28,10 z"
           transform="matrix(0.004,0,0,-0.004,31.4024,35)" />
      </a>
      <a
         id="a4796"
         xlink:href="textedit:///Users/jwy/Documents/GitHub/sf004/public/pieces/sf004/notation/notes02.ly:112:14:15"
         style="color:inherit">
        <polygon
           id="polygon4792"
           points="0.04,-0.2 4.5495,-0.2 4.5495,0.2 0.04,0.2 "
           stroke="currentColor"
           fill="currentColor"
           stroke-width="0.08"
           stroke-linecap="round"
           stroke-linejoin="round"
           transform="translate(27.3779,32.19)" />
        <polygon
           id="polygon4794"
           points="0.04,-0.2 2.6176,-0.2 2.6176,0.2 0.04,0.2 "
           stroke="currentColor"
           fill="currentColor"
           stroke-width="0.08"
           stroke-linecap="round"
           stroke-linejoin="round"
           transform="translate(27.3779,33)" />
      </a>
    </g>
  </g>
</svg>
