<?xml version="1.0" encoding="UTF-8" standalone="no"?>
<svg
   xmlns:dc="http://purl.org/dc/elements/1.1/"
   xmlns:cc="http://creativecommons.org/ns#"
   xmlns:rdf="http://www.w3.org/1999/02/22-rdf-syntax-ns#"
   xmlns:svg="http://www.w3.org/2000/svg"
   xmlns="http://www.w3.org/2000/svg"
   xmlns:xlink="http://www.w3.org/1999/xlink"
   width="19.16972mm"
   height="16.569576mm"
   viewBox="0 0 19.169719 16.569576"
   version="1.1"
   id="svg3540">
  <defs
     id="defs3534" />
  <metadata
     id="metadata3537">
    <rdf:RDF>
      <cc:Work
         rdf:about="">
        <dc:format>image/svg+xml</dc:format>
        <dc:type
           rdf:resource="http://purl.org/dc/dcmitype/StillImage" />
        <dc:title></dc:title>
      </cc:Work>
    </rdf:RDF>
  </metadata>
  <g
     id="layer1"
     transform="matrix(1.25,0,0,1.25,-61.160416,-85.719209)">
    <g
       id="g963"
       transform="matrix(1.7572994,0,0,1.7572994,-89.076431,15.94425)">
      <a
         style="color:inherit"
         xlink:href="textedit:///Users/jwy/Documents/GitHub/sf004/public/pieces/sf004/notation/notes01.ly:97:13:14"
         id="a752">
        <polygon
           transform="translate(78.9793,30.19)"
           stroke-linejoin="round"
           stroke-linecap="round"
           stroke-width="0.08"
           fill="currentColor"
           stroke="currentColor"
           points="8.2269,0.2 0.04,0.2 0.04,-0.2 8.2269,-0.2 "
           id="polygon748" />
        <polygon
           transform="translate(84.562,31)"
           stroke-linejoin="round"
           stroke-linecap="round"
           stroke-width="0.08"
           fill="currentColor"
           stroke="currentColor"
           points="2.6442,0.2 0.04,0.2 0.04,-0.2 2.6442,-0.2 "
           id="polygon750" />
      </a>
      <rect
         transform="translate(84.627,35)"
         x="-0.064999998"
         y="-4.8099999"
         width="0.13"
         height="6.6501999"
         ry="0.039999999"
         fill="currentColor"
         id="rect824" />
      <a
         style="color:inherit"
         xlink:href="textedit:///Users/jwy/Documents/GitHub/sf004/public/pieces/sf004/notation/notes01.ly:97:10:11"
         id="a828">
        <path
           transform="matrix(0.004,0,0,-0.004,78.5443,35)"
           d="M 72,-250 189,76 C 155,64 120,54 84,54 38,54 -3,87 -3,133 c 0,40 33,72 73,72 25,0 48,-15 56,-39 10,-28 6,-59 35,-59 16,0 54,48 61,63 6,12 23,12 28,0 L 127,-250 c -8,-7 -17,-10 -27,-10 -10,0 -20,3 -28,10 z"
           fill="currentColor"
           id="path826" />
      </a>
      <a
         style="color:inherit"
         xlink:href="textedit:///Users/jwy/Documents/GitHub/sf004/public/pieces/sf004/notation/notes01.ly:97:14:15"
         id="a832">
        <path
           transform="matrix(0.0036,0,0,-0.0036,83.5314,37)"
           d="m 215,137 c 57,0 111,-29 111,-92 0,-71 -54,-120 -101,-148 -35,-21 -74,-34 -114,-34 -57,0 -111,29 -111,92 0,71 54,120 101,148 35,21 74,34 114,34 z"
           fill="currentColor"
           id="path830" />
      </a>
      <a
         style="color:inherit"
         xlink:href="textedit:///Users/jwy/Documents/GitHub/sf004/public/pieces/sf004/notation/notes01.ly:97:19:20"
         id="a838">
        <path
           transform="matrix(0.0036,0,0,-0.0036,86.0856,37)"
           d="m 215,137 c 57,0 111,-29 111,-92 0,-71 -54,-120 -101,-148 -35,-21 -74,-34 -114,-34 -57,0 -111,29 -111,92 0,71 54,120 101,148 35,21 74,34 114,34 z"
           fill="currentColor"
           id="path836" />
      </a>
      <rect
         transform="translate(87.1812,35)"
         x="-0.064999998"
         y="-4.8099999"
         width="0.13"
         height="6.6501999"
         ry="0.039999999"
         fill="currentColor"
         id="rect840" />
    </g>
  </g>
</svg>
