<?xml version="1.0" encoding="UTF-8" standalone="no"?>
<svg
   xmlns:dc="http://purl.org/dc/elements/1.1/"
   xmlns:cc="http://creativecommons.org/ns#"
   xmlns:rdf="http://www.w3.org/1999/02/22-rdf-syntax-ns#"
   xmlns:svg="http://www.w3.org/2000/svg"
   xmlns="http://www.w3.org/2000/svg"
   xmlns:xlink="http://www.w3.org/1999/xlink"
   width="13.454762mm"
   height="16.569574mm"
   viewBox="0 0 13.454761 16.569574"
   version="1.1"
   id="svg2094">
  <defs
     id="defs2088" />
  <metadata
     id="metadata2091">
    <rdf:RDF>
      <cc:Work
         rdf:about="">
        <dc:format>image/svg+xml</dc:format>
        <dc:type
           rdf:resource="http://purl.org/dc/dcmitype/StillImage" />
        <dc:title></dc:title>
      </cc:Work>
    </rdf:RDF>
  </metadata>
  <g
     id="layer1"
     transform="translate(-99.096327,-132.67648)">
    <g
       transform="matrix(2.1966241,0,0,2.1966241,-54.737213,99.836954)"
       id="g5023">
      <a
         style="color:inherit"
         xlink:href="textedit:///Users/jwy/Documents/GitHub/sf004/public/pieces/sf004/notation/notes02.ly:107:15:16"
         id="a4528">
        <polygon
           transform="translate(71.0625,15.19)"
           stroke-linejoin="round"
           stroke-linecap="round"
           stroke-width="0.08"
           fill="currentColor"
           stroke="currentColor"
           points="4.6195,0.2 0.04,0.2 0.04,-0.2 4.6195,-0.2 "
           id="polygon4524" />
        <polygon
           transform="translate(71.0625,16)"
           stroke-linejoin="round"
           stroke-linecap="round"
           stroke-width="0.08"
           fill="currentColor"
           stroke="currentColor"
           points="2.6526,0.2 0.04,0.2 0.04,-0.2 2.6526,-0.2 "
           id="polygon4526" />
      </a>
      <a
         style="color:inherit"
         xlink:href="textedit:///Users/jwy/Documents/GitHub/sf004/public/pieces/sf004/notation/notes02.ly:107:16:17"
         id="a4620">
        <path
           transform="matrix(0.0036,0,0,-0.0036,72.5944,22)"
           d="m 215,137 c 57,0 111,-29 111,-92 0,-71 -54,-120 -101,-148 -35,-21 -74,-34 -114,-34 -57,0 -111,29 -111,92 0,71 54,120 101,148 35,21 74,34 114,34 z"
           fill="currentColor"
           id="path4618" />
      </a>
      <rect
         transform="translate(73.69,20)"
         x="-0.064999998"
         y="-4.8099999"
         width="0.13"
         height="6.6501999"
         ry="0.039999999"
         fill="currentColor"
         id="rect4622" />
      <a
         style="color:inherit"
         xlink:href="textedit:///Users/jwy/Documents/GitHub/sf004/public/pieces/sf004/notation/notes02.ly:107:19:20"
         id="a4626">
        <path
           transform="matrix(0.004,0,0,-0.004,75.157,20)"
           d="M 72,-250 189,76 C 155,64 120,54 84,54 38,54 -3,87 -3,133 c 0,40 33,72 73,72 25,0 48,-15 56,-39 10,-28 6,-59 35,-59 16,0 54,48 61,63 6,12 23,12 28,0 L 127,-250 c -8,-7 -17,-10 -27,-10 -10,0 -20,3 -28,10 z"
           fill="currentColor"
           id="path4624" />
      </a>
      <rect
         transform="translate(71.1275,20)"
         x="-0.064999998"
         y="-4.8099999"
         width="0.13"
         height="6.6501999"
         ry="0.039999999"
         fill="currentColor"
         id="rect4650" />
      <a
         style="color:inherit"
         xlink:href="textedit:///Users/jwy/Documents/GitHub/sf004/public/pieces/sf004/notation/notes02.ly:107:10:11"
         id="a4654">
        <path
           transform="matrix(0.0036,0,0,-0.0036,70.0318,22)"
           d="m 215,137 c 57,0 111,-29 111,-92 0,-71 -54,-120 -101,-148 -35,-21 -74,-34 -114,-34 -57,0 -111,29 -111,92 0,71 54,120 101,148 35,21 74,34 114,34 z"
           fill="currentColor"
           id="path4652" />
      </a>
    </g>
  </g>
</svg>
