<?xml version="1.0" encoding="UTF-8" standalone="no"?>
<svg
   xmlns:dc="http://purl.org/dc/elements/1.1/"
   xmlns:cc="http://creativecommons.org/ns#"
   xmlns:rdf="http://www.w3.org/1999/02/22-rdf-syntax-ns#"
   xmlns:svg="http://www.w3.org/2000/svg"
   xmlns="http://www.w3.org/2000/svg"
   xmlns:xlink="http://www.w3.org/1999/xlink"
   version="1.2"
   width="3.4680293mm"
   height="3.6383114mm"
   viewBox="0 0 1.9735007 2.0703993"
   id="svg399">
  <metadata
     id="metadata405">
    <rdf:RDF>
      <cc:Work
         rdf:about="">
        <dc:format>image/svg+xml</dc:format>
        <dc:type
           rdf:resource="http://purl.org/dc/dcmitype/StillImage" />
        <dc:title></dc:title>
      </cc:Work>
    </rdf:RDF>
  </metadata>
  <defs
     id="defs403" />
  <style
     text="style/css"
     id="style21"><![CDATA[
tspan { white-space: pre; }
]]></style>
  <!-- Page: 1/1 -->
  <text
     y="-9.7792997"
     x="-15.911"
     font-family="serif"
     font-size="2.2001px"
     text-anchor="start"
     fill="currentColor"
     id="text25"><tspan
       id="tspan23" /></text>
  <a
     transform="translate(-16.4801,-9.7793)"
     style="color:inherit"
     xlink:href="textedit:///Users/jwy/Documents/OPUS/GitHub/sf004/public/pieces/sf004/notation/sf004_ly_template.ly:63:44:45"
     id="a77">
    <g
       transform="translate(16.4065,11.2801)"
       id="g75">
      <path
         transform="scale(0.0032,-0.0032)"
         d="m 180,217 c 0,9 8,16 8,25 0,12 -8,22 -19,22 -24,0 -45,-17 -45,-40 0,-17 16,-28 31,-36 34,-18 69,-41 69,-78 C 224,47 168,0 103,0 60,0 23,31 23,72 23,93 35,114 54,114 72,114 87,99 87,81 87,68 65,66 65,53 65,39 82,32 98,32 c 34,0 66,18 66,49 0,57 -100,59 -100,115 0,53 42,96 95,96 57,0 81,-35 81,-63 0,-19 -11,-34 -29,-34 -18,0 -31,11 -31,22 z"
         fill="currentColor"
         id="path71" />
      <path
         transform="matrix(0.0032,0,0,-0.0032,0.6487,0)"
         d="M 252,237 203,77 C 173,-22 82,-178 -15,-178 c -46,0 -87,32 -87,76 0,39 17,77 52,77 24,0 44,-20 44,-44 0,-30 -38,-25 -38,-55 0,-10 11,-10 23,-10 h 6 c 46,0 61,54 73,102 l 67,269 H 80 c -12,0 -22,10 -22,22 0,12 10,23 22,23 h 58 c 32,95 118,187 212,187 46,0 87,-31 87,-75 0,-39 -17,-78 -52,-78 -24,0 -44,20 -44,44 0,30 38,25 38,55 0,10 -10,11 -22,11 h -7 c -58,0 -69,-81 -85,-144 h 50 c 12,0 23,-11 23,-23 0,-12 -11,-22 -23,-22 z"
         fill="currentColor"
         id="path73" />
    </g>
  </a>
</svg>
