<?xml version="1.0" encoding="UTF-8" standalone="no"?>
<svg
   xmlns:dc="http://purl.org/dc/elements/1.1/"
   xmlns:cc="http://creativecommons.org/ns#"
   xmlns:rdf="http://www.w3.org/1999/02/22-rdf-syntax-ns#"
   xmlns:svg="http://www.w3.org/2000/svg"
   xmlns="http://www.w3.org/2000/svg"
   xmlns:xlink="http://www.w3.org/1999/xlink"
   id="svg7167"
   version="1.1"
   viewBox="0 0 15.846454 12.710898"
   height="12.710898mm"
   width="15.846454mm">
  <defs
     id="defs7161" />
  <metadata
     id="metadata7164">
    <rdf:RDF>
      <cc:Work
         rdf:about="">
        <dc:format>image/svg+xml</dc:format>
        <dc:type
           rdf:resource="http://purl.org/dc/dcmitype/StillImage" />
        <dc:title></dc:title>
      </cc:Work>
    </rdf:RDF>
  </metadata>
  <g
     transform="translate(-81.235204,-143.27566)"
     id="layer1">
    <g
       id="g3519"
       transform="matrix(1.7572994,0,0,1.7572994,42.779519,-77.404298)">
      <rect
         style="stroke-width:1"
         x="29.159903"
         y="130.71904"
         width="1.7410002"
         height="0.20000002"
         ry="0.10000001"
         fill="currentColor"
         id="rect1964" />
      <rect
         style="stroke-width:1"
         x="29.159903"
         y="131.71904"
         width="1.7410002"
         height="0.20000002"
         ry="0.10000001"
         fill="currentColor"
         id="rect1966" />
      <path
         style="stroke-width:0.00399999"
         d="m 23.345401,127.31903 c 0,-0.124 0.1,-0.224 0.223999,-0.224 0.123999,0 0.224,0.1 0.224,0.224 0,0.124 -0.100001,0.224 -0.224,0.224 -0.124,0 -0.223999,-0.1 -0.223999,-0.224 z"
         fill="currentColor"
         id="path1986" />
      <a
         transform="translate(-6.0789006,107.81903)"
         style="color:inherit"
         xlink:href="textedit:///Users/jwy/Documents/GitHub/sf004/public/pieces/sf004/notation/notes03.ly:123:10:11"
         id="a1990">
        <path
           transform="matrix(0.004,0,0,-0.004,27.9743,20)"
           d="M 72,-250 189,76 C 155,64 120,54 84,54 38,54 -3,87 -3,133 c 0,40 33,72 73,72 25,0 48,-15 56,-39 10,-28 6,-59 35,-59 16,0 54,48 61,63 6,12 23,12 28,0 L 127,-250 c -8,-7 -17,-10 -27,-10 -10,0 -20,3 -28,10 z"
           fill="currentColor"
           id="path1988" />
      </a>
      <a
         transform="translate(-6.0789006,107.81903)"
         style="color:inherit"
         xlink:href="textedit:///Users/jwy/Documents/GitHub/sf004/public/pieces/sf004/notation/notes03.ly:123:15:16"
         id="a2000">
        <path
           transform="matrix(0.0036,0,0,-0.0036,35.5289,24.5)"
           d="m 215,137 c 57,0 111,-29 111,-92 0,-71 -54,-120 -101,-148 -35,-21 -74,-34 -114,-34 -57,0 -111,29 -111,92 0,71 54,120 101,148 35,21 74,34 114,34 z"
           fill="currentColor"
           id="path1998" />
      </a>
      <rect
         style="stroke-width:1"
         x="30.480701"
         y="125.81903"
         width="0.13"
         height="6.3401999"
         ry="0.039999999"
         fill="currentColor"
         id="rect2002" />
      <a
         transform="translate(-6.0789006,107.81903)"
         style="color:inherit"
         xlink:href="textedit:///Users/jwy/Documents/GitHub/sf004/public/pieces/sf004/notation/notes03.ly:123:14:15"
         id="a2118">
        <polygon
           transform="translate(28.4093,18)"
           stroke-linejoin="round"
           stroke-linecap="round"
           stroke-width="0.08"
           fill="currentColor"
           stroke="currentColor"
           points="0.04,-0.2 8.2403,-0.2 8.2403,0.2 0.04,0.2 "
           id="polygon2114" />
        <polygon
           transform="translate(35.5246,18.81)"
           stroke-linejoin="round"
           stroke-linecap="round"
           stroke-width="0.08"
           fill="currentColor"
           stroke="currentColor"
           points="0.04,-0.2 1.125,-0.2 1.125,0.2 0.04,0.2 "
           id="polygon2116" />
      </a>
    </g>
  </g>
</svg>
