<?xml version="1.0" encoding="UTF-8" standalone="no"?>
<svg
   xmlns:dc="http://purl.org/dc/elements/1.1/"
   xmlns:cc="http://creativecommons.org/ns#"
   xmlns:rdf="http://www.w3.org/1999/02/22-rdf-syntax-ns#"
   xmlns:svg="http://www.w3.org/2000/svg"
   xmlns="http://www.w3.org/2000/svg"
   xmlns:xlink="http://www.w3.org/1999/xlink"
   id="svg994"
   version="1.1"
   viewBox="0 0 15.264605 13.25566"
   height="13.25566mm"
   width="15.264605mm">
  <defs
     id="defs988" />
  <metadata
     id="metadata991">
    <rdf:RDF>
      <cc:Work
         rdf:about="">
        <dc:format>image/svg+xml</dc:format>
        <dc:type
           rdf:resource="http://purl.org/dc/dcmitype/StillImage" />
        <dc:title></dc:title>
      </cc:Work>
    </rdf:RDF>
  </metadata>
  <g
     transform="translate(-98.201031,-141.53884)"
     id="layer1">
    <g
       transform="matrix(1.7572993,0,0,1.7572993,-4.6756633,88.907723)"
       id="g5163">
      <a
         id="a4778"
         xlink:href="textedit:///Users/jwy/Documents/GitHub/sf004/public/pieces/sf004/notation/notes02.ly:116:14:15"
         style="color:inherit">
        <polygon
           id="polygon4774"
           points="8.1865,0.2 0.04,0.2 0.04,-0.2 8.1865,-0.2 "
           stroke="currentColor"
           fill="currentColor"
           stroke-width="0.08"
           stroke-linecap="round"
           stroke-linejoin="round"
           transform="translate(58.9895,30.19)" />
        <polygon
           id="polygon4776"
           points="1.125,0.2 0.04,0.2 0.04,-0.2 1.125,-0.2 "
           stroke="currentColor"
           fill="currentColor"
           stroke-width="0.08"
           stroke-linecap="round"
           stroke-linejoin="round"
           transform="translate(66.051,31)" />
      </a>
      <a
         id="a4832"
         xlink:href="textedit:///Users/jwy/Documents/GitHub/sf004/public/pieces/sf004/notation/notes02.ly:116:10:11"
         style="color:inherit">
        <path
           id="path4830"
           fill="currentColor"
           d="M 72,-250 189,76 C 155,64 120,54 84,54 38,54 -3,87 -3,133 c 0,40 33,72 73,72 25,0 48,-15 56,-39 10,-28 6,-59 35,-59 16,0 54,48 61,63 6,12 23,12 28,0 L 127,-250 c -8,-7 -17,-10 -27,-10 -10,0 -20,3 -28,10 z"
           transform="matrix(0.004,0,0,-0.004,58.5545,35)" />
      </a>
      <path
         id="path4834"
         fill="currentColor"
         d="M 0,0 C 0,31 25,56 56,56 87,56 112,31 112,0 112,-31 87,-56 56,-56 25,-56 0,-31 0,0 Z"
         transform="matrix(0.004,0,0,-0.004,60.0045,34.5)" />
      <a
         id="a4838"
         xlink:href="textedit:///Users/jwy/Documents/GitHub/sf004/public/pieces/sf004/notation/notes02.ly:116:15:16"
         style="color:inherit">
        <path
           id="path4836"
           fill="currentColor"
           d="m 215,137 c 57,0 111,-29 111,-92 0,-71 -54,-120 -101,-148 -35,-21 -74,-34 -114,-34 -57,0 -111,29 -111,92 0,71 54,120 101,148 35,21 74,34 114,34 z"
           transform="matrix(0.0036,0,0,-0.0036,66.0553,37)" />
      </a>
      <rect
         id="rect4840"
         fill="currentColor"
         ry="0.039999999"
         height="6.6501999"
         width="0.13"
         y="-4.8099999"
         x="-0.064999998"
         transform="translate(67.151,35)" />
    </g>
  </g>
</svg>
