<?xml version="1.0" encoding="UTF-8" standalone="no"?>
<svg
   xmlns:dc="http://purl.org/dc/elements/1.1/"
   xmlns:cc="http://creativecommons.org/ns#"
   xmlns:rdf="http://www.w3.org/1999/02/22-rdf-syntax-ns#"
   xmlns:svg="http://www.w3.org/2000/svg"
   xmlns="http://www.w3.org/2000/svg"
   xmlns:xlink="http://www.w3.org/1999/xlink"
   id="svg2757"
   version="1.1"
   viewBox="0 0 10.847106 13.255661"
   height="13.255661mm"
   width="10.847106mm">
  <defs
     id="defs2751" />
  <metadata
     id="metadata2754">
    <rdf:RDF>
      <cc:Work
         rdf:about="">
        <dc:format>image/svg+xml</dc:format>
        <dc:type
           rdf:resource="http://purl.org/dc/dcmitype/StillImage" />
        <dc:title></dc:title>
      </cc:Work>
    </rdf:RDF>
  </metadata>
  <g
     transform="translate(-139.55581,-160.83496)"
     id="layer1">
    <g
       transform="matrix(1.7572994,0,0,1.7572994,128.38448,108.20384)"
       id="g2749">
      <a
         id="a728"
         xlink:href="textedit:///Users/jwy/Documents/GitHub/sf004/public/pieces/sf004/notation/notes01.ly:89:10:11"
         style="color:inherit">
        <path
           id="path726"
           fill="currentColor"
           d="M 72,-250 189,76 C 155,64 120,54 84,54 38,54 -3,87 -3,133 c 0,40 33,72 73,72 25,0 48,-15 56,-39 10,-28 6,-59 35,-59 16,0 54,48 61,63 6,12 23,12 28,0 L 127,-250 c -8,-7 -17,-10 -27,-10 -10,0 -20,3 -28,10 z"
           transform="matrix(0.004,0,0,-0.004,6.3691,35)" />
      </a>
      <a
         id="a740"
         xlink:href="textedit:///Users/jwy/Documents/GitHub/sf004/public/pieces/sf004/notation/notes01.ly:89:14:15"
         style="color:inherit">
        <path
           id="path738"
           fill="currentColor"
           d="m 215,137 c 57,0 111,-29 111,-92 0,-71 -54,-120 -101,-148 -35,-21 -74,-34 -114,-34 -57,0 -111,29 -111,92 0,71 54,120 101,148 35,21 74,34 114,34 z"
           transform="matrix(0.0036,0,0,-0.0036,11.3561,37)" />
      </a>
      <a
         id="a780"
         xlink:href="textedit:///Users/jwy/Documents/GitHub/sf004/public/pieces/sf004/notation/notes01.ly:89:13:14"
         style="color:inherit">
        <polygon
           id="polygon778"
           points="5.6727,-0.2 5.6727,0.2 0.04,0.2 0.04,-0.2 "
           stroke="currentColor"
           fill="currentColor"
           stroke-width="0.08"
           stroke-linecap="round"
           stroke-linejoin="round"
           transform="translate(6.8041,30.19)" />
      </a>
      <rect
         id="rect834"
         fill="currentColor"
         ry="0.039999999"
         height="6.6501999"
         width="0.13"
         y="30.190001"
         x="12.3868" />
    </g>
  </g>
</svg>
