<?xml version="1.0" encoding="UTF-8" standalone="no"?>
<svg
   xmlns:dc="http://purl.org/dc/elements/1.1/"
   xmlns:cc="http://creativecommons.org/ns#"
   xmlns:rdf="http://www.w3.org/1999/02/22-rdf-syntax-ns#"
   xmlns:svg="http://www.w3.org/2000/svg"
   xmlns="http://www.w3.org/2000/svg"
   xmlns:xlink="http://www.w3.org/1999/xlink"
   id="svg3020"
   version="1.1"
   viewBox="0 0 16.010929 12.710898"
   height="12.710898mm"
   width="16.010929mm">
  <defs
     id="defs3014" />
  <metadata
     id="metadata3017">
    <rdf:RDF>
      <cc:Work
         rdf:about="">
        <dc:format>image/svg+xml</dc:format>
        <dc:type
           rdf:resource="http://purl.org/dc/dcmitype/StillImage" />
        <dc:title></dc:title>
      </cc:Work>
    </rdf:RDF>
  </metadata>
  <g
     transform="translate(-58.669535,-133.19688)"
     id="layer1">
    <g
       id="g5911"
       transform="matrix(1.7572994,0,0,1.7572994,45.518082,101.98724)">
      <rect
         id="rect5253"
         fill="currentColor"
         ry="0.1"
         height="0.2"
         width="1.7410001"
         y="-0.1"
         x="14.2849"
         transform="translate(0.5691,23)" />
      <rect
         id="rect5255"
         fill="currentColor"
         ry="0.1"
         height="0.2"
         width="1.7410001"
         y="-0.1"
         x="14.2849"
         transform="translate(0.5691,24)" />
      <rect
         id="rect5257"
         fill="currentColor"
         ry="0.1"
         height="0.2"
         width="1.7410001"
         y="-0.1"
         x="11.8282"
         transform="translate(0.5691,23)" />
      <rect
         id="rect5259"
         fill="currentColor"
         ry="0.1"
         height="0.2"
         width="1.7410001"
         y="-0.1"
         x="11.8282"
         transform="translate(0.5691,24)" />
      <rect
         id="rect5261"
         fill="currentColor"
         ry="0.1"
         height="0.2"
         width="1.7410001"
         y="-0.1"
         x="9.3715"
         transform="translate(0.5691,23)" />
      <rect
         id="rect5263"
         fill="currentColor"
         ry="0.1"
         height="0.2"
         width="1.7410001"
         y="-0.1"
         x="9.3715"
         transform="translate(0.5691,24)" />
      <rect
         id="rect5265"
         fill="currentColor"
         ry="0.1"
         height="0.2"
         width="1.7410001"
         y="-0.1"
         x="6.9148002"
         transform="translate(0.5691,23)" />
      <rect
         id="rect5267"
         fill="currentColor"
         ry="0.1"
         height="0.2"
         width="1.7410001"
         y="-0.1"
         x="6.9148002"
         transform="translate(0.5691,24)" />
      <rect
         id="rect5289"
         fill="currentColor"
         ry="0.039999999"
         height="6.3401999"
         width="0.13"
         y="-2"
         x="-0.064999998"
         transform="translate(13.7831,20)" />
      <a
         id="a5293"
         xlink:href="textedit:///Users/jwy/Documents/GitHub/sf004/public/pieces/sf004/notation/notes04.ly:142:16:17"
         style="color:inherit">
        <path
           id="path5291"
           fill="currentColor"
           d="m 215,137 c 57,0 111,-29 111,-92 0,-71 -54,-120 -101,-148 -35,-21 -74,-34 -114,-34 -57,0 -111,29 -111,92 0,71 54,120 101,148 35,21 74,34 114,34 z"
           transform="matrix(0.0036,0,0,-0.0036,12.6874,24.5)" />
      </a>
      <rect
         id="rect5295"
         fill="currentColor"
         ry="0.039999999"
         height="6.3401999"
         width="0.13"
         y="-2"
         x="-0.064999998"
         transform="translate(11.3264,20)" />
      <a
         id="a5299"
         xlink:href="textedit:///Users/jwy/Documents/GitHub/sf004/public/pieces/sf004/notation/notes04.ly:142:14:15"
         style="color:inherit">
        <path
           id="path5297"
           fill="currentColor"
           d="m 215,137 c 57,0 111,-29 111,-92 0,-71 -54,-120 -101,-148 -35,-21 -74,-34 -114,-34 -57,0 -111,29 -111,92 0,71 54,120 101,148 35,21 74,34 114,34 z"
           transform="matrix(0.0036,0,0,-0.0036,10.2307,24.5)" />
      </a>
      <rect
         id="rect5301"
         fill="currentColor"
         ry="0.039999999"
         height="6.3401999"
         width="0.13"
         y="-2"
         x="-0.064999998"
         transform="translate(8.8697,20)" />
      <a
         id="a5305"
         xlink:href="textedit:///Users/jwy/Documents/GitHub/sf004/public/pieces/sf004/notation/notes04.ly:142:10:11"
         style="color:inherit">
        <path
           id="path5303"
           fill="currentColor"
           d="m 215,137 c 57,0 111,-29 111,-92 0,-71 -54,-120 -101,-148 -35,-21 -74,-34 -114,-34 -57,0 -111,29 -111,92 0,71 54,120 101,148 35,21 74,34 114,34 z"
           transform="matrix(0.0036,0,0,-0.0036,7.7741,24.5)" />
      </a>
      <polygon
         id="polygon5379"
         points="0.04,-0.2 7.46,-0.2 7.46,0.2 0.04,0.2 "
         stroke="currentColor"
         fill="currentColor"
         stroke-width="0.08"
         stroke-linecap="round"
         stroke-linejoin="round"
         transform="translate(8.8047,18)" />
      <polygon
         id="polygon5381"
         points="0.04,-0.2 7.46,-0.2 7.46,0.2 0.04,0.2 "
         stroke="currentColor"
         fill="currentColor"
         stroke-width="0.08"
         stroke-linecap="round"
         stroke-linejoin="round"
         transform="translate(8.8047,18.81)" />
      <rect
         id="rect5507"
         fill="currentColor"
         ry="0.039999999"
         height="6.3401999"
         width="0.13"
         y="-2"
         x="-0.064999998"
         transform="translate(16.2398,20)" />
      <a
         id="a5511"
         xlink:href="textedit:///Users/jwy/Documents/GitHub/sf004/public/pieces/sf004/notation/notes04.ly:142:18:19"
         style="color:inherit">
        <path
           id="path5509"
           fill="currentColor"
           d="m 215,137 c 57,0 111,-29 111,-92 0,-71 -54,-120 -101,-148 -35,-21 -74,-34 -114,-34 -57,0 -111,29 -111,92 0,71 54,120 101,148 35,21 74,34 114,34 z"
           transform="matrix(0.0036,0,0,-0.0036,15.1441,24.5)" />
      </a>
    </g>
  </g>
</svg>
