<?xml version="1.0" encoding="UTF-8" standalone="no"?>
<svg
   xmlns:dc="http://purl.org/dc/elements/1.1/"
   xmlns:cc="http://creativecommons.org/ns#"
   xmlns:rdf="http://www.w3.org/1999/02/22-rdf-syntax-ns#"
   xmlns:svg="http://www.w3.org/2000/svg"
   xmlns="http://www.w3.org/2000/svg"
   xmlns:xlink="http://www.w3.org/1999/xlink"
   id="svg4371"
   version="1.1"
   viewBox="0 0 19.103601 17.454744"
   height="17.454744mm"
   width="19.103601mm">
  <defs
     id="defs4365" />
  <metadata
     id="metadata4368">
    <rdf:RDF>
      <cc:Work
         rdf:about="">
        <dc:format>image/svg+xml</dc:format>
        <dc:type
           rdf:resource="http://purl.org/dc/dcmitype/StillImage" />
        <dc:title></dc:title>
      </cc:Work>
    </rdf:RDF>
  </metadata>
  <g
     transform="translate(-96.281532,-139.43929)"
     id="layer1">
    <g
       transform="matrix(1.7572994,0,0,1.7572994,87.637201,84.844763)"
       id="g5887">
      <rect
         id="rect5679"
         fill="currentColor"
         ry="0.1"
         height="0.2"
         width="1.7410001"
         y="-0.1"
         x="13.48"
         transform="translate(0.5691,38)" />
      <rect
         id="rect5681"
         fill="currentColor"
         ry="0.1"
         height="0.2"
         width="1.7410001"
         y="-0.1"
         x="13.48"
         transform="translate(0.5691,39)" />
      <rect
         id="rect5683"
         fill="currentColor"
         ry="0.1"
         height="0.2"
         width="1.7410001"
         y="-0.1"
         x="11.4875"
         transform="translate(0.5691,38)" />
      <rect
         id="rect5685"
         fill="currentColor"
         ry="0.1"
         height="0.2"
         width="1.7410001"
         y="-0.1"
         x="11.4875"
         transform="translate(0.5691,39)" />
      <rect
         id="rect5687"
         fill="currentColor"
         ry="0.1"
         height="0.2"
         width="1.7410001"
         y="-0.1"
         x="9.4948997"
         transform="translate(0.5691,38)" />
      <rect
         id="rect5689"
         fill="currentColor"
         ry="0.1"
         height="0.2"
         width="1.7410001"
         y="-0.1"
         x="9.4948997"
         transform="translate(0.5691,39)" />
      <rect
         id="rect5691"
         fill="currentColor"
         ry="0.1"
         height="0.2"
         width="1.7410001"
         y="-0.1"
         x="7.5023999"
         transform="translate(0.5691,38)" />
      <rect
         id="rect5693"
         fill="currentColor"
         ry="0.1"
         height="0.2"
         width="1.7410001"
         y="-0.1"
         x="7.5023999"
         transform="translate(0.5691,39)" />
      <rect
         id="rect5695"
         fill="currentColor"
         ry="0.1"
         height="0.2"
         width="1.7410001"
         y="-0.1"
         x="5.5098"
         transform="translate(0.5691,38)" />
      <rect
         id="rect5697"
         fill="currentColor"
         ry="0.1"
         height="0.2"
         width="1.6258"
         y="-0.1"
         x="5.625"
         transform="translate(0.5691,39)" />
      <a
         id="a5701"
         xlink:href="textedit:///Users/jwy/Documents/GitHub/sf004/public/pieces/sf004/notation/notes04.ly:152:38:39"
         style="color:inherit">
        <path
           id="path5699"
           fill="currentColor"
           d="m 215,137 c 57,0 111,-29 111,-92 0,-71 -54,-120 -101,-148 -35,-21 -74,-34 -114,-34 -57,0 -111,29 -111,92 0,71 54,120 101,148 35,21 74,34 114,34 z"
           transform="matrix(0.0036,0,0,-0.0036,12.3467,39.5)" />
      </a>
      <rect
         id="rect5703"
         fill="currentColor"
         ry="0.039999999"
         height="6.3401999"
         width="0.13"
         y="-2"
         x="-0.064999998"
         transform="translate(13.4424,35)" />
      <a
         id="a5707"
         xlink:href="textedit:///Users/jwy/Documents/GitHub/sf004/public/pieces/sf004/notation/notes04.ly:152:24:25"
         style="color:inherit">
        <path
           id="path5705"
           fill="currentColor"
           d="m 215,137 c 57,0 111,-29 111,-92 0,-71 -54,-120 -101,-148 -35,-21 -74,-34 -114,-34 -57,0 -111,29 -111,92 0,71 54,120 101,148 35,21 74,34 114,34 z"
           transform="matrix(0.0036,0,0,-0.0036,6.3691,39.5)" />
      </a>
      <a
         id="a5711"
         xlink:href="textedit:///Users/jwy/Documents/GitHub/sf004/public/pieces/sf004/notation/notes04.ly:152:34:35"
         style="color:inherit">
        <path
           id="path5709"
           fill="currentColor"
           d="m 215,137 c 57,0 111,-29 111,-92 0,-71 -54,-120 -101,-148 -35,-21 -74,-34 -114,-34 -57,0 -111,29 -111,92 0,71 54,120 101,148 35,21 74,34 114,34 z"
           transform="matrix(0.0036,0,0,-0.0036,10.3542,39.5)" />
      </a>
      <rect
         id="rect5713"
         fill="currentColor"
         ry="0.039999999"
         height="6.3401999"
         width="0.13"
         y="-2"
         x="-0.064999998"
         transform="translate(7.4647,35)" />
      <rect
         id="rect5715"
         fill="currentColor"
         ry="0.039999999"
         height="6.3401999"
         width="0.13"
         y="-2"
         x="-0.064999998"
         transform="translate(11.4498,35)" />
      <a
         id="a5725"
         xlink:href="textedit:///Users/jwy/Documents/GitHub/sf004/public/pieces/sf004/notation/notes04.ly:152:11:12"
         style="color:inherit">
        <line
           id="line5717"
           y2="0.69999999"
           x2="8.3002005"
           y1="0"
           x1="8.3002005"
           stroke="currentColor"
           stroke-width="0.16"
           stroke-linecap="round"
           stroke-linejoin="round"
           transform="translate(7.3997,31.66)" />
        <line
           id="line5719"
           y2="0.69999999"
           x2="-0.2"
           y1="0"
           x1="-0.2"
           stroke="currentColor"
           stroke-width="0.16"
           stroke-linecap="round"
           stroke-linejoin="round"
           transform="translate(7.3997,31.66)" />
        <line
           id="line5721"
           y2="0"
           x2="5.0939999"
           y1="0"
           x1="8.3002005"
           stroke="currentColor"
           stroke-width="0.16"
           stroke-linecap="round"
           stroke-linejoin="round"
           transform="translate(7.3997,31.66)" />
        <line
           id="line5723"
           y2="0"
           x2="3.2061999"
           y1="0"
           x1="-0.2"
           stroke="currentColor"
           stroke-width="0.16"
           stroke-linecap="round"
           stroke-linejoin="round"
           transform="translate(7.3997,31.66)" />
      </a>
      <a
         id="a5731"
         xlink:href="textedit:///Users/jwy/Documents/GitHub/sf004/public/pieces/sf004/notation/notes04.ly:152:11:12"
         style="color:inherit">
        <text
           id="text5729"
           fill="currentColor"
           text-anchor="start"
           font-size="1.7461px"
           font-style="italic"
           font-family="serif"
           transform="translate(11.006,32.2234)"><tspan
             id="tspan5727">5</tspan></text>
      </a>
      <polygon
         id="polygon5733"
         points="8.0602,0.2 0.04,0.2 0.04,-0.2 8.0602,-0.2 "
         stroke="currentColor"
         fill="currentColor"
         stroke-width="0.08"
         stroke-linecap="round"
         stroke-linejoin="round"
         transform="translate(7.3997,33)" />
      <polygon
         id="polygon5735"
         points="8.0602,0.2 0.04,0.2 0.04,-0.2 8.0602,-0.2 "
         stroke="currentColor"
         fill="currentColor"
         stroke-width="0.08"
         stroke-linecap="round"
         stroke-linejoin="round"
         transform="translate(7.3997,33.81)" />
      <a
         id="a5757"
         xlink:href="textedit:///Users/jwy/Documents/GitHub/sf004/public/pieces/sf004/notation/notes04.ly:152:30:31"
         style="color:inherit">
        <path
           id="path5755"
           fill="currentColor"
           d="m 215,137 c 57,0 111,-29 111,-92 0,-71 -54,-120 -101,-148 -35,-21 -74,-34 -114,-34 -57,0 -111,29 -111,92 0,71 54,120 101,148 35,21 74,34 114,34 z"
           transform="matrix(0.0036,0,0,-0.0036,8.3616,39.5)" />
      </a>
      <rect
         id="rect5759"
         fill="currentColor"
         ry="0.039999999"
         height="6.3401999"
         width="0.13"
         y="-2"
         x="-0.064999998"
         transform="translate(15.4349,35)" />
      <a
         id="a5763"
         xlink:href="textedit:///Users/jwy/Documents/GitHub/sf004/public/pieces/sf004/notation/notes04.ly:152:42:43"
         style="color:inherit">
        <path
           id="path5761"
           fill="currentColor"
           d="m 215,137 c 57,0 111,-29 111,-92 0,-71 -54,-120 -101,-148 -35,-21 -74,-34 -114,-34 -57,0 -111,29 -111,92 0,71 54,120 101,148 35,21 74,34 114,34 z"
           transform="matrix(0.0036,0,0,-0.0036,14.3393,39.5)" />
      </a>
      <path
         id="path5765"
         fill="currentColor"
         d="m 216,-312 c 0,-10 -8,-19 -18,-19 -10,0 -19,9 -19,19 v 145 l -83,-31 v -158 c 0,-10 -9,-19 -19,-19 -10,0 -18,9 -18,19 v 145 l -32,-12 c -2,-1 -5,-1 -7,-1 -11,0 -20,9 -20,20 v 60 c 0,8 5,16 13,19 l 46,16 V 51 L 27,40 C 25,39 22,39 20,39 9,39 0,48 0,59 v 60 c 0,8 5,15 13,18 l 46,17 v 158 c 0,10 8,19 18,19 10,0 19,-9 19,-19 V 167 l 83,31 v 158 c 0,10 9,19 19,19 10,0 18,-9 18,-19 V 211 l 32,12 c 2,1 5,1 7,1 11,0 20,-9 20,-20 v -60 c 0,-8 -5,-16 -13,-19 L 216,109 V -51 l 32,11 c 2,1 5,1 7,1 11,0 20,-9 20,-20 v -60 c 0,-8 -5,-15 -13,-18 l -46,-17 z M 96,65 V -95 l 83,30 V 95 Z"
         transform="matrix(0.004,0,0,-0.004,4.9191,39.5)" />
      <rect
         id="rect5781"
         fill="currentColor"
         ry="0.039999999"
         height="6.3401999"
         width="0.13"
         y="-2"
         x="-0.064999998"
         transform="translate(9.4573,35)" />
    </g>
  </g>
</svg>
