<?xml version="1.0" encoding="UTF-8" standalone="no"?>
<svg
   xmlns:dc="http://purl.org/dc/elements/1.1/"
   xmlns:cc="http://creativecommons.org/ns#"
   xmlns:rdf="http://www.w3.org/1999/02/22-rdf-syntax-ns#"
   xmlns:svg="http://www.w3.org/2000/svg"
   xmlns="http://www.w3.org/2000/svg"
   xmlns:xlink="http://www.w3.org/1999/xlink"
   id="svg3805"
   version="1.1"
   viewBox="0 0 18.839304 17.999506"
   height="17.999506mm"
   width="18.839304mm">
  <defs
     id="defs3799" />
  <metadata
     id="metadata3802">
    <rdf:RDF>
      <cc:Work
         rdf:about="">
        <dc:format>image/svg+xml</dc:format>
        <dc:type
           rdf:resource="http://purl.org/dc/dcmitype/StillImage" />
        <dc:title></dc:title>
      </cc:Work>
    </rdf:RDF>
  </metadata>
  <g
     transform="translate(-71.210581,-153.036)"
     id="layer1">
    <g
       id="g6056"
       transform="matrix(1.7572994,0,0,1.7572994,-33.2505,127.98167)">
      <rect
         id="rect5217"
         fill="currentColor"
         ry="0.1"
         height="0.2"
         width="1.691"
         y="-0.1"
         x="67.864799"
         transform="translate(0.5691,23)" />
      <rect
         id="rect5219"
         fill="currentColor"
         ry="0.1"
         height="0.2"
         width="1.7410001"
         y="-0.1"
         x="65.907303"
         transform="translate(0.5691,23)" />
      <rect
         id="rect5221"
         fill="currentColor"
         ry="0.1"
         height="0.2"
         width="1.7410001"
         y="-0.1"
         x="63.949902"
         transform="translate(0.5691,23)" />
      <rect
         id="rect5223"
         fill="currentColor"
         ry="0.1"
         height="0.2"
         width="1.7410001"
         y="-0.1"
         x="61.992401"
         transform="translate(0.5691,23)" />
      <rect
         id="rect5225"
         fill="currentColor"
         ry="0.1"
         height="0.2"
         width="1.6258"
         y="-0.1"
         x="60.150101"
         transform="translate(0.5691,23)" />
      <a
         id="a5445"
         xlink:href="textedit:///Users/jwy/Documents/GitHub/sf004/public/pieces/sf004/notation/notes04.ly:148:11:12"
         style="color:inherit">
        <line
           id="line5437"
           y2="0.69999999"
           x2="8.1598997"
           y1="0"
           x1="8.1598997"
           stroke="currentColor"
           stroke-width="0.16"
           stroke-linecap="round"
           stroke-linejoin="round"
           transform="translate(61.9248,14.85)" />
        <line
           id="line5439"
           y2="0.69999999"
           x2="-0.2"
           y1="0"
           x1="-0.2"
           stroke="currentColor"
           stroke-width="0.16"
           stroke-linecap="round"
           stroke-linejoin="round"
           transform="translate(61.9248,14.85)" />
        <line
           id="line5441"
           y2="0"
           x2="5.0237999"
           y1="0"
           x1="8.1598997"
           stroke="currentColor"
           stroke-width="0.16"
           stroke-linecap="round"
           stroke-linejoin="round"
           transform="translate(61.9248,14.85)" />
        <line
           id="line5443"
           y2="0"
           x2="3.1361001"
           y1="0"
           x1="-0.2"
           stroke="currentColor"
           stroke-width="0.16"
           stroke-linecap="round"
           stroke-linejoin="round"
           transform="translate(61.9248,14.85)" />
      </a>
      <a
         id="a5451"
         xlink:href="textedit:///Users/jwy/Documents/GitHub/sf004/public/pieces/sf004/notation/notes04.ly:148:11:12"
         style="color:inherit">
        <text
           id="text5449"
           fill="currentColor"
           text-anchor="start"
           font-size="1.7461px"
           font-style="italic"
           font-family="serif"
           transform="translate(65.4609,15.4134)"><tspan
             id="tspan5447">5</tspan></text>
      </a>
      <polygon
         id="polygon5473"
         points="0.04,-0.2 7.9199,-0.2 7.9199,0.2 0.04,0.2 "
         stroke="currentColor"
         fill="currentColor"
         stroke-width="0.08"
         stroke-linecap="round"
         stroke-linejoin="round"
         transform="translate(61.9248,16.19)" />
      <polygon
         id="polygon5475"
         points="0.04,-0.2 7.9199,-0.2 7.9199,0.2 0.04,0.2 "
         stroke="currentColor"
         fill="currentColor"
         stroke-width="0.08"
         stroke-linecap="round"
         stroke-linejoin="round"
         transform="translate(61.9248,17)" />
      <a
         id="a5591"
         xlink:href="textedit:///Users/jwy/Documents/GitHub/sf004/public/pieces/sf004/notation/notes04.ly:148:36:37"
         style="color:inherit">
        <path
           id="path5589"
           fill="currentColor"
           d="m 215,137 c 57,0 111,-29 111,-92 0,-71 -54,-120 -101,-148 -35,-21 -74,-34 -114,-34 -57,0 -111,29 -111,92 0,71 54,120 101,148 35,21 74,34 114,34 z"
           transform="matrix(0.0036,0,0,-0.0036,64.8091,23)" />
      </a>
      <rect
         id="rect5593"
         fill="currentColor"
         ry="0.039999999"
         height="6.6501999"
         width="0.13"
         y="-3.8099999"
         x="-0.064999998"
         transform="translate(67.8622,20)" />
      <a
         id="a5597"
         xlink:href="textedit:///Users/jwy/Documents/GitHub/sf004/public/pieces/sf004/notation/notes04.ly:148:41:42"
         style="color:inherit">
        <path
           id="path5595"
           fill="currentColor"
           d="m 215,137 c 57,0 111,-29 111,-92 0,-71 -54,-120 -101,-148 -35,-21 -74,-34 -114,-34 -57,0 -111,29 -111,92 0,71 54,120 101,148 35,21 74,34 114,34 z"
           transform="matrix(0.0036,0,0,-0.0036,66.7666,23)" />
      </a>
      <rect
         id="rect5599"
         fill="currentColor"
         ry="0.039999999"
         height="6.6501999"
         width="0.13"
         y="-3.8099999"
         x="-0.064999998"
         transform="translate(65.9048,20)" />
      <rect
         id="rect5601"
         fill="currentColor"
         ry="0.039999999"
         height="6.6501999"
         width="0.13"
         y="-3.8099999"
         x="-0.064999998"
         transform="translate(63.9473,20)" />
      <a
         id="a5605"
         xlink:href="textedit:///Users/jwy/Documents/GitHub/sf004/public/pieces/sf004/notation/notes04.ly:148:31:32"
         style="color:inherit">
        <path
           id="path5603"
           fill="currentColor"
           d="m 215,137 c 57,0 111,-29 111,-92 0,-71 -54,-120 -101,-148 -35,-21 -74,-34 -114,-34 -57,0 -111,29 -111,92 0,71 54,120 101,148 35,21 74,34 114,34 z"
           transform="matrix(0.0036,0,0,-0.0036,62.8516,23)" />
      </a>
      <path
         id="path5607"
         fill="currentColor"
         d="m 216,-312 c 0,-10 -8,-19 -18,-19 -10,0 -19,9 -19,19 v 145 l -83,-31 v -158 c 0,-10 -9,-19 -19,-19 -10,0 -18,9 -18,19 v 145 l -32,-12 c -2,-1 -5,-1 -7,-1 -11,0 -20,9 -20,20 v 60 c 0,8 5,16 13,19 l 46,16 V 51 L 27,40 C 25,39 22,39 20,39 9,39 0,48 0,59 v 60 c 0,8 5,15 13,18 l 46,17 v 158 c 0,10 8,19 18,19 10,0 19,-9 19,-19 V 167 l 83,31 v 158 c 0,10 9,19 19,19 10,0 18,-9 18,-19 V 211 l 32,12 c 2,1 5,1 7,1 11,0 20,-9 20,-20 v -60 c 0,-8 -5,-16 -13,-19 L 216,109 V -51 l 32,11 c 2,1 5,1 7,1 11,0 20,-9 20,-20 v -60 c 0,-8 -5,-15 -13,-18 l -46,-17 z M 96,65 V -95 l 83,30 V 95 Z"
         transform="matrix(0.004,0,0,-0.004,59.4441,23)" />
      <rect
         id="rect5621"
         fill="currentColor"
         ry="0.039999999"
         height="6.6501999"
         width="0.13"
         y="-3.8099999"
         x="-0.064999998"
         transform="translate(69.8197,20)" />
      <a
         id="a5625"
         xlink:href="textedit:///Users/jwy/Documents/GitHub/sf004/public/pieces/sf004/notation/notes04.ly:148:46:47"
         style="color:inherit">
        <path
           id="path5623"
           fill="currentColor"
           d="m 215,137 c 57,0 111,-29 111,-92 0,-71 -54,-120 -101,-148 -35,-21 -74,-34 -114,-34 -57,0 -111,29 -111,92 0,71 54,120 101,148 35,21 74,34 114,34 z"
           transform="matrix(0.0036,0,0,-0.0036,68.724,23)" />
      </a>
      <a
         id="a5641"
         xlink:href="textedit:///Users/jwy/Documents/GitHub/sf004/public/pieces/sf004/notation/notes04.ly:148:24:25"
         style="color:inherit">
        <path
           id="path5639"
           fill="currentColor"
           d="m 215,137 c 57,0 111,-29 111,-92 0,-71 -54,-120 -101,-148 -35,-21 -74,-34 -114,-34 -57,0 -111,29 -111,92 0,71 54,120 101,148 35,21 74,34 114,34 z"
           transform="matrix(0.0036,0,0,-0.0036,60.8941,23)" />
      </a>
      <rect
         id="rect5643"
         fill="currentColor"
         ry="0.039999999"
         height="6.6501999"
         width="0.13"
         y="-3.8099999"
         x="-0.064999998"
         transform="translate(61.9898,20)" />
    </g>
  </g>
</svg>
