<?xml version="1.0" encoding="UTF-8" standalone="no"?>
<svg
   xmlns:dc="http://purl.org/dc/elements/1.1/"
   xmlns:cc="http://creativecommons.org/ns#"
   xmlns:rdf="http://www.w3.org/1999/02/22-rdf-syntax-ns#"
   xmlns:svg="http://www.w3.org/2000/svg"
   xmlns="http://www.w3.org/2000/svg"
   xmlns:xlink="http://www.w3.org/1999/xlink"
   id="svg3640"
   version="1.1"
   viewBox="0 0 16.81876 16.230257"
   height="16.230257mm"
   width="16.81876mm">
  <defs
     id="defs3634" />
  <metadata
     id="metadata3637">
    <rdf:RDF>
      <cc:Work
         rdf:about="">
        <dc:format>image/svg+xml</dc:format>
        <dc:type
           rdf:resource="http://purl.org/dc/dcmitype/StillImage" />
        <dc:title></dc:title>
      </cc:Work>
    </rdf:RDF>
  </metadata>
  <g
     transform="translate(-124.94062,-181.83109)"
     id="layer1">
    <g
       id="g6023"
       transform="matrix(1.7572994,0,0,1.7572994,37.49125,156.77676)">
      <rect
         id="rect5227"
         fill="currentColor"
         ry="0.1"
         height="0.2"
         width="1.7410001"
         y="-0.1"
         x="57.0242"
         transform="translate(0.5691,23)" />
      <rect
         id="rect5229"
         fill="currentColor"
         ry="0.1"
         height="0.2"
         width="1.7410001"
         y="-0.1"
         x="55.066799"
         transform="translate(0.5691,23)" />
      <rect
         id="rect5231"
         fill="currentColor"
         ry="0.1"
         height="0.2"
         width="1.7410001"
         y="-0.1"
         x="53.109299"
         transform="translate(0.5691,23)" />
      <rect
         id="rect5233"
         fill="currentColor"
         ry="0.1"
         height="0.2"
         width="1.7410001"
         y="-0.1"
         x="51.151798"
         transform="translate(0.5691,23)" />
      <rect
         id="rect5235"
         fill="currentColor"
         ry="0.1"
         height="0.2"
         width="1.7410001"
         y="-0.1"
         x="49.194401"
         transform="translate(0.5691,23)" />
      <a
         id="a5377"
         xlink:href="textedit:///Users/jwy/Documents/GitHub/sf004/public/pieces/sf004/notation/notes04.ly:147:11:12"
         style="color:inherit">
        <text
           id="text5375"
           fill="currentColor"
           text-anchor="start"
           font-size="1.7461px"
           font-style="italic"
           font-family="serif"
           transform="translate(54.6203,15.4134)"><tspan
             id="tspan5373">5</tspan></text>
      </a>
      <a
         id="a5435"
         xlink:href="textedit:///Users/jwy/Documents/GitHub/sf004/public/pieces/sf004/notation/notes04.ly:147:11:12"
         style="color:inherit">
        <line
           id="line5427"
           y2="0.69999999"
           x2="8.1598997"
           y1="0"
           x1="8.1598997"
           stroke="currentColor"
           stroke-width="0.16"
           stroke-linecap="round"
           stroke-linejoin="round"
           transform="translate(51.0842,14.85)" />
        <line
           id="line5429"
           y2="0.69999999"
           x2="-0.2"
           y1="0"
           x1="-0.2"
           stroke="currentColor"
           stroke-width="0.16"
           stroke-linecap="round"
           stroke-linejoin="round"
           transform="translate(51.0842,14.85)" />
        <line
           id="line5431"
           y2="0"
           x2="5.0237999"
           y1="0"
           x1="8.1598997"
           stroke="currentColor"
           stroke-width="0.16"
           stroke-linecap="round"
           stroke-linejoin="round"
           transform="translate(51.0842,14.85)" />
        <line
           id="line5433"
           y2="0"
           x2="3.1361001"
           y1="0"
           x1="-0.2"
           stroke="currentColor"
           stroke-width="0.16"
           stroke-linecap="round"
           stroke-linejoin="round"
           transform="translate(51.0842,14.85)" />
      </a>
      <polygon
         id="polygon5453"
         points="0.04,-0.2 7.9199,-0.2 7.9199,0.2 0.04,0.2 "
         stroke="currentColor"
         fill="currentColor"
         stroke-width="0.08"
         stroke-linecap="round"
         stroke-linejoin="round"
         transform="translate(51.0842,16.19)" />
      <polygon
         id="polygon5455"
         points="0.04,-0.2 7.9199,-0.2 7.9199,0.2 0.04,0.2 "
         stroke="currentColor"
         fill="currentColor"
         stroke-width="0.08"
         stroke-linecap="round"
         stroke-linejoin="round"
         transform="translate(51.0842,17)" />
      <rect
         id="rect5533"
         fill="currentColor"
         ry="0.039999999"
         height="6.6501999"
         width="0.13"
         y="-3.8099999"
         x="-0.064999998"
         transform="translate(51.1492,20)" />
      <a
         id="a5537"
         xlink:href="textedit:///Users/jwy/Documents/GitHub/sf004/public/pieces/sf004/notation/notes04.ly:147:24:25"
         style="color:inherit">
        <path
           id="path5535"
           fill="currentColor"
           d="m 215,137 c 57,0 111,-29 111,-92 0,-71 -54,-120 -101,-148 -35,-21 -74,-34 -114,-34 -57,0 -111,29 -111,92 0,71 54,120 101,148 35,21 74,34 114,34 z"
           transform="matrix(0.0036,0,0,-0.0036,50.0536,23)" />
      </a>
      <rect
         id="rect5549"
         fill="currentColor"
         ry="0.039999999"
         height="6.6501999"
         width="0.13"
         y="-3.8099999"
         x="-0.064999998"
         transform="translate(55.0642,20)" />
      <a
         id="a5553"
         xlink:href="textedit:///Users/jwy/Documents/GitHub/sf004/public/pieces/sf004/notation/notes04.ly:147:32:33"
         style="color:inherit">
        <path
           id="path5551"
           fill="currentColor"
           d="m 215,137 c 57,0 111,-29 111,-92 0,-71 -54,-120 -101,-148 -35,-21 -74,-34 -114,-34 -57,0 -111,29 -111,92 0,71 54,120 101,148 35,21 74,34 114,34 z"
           transform="matrix(0.0036,0,0,-0.0036,53.9685,23)" />
      </a>
      <rect
         id="rect5555"
         fill="currentColor"
         ry="0.039999999"
         height="6.6501999"
         width="0.13"
         y="-3.8099999"
         x="-0.064999998"
         transform="translate(53.1067,20)" />
      <a
         id="a5579"
         xlink:href="textedit:///Users/jwy/Documents/GitHub/sf004/public/pieces/sf004/notation/notes04.ly:147:29:30"
         style="color:inherit">
        <path
           id="path5577"
           fill="currentColor"
           d="m 215,137 c 57,0 111,-29 111,-92 0,-71 -54,-120 -101,-148 -35,-21 -74,-34 -114,-34 -57,0 -111,29 -111,92 0,71 54,120 101,148 35,21 74,34 114,34 z"
           transform="matrix(0.0036,0,0,-0.0036,52.011,23)" />
      </a>
      <a
         id="a5629"
         xlink:href="textedit:///Users/jwy/Documents/GitHub/sf004/public/pieces/sf004/notation/notes04.ly:147:35:36"
         style="color:inherit">
        <path
           id="path5627"
           fill="currentColor"
           d="m 215,137 c 57,0 111,-29 111,-92 0,-71 -54,-120 -101,-148 -35,-21 -74,-34 -114,-34 -57,0 -111,29 -111,92 0,71 54,120 101,148 35,21 74,34 114,34 z"
           transform="matrix(0.0036,0,0,-0.0036,55.926,23)" />
      </a>
      <rect
         id="rect5631"
         fill="currentColor"
         ry="0.039999999"
         height="6.6501999"
         width="0.13"
         y="-3.8099999"
         x="-0.064999998"
         transform="translate(57.0217,20)" />
      <a
         id="a5635"
         xlink:href="textedit:///Users/jwy/Documents/GitHub/sf004/public/pieces/sf004/notation/notes04.ly:147:38:39"
         style="color:inherit">
        <path
           id="path5633"
           fill="currentColor"
           d="m 215,137 c 57,0 111,-29 111,-92 0,-71 -54,-120 -101,-148 -35,-21 -74,-34 -114,-34 -57,0 -111,29 -111,92 0,71 54,120 101,148 35,21 74,34 114,34 z"
           transform="matrix(0.0036,0,0,-0.0036,57.8835,23)" />
      </a>
      <rect
         id="rect5637"
         fill="currentColor"
         ry="0.039999999"
         height="6.6501999"
         width="0.13"
         y="-3.8099999"
         x="-0.064999998"
         transform="translate(58.9791,20)" />
    </g>
  </g>
</svg>
