<?xml version="1.0" encoding="UTF-8" standalone="no"?>
<svg
   xmlns:dc="http://purl.org/dc/elements/1.1/"
   xmlns:cc="http://creativecommons.org/ns#"
   xmlns:rdf="http://www.w3.org/1999/02/22-rdf-syntax-ns#"
   xmlns:svg="http://www.w3.org/2000/svg"
   xmlns="http://www.w3.org/2000/svg"
   xmlns:xlink="http://www.w3.org/1999/xlink"
   id="svg7992"
   version="1.1"
   viewBox="0 0 14.730563 16.031458"
   height="16.031458mm"
   width="14.730563mm">
  <defs
     id="defs7986" />
  <metadata
     id="metadata7989">
    <rdf:RDF>
      <cc:Work
         rdf:about="">
        <dc:format>image/svg+xml</dc:format>
        <dc:type
           rdf:resource="http://purl.org/dc/dcmitype/StillImage" />
        <dc:title></dc:title>
      </cc:Work>
    </rdf:RDF>
  </metadata>
  <g
     transform="translate(73.264991,-203.63863)"
     id="layer1">
    <g
       id="g3772"
       transform="matrix(1.7572994,0,0,1.7572994,-90.771559,-40.080253)">
      <rect
         style="stroke-width:1"
         x="16.603701"
         y="145.71904"
         width="1.7410002"
         height="0.20000002"
         ry="0.10000001"
         fill="currentColor"
         id="rect2266" />
      <rect
         style="stroke-width:1"
         x="16.603701"
         y="146.71904"
         width="1.7410002"
         height="0.20000002"
         ry="0.10000001"
         fill="currentColor"
         id="rect2268" />
      <rect
         style="stroke-width:1"
         x="13.282901"
         y="145.71904"
         width="1.7410002"
         height="0.20000002"
         ry="0.10000001"
         fill="currentColor"
         id="rect2270" />
      <rect
         style="stroke-width:1"
         x="13.282901"
         y="146.71904"
         width="1.7410002"
         height="0.20000002"
         ry="0.10000001"
         fill="currentColor"
         id="rect2272" />
      <rect
         style="stroke-width:1"
         x="9.9622002"
         y="145.71904"
         width="1.7410002"
         height="0.20000002"
         ry="0.10000001"
         fill="currentColor"
         id="rect2274" />
      <rect
         style="stroke-width:1"
         x="9.9622002"
         y="146.71904"
         width="1.7410002"
         height="0.20000002"
         ry="0.10000001"
         fill="currentColor"
         id="rect2276" />
      <a
         transform="translate(-6.0789006,107.81903)"
         style="color:inherit"
         xlink:href="textedit:///Users/jwy/Documents/GitHub/sf004/public/pieces/sf004/notation/notes03.ly:132:28:29"
         id="a2334">
        <path
           transform="matrix(0.0036,0,0,-0.0036,22.9727,39.5)"
           d="m 215,137 c 57,0 111,-29 111,-92 0,-71 -54,-120 -101,-148 -35,-21 -74,-34 -114,-34 -57,0 -111,29 -111,92 0,71 54,120 101,148 35,21 74,34 114,34 z"
           fill="currentColor"
           id="path2332" />
      </a>
      <a
         transform="translate(-6.0789006,107.81903)"
         style="color:inherit"
         xlink:href="textedit:///Users/jwy/Documents/GitHub/sf004/public/pieces/sf004/notation/notes03.ly:132:23:24"
         id="a2338">
        <path
           transform="matrix(0.0036,0,0,-0.0036,16.3312,39.5)"
           d="m 215,137 c 57,0 111,-29 111,-92 0,-71 -54,-120 -101,-148 -35,-21 -74,-34 -114,-34 -57,0 -111,29 -111,92 0,71 54,120 101,148 35,21 74,34 114,34 z"
           fill="currentColor"
           id="path2336" />
      </a>
      <rect
         style="stroke-width:1"
         x="11.282999"
         y="140.62903"
         width="0.13"
         height="6.5302005"
         ry="0.039999999"
         fill="currentColor"
         id="rect2340" />
      <a
         transform="translate(-6.0789006,107.81903)"
         style="color:inherit"
         xlink:href="textedit:///Users/jwy/Documents/GitHub/sf004/public/pieces/sf004/notation/notes03.ly:132:26:27"
         id="a2344">
        <path
           transform="matrix(0.0036,0,0,-0.0036,19.652,39.5)"
           d="m 215,137 c 57,0 111,-29 111,-92 0,-71 -54,-120 -101,-148 -35,-21 -74,-34 -114,-34 -57,0 -111,29 -111,92 0,71 54,120 101,148 35,21 74,34 114,34 z"
           fill="currentColor"
           id="path2342" />
      </a>
      <rect
         style="stroke-width:1"
         x="14.603701"
         y="140.62903"
         width="0.13"
         height="6.5302005"
         ry="0.039999999"
         fill="currentColor"
         id="rect2346" />
      <rect
         style="stroke-width:1"
         x="17.9245"
         y="140.62903"
         width="0.13"
         height="6.5302005"
         ry="0.039999999"
         fill="currentColor"
         id="rect2350" />
      <polygon
         transform="translate(11.283,140.62903)"
         stroke-linejoin="round"
         stroke-linecap="round"
         stroke-width="0.08"
         fill="currentColor"
         stroke="currentColor"
         points="0.04,0.2 0.04,-0.2 6.7315,-0.2 6.7315,0.2 "
         id="polygon2396" />
      <a
         transform="translate(-6.0789006,107.81903)"
         style="color:inherit"
         xlink:href="textedit:///Users/jwy/Documents/GitHub/sf004/public/pieces/sf004/notation/notes03.ly:132:10:11"
         id="a2420">
        <text
           transform="translate(20.3038,32.0504)"
           font-family="serif"
           font-style="italic"
           font-size="1.7461px"
           text-anchor="start"
           fill="currentColor"
           id="text2418"><tspan
             id="tspan2416">3</tspan></text>
      </a>
      <a
         transform="translate(-6.0789006,107.81903)"
         style="color:inherit"
         xlink:href="textedit:///Users/jwy/Documents/GitHub/sf004/public/pieces/sf004/notation/notes03.ly:132:10:11"
         id="a2430">
        <line
           transform="translate(17.3619,31.47)"
           stroke-linejoin="round"
           stroke-linecap="round"
           stroke-width="0.16"
           stroke="currentColor"
           x1="6.9714999"
           y1="0"
           x2="6.9714999"
           y2="0.69999999"
           id="line2422" />
        <line
           transform="translate(17.3619,31.47)"
           stroke-linejoin="round"
           stroke-linecap="round"
           stroke-width="0.16"
           stroke="currentColor"
           x1="-0.2"
           y1="0"
           x2="-0.2"
           y2="0.69999999"
           id="line2424" />
        <line
           transform="translate(17.3619,31.47)"
           stroke-linejoin="round"
           stroke-linecap="round"
           stroke-width="0.16"
           stroke="currentColor"
           x1="6.9714999"
           y1="0"
           x2="4.4295998"
           y2="0"
           id="line2426" />
        <line
           transform="translate(17.3619,31.47)"
           stroke-linejoin="round"
           stroke-linecap="round"
           stroke-width="0.16"
           stroke="currentColor"
           x1="-0.2"
           y1="0"
           x2="2.5418999"
           y2="0"
           id="line2428" />
      </a>
    </g>
  </g>
</svg>
