<?xml version="1.0" encoding="UTF-8" standalone="no"?>
<svg
   xmlns:dc="http://purl.org/dc/elements/1.1/"
   xmlns:cc="http://creativecommons.org/ns#"
   xmlns:rdf="http://www.w3.org/1999/02/22-rdf-syntax-ns#"
   xmlns:svg="http://www.w3.org/2000/svg"
   xmlns="http://www.w3.org/2000/svg"
   xmlns:xlink="http://www.w3.org/1999/xlink"
   id="svg7582"
   version="1.1"
   viewBox="0 0 15.034225 16.242334"
   height="16.242334mm"
   width="15.034225mm">
  <defs
     id="defs7576" />
  <metadata
     id="metadata7579">
    <rdf:RDF>
      <cc:Work
         rdf:about="">
        <dc:format>image/svg+xml</dc:format>
        <dc:type
           rdf:resource="http://purl.org/dc/dcmitype/StillImage" />
        <dc:title></dc:title>
      </cc:Work>
    </rdf:RDF>
  </metadata>
  <g
     transform="translate(-98.316221,-140.0455)"
     id="layer1">
    <g
       id="g3597"
       transform="matrix(1.7572994,0,0,1.7572994,-12.793965,-74.467069)">
      <rect
         style="stroke-width:1"
         x="70.042107"
         y="130.71904"
         width="1.7410002"
         height="0.20000002"
         ry="0.10000001"
         fill="currentColor"
         id="rect1954" />
      <rect
         style="stroke-width:1"
         x="66.635002"
         y="130.71904"
         width="1.7410002"
         height="0.20000002"
         ry="0.10000001"
         fill="currentColor"
         id="rect1956" />
      <rect
         style="stroke-width:1"
         x="63.227806"
         y="130.71904"
         width="1.7410002"
         height="0.20000002"
         ry="0.10000001"
         fill="currentColor"
         id="rect1958" />
      <polygon
         transform="translate(64.548602,124.00903)"
         stroke-linejoin="round"
         stroke-linecap="round"
         stroke-width="0.08"
         fill="currentColor"
         stroke="currentColor"
         points="6.9043,0.2 0.04,0.2 0.04,-0.2 6.9043,-0.2 "
         id="polygon2040" />
      <a
         transform="translate(-6.0789006,107.81903)"
         style="color:inherit"
         xlink:href="textedit:///Users/jwy/Documents/GitHub/sf004/public/pieces/sf004/notation/notes03.ly:128:10:11"
         id="a2062">
        <text
           transform="translate(73.6558,15.4304)"
           font-family="serif"
           font-style="italic"
           font-size="1.7461px"
           text-anchor="start"
           fill="currentColor"
           id="text2060"><tspan
             id="tspan2058">3</tspan></text>
      </a>
      <a
         transform="translate(-6.0789006,107.81903)"
         style="color:inherit"
         xlink:href="textedit:///Users/jwy/Documents/GitHub/sf004/public/pieces/sf004/notation/notes03.ly:128:10:11"
         id="a2072">
        <line
           transform="translate(70.6275,14.85)"
           stroke-linejoin="round"
           stroke-linecap="round"
           stroke-width="0.16"
           stroke="currentColor"
           x1="7.1443"
           y1="0"
           x2="7.1443"
           y2="0.69999999"
           id="line2064" />
        <line
           transform="translate(70.6275,14.85)"
           stroke-linejoin="round"
           stroke-linecap="round"
           stroke-width="0.16"
           stroke="currentColor"
           x1="-0.2"
           y1="0"
           x2="-0.2"
           y2="0.69999999"
           id="line2066" />
        <line
           transform="translate(70.6275,14.85)"
           stroke-linejoin="round"
           stroke-linecap="round"
           stroke-width="0.16"
           stroke="currentColor"
           x1="7.1443"
           y1="0"
           x2="4.5159998"
           y2="0"
           id="line2068" />
        <line
           transform="translate(70.6275,14.85)"
           stroke-linejoin="round"
           stroke-linecap="round"
           stroke-width="0.16"
           stroke="currentColor"
           x1="-0.2"
           y1="0"
           x2="2.6283"
           y2="0"
           id="line2070" />
      </a>
      <a
         transform="translate(-6.0789006,107.81903)"
         style="color:inherit"
         xlink:href="textedit:///Users/jwy/Documents/GitHub/sf004/public/pieces/sf004/notation/notes03.ly:128:23:24"
         id="a2164">
        <path
           transform="matrix(0.0036,0,0,-0.0036,69.5968,23)"
           d="m 215,137 c 57,0 111,-29 111,-92 0,-71 -54,-120 -101,-148 -35,-21 -74,-34 -114,-34 -57,0 -111,29 -111,92 0,71 54,120 101,148 35,21 74,34 114,34 z"
           fill="currentColor"
           id="path2162" />
      </a>
      <rect
         style="stroke-width:1"
         x="64.548599"
         y="124.00903"
         width="0.13"
         height="6.6501999"
         ry="0.039999999"
         fill="currentColor"
         id="rect2166" />
      <a
         transform="translate(-6.0789006,107.81903)"
         style="color:inherit"
         xlink:href="textedit:///Users/jwy/Documents/GitHub/sf004/public/pieces/sf004/notation/notes03.ly:128:27:28"
         id="a2196">
        <path
           transform="matrix(0.0036,0,0,-0.0036,73.004,23)"
           d="m 215,137 c 57,0 111,-29 111,-92 0,-71 -54,-120 -101,-148 -35,-21 -74,-34 -114,-34 -57,0 -111,29 -111,92 0,71 54,120 101,148 35,21 74,34 114,34 z"
           fill="currentColor"
           id="path2194" />
      </a>
      <rect
         style="stroke-width:1"
         x="71.362907"
         y="124.00903"
         width="0.13"
         height="6.6501999"
         ry="0.039999999"
         fill="currentColor"
         id="rect2198" />
      <a
         transform="translate(-6.0789006,107.81903)"
         style="color:inherit"
         xlink:href="textedit:///Users/jwy/Documents/GitHub/sf004/public/pieces/sf004/notation/notes03.ly:128:29:30"
         id="a2202">
        <path
           transform="matrix(0.0036,0,0,-0.0036,76.4111,23)"
           d="m 215,137 c 57,0 111,-29 111,-92 0,-71 -54,-120 -101,-148 -35,-21 -74,-34 -114,-34 -57,0 -111,29 -111,92 0,71 54,120 101,148 35,21 74,34 114,34 z"
           fill="currentColor"
           id="path2200" />
      </a>
      <rect
         style="stroke-width:1"
         x="67.955803"
         y="124.00903"
         width="0.13"
         height="6.6501999"
         ry="0.039999999"
         fill="currentColor"
         id="rect2210" />
    </g>
  </g>
</svg>
