<?xml version="1.0" encoding="UTF-8" standalone="no"?>
<svg
   xmlns:dc="http://purl.org/dc/elements/1.1/"
   xmlns:cc="http://creativecommons.org/ns#"
   xmlns:rdf="http://www.w3.org/1999/02/22-rdf-syntax-ns#"
   xmlns:svg="http://www.w3.org/2000/svg"
   xmlns="http://www.w3.org/2000/svg"
   xmlns:xlink="http://www.w3.org/1999/xlink"
   id="svg7361"
   version="1.1"
   viewBox="0 0 14.506507 16.242334"
   height="16.242334mm"
   width="14.506507mm">
  <defs
     id="defs7355" />
  <metadata
     id="metadata7358">
    <rdf:RDF>
      <cc:Work
         rdf:about="">
        <dc:format>image/svg+xml</dc:format>
        <dc:type
           rdf:resource="http://purl.org/dc/dcmitype/StillImage" />
        <dc:title></dc:title>
      </cc:Work>
    </rdf:RDF>
  </metadata>
  <g
     transform="translate(-55.545293,-191.12854)"
     id="layer1">
    <g
       id="g3553"
       transform="matrix(1.7572994,0,0,1.7572994,-20.589702,-21.626727)">
      <a
         transform="translate(-6.0789006,107.81903)"
         style="color:inherit"
         xlink:href="textedit:///Users/jwy/Documents/GitHub/sf004/public/pieces/sf004/notation/notes03.ly:126:27:28"
         id="a2034">
        <path
           transform="matrix(0.0036,0,0,-0.0036,52.811,22)"
           d="m 215,137 c 57,0 111,-29 111,-92 0,-71 -54,-120 -101,-148 -35,-21 -74,-34 -114,-34 -57,0 -111,29 -111,92 0,71 54,120 101,148 35,21 74,34 114,34 z"
           fill="currentColor"
           id="path2032" />
      </a>
      <rect
         style="stroke-width:1"
         x="47.762802"
         y="123.00903"
         width="0.13"
         height="6.6501999"
         ry="0.039999999"
         fill="currentColor"
         id="rect2036" />
      <polygon
         transform="translate(44.355702,123.00903)"
         stroke-linejoin="round"
         stroke-linecap="round"
         stroke-width="0.08"
         fill="currentColor"
         stroke="currentColor"
         points="6.9043,-0.2 6.9043,0.2 0.04,0.2 0.04,-0.2 "
         id="polygon2074" />
      <a
         transform="translate(-6.0789006,107.81903)"
         style="color:inherit"
         xlink:href="textedit:///Users/jwy/Documents/GitHub/sf004/public/pieces/sf004/notation/notes03.ly:126:10:11"
         id="a2096">
        <text
           transform="translate(53.4629,14.4304)"
           font-family="serif"
           font-style="italic"
           font-size="1.7461px"
           text-anchor="start"
           fill="currentColor"
           id="text2094"><tspan
             id="tspan2092">3</tspan></text>
      </a>
      <a
         transform="translate(-6.0789006,107.81903)"
         style="color:inherit"
         xlink:href="textedit:///Users/jwy/Documents/GitHub/sf004/public/pieces/sf004/notation/notes03.ly:126:10:11"
         id="a2106">
        <line
           transform="translate(50.4346,13.85)"
           stroke-linejoin="round"
           stroke-linecap="round"
           stroke-width="0.16"
           stroke="currentColor"
           x1="7.1443"
           y1="0"
           x2="7.1443"
           y2="0.69999999"
           id="line2098" />
        <line
           transform="translate(50.4346,13.85)"
           stroke-linejoin="round"
           stroke-linecap="round"
           stroke-width="0.16"
           stroke="currentColor"
           x1="-0.2"
           y1="0"
           x2="-0.2"
           y2="0.69999999"
           id="line2100" />
        <line
           transform="translate(50.4346,13.85)"
           stroke-linejoin="round"
           stroke-linecap="round"
           stroke-width="0.16"
           stroke="currentColor"
           x1="7.1443"
           y1="0"
           x2="4.5159998"
           y2="0"
           id="line2102" />
        <line
           transform="translate(50.4346,13.85)"
           stroke-linejoin="round"
           stroke-linecap="round"
           stroke-width="0.16"
           stroke="currentColor"
           x1="-0.2"
           y1="0"
           x2="2.6283"
           y2="0"
           id="line2104" />
      </a>
      <a
         transform="translate(-6.0789006,107.81903)"
         style="color:inherit"
         xlink:href="textedit:///Users/jwy/Documents/GitHub/sf004/public/pieces/sf004/notation/notes03.ly:126:23:24"
         id="a2142">
        <path
           transform="matrix(0.0036,0,0,-0.0036,49.4039,22)"
           d="m 215,137 c 57,0 111,-29 111,-92 0,-71 -54,-120 -101,-148 -35,-21 -74,-34 -114,-34 -57,0 -111,29 -111,92 0,71 54,120 101,148 35,21 74,34 114,34 z"
           fill="currentColor"
           id="path2140" />
      </a>
      <rect
         style="stroke-width:1"
         x="44.355701"
         y="123.00903"
         width="0.13"
         height="6.6501999"
         ry="0.039999999"
         fill="currentColor"
         id="rect2144" />
      <a
         transform="translate(-6.0789006,107.81903)"
         style="color:inherit"
         xlink:href="textedit:///Users/jwy/Documents/GitHub/sf004/public/pieces/sf004/notation/notes03.ly:126:29:30"
         id="a2172">
        <path
           transform="matrix(0.0036,0,0,-0.0036,56.2182,22)"
           d="m 215,137 c 57,0 111,-29 111,-92 0,-71 -54,-120 -101,-148 -35,-21 -74,-34 -114,-34 -57,0 -111,29 -111,92 0,71 54,120 101,148 35,21 74,34 114,34 z"
           fill="currentColor"
           id="path2170" />
      </a>
      <rect
         style="stroke-width:1"
         x="51.170002"
         y="123.00903"
         width="0.13"
         height="6.6501999"
         ry="0.039999999"
         fill="currentColor"
         id="rect2174" />
    </g>
  </g>
</svg>
