<?xml version="1.0" encoding="UTF-8" standalone="no"?>
<svg
   xmlns:dc="http://purl.org/dc/elements/1.1/"
   xmlns:cc="http://creativecommons.org/ns#"
   xmlns:rdf="http://www.w3.org/1999/02/22-rdf-syntax-ns#"
   xmlns:svg="http://www.w3.org/2000/svg"
   xmlns="http://www.w3.org/2000/svg"
   xmlns:xlink="http://www.w3.org/1999/xlink"
   id="svg3179"
   version="1.1"
   viewBox="0 0 11.334406 13.044785"
   height="13.044785mm"
   width="11.334406mm">
  <defs
     id="defs3173" />
  <metadata
     id="metadata3176">
    <rdf:RDF>
      <cc:Work
         rdf:about="">
        <dc:format>image/svg+xml</dc:format>
        <dc:type
           rdf:resource="http://purl.org/dc/dcmitype/StillImage" />
        <dc:title></dc:title>
      </cc:Work>
    </rdf:RDF>
  </metadata>
  <g
     transform="translate(-90.468844,-146.98517)"
     id="layer1">
    <g
       transform="matrix(1.7572994,0,0,1.7572994,-11.916164,89.749924)"
       id="g986">
      <rect
         id="rect700"
         fill="currentColor"
         ry="0.1"
         height="0.2"
         width="1.7410001"
         y="-0.1"
         x="62.4025"
         transform="translate(0.5691,38)" />
      <rect
         id="rect702"
         fill="currentColor"
         ry="0.1"
         height="0.2"
         width="1.7410001"
         y="-0.1"
         x="62.4025"
         transform="translate(0.5691,39)" />
      <a
         id="a760"
         xlink:href="textedit:///Users/jwy/Documents/GitHub/sf004/public/pieces/sf004/notation/notes01.ly:95:13:14"
         style="color:inherit">
        <polygon
           id="polygon758"
           points="0.04,0.2 0.04,-0.2 5.6727,-0.2 5.6727,0.2 "
           stroke="currentColor"
           fill="currentColor"
           stroke-width="0.08"
           stroke-linecap="round"
           stroke-linejoin="round"
           transform="translate(58.7097,32.81)" />
      </a>
      <a
         id="a804"
         xlink:href="textedit:///Users/jwy/Documents/GitHub/sf004/public/pieces/sf004/notation/notes01.ly:95:10:11"
         style="color:inherit">
        <path
           id="path802"
           fill="currentColor"
           d="M 72,-250 189,76 C 155,64 120,54 84,54 38,54 -3,87 -3,133 c 0,40 33,72 73,72 25,0 48,-15 56,-39 10,-28 6,-59 35,-59 16,0 54,48 61,63 6,12 23,12 28,0 L 127,-250 c -8,-7 -17,-10 -27,-10 -10,0 -20,3 -28,10 z"
           transform="matrix(0.004,0,0,-0.004,58.2747,35)" />
      </a>
      <a
         id="a810"
         xlink:href="textedit:///Users/jwy/Documents/GitHub/sf004/public/pieces/sf004/notation/notes01.ly:95:14:15"
         style="color:inherit">
        <path
           id="path808"
           fill="currentColor"
           d="m 215,137 c 57,0 111,-29 111,-92 0,-71 -54,-120 -101,-148 -35,-21 -74,-34 -114,-34 -57,0 -111,29 -111,92 0,71 54,120 101,148 35,21 74,34 114,34 z"
           transform="matrix(0.0036,0,0,-0.0036,63.2618,39.5)" />
      </a>
      <rect
         id="rect812"
         fill="currentColor"
         ry="0.039999999"
         height="6.5302"
         width="0.13"
         y="-2.1900001"
         x="-0.064999998"
         transform="translate(64.3574,35)" />
    </g>
  </g>
</svg>
