<?xml version="1.0" encoding="UTF-8" standalone="no"?>
<svg
   xmlns:dc="http://purl.org/dc/elements/1.1/"
   xmlns:cc="http://creativecommons.org/ns#"
   xmlns:rdf="http://www.w3.org/1999/02/22-rdf-syntax-ns#"
   xmlns:svg="http://www.w3.org/2000/svg"
   xmlns="http://www.w3.org/2000/svg"
   xmlns:xlink="http://www.w3.org/1999/xlink"
   id="svg4182"
   version="1.1"
   viewBox="0 0 16.818941 15.685494"
   height="15.685494mm"
   width="16.818941mm">
  <defs
     id="defs4176" />
  <metadata
     id="metadata4179">
    <rdf:RDF>
      <cc:Work
         rdf:about="">
        <dc:format>image/svg+xml</dc:format>
        <dc:type
           rdf:resource="http://purl.org/dc/dcmitype/StillImage" />
        <dc:title></dc:title>
      </cc:Work>
    </rdf:RDF>
  </metadata>
  <g
     transform="translate(-97.423863,-140.32392)"
     id="layer1">
    <g
       id="g3187"
       transform="matrix(1.7572994,0,0,1.7572994,-41.797013,-94.644638)">
      <rect
         id="rect5193"
         fill="currentColor"
         ry="0.1"
         height="0.2"
         width="1.7410001"
         y="140.54272"
         x="79.224335"
         style="stroke-width:1" />
      <rect
         id="rect5195"
         fill="currentColor"
         ry="0.1"
         height="0.2"
         width="1.7410001"
         y="141.54272"
         x="79.224335"
         style="stroke-width:1" />
      <rect
         id="rect5177"
         fill="currentColor"
         ry="0.1"
         height="0.2"
         width="1.7410001"
         y="140.54274"
         x="87.054237" />
      <rect
         id="rect5179"
         fill="currentColor"
         ry="0.1"
         height="0.2"
         width="1.7410001"
         y="141.54274"
         x="87.054237" />
      <rect
         id="rect5181"
         fill="currentColor"
         ry="0.1"
         height="0.2"
         width="1.7410001"
         y="140.54274"
         x="85.096741" />
      <rect
         id="rect5183"
         fill="currentColor"
         ry="0.1"
         height="0.2"
         width="1.7410001"
         y="141.54274"
         x="85.096741" />
      <rect
         id="rect5185"
         fill="currentColor"
         ry="0.1"
         height="0.2"
         width="1.7410001"
         y="140.54274"
         x="83.139236" />
      <rect
         id="rect5187"
         fill="currentColor"
         ry="0.1"
         height="0.2"
         width="1.7410001"
         y="141.54274"
         x="83.139236" />
      <rect
         id="rect5189"
         fill="currentColor"
         ry="0.1"
         height="0.2"
         width="1.7410001"
         y="140.54274"
         x="81.18174" />
      <rect
         id="rect5191"
         fill="currentColor"
         ry="0.1"
         height="0.2"
         width="1.7410001"
         y="141.54274"
         x="81.18174" />
      <rect
         id="rect5281"
         fill="currentColor"
         ry="0.039999999"
         height="6.3401999"
         width="0.13"
         y="135.64275"
         x="88.375038" />
      <a
         transform="translate(-0.73796417,117.64274)"
         id="a5285"
         xlink:href="textedit:///Users/jwy/Documents/GitHub/sf004/public/pieces/sf004/notation/notes04.ly:150:34:35"
         style="color:inherit">
        <path
           id="path5283"
           fill="currentColor"
           d="m 215,137 c 57,0 111,-29 111,-92 0,-71 -54,-120 -101,-148 -35,-21 -74,-34 -114,-34 -57,0 -111,29 -111,92 0,71 54,120 101,148 35,21 74,34 114,34 z"
           transform="matrix(0.0036,0,0,-0.0036,88.0823,24.5)" />
      </a>
      <rect
         id="rect5287"
         fill="currentColor"
         ry="0.039999999"
         height="6.3401999"
         width="0.13"
         y="135.64275"
         x="86.417534" />
      <rect
         id="rect5325"
         fill="currentColor"
         ry="0.039999999"
         height="6.3401999"
         width="0.13"
         y="135.64275"
         x="84.460037" />
      <a
         transform="translate(-0.73796417,117.64274)"
         id="a5329"
         xlink:href="textedit:///Users/jwy/Documents/GitHub/sf004/public/pieces/sf004/notation/notes04.ly:150:30:31"
         style="color:inherit">
        <path
           id="path5327"
           fill="currentColor"
           d="m 215,137 c 57,0 111,-29 111,-92 0,-71 -54,-120 -101,-148 -35,-21 -74,-34 -114,-34 -57,0 -111,29 -111,92 0,71 54,120 101,148 35,21 74,34 114,34 z"
           transform="matrix(0.0036,0,0,-0.0036,84.1673,24.5)" />
      </a>
      <a
         transform="translate(-0.73796417,117.64274)"
         id="a5333"
         xlink:href="textedit:///Users/jwy/Documents/GitHub/sf004/public/pieces/sf004/notation/notes04.ly:150:32:33"
         style="color:inherit">
        <path
           id="path5331"
           fill="currentColor"
           d="m 215,137 c 57,0 111,-29 111,-92 0,-71 -54,-120 -101,-148 -35,-21 -74,-34 -114,-34 -57,0 -111,29 -111,92 0,71 54,120 101,148 35,21 74,34 114,34 z"
           transform="matrix(0.0036,0,0,-0.0036,86.1248,24.5)" />
      </a>
      <rect
         id="rect5335"
         fill="currentColor"
         ry="0.039999999"
         height="6.3401999"
         width="0.13"
         y="135.64275"
         x="82.502533" />
      <a
         transform="translate(-0.73796417,117.64274)"
         id="a5339"
         xlink:href="textedit:///Users/jwy/Documents/GitHub/sf004/public/pieces/sf004/notation/notes04.ly:150:28:29"
         style="color:inherit">
        <path
           id="path5337"
           fill="currentColor"
           d="m 215,137 c 57,0 111,-29 111,-92 0,-71 -54,-120 -101,-148 -35,-21 -74,-34 -114,-34 -57,0 -111,29 -111,92 0,71 54,120 101,148 35,21 74,34 114,34 z"
           transform="matrix(0.0036,0,0,-0.0036,82.2099,24.5)" />
      </a>
      <rect
         id="rect5341"
         fill="currentColor"
         ry="0.039999999"
         height="6.3401999"
         width="0.13"
         y="135.64275"
         x="80.545135" />
      <a
         transform="translate(-0.73796417,117.64274)"
         id="a5345"
         xlink:href="textedit:///Users/jwy/Documents/GitHub/sf004/public/pieces/sf004/notation/notes04.ly:150:24:25"
         style="color:inherit">
        <path
           id="path5343"
           fill="currentColor"
           d="m 215,137 c 57,0 111,-29 111,-92 0,-71 -54,-120 -101,-148 -35,-21 -74,-34 -114,-34 -57,0 -111,29 -111,92 0,71 54,120 101,148 35,21 74,34 114,34 z"
           transform="matrix(0.0036,0,0,-0.0036,80.2524,24.5)" />
      </a>
      <polygon
         id="polygon5349"
         points="7.9199,-0.2 7.9199,0.2 0.04,0.2 0.04,-0.2 "
         stroke="currentColor"
         fill="currentColor"
         stroke-width="0.08"
         stroke-linecap="round"
         stroke-linejoin="round"
         transform="translate(80.545136,135.64274)" />
      <polygon
         id="polygon5351"
         points="7.9199,-0.2 7.9199,0.2 0.04,0.2 0.04,-0.2 "
         stroke="currentColor"
         fill="currentColor"
         stroke-width="0.08"
         stroke-linecap="round"
         stroke-linejoin="round"
         transform="translate(80.545136,136.45274)" />
      <a
         transform="translate(-0.73796417,117.64274)"
         id="a5485"
         xlink:href="textedit:///Users/jwy/Documents/GitHub/sf004/public/pieces/sf004/notation/notes04.ly:150:11:12"
         style="color:inherit">
        <line
           id="line5477"
           y2="0.69999999"
           x2="8.1598997"
           y1="0"
           x1="8.1598997"
           stroke="currentColor"
           stroke-width="0.16"
           stroke-linecap="round"
           stroke-linejoin="round"
           transform="translate(81.2831,16.66)" />
        <line
           id="line5479"
           y2="0.69999999"
           x2="-0.2"
           y1="0"
           x1="-0.2"
           stroke="currentColor"
           stroke-width="0.16"
           stroke-linecap="round"
           stroke-linejoin="round"
           transform="translate(81.2831,16.66)" />
        <line
           id="line5481"
           y2="0"
           x2="5.0237999"
           y1="0"
           x1="8.1598997"
           stroke="currentColor"
           stroke-width="0.16"
           stroke-linecap="round"
           stroke-linejoin="round"
           transform="translate(81.2831,16.66)" />
        <line
           id="line5483"
           y2="0"
           x2="3.1361001"
           y1="0"
           x1="-0.2"
           stroke="currentColor"
           stroke-width="0.16"
           stroke-linecap="round"
           stroke-linejoin="round"
           transform="translate(81.2831,16.66)" />
      </a>
      <a
         transform="translate(-0.73796417,117.64274)"
         id="a5491"
         xlink:href="textedit:///Users/jwy/Documents/GitHub/sf004/public/pieces/sf004/notation/notes04.ly:150:11:12"
         style="color:inherit">
        <text
           id="text5489"
           fill="currentColor"
           text-anchor="start"
           font-size="1.7461px"
           font-style="italic"
           font-family="serif"
           transform="translate(84.8191,17.2234)"><tspan
             id="tspan5487">5</tspan></text>
      </a>
    </g>
  </g>
</svg>
