<?xml version="1.0" encoding="UTF-8" standalone="no"?>
<svg
   xmlns:dc="http://purl.org/dc/elements/1.1/"
   xmlns:cc="http://creativecommons.org/ns#"
   xmlns:rdf="http://www.w3.org/1999/02/22-rdf-syntax-ns#"
   xmlns:svg="http://www.w3.org/2000/svg"
   xmlns="http://www.w3.org/2000/svg"
   id="svg2552"
   version="1.1"
   viewBox="0 0 1.9330291 5.2719302"
   height="5.2719302mm"
   width="1.9330291mm">
  <defs
     id="defs2546" />
  <metadata
     id="metadata2549">
    <rdf:RDF>
      <cc:Work
         rdf:about="">
        <dc:format>image/svg+xml</dc:format>
        <dc:type
           rdf:resource="http://purl.org/dc/dcmitype/StillImage" />
        <dc:title></dc:title>
      </cc:Work>
    </rdf:RDF>
  </metadata>
  <g
     transform="translate(-77.33785,-141.56809)"
     id="layer1">
    <path
       d="m 78.856153,146.39718 c 0,0.0703 -0.05623,0.13355 -0.126526,0.13355 -0.07029,0 -0.133555,-0.0633 -0.133555,-0.13355 v -1.01923 l -0.583423,0.2179 v 1.11061 c 0,0.0703 -0.06326,0.13356 -0.133555,0.13356 -0.07029,0 -0.126525,-0.0633 -0.126525,-0.13356 v -1.01923 l -0.224935,0.0844 c -0.01406,0.007 -0.03515,0.007 -0.0492,0.007 -0.07732,0 -0.140584,-0.0633 -0.140584,-0.14058 v -0.42176 c 0,-0.0562 0.03515,-0.11246 0.09138,-0.13355 l 0.323343,-0.11247 v -1.12467 l -0.224935,0.0773 c -0.01406,0.007 -0.03515,0.007 -0.0492,0.007 -0.07732,0 -0.140584,-0.0633 -0.140584,-0.14058 v -0.42175 c 0,-0.0562 0.03515,-0.10544 0.09138,-0.12653 l 0.323343,-0.1195 v -1.11061 c 0,-0.0703 0.05623,-0.13355 0.126525,-0.13355 0.07029,0 0.133555,0.0633 0.133555,0.13355 v 1.01923 l 0.583423,-0.2179 v -1.11061 c 0,-0.0703 0.06326,-0.13356 0.133555,-0.13356 0.07029,0 0.126526,0.0633 0.126526,0.13356 v 1.01923 l 0.224934,-0.0844 c 0.01406,-0.007 0.03515,-0.007 0.0492,-0.007 0.07732,0 0.140584,0.0633 0.140584,0.14058 v 0.42175 c 0,0.0562 -0.03515,0.11247 -0.09138,0.13356 l -0.323342,0.11247 v 1.12467 l 0.224934,-0.0773 c 0.01406,-0.007 0.03515,-0.007 0.0492,-0.007 0.07732,0 0.140584,0.0633 0.140584,0.14058 v 0.42175 c 0,0.0562 -0.03515,0.10544 -0.09138,0.12653 l -0.323342,0.1195 z m -0.843504,-2.65001 v 1.12467 l 0.583423,-0.21087 v -1.12467 z"
       fill="currentColor"
       id="path682"
       style="stroke-width:0.00702919" />
  </g>
</svg>
