<?xml version="1.0" encoding="UTF-8" standalone="no"?>
<svg
   xmlns:dc="http://purl.org/dc/elements/1.1/"
   xmlns:cc="http://creativecommons.org/ns#"
   xmlns:rdf="http://www.w3.org/1999/02/22-rdf-syntax-ns#"
   xmlns:svg="http://www.w3.org/2000/svg"
   xmlns="http://www.w3.org/2000/svg"
   xmlns:xlink="http://www.w3.org/1999/xlink"
   id="svg7713"
   version="1.1"
   viewBox="0 0 17.072517 18.011583"
   height="18.011583mm"
   width="17.072517mm">
  <defs
     id="defs7707" />
  <metadata
     id="metadata7710">
    <rdf:RDF>
      <cc:Work
         rdf:about="">
        <dc:format>image/svg+xml</dc:format>
        <dc:type
           rdf:resource="http://purl.org/dc/dcmitype/StillImage" />
        <dc:title></dc:title>
      </cc:Work>
    </rdf:RDF>
  </metadata>
  <g
     transform="translate(-97.297075,-139.16087)"
     id="layer1">
    <g
       id="g3621"
       transform="matrix(1.7572994,0,0,1.7572994,-29.737048,-75.351694)">
      <rect
         style="stroke-width:1"
         x="80.263603"
         y="130.71904"
         width="1.7410002"
         height="0.20000002"
         ry="0.10000001"
         fill="currentColor"
         id="rect1948" />
      <rect
         style="stroke-width:1"
         x="76.856407"
         y="130.71904"
         width="1.7410002"
         height="0.20000002"
         ry="0.10000001"
         fill="currentColor"
         id="rect1950" />
      <rect
         style="stroke-width:1"
         x="73.564407"
         y="130.71904"
         width="1.6258"
         height="0.20000002"
         ry="0.10000001"
         fill="currentColor"
         id="rect1952" />
      <polygon
         transform="translate(74.770103,124.00903)"
         stroke-linejoin="round"
         stroke-linecap="round"
         stroke-width="0.08"
         fill="currentColor"
         stroke="currentColor"
         points="6.9043,0.2 0.04,0.2 0.04,-0.2 6.9043,-0.2 "
         id="polygon2038" />
      <a
         transform="translate(-6.0789006,107.81903)"
         style="color:inherit"
         xlink:href="textedit:///Users/jwy/Documents/GitHub/sf004/public/pieces/sf004/notation/notes03.ly:129:10:11"
         id="a2046">
        <text
           transform="translate(83.8773,15.4304)"
           font-family="serif"
           font-style="italic"
           font-size="1.7461px"
           text-anchor="start"
           fill="currentColor"
           id="text2044"><tspan
             id="tspan2042">3</tspan></text>
      </a>
      <a
         transform="translate(-6.0789006,107.81903)"
         style="color:inherit"
         xlink:href="textedit:///Users/jwy/Documents/GitHub/sf004/public/pieces/sf004/notation/notes03.ly:129:10:11"
         id="a2056">
        <line
           transform="translate(80.849,14.85)"
           stroke-linejoin="round"
           stroke-linecap="round"
           stroke-width="0.16"
           stroke="currentColor"
           x1="7.1443"
           y1="0"
           x2="7.1443"
           y2="0.69999999"
           id="line2048" />
        <line
           transform="translate(80.849,14.85)"
           stroke-linejoin="round"
           stroke-linecap="round"
           stroke-width="0.16"
           stroke="currentColor"
           x1="-0.2"
           y1="0"
           x2="-0.2"
           y2="0.69999999"
           id="line2050" />
        <line
           transform="translate(80.849,14.85)"
           stroke-linejoin="round"
           stroke-linecap="round"
           stroke-width="0.16"
           stroke="currentColor"
           x1="7.1443"
           y1="0"
           x2="4.5159998"
           y2="0"
           id="line2052" />
        <line
           transform="translate(80.849,14.85)"
           stroke-linejoin="round"
           stroke-linecap="round"
           stroke-width="0.16"
           stroke="currentColor"
           x1="-0.2"
           y1="0"
           x2="2.6283"
           y2="0"
           id="line2054" />
      </a>
      <a
         transform="translate(-6.0789006,107.81903)"
         style="color:inherit"
         xlink:href="textedit:///Users/jwy/Documents/GitHub/sf004/public/pieces/sf004/notation/notes03.ly:129:33:34"
         id="a2182">
        <path
           transform="matrix(0.0036,0,0,-0.0036,86.6326,23)"
           d="m 215,137 c 57,0 111,-29 111,-92 0,-71 -54,-120 -101,-148 -35,-21 -74,-34 -114,-34 -57,0 -111,29 -111,92 0,71 54,120 101,148 35,21 74,34 114,34 z"
           fill="currentColor"
           id="path2180" />
      </a>
      <a
         transform="translate(-6.0789006,107.81903)"
         style="color:inherit"
         xlink:href="textedit:///Users/jwy/Documents/GitHub/sf004/public/pieces/sf004/notation/notes03.ly:129:29:30"
         id="a2186">
        <path
           transform="matrix(0.0036,0,0,-0.0036,83.2255,23)"
           d="m 215,137 c 57,0 111,-29 111,-92 0,-71 -54,-120 -101,-148 -35,-21 -74,-34 -114,-34 -57,0 -111,29 -111,92 0,71 54,120 101,148 35,21 74,34 114,34 z"
           fill="currentColor"
           id="path2184" />
      </a>
      <rect
         style="stroke-width:1"
         x="78.1772"
         y="124.00903"
         width="0.13"
         height="6.6501999"
         ry="0.039999999"
         fill="currentColor"
         id="rect2188" />
      <path
         style="stroke-width:0.00399999"
         d="m 73.153402,132.06703 c 0,0.04 -0.032,0.076 -0.072,0.076 -0.04,0 -0.076,-0.036 -0.076,-0.076 v -0.58 l -0.332001,0.124 v 0.632 c 0,0.04 -0.036,0.076 -0.076,0.076 -0.04,0 -0.072,-0.036 -0.072,-0.076 v -0.58 l -0.127999,0.048 c -0.008,0.004 -0.02,0.004 -0.028,0.004 -0.044,0 -0.08,-0.036 -0.08,-0.08 v -0.24 c 0,-0.032 0.02,-0.064 0.052,-0.076 l 0.183999,-0.064 v -0.64 l -0.127999,0.044 c -0.008,0.004 -0.02,0.004 -0.028,0.004 -0.044,0 -0.08,-0.036 -0.08,-0.08 v -0.24 c 0,-0.032 0.02,-0.06 0.052,-0.072 l 0.183999,-0.068 v -0.632 c 0,-0.04 0.032,-0.076 0.072,-0.076 0.04,0 0.076,0.036 0.076,0.076 v 0.58 l 0.332001,-0.124 v -0.632 c 0,-0.04 0.036,-0.076 0.076,-0.076 0.04,0 0.072,0.036 0.072,0.076 v 0.58 l 0.127999,-0.048 c 0.008,-0.004 0.02,-0.004 0.028,-0.004 0.044,0 0.08,0.036 0.08,0.08 v 0.24 c 0,0.032 -0.02,0.064 -0.052,0.076 l -0.183999,0.064 v 0.64 l 0.127999,-0.044 c 0.008,-0.004 0.02,-0.004 0.028,-0.004 0.044,0 0.08,0.036 0.08,0.08 v 0.24 c 0,0.032 -0.02,0.06 -0.052,0.072 l -0.183999,0.068 z m -0.480001,-1.508 v 0.64 l 0.332001,-0.12 v -0.64 z"
         fill="currentColor"
         id="path2190" />
      <rect
         style="stroke-width:1"
         x="81.584404"
         y="124.00903"
         width="0.13"
         height="6.6501999"
         ry="0.039999999"
         fill="currentColor"
         id="rect2192" />
      <rect
         style="stroke-width:1"
         x="74.770103"
         y="124.00903"
         width="0.13"
         height="6.6501999"
         ry="0.039999999"
         fill="currentColor"
         id="rect2204" />
      <a
         transform="translate(-6.0789006,107.81903)"
         style="color:inherit"
         xlink:href="textedit:///Users/jwy/Documents/GitHub/sf004/public/pieces/sf004/notation/notes03.ly:129:23:24"
         id="a2208">
        <path
           transform="matrix(0.0036,0,0,-0.0036,79.8183,23)"
           d="m 215,137 c 57,0 111,-29 111,-92 0,-71 -54,-120 -101,-148 -35,-21 -74,-34 -114,-34 -57,0 -111,29 -111,92 0,71 54,120 101,148 35,21 74,34 114,34 z"
           fill="currentColor"
           id="path2206" />
      </a>
    </g>
  </g>
</svg>
