<svg xmlns="http://www.w3.org/2000/svg" xmlns:xlink="http://www.w3.org/1999/xlink" version="1.2" width="160.00mm" height="100.00mm" viewBox="0 0 91.0488 56.9055">
<style text="style/css">
<![CDATA[
tspan { white-space: pre; }
]]>
</style>
<!-- Page: 1/1 -->
<text transform="translate(0.5691, -0.0000)" font-family="serif" font-size="2.2001" text-anchor="start" fill="currentColor">
<tspan/>
</text>
<line transform="translate(0.5691, 22.0000)" stroke-linejoin="round" stroke-linecap="round" stroke-width="0.1000" stroke="currentColor" x1="0.0500" y1="-0.0000" x2="89.8607" y2="-0.0000"/>
<line transform="translate(0.5691, 21.0000)" stroke-linejoin="round" stroke-linecap="round" stroke-width="0.1000" stroke="currentColor" x1="0.0500" y1="-0.0000" x2="89.8607" y2="-0.0000"/>
<line transform="translate(0.5691, 20.0000)" stroke-linejoin="round" stroke-linecap="round" stroke-width="0.1000" stroke="currentColor" x1="0.0500" y1="-0.0000" x2="89.8607" y2="-0.0000"/>
<line transform="translate(0.5691, 19.0000)" stroke-linejoin="round" stroke-linecap="round" stroke-width="0.1000" stroke="currentColor" x1="0.0500" y1="-0.0000" x2="89.8607" y2="-0.0000"/>
<line transform="translate(0.5691, 18.0000)" stroke-linejoin="round" stroke-linecap="round" stroke-width="0.1000" stroke="currentColor" x1="0.0500" y1="-0.0000" x2="89.8607" y2="-0.0000"/>
<rect transform="translate(0.5691, 23.0000)" x="77.4436" y="-0.1000" width="1.7410" height="0.2000" ry="0.1000" fill="currentColor"/>
<rect transform="translate(0.5691, 24.0000)" x="77.4436" y="-0.1000" width="1.7410" height="0.2000" ry="0.1000" fill="currentColor"/>
<rect transform="translate(0.5691, 23.0000)" x="65.2667" y="-0.1000" width="1.7410" height="0.2000" ry="0.1000" fill="currentColor"/>
<rect transform="translate(0.5691, 24.0000)" x="65.2667" y="-0.1000" width="1.7410" height="0.2000" ry="0.1000" fill="currentColor"/>
<rect transform="translate(0.5691, 23.0000)" x="53.0897" y="-0.1000" width="1.7410" height="0.2000" ry="0.1000" fill="currentColor"/>
<rect transform="translate(0.5691, 24.0000)" x="53.0897" y="-0.1000" width="1.7410" height="0.2000" ry="0.1000" fill="currentColor"/>
<rect transform="translate(0.5691, 23.0000)" x="39.5767" y="-0.1000" width="1.7410" height="0.2000" ry="0.1000" fill="currentColor"/>
<rect transform="translate(0.5691, 24.0000)" x="39.5767" y="-0.1000" width="1.7410" height="0.2000" ry="0.1000" fill="currentColor"/>
<rect transform="translate(0.5691, 23.0000)" x="27.3998" y="-0.1000" width="1.7410" height="0.2000" ry="0.1000" fill="currentColor"/>
<rect transform="translate(0.5691, 24.0000)" x="27.3998" y="-0.1000" width="1.7410" height="0.2000" ry="0.1000" fill="currentColor"/>
<rect transform="translate(0.5691, 23.0000)" x="15.2228" y="-0.1000" width="1.7410" height="0.2000" ry="0.1000" fill="currentColor"/>
<rect transform="translate(0.5691, 24.0000)" x="15.2228" y="-0.1000" width="1.7410" height="0.2000" ry="0.1000" fill="currentColor"/>
<rect transform="translate(0.5691, 23.0000)" x="1.7098" y="-0.1000" width="1.7410" height="0.2000" ry="0.1000" fill="currentColor"/>
<rect transform="translate(0.5691, 24.0000)" x="1.7098" y="-0.1000" width="1.7410" height="0.2000" ry="0.1000" fill="currentColor"/>
<rect transform="translate(67.2215, 20.0000)" x="-0.0650" y="-3.0000" width="0.1300" height="6.8402" ry="0.0400" fill="currentColor"/>
<rect transform="translate(55.0446, 20.0000)" x="-0.0650" y="-3.0000" width="0.1300" height="6.8402" ry="0.0400" fill="currentColor"/>
<a style="color:inherit;" xlink:href="textedit:///Users/jwy/Documents/OPUS/GitHub/sf004/public/pieces/sf004/notationArchive/lilypond_template.ly:82:21:22">
<path transform="translate(53.9489, 24.0000) scale(0.0036, -0.0036)" d="M215 137c57 0 111 -29 111 -92c0 -71 -54 -120 -101 -148c-35 -21 -74 -34 -114 -34c-57 0 -111 29 -111 92c0 71 54 120 101 148c35 21 74 34 114 34z" fill="currentColor"/>
</a>
<rect transform="translate(41.5316, 20.0000)" x="-0.0650" y="-3.0000" width="0.1300" height="6.8402" ry="0.0400" fill="currentColor"/>
<a style="color:inherit;" xlink:href="textedit:///Users/jwy/Documents/OPUS/GitHub/sf004/public/pieces/sf004/notationArchive/lilypond_template.ly:82:16:17">
<path transform="translate(40.4359, 24.0000) scale(0.0036, -0.0036)" d="M215 137c57 0 111 -29 111 -92c0 -71 -54 -120 -101 -148c-35 -21 -74 -34 -114 -34c-57 0 -111 29 -111 92c0 71 54 120 101 148c35 21 74 34 114 34z" fill="currentColor"/>
</a>
<rect transform="translate(79.3985, 20.0000)" x="-0.0650" y="-3.0000" width="0.1300" height="6.8402" ry="0.0400" fill="currentColor"/>
<a style="color:inherit;" xlink:href="textedit:///Users/jwy/Documents/OPUS/GitHub/sf004/public/pieces/sf004/notationArchive/lilypond_template.ly:82:25:26">
<path transform="translate(78.3028, 24.0000) scale(0.0036, -0.0036)" d="M215 137c57 0 111 -29 111 -92c0 -71 -54 -120 -101 -148c-35 -21 -74 -34 -114 -34c-57 0 -111 29 -111 92c0 71 54 120 101 148c35 21 74 34 114 34z" fill="currentColor"/>
</a>
<a style="color:inherit;" xlink:href="textedit:///Users/jwy/Documents/OPUS/GitHub/sf004/public/pieces/sf004/notationArchive/lilypond_template.ly:82:23:24">
<path transform="translate(66.1259, 24.0000) scale(0.0036, -0.0036)" d="M215 137c57 0 111 -29 111 -92c0 -71 -54 -120 -101 -148c-35 -21 -74 -34 -114 -34c-57 0 -111 29 -111 92c0 71 54 120 101 148c35 21 74 34 114 34z" fill="currentColor"/>
</a>
<rect transform="translate(17.1777, 20.0000)" x="-0.0650" y="-3.0000" width="0.1300" height="6.8402" ry="0.0400" fill="currentColor"/>
<a style="color:inherit;" xlink:href="textedit:///Users/jwy/Documents/OPUS/GitHub/sf004/public/pieces/sf004/notationArchive/lilypond_template.ly:82:12:13">
<path transform="translate(16.0820, 24.0000) scale(0.0036, -0.0036)" d="M215 137c57 0 111 -29 111 -92c0 -71 -54 -120 -101 -148c-35 -21 -74 -34 -114 -34c-57 0 -111 29 -111 92c0 71 54 120 101 148c35 21 74 34 114 34z" fill="currentColor"/>
</a>
<rect transform="translate(3.6647, 20.0000)" x="-0.0650" y="-3.0000" width="0.1300" height="6.8402" ry="0.0400" fill="currentColor"/>
<a style="color:inherit;" xlink:href="textedit:///Users/jwy/Documents/OPUS/GitHub/sf004/public/pieces/sf004/notationArchive/lilypond_template.ly:82:9:10">
<path transform="translate(2.5691, 24.0000) scale(0.0036, -0.0036)" d="M215 137c57 0 111 -29 111 -92c0 -71 -54 -120 -101 -148c-35 -21 -74 -34 -114 -34c-57 0 -111 29 -111 92c0 71 54 120 101 148c35 21 74 34 114 34z" fill="currentColor"/>
</a>
<rect transform="translate(29.3547, 20.0000)" x="-0.0650" y="-3.0000" width="0.1300" height="6.8402" ry="0.0400" fill="currentColor"/>
<a style="color:inherit;" xlink:href="textedit:///Users/jwy/Documents/OPUS/GitHub/sf004/public/pieces/sf004/notationArchive/lilypond_template.ly:82:14:15">
<path transform="translate(28.2590, 24.0000) scale(0.0036, -0.0036)" d="M215 137c57 0 111 -29 111 -92c0 -71 -54 -120 -101 -148c-35 -21 -74 -34 -114 -34c-57 0 -111 29 -111 92c0 71 54 120 101 148c35 21 74 34 114 34z" fill="currentColor"/>
</a>
<line transform="translate(0.5691, 37.0000)" stroke-linejoin="round" stroke-linecap="round" stroke-width="0.1000" stroke="currentColor" x1="0.0500" y1="-0.0000" x2="89.8607" y2="-0.0000"/>
<line transform="translate(0.5691, 36.0000)" stroke-linejoin="round" stroke-linecap="round" stroke-width="0.1000" stroke="currentColor" x1="0.0500" y1="-0.0000" x2="89.8607" y2="-0.0000"/>
<line transform="translate(0.5691, 35.0000)" stroke-linejoin="round" stroke-linecap="round" stroke-width="0.1000" stroke="currentColor" x1="0.0500" y1="-0.0000" x2="89.8607" y2="-0.0000"/>
<line transform="translate(0.5691, 34.0000)" stroke-linejoin="round" stroke-linecap="round" stroke-width="0.1000" stroke="currentColor" x1="0.0500" y1="-0.0000" x2="89.8607" y2="-0.0000"/>
<line transform="translate(0.5691, 33.0000)" stroke-linejoin="round" stroke-linecap="round" stroke-width="0.1000" stroke="currentColor" x1="0.0500" y1="-0.0000" x2="89.8607" y2="-0.0000"/>
<rect transform="translate(0.5691, 38.0000)" x="79.9638" y="-0.1000" width="1.7410" height="0.2000" ry="0.1000" fill="currentColor"/>
<rect transform="translate(0.5691, 39.0000)" x="79.9638" y="-0.1000" width="1.7410" height="0.2000" ry="0.1000" fill="currentColor"/>
<rect transform="translate(0.5691, 38.0000)" x="70.3071" y="-0.1000" width="1.7410" height="0.2000" ry="0.1000" fill="currentColor"/>
<rect transform="translate(0.5691, 39.0000)" x="70.3071" y="-0.1000" width="1.7410" height="0.2000" ry="0.1000" fill="currentColor"/>
<rect transform="translate(0.5691, 38.0000)" x="60.6503" y="-0.1000" width="1.7410" height="0.2000" ry="0.1000" fill="currentColor"/>
<rect transform="translate(0.5691, 39.0000)" x="60.6503" y="-0.1000" width="1.7410" height="0.2000" ry="0.1000" fill="currentColor"/>
<rect transform="translate(0.5691, 38.0000)" x="49.9936" y="-0.1000" width="1.7410" height="0.2000" ry="0.1000" fill="currentColor"/>
<rect transform="translate(0.5691, 39.0000)" x="49.9936" y="-0.1000" width="1.7410" height="0.2000" ry="0.1000" fill="currentColor"/>
<rect transform="translate(0.5691, 38.0000)" x="40.3368" y="-0.1000" width="1.7410" height="0.2000" ry="0.1000" fill="currentColor"/>
<rect transform="translate(0.5691, 39.0000)" x="40.3368" y="-0.1000" width="1.7410" height="0.2000" ry="0.1000" fill="currentColor"/>
<rect transform="translate(0.5691, 38.0000)" x="30.6801" y="-0.1000" width="1.7410" height="0.2000" ry="0.1000" fill="currentColor"/>
<rect transform="translate(0.5691, 39.0000)" x="30.6801" y="-0.1000" width="1.7410" height="0.2000" ry="0.1000" fill="currentColor"/>
<rect transform="translate(0.5691, 38.0000)" x="20.0233" y="-0.1000" width="1.7410" height="0.2000" ry="0.1000" fill="currentColor"/>
<rect transform="translate(0.5691, 39.0000)" x="20.0233" y="-0.1000" width="1.7410" height="0.2000" ry="0.1000" fill="currentColor"/>
<rect transform="translate(0.5691, 38.0000)" x="10.3666" y="-0.1000" width="1.7410" height="0.2000" ry="0.1000" fill="currentColor"/>
<rect transform="translate(0.5691, 39.0000)" x="10.3666" y="-0.1000" width="1.7410" height="0.2000" ry="0.1000" fill="currentColor"/>
<rect transform="translate(0.5691, 38.0000)" x="0.7098" y="-0.1000" width="1.7410" height="0.2000" ry="0.1000" fill="currentColor"/>
<rect transform="translate(0.5691, 39.0000)" x="0.7098" y="-0.1000" width="1.7410" height="0.2000" ry="0.1000" fill="currentColor"/>
<rect transform="translate(81.9187, 35.0000)" x="-0.0650" y="-3.0000" width="0.1300" height="6.8402" ry="0.0400" fill="currentColor"/>
<a style="color:inherit;" xlink:href="textedit:///Users/jwy/Documents/OPUS/GitHub/sf004/public/pieces/sf004/notationArchive/lilypond_template.ly:82:49:50">
<path transform="translate(80.8230, 39.0000) scale(0.0036, -0.0036)" d="M215 137c57 0 111 -29 111 -92c0 -71 -54 -120 -101 -148c-35 -21 -74 -34 -114 -34c-57 0 -111 29 -111 92c0 71 54 120 101 148c35 21 74 34 114 34z" fill="currentColor"/>
</a>
<a style="color:inherit;" xlink:href="textedit:///Users/jwy/Documents/OPUS/GitHub/sf004/public/pieces/sf004/notationArchive/lilypond_template.ly:82:47:48">
<path transform="translate(71.1663, 39.0000) scale(0.0036, -0.0036)" d="M215 137c57 0 111 -29 111 -92c0 -71 -54 -120 -101 -148c-35 -21 -74 -34 -114 -34c-57 0 -111 29 -111 92c0 71 54 120 101 148c35 21 74 34 114 34z" fill="currentColor"/>
</a>
<rect transform="translate(21.9782, 35.0000)" x="-0.0650" y="-3.0000" width="0.1300" height="6.8402" ry="0.0400" fill="currentColor"/>
<rect transform="translate(2.6647, 35.0000)" x="-0.0650" y="-3.0000" width="0.1300" height="6.8402" ry="0.0400" fill="currentColor"/>
<a style="color:inherit;" xlink:href="textedit:///Users/jwy/Documents/OPUS/GitHub/sf004/public/pieces/sf004/notationArchive/lilypond_template.ly:82:32:33">
<path transform="translate(11.2258, 39.0000) scale(0.0036, -0.0036)" d="M215 137c57 0 111 -29 111 -92c0 -71 -54 -120 -101 -148c-35 -21 -74 -34 -114 -34c-57 0 -111 29 -111 92c0 71 54 120 101 148c35 21 74 34 114 34z" fill="currentColor"/>
</a>
<rect transform="translate(12.3215, 35.0000)" x="-0.0650" y="-3.0000" width="0.1300" height="6.8402" ry="0.0400" fill="currentColor"/>
<a style="color:inherit;" xlink:href="textedit:///Users/jwy/Documents/OPUS/GitHub/sf004/public/pieces/sf004/notationArchive/lilypond_template.ly:82:34:35">
<path transform="translate(20.8825, 39.0000) scale(0.0036, -0.0036)" d="M215 137c57 0 111 -29 111 -92c0 -71 -54 -120 -101 -148c-35 -21 -74 -34 -114 -34c-57 0 -111 29 -111 92c0 71 54 120 101 148c35 21 74 34 114 34z" fill="currentColor"/>
</a>
<a style="color:inherit;" xlink:href="textedit:///Users/jwy/Documents/OPUS/GitHub/sf004/public/pieces/sf004/notationArchive/lilypond_template.ly:82:36:37">
<path transform="translate(31.5393, 39.0000) scale(0.0036, -0.0036)" d="M215 137c57 0 111 -29 111 -92c0 -71 -54 -120 -101 -148c-35 -21 -74 -34 -114 -34c-57 0 -111 29 -111 92c0 71 54 120 101 148c35 21 74 34 114 34z" fill="currentColor"/>
</a>
<a style="color:inherit;" xlink:href="textedit:///Users/jwy/Documents/OPUS/GitHub/sf004/public/pieces/sf004/notationArchive/lilypond_template.ly:82:27:28">
<path transform="translate(1.5691, 39.0000) scale(0.0036, -0.0036)" d="M215 137c57 0 111 -29 111 -92c0 -71 -54 -120 -101 -148c-35 -21 -74 -34 -114 -34c-57 0 -111 29 -111 92c0 71 54 120 101 148c35 21 74 34 114 34z" fill="currentColor"/>
</a>
<rect transform="translate(32.6350, 35.0000)" x="-0.0650" y="-3.0000" width="0.1300" height="6.8402" ry="0.0400" fill="currentColor"/>
<rect transform="translate(72.2619, 35.0000)" x="-0.0650" y="-3.0000" width="0.1300" height="6.8402" ry="0.0400" fill="currentColor"/>
<rect transform="translate(62.6052, 35.0000)" x="-0.0650" y="-3.0000" width="0.1300" height="6.8402" ry="0.0400" fill="currentColor"/>
<a style="color:inherit;" xlink:href="textedit:///Users/jwy/Documents/OPUS/GitHub/sf004/public/pieces/sf004/notationArchive/lilypond_template.ly:82:45:46">
<path transform="translate(61.5095, 39.0000) scale(0.0036, -0.0036)" d="M215 137c57 0 111 -29 111 -92c0 -71 -54 -120 -101 -148c-35 -21 -74 -34 -114 -34c-57 0 -111 29 -111 92c0 71 54 120 101 148c35 21 74 34 114 34z" fill="currentColor"/>
</a>
<rect transform="translate(51.9485, 35.0000)" x="-0.0650" y="-3.0000" width="0.1300" height="6.8402" ry="0.0400" fill="currentColor"/>
<a style="color:inherit;" xlink:href="textedit:///Users/jwy/Documents/OPUS/GitHub/sf004/public/pieces/sf004/notationArchive/lilypond_template.ly:82:43:44">
<path transform="translate(50.8528, 39.0000) scale(0.0036, -0.0036)" d="M215 137c57 0 111 -29 111 -92c0 -71 -54 -120 -101 -148c-35 -21 -74 -34 -114 -34c-57 0 -111 29 -111 92c0 71 54 120 101 148c35 21 74 34 114 34z" fill="currentColor"/>
</a>
<rect transform="translate(42.2917, 35.0000)" x="-0.0650" y="-3.0000" width="0.1300" height="6.8402" ry="0.0400" fill="currentColor"/>
<a style="color:inherit;" xlink:href="textedit:///Users/jwy/Documents/OPUS/GitHub/sf004/public/pieces/sf004/notationArchive/lilypond_template.ly:82:38:39">
<path transform="translate(41.1960, 39.0000) scale(0.0036, -0.0036)" d="M215 137c57 0 111 -29 111 -92c0 -71 -54 -120 -101 -148c-35 -21 -74 -34 -114 -34c-57 0 -111 29 -111 92c0 71 54 120 101 148c35 21 74 34 114 34z" fill="currentColor"/>
</a>
<a style="color:inherit;" xlink:href="textedit:///Users/jwy/Documents/OPUS/GitHub/sf004/public/pieces/sf004/notationArchive/lilypond_template.ly:92:13:14">
<path transform="translate(23.3243, 53.0000) scale(0.0036, -0.0036)" d="M215 137c57 0 111 -29 111 -92c0 -71 -54 -120 -101 -148c-35 -21 -74 -34 -114 -34c-57 0 -111 29 -111 92c0 71 54 120 101 148c35 21 74 34 114 34z" fill="currentColor"/>
</a>
<rect transform="translate(13.5975, 50.0000)" x="-0.0650" y="-4.0000" width="0.1300" height="6.8402" ry="0.0400" fill="currentColor"/>
<a style="color:inherit;" xlink:href="textedit:///Users/jwy/Documents/OPUS/GitHub/sf004/public/pieces/sf004/notationArchive/lilypond_template.ly:92:11:12">
<path transform="translate(12.5018, 53.0000) scale(0.0036, -0.0036)" d="M215 137c57 0 111 -29 111 -92c0 -71 -54 -120 -101 -148c-35 -21 -74 -34 -114 -34c-57 0 -111 29 -111 92c0 71 54 120 101 148c35 21 74 34 114 34z" fill="currentColor"/>
</a>
<rect transform="translate(2.7750, 50.0000)" x="-0.0650" y="-4.0000" width="0.1300" height="6.8402" ry="0.0400" fill="currentColor"/>
<a style="color:inherit;" xlink:href="textedit:///Users/jwy/Documents/OPUS/GitHub/sf004/public/pieces/sf004/notationArchive/lilypond_template.ly:92:8:9">
<path transform="translate(1.6794, 53.0000) scale(0.0036, -0.0036)" d="M215 137c57 0 111 -29 111 -92c0 -71 -54 -120 -101 -148c-35 -21 -74 -34 -114 -34c-57 0 -111 29 -111 92c0 71 54 120 101 148c35 21 74 34 114 34z" fill="currentColor"/>
</a>
<rect transform="translate(80.7530, 50.0000)" x="-0.0650" y="-4.0000" width="0.1300" height="6.8402" ry="0.0400" fill="currentColor"/>
<a style="color:inherit;" xlink:href="textedit:///Users/jwy/Documents/OPUS/GitHub/sf004/public/pieces/sf004/notationArchive/lilypond_template.ly:92:23:24">
<path transform="translate(79.6573, 53.0000) scale(0.0036, -0.0036)" d="M215 137c57 0 111 -29 111 -92c0 -71 -54 -120 -101 -148c-35 -21 -74 -34 -114 -34c-57 0 -111 29 -111 92c0 71 54 120 101 148c35 21 74 34 114 34z" fill="currentColor"/>
</a>
<rect transform="translate(47.1752, 50.0000)" x="-0.0650" y="-4.0000" width="0.1300" height="6.8402" ry="0.0400" fill="currentColor"/>
<rect transform="translate(24.4200, 50.0000)" x="-0.0650" y="-4.0000" width="0.1300" height="6.8402" ry="0.0400" fill="currentColor"/>
<rect transform="translate(36.3528, 50.0000)" x="-0.0650" y="-4.0000" width="0.1300" height="6.8402" ry="0.0400" fill="currentColor"/>
<a style="color:inherit;" xlink:href="textedit:///Users/jwy/Documents/OPUS/GitHub/sf004/public/pieces/sf004/notationArchive/lilypond_template.ly:92:15:16">
<path transform="translate(35.2571, 53.0000) scale(0.0036, -0.0036)" d="M215 137c57 0 111 -29 111 -92c0 -71 -54 -120 -101 -148c-35 -21 -74 -34 -114 -34c-57 0 -111 29 -111 92c0 71 54 120 101 148c35 21 74 34 114 34z" fill="currentColor"/>
</a>
<rect transform="translate(57.9977, 50.0000)" x="-0.0650" y="-4.0000" width="0.1300" height="6.8402" ry="0.0400" fill="currentColor"/>
<a style="color:inherit;" xlink:href="textedit:///Users/jwy/Documents/OPUS/GitHub/sf004/public/pieces/sf004/notationArchive/lilypond_template.ly:92:17:18">
<path transform="translate(46.0796, 53.0000) scale(0.0036, -0.0036)" d="M215 137c57 0 111 -29 111 -92c0 -71 -54 -120 -101 -148c-35 -21 -74 -34 -114 -34c-57 0 -111 29 -111 92c0 71 54 120 101 148c35 21 74 34 114 34z" fill="currentColor"/>
</a>
<a style="color:inherit;" xlink:href="textedit:///Users/jwy/Documents/OPUS/GitHub/sf004/public/pieces/sf004/notationArchive/lilypond_template.ly:92:19:20">
<path transform="translate(56.9020, 53.0000) scale(0.0036, -0.0036)" d="M215 137c57 0 111 -29 111 -92c0 -71 -54 -120 -101 -148c-35 -21 -74 -34 -114 -34c-57 0 -111 29 -111 92c0 71 54 120 101 148c35 21 74 34 114 34z" fill="currentColor"/>
</a>
<rect transform="translate(69.9305, 50.0000)" x="-0.0650" y="-4.0000" width="0.1300" height="6.8402" ry="0.0400" fill="currentColor"/>
<a style="color:inherit;" xlink:href="textedit:///Users/jwy/Documents/OPUS/GitHub/sf004/public/pieces/sf004/notationArchive/lilypond_template.ly:92:21:22">
<path transform="translate(68.8348, 53.0000) scale(0.0036, -0.0036)" d="M215 137c57 0 111 -29 111 -92c0 -71 -54 -120 -101 -148c-35 -21 -74 -34 -114 -34c-57 0 -111 29 -111 92c0 71 54 120 101 148c35 21 74 34 114 34z" fill="currentColor"/>
</a>
</svg>
