<svg xmlns="http://www.w3.org/2000/svg" xmlns:xlink="http://www.w3.org/1999/xlink" version="1.2" width="160.00mm" height="100.00mm" viewBox="0 0 91.0488 56.9055">
<style text="style/css">
<![CDATA[
tspan { white-space: pre; }
]]>
</style>
<!-- Page: 1/1 -->
<text transform="translate(0.5691, -0.0000)" font-family="serif" font-size="2.2001" text-anchor="start" fill="currentColor">
<tspan/>
</text>
<rect transform="translate(90.2898, 5.0000)" x="0.0000" y="-2.0000" width="0.1900" height="4.0000" ry="0.0000" fill="currentColor"/>
<line transform="translate(0.5691, 22.0000)" stroke-linejoin="round" stroke-linecap="round" stroke-width="0.1000" stroke="currentColor" x1="0.0500" y1="-0.0000" x2="89.8607" y2="-0.0000"/>
<line transform="translate(0.5691, 21.0000)" stroke-linejoin="round" stroke-linecap="round" stroke-width="0.1000" stroke="currentColor" x1="0.0500" y1="-0.0000" x2="89.8607" y2="-0.0000"/>
<line transform="translate(0.5691, 20.0000)" stroke-linejoin="round" stroke-linecap="round" stroke-width="0.1000" stroke="currentColor" x1="0.0500" y1="-0.0000" x2="89.8607" y2="-0.0000"/>
<line transform="translate(0.5691, 19.0000)" stroke-linejoin="round" stroke-linecap="round" stroke-width="0.1000" stroke="currentColor" x1="0.0500" y1="-0.0000" x2="89.8607" y2="-0.0000"/>
<line transform="translate(0.5691, 18.0000)" stroke-linejoin="round" stroke-linecap="round" stroke-width="0.1000" stroke="currentColor" x1="0.0500" y1="-0.0000" x2="89.8607" y2="-0.0000"/>
<rect transform="translate(0.5691, 23.0000)" x="87.2231" y="-0.1000" width="1.7410" height="0.2000" ry="0.1000" fill="currentColor"/>
<rect transform="translate(0.5691, 24.0000)" x="87.2231" y="-0.1000" width="1.7410" height="0.2000" ry="0.1000" fill="currentColor"/>
<rect transform="translate(0.5691, 23.0000)" x="85.2656" y="-0.1000" width="1.7410" height="0.2000" ry="0.1000" fill="currentColor"/>
<rect transform="translate(0.5691, 24.0000)" x="85.2656" y="-0.1000" width="1.7410" height="0.2000" ry="0.1000" fill="currentColor"/>
<rect transform="translate(0.5691, 23.0000)" x="83.3081" y="-0.1000" width="1.7410" height="0.2000" ry="0.1000" fill="currentColor"/>
<rect transform="translate(0.5691, 24.0000)" x="83.3081" y="-0.1000" width="1.7410" height="0.2000" ry="0.1000" fill="currentColor"/>
<rect transform="translate(0.5691, 23.0000)" x="81.3506" y="-0.1000" width="1.7410" height="0.2000" ry="0.1000" fill="currentColor"/>
<rect transform="translate(0.5691, 24.0000)" x="81.3506" y="-0.1000" width="1.7410" height="0.2000" ry="0.1000" fill="currentColor"/>
<rect transform="translate(0.5691, 23.0000)" x="79.3932" y="-0.1000" width="1.7410" height="0.2000" ry="0.1000" fill="currentColor"/>
<rect transform="translate(0.5691, 24.0000)" x="79.3932" y="-0.1000" width="1.7410" height="0.2000" ry="0.1000" fill="currentColor"/>
<rect transform="translate(0.5691, 23.0000)" x="77.4357" y="-0.1000" width="1.7410" height="0.2000" ry="0.1000" fill="currentColor"/>
<rect transform="translate(0.5691, 24.0000)" x="77.4357" y="-0.1000" width="1.7410" height="0.2000" ry="0.1000" fill="currentColor"/>
<rect transform="translate(0.5691, 23.0000)" x="75.4782" y="-0.1000" width="1.7410" height="0.2000" ry="0.1000" fill="currentColor"/>
<rect transform="translate(0.5691, 24.0000)" x="75.4782" y="-0.1000" width="1.7410" height="0.2000" ry="0.1000" fill="currentColor"/>
<rect transform="translate(0.5691, 23.0000)" x="73.5208" y="-0.1000" width="1.7410" height="0.2000" ry="0.1000" fill="currentColor"/>
<rect transform="translate(0.5691, 24.0000)" x="73.5208" y="-0.1000" width="1.7410" height="0.2000" ry="0.1000" fill="currentColor"/>
<rect transform="translate(0.5691, 23.0000)" x="71.5633" y="-0.1000" width="1.7410" height="0.2000" ry="0.1000" fill="currentColor"/>
<rect transform="translate(0.5691, 24.0000)" x="71.5633" y="-0.1000" width="1.7410" height="0.2000" ry="0.1000" fill="currentColor"/>
<rect transform="translate(0.5691, 23.0000)" x="69.6558" y="-0.1000" width="1.6910" height="0.2000" ry="0.1000" fill="currentColor"/>
<rect transform="translate(0.5691, 24.0000)" x="69.6558" y="-0.1000" width="1.6910" height="0.2000" ry="0.1000" fill="currentColor"/>
<rect transform="translate(0.5691, 23.0000)" x="67.8648" y="-0.1000" width="1.6910" height="0.2000" ry="0.1000" fill="currentColor"/>
<rect transform="translate(0.5691, 23.0000)" x="65.9073" y="-0.1000" width="1.7410" height="0.2000" ry="0.1000" fill="currentColor"/>
<rect transform="translate(0.5691, 23.0000)" x="63.9499" y="-0.1000" width="1.7410" height="0.2000" ry="0.1000" fill="currentColor"/>
<rect transform="translate(0.5691, 23.0000)" x="61.9924" y="-0.1000" width="1.7410" height="0.2000" ry="0.1000" fill="currentColor"/>
<rect transform="translate(0.5691, 23.0000)" x="60.1501" y="-0.1000" width="1.6258" height="0.2000" ry="0.1000" fill="currentColor"/>
<rect transform="translate(0.5691, 23.0000)" x="57.0242" y="-0.1000" width="1.7410" height="0.2000" ry="0.1000" fill="currentColor"/>
<rect transform="translate(0.5691, 23.0000)" x="55.0668" y="-0.1000" width="1.7410" height="0.2000" ry="0.1000" fill="currentColor"/>
<rect transform="translate(0.5691, 23.0000)" x="53.1093" y="-0.1000" width="1.7410" height="0.2000" ry="0.1000" fill="currentColor"/>
<rect transform="translate(0.5691, 23.0000)" x="51.1518" y="-0.1000" width="1.7410" height="0.2000" ry="0.1000" fill="currentColor"/>
<rect transform="translate(0.5691, 23.0000)" x="49.1944" y="-0.1000" width="1.7410" height="0.2000" ry="0.1000" fill="currentColor"/>
<rect transform="translate(0.5691, 23.0000)" x="24.6656" y="-0.1000" width="1.7410" height="0.2000" ry="0.1000" fill="currentColor"/>
<rect transform="translate(0.5691, 24.0000)" x="24.6656" y="-0.1000" width="1.7410" height="0.2000" ry="0.1000" fill="currentColor"/>
<rect transform="translate(0.5691, 23.0000)" x="22.2089" y="-0.1000" width="1.7410" height="0.2000" ry="0.1000" fill="currentColor"/>
<rect transform="translate(0.5691, 24.0000)" x="22.2089" y="-0.1000" width="1.7410" height="0.2000" ry="0.1000" fill="currentColor"/>
<rect transform="translate(0.5691, 23.0000)" x="19.7522" y="-0.1000" width="1.7410" height="0.2000" ry="0.1000" fill="currentColor"/>
<rect transform="translate(0.5691, 24.0000)" x="19.7522" y="-0.1000" width="1.7410" height="0.2000" ry="0.1000" fill="currentColor"/>
<rect transform="translate(0.5691, 23.0000)" x="17.2955" y="-0.1000" width="1.7410" height="0.2000" ry="0.1000" fill="currentColor"/>
<rect transform="translate(0.5691, 24.0000)" x="17.4107" y="-0.1000" width="1.6258" height="0.2000" ry="0.1000" fill="currentColor"/>
<rect transform="translate(0.5691, 23.0000)" x="14.2849" y="-0.1000" width="1.7410" height="0.2000" ry="0.1000" fill="currentColor"/>
<rect transform="translate(0.5691, 24.0000)" x="14.2849" y="-0.1000" width="1.7410" height="0.2000" ry="0.1000" fill="currentColor"/>
<rect transform="translate(0.5691, 23.0000)" x="11.8282" y="-0.1000" width="1.7410" height="0.2000" ry="0.1000" fill="currentColor"/>
<rect transform="translate(0.5691, 24.0000)" x="11.8282" y="-0.1000" width="1.7410" height="0.2000" ry="0.1000" fill="currentColor"/>
<rect transform="translate(0.5691, 23.0000)" x="9.3715" y="-0.1000" width="1.7410" height="0.2000" ry="0.1000" fill="currentColor"/>
<rect transform="translate(0.5691, 24.0000)" x="9.3715" y="-0.1000" width="1.7410" height="0.2000" ry="0.1000" fill="currentColor"/>
<rect transform="translate(0.5691, 23.0000)" x="6.9148" y="-0.1000" width="1.7410" height="0.2000" ry="0.1000" fill="currentColor"/>
<rect transform="translate(0.5691, 24.0000)" x="6.9148" y="-0.1000" width="1.7410" height="0.2000" ry="0.1000" fill="currentColor"/>
<path transform="translate(6.0241, 19.5000) scale(0.0040, -0.0040)" d="M0 0c0 31 25 56 56 56s56 -25 56 -56s-25 -56 -56 -56s-56 25 -56 56z" fill="currentColor"/>
<path transform="translate(6.0241, 20.5000) scale(0.0040, -0.0040)" d="M0 0c0 31 25 56 56 56s56 -25 56 -56s-25 -56 -56 -56s-56 25 -56 56z" fill="currentColor"/>
<rect transform="translate(5.5341, 20.0000)" x="0.0000" y="-2.0000" width="0.1900" height="4.0000" ry="0.0000" fill="currentColor"/>
<rect transform="translate(4.6341, 20.0000)" x="0.0000" y="-2.0000" width="0.6000" height="4.0000" ry="0.0000" fill="currentColor"/>
<rect transform="translate(90.2898, 20.0000)" x="0.0000" y="-2.0000" width="0.1900" height="4.0000" ry="0.0000" fill="currentColor"/>
<rect transform="translate(49.0980, 20.0000)" x="0.0000" y="-2.0000" width="0.1900" height="4.0000" ry="0.0000" fill="currentColor"/>
<rect transform="translate(89.1780, 20.0000)" x="-0.0650" y="-2.0000" width="0.1300" height="6.3402" ry="0.0400" fill="currentColor"/>
<a style="color:inherit;" xlink:href="textedit:///Users/jwy/Documents/GitHub/sf004/public/pieces/sf004/notation/notes04.ly:150:34:35">
<path transform="translate(88.0823, 24.5000) scale(0.0036, -0.0036)" d="M215 137c57 0 111 -29 111 -92c0 -71 -54 -120 -101 -148c-35 -21 -74 -34 -114 -34c-57 0 -111 29 -111 92c0 71 54 120 101 148c35 21 74 34 114 34z" fill="currentColor"/>
</a>
<rect transform="translate(87.2205, 20.0000)" x="-0.0650" y="-2.0000" width="0.1300" height="6.3402" ry="0.0400" fill="currentColor"/>
<rect transform="translate(13.7831, 20.0000)" x="-0.0650" y="-2.0000" width="0.1300" height="6.3402" ry="0.0400" fill="currentColor"/>
<a style="color:inherit;" xlink:href="textedit:///Users/jwy/Documents/GitHub/sf004/public/pieces/sf004/notation/notes04.ly:142:16:17">
<path transform="translate(12.6874, 24.5000) scale(0.0036, -0.0036)" d="M215 137c57 0 111 -29 111 -92c0 -71 -54 -120 -101 -148c-35 -21 -74 -34 -114 -34c-57 0 -111 29 -111 92c0 71 54 120 101 148c35 21 74 34 114 34z" fill="currentColor"/>
</a>
<rect transform="translate(11.3264, 20.0000)" x="-0.0650" y="-2.0000" width="0.1300" height="6.3402" ry="0.0400" fill="currentColor"/>
<a style="color:inherit;" xlink:href="textedit:///Users/jwy/Documents/GitHub/sf004/public/pieces/sf004/notation/notes04.ly:142:14:15">
<path transform="translate(10.2307, 24.5000) scale(0.0036, -0.0036)" d="M215 137c57 0 111 -29 111 -92c0 -71 -54 -120 -101 -148c-35 -21 -74 -34 -114 -34c-57 0 -111 29 -111 92c0 71 54 120 101 148c35 21 74 34 114 34z" fill="currentColor"/>
</a>
<rect transform="translate(8.8697, 20.0000)" x="-0.0650" y="-2.0000" width="0.1300" height="6.3402" ry="0.0400" fill="currentColor"/>
<a style="color:inherit;" xlink:href="textedit:///Users/jwy/Documents/GitHub/sf004/public/pieces/sf004/notation/notes04.ly:142:10:11">
<path transform="translate(7.7741, 24.5000) scale(0.0036, -0.0036)" d="M215 137c57 0 111 -29 111 -92c0 -71 -54 -120 -101 -148c-35 -21 -74 -34 -114 -34c-57 0 -111 29 -111 92c0 71 54 120 101 148c35 21 74 34 114 34z" fill="currentColor"/>
</a>
<rect transform="translate(77.4331, 20.0000)" x="-0.0650" y="-2.8100" width="0.1300" height="6.6502" ry="0.0400" fill="currentColor"/>
<rect transform="translate(79.3906, 20.0000)" x="-0.0650" y="-2.8100" width="0.1300" height="6.6502" ry="0.0400" fill="currentColor"/>
<a style="color:inherit;" xlink:href="textedit:///Users/jwy/Documents/GitHub/sf004/public/pieces/sf004/notation/notes04.ly:149:34:35">
<path transform="translate(78.2949, 24.0000) scale(0.0036, -0.0036)" d="M215 137c57 0 111 -29 111 -92c0 -71 -54 -120 -101 -148c-35 -21 -74 -34 -114 -34c-57 0 -111 29 -111 92c0 71 54 120 101 148c35 21 74 34 114 34z" fill="currentColor"/>
</a>
<a style="color:inherit;" xlink:href="textedit:///Users/jwy/Documents/GitHub/sf004/public/pieces/sf004/notation/notes04.ly:149:32:33">
<path transform="translate(76.3375, 24.0000) scale(0.0036, -0.0036)" d="M215 137c57 0 111 -29 111 -92c0 -71 -54 -120 -101 -148c-35 -21 -74 -34 -114 -34c-57 0 -111 29 -111 92c0 71 54 120 101 148c35 21 74 34 114 34z" fill="currentColor"/>
</a>
<rect transform="translate(75.4756, 20.0000)" x="-0.0650" y="-2.8100" width="0.1300" height="6.6502" ry="0.0400" fill="currentColor"/>
<a style="color:inherit;" xlink:href="textedit:///Users/jwy/Documents/GitHub/sf004/public/pieces/sf004/notation/notes04.ly:149:30:31">
<path transform="translate(74.3800, 24.0000) scale(0.0036, -0.0036)" d="M215 137c57 0 111 -29 111 -92c0 -71 -54 -120 -101 -148c-35 -21 -74 -34 -114 -34c-57 0 -111 29 -111 92c0 71 54 120 101 148c35 21 74 34 114 34z" fill="currentColor"/>
</a>
<rect transform="translate(85.2630, 20.0000)" x="-0.0650" y="-2.0000" width="0.1300" height="6.3402" ry="0.0400" fill="currentColor"/>
<a style="color:inherit;" xlink:href="textedit:///Users/jwy/Documents/GitHub/sf004/public/pieces/sf004/notation/notes04.ly:150:30:31">
<path transform="translate(84.1673, 24.5000) scale(0.0036, -0.0036)" d="M215 137c57 0 111 -29 111 -92c0 -71 -54 -120 -101 -148c-35 -21 -74 -34 -114 -34c-57 0 -111 29 -111 92c0 71 54 120 101 148c35 21 74 34 114 34z" fill="currentColor"/>
</a>
<a style="color:inherit;" xlink:href="textedit:///Users/jwy/Documents/GitHub/sf004/public/pieces/sf004/notation/notes04.ly:150:32:33">
<path transform="translate(86.1248, 24.5000) scale(0.0036, -0.0036)" d="M215 137c57 0 111 -29 111 -92c0 -71 -54 -120 -101 -148c-35 -21 -74 -34 -114 -34c-57 0 -111 29 -111 92c0 71 54 120 101 148c35 21 74 34 114 34z" fill="currentColor"/>
</a>
<rect transform="translate(83.3055, 20.0000)" x="-0.0650" y="-2.0000" width="0.1300" height="6.3402" ry="0.0400" fill="currentColor"/>
<a style="color:inherit;" xlink:href="textedit:///Users/jwy/Documents/GitHub/sf004/public/pieces/sf004/notation/notes04.ly:150:28:29">
<path transform="translate(82.2099, 24.5000) scale(0.0036, -0.0036)" d="M215 137c57 0 111 -29 111 -92c0 -71 -54 -120 -101 -148c-35 -21 -74 -34 -114 -34c-57 0 -111 29 -111 92c0 71 54 120 101 148c35 21 74 34 114 34z" fill="currentColor"/>
</a>
<rect transform="translate(81.3481, 20.0000)" x="-0.0650" y="-2.0000" width="0.1300" height="6.3402" ry="0.0400" fill="currentColor"/>
<a style="color:inherit;" xlink:href="textedit:///Users/jwy/Documents/GitHub/sf004/public/pieces/sf004/notation/notes04.ly:150:24:25">
<path transform="translate(80.2524, 24.5000) scale(0.0036, -0.0036)" d="M215 137c57 0 111 -29 111 -92c0 -71 -54 -120 -101 -148c-35 -21 -74 -34 -114 -34c-57 0 -111 29 -111 92c0 71 54 120 101 148c35 21 74 34 114 34z" fill="currentColor"/>
</a>
<rect transform="translate(33.2421, 20.0000)" x="-0.0650" y="-4.8100" width="0.1300" height="6.6502" ry="0.0400" fill="currentColor"/>
<polygon transform="translate(81.2831, 18.0000)" stroke-linejoin="round" stroke-linecap="round" stroke-width="0.0800" fill="currentColor" stroke="currentColor" points="7.9199 -0.2000 7.9199 0.2000 0.0400 0.2000 0.0400 -0.2000"/>
<polygon transform="translate(81.2831, 18.8100)" stroke-linejoin="round" stroke-linecap="round" stroke-width="0.0800" fill="currentColor" stroke="currentColor" points="7.9199 -0.2000 7.9199 0.2000 0.0400 0.2000 0.0400 -0.2000"/>
<rect transform="translate(35.1995, 20.0000)" x="-0.0650" y="-4.8100" width="0.1300" height="6.6502" ry="0.0400" fill="currentColor"/>
<a style="color:inherit;" xlink:href="textedit:///Users/jwy/Documents/GitHub/sf004/public/pieces/sf004/notation/notes04.ly:144:35:36">
<path transform="translate(34.1039, 22.0000) scale(0.0036, -0.0036)" d="M215 137c57 0 111 -29 111 -92c0 -71 -54 -120 -101 -148c-35 -21 -74 -34 -114 -34c-57 0 -111 29 -111 92c0 71 54 120 101 148c35 21 74 34 114 34z" fill="currentColor"/>
</a>
<polygon transform="translate(71.4957, 17.1900)" stroke-linejoin="round" stroke-linecap="round" stroke-width="0.0800" fill="currentColor" stroke="currentColor" points="7.9199 -0.2000 7.9199 0.2000 0.0400 0.2000 0.0400 -0.2000"/>
<polygon transform="translate(71.4957, 18.0000)" stroke-linejoin="round" stroke-linecap="round" stroke-width="0.0800" fill="currentColor" stroke="currentColor" points="7.9199 -0.2000 7.9199 0.2000 0.0400 0.2000 0.0400 -0.2000"/>
<a style="color:inherit;" xlink:href="textedit:///Users/jwy/Documents/GitHub/sf004/public/pieces/sf004/notation/notes04.ly:144:32:33">
<path transform="translate(32.1464, 22.0000) scale(0.0036, -0.0036)" d="M215 137c57 0 111 -29 111 -92c0 -71 -54 -120 -101 -148c-35 -21 -74 -34 -114 -34c-57 0 -111 29 -111 92c0 71 54 120 101 148c35 21 74 34 114 34z" fill="currentColor"/>
</a>
<rect transform="translate(31.2846, 20.0000)" x="-0.0650" y="-4.8100" width="0.1300" height="6.6502" ry="0.0400" fill="currentColor"/>
<a style="color:inherit;" xlink:href="textedit:///Users/jwy/Documents/GitHub/sf004/public/pieces/sf004/notation/notes04.ly:144:29:30">
<path transform="translate(30.1889, 22.0000) scale(0.0036, -0.0036)" d="M215 137c57 0 111 -29 111 -92c0 -71 -54 -120 -101 -148c-35 -21 -74 -34 -114 -34c-57 0 -111 29 -111 92c0 71 54 120 101 148c35 21 74 34 114 34z" fill="currentColor"/>
</a>
<a style="color:inherit;" xlink:href="textedit:///Users/jwy/Documents/GitHub/sf004/public/pieces/sf004/notation/notes04.ly:147:11:12">
<text transform="translate(54.6203, 15.4134)" font-family="serif" font-style="italic" font-size="1.7461" text-anchor="start" fill="currentColor">
<tspan>5</tspan>
</text>
</a>
<polygon transform="translate(8.8047, 18.0000)" stroke-linejoin="round" stroke-linecap="round" stroke-width="0.0800" fill="currentColor" stroke="currentColor" points="7.4600 -0.2000 7.4600 0.2000 0.0400 0.2000 0.0400 -0.2000"/>
<polygon transform="translate(8.8047, 18.8100)" stroke-linejoin="round" stroke-linecap="round" stroke-width="0.0800" fill="currentColor" stroke="currentColor" points="7.4600 -0.2000 7.4600 0.2000 0.0400 0.2000 0.0400 -0.2000"/>
<a style="color:inherit;" xlink:href="textedit:///Users/jwy/Documents/GitHub/sf004/public/pieces/sf004/notation/notes04.ly:144:11:12">
<line transform="translate(29.2621, 13.8500)" stroke-linejoin="round" stroke-linecap="round" stroke-width="0.1600" stroke="currentColor" x1="8.1599" y1="-0.0000" x2="8.1599" y2="0.7000"/>
<line transform="translate(29.2621, 13.8500)" stroke-linejoin="round" stroke-linecap="round" stroke-width="0.1600" stroke="currentColor" x1="-0.2000" y1="-0.0000" x2="-0.2000" y2="0.7000"/>
<line transform="translate(29.2621, 13.8500)" stroke-linejoin="round" stroke-linecap="round" stroke-width="0.1600" stroke="currentColor" x1="8.1599" y1="-0.0000" x2="5.0238" y2="-0.0000"/>
<line transform="translate(29.2621, 13.8500)" stroke-linejoin="round" stroke-linecap="round" stroke-width="0.1600" stroke="currentColor" x1="-0.2000" y1="-0.0000" x2="3.1361" y2="-0.0000"/>
</a>
<a style="color:inherit;" xlink:href="textedit:///Users/jwy/Documents/GitHub/sf004/public/pieces/sf004/notation/notes04.ly:144:11:12">
<text transform="translate(32.7982, 14.4134)" font-family="serif" font-style="italic" font-size="1.7461" text-anchor="start" fill="currentColor">
<tspan>5</tspan>
</text>
</a>
<polygon transform="translate(19.1854, 18.0000)" stroke-linejoin="round" stroke-linecap="round" stroke-width="0.0800" fill="currentColor" stroke="currentColor" points="7.4600 -0.2000 7.4600 0.2000 0.0400 0.2000 0.0400 -0.2000"/>
<polygon transform="translate(19.1854, 18.8100)" stroke-linejoin="round" stroke-linecap="round" stroke-width="0.0800" fill="currentColor" stroke="currentColor" points="7.4600 -0.2000 7.4600 0.2000 0.0400 0.2000 0.0400 -0.2000"/>
<a style="color:inherit;" xlink:href="textedit:///Users/jwy/Documents/GitHub/sf004/public/pieces/sf004/notation/notes04.ly:145:11:12">
<line transform="translate(40.1027, 13.4700)" stroke-linejoin="round" stroke-linecap="round" stroke-width="0.1600" stroke="currentColor" x1="8.1599" y1="-0.0000" x2="8.1599" y2="0.7000"/>
<line transform="translate(40.1027, 13.4700)" stroke-linejoin="round" stroke-linecap="round" stroke-width="0.1600" stroke="currentColor" x1="-0.2000" y1="-0.0000" x2="-0.2000" y2="0.7000"/>
<line transform="translate(40.1027, 13.4700)" stroke-linejoin="round" stroke-linecap="round" stroke-width="0.1600" stroke="currentColor" x1="8.1599" y1="-0.0000" x2="5.0238" y2="-0.0000"/>
<line transform="translate(40.1027, 13.4700)" stroke-linejoin="round" stroke-linecap="round" stroke-width="0.1600" stroke="currentColor" x1="-0.2000" y1="-0.0000" x2="3.1361" y2="-0.0000"/>
</a>
<a style="color:inherit;" xlink:href="textedit:///Users/jwy/Documents/GitHub/sf004/public/pieces/sf004/notation/notes04.ly:145:11:12">
<text transform="translate(43.6388, 14.0334)" font-family="serif" font-style="italic" font-size="1.7461" text-anchor="start" fill="currentColor">
<tspan>5</tspan>
</text>
</a>
<polygon transform="translate(29.2621, 15.1900)" stroke-linejoin="round" stroke-linecap="round" stroke-width="0.0800" fill="currentColor" stroke="currentColor" points="7.9199 -0.2000 7.9199 0.2000 0.0400 0.2000 0.0400 -0.2000"/>
<polygon transform="translate(29.2621, 16.0000)" stroke-linejoin="round" stroke-linecap="round" stroke-width="0.0800" fill="currentColor" stroke="currentColor" points="7.9199 -0.2000 7.9199 0.2000 0.0400 0.2000 0.0400 -0.2000"/>
<polygon transform="translate(40.1027, 14.8100)" stroke-linejoin="round" stroke-linecap="round" stroke-width="0.0800" fill="currentColor" stroke="currentColor" points="7.9199 -0.2000 7.9199 0.2000 0.0400 0.2000 0.0400 -0.2000"/>
<polygon transform="translate(40.1027, 15.6200)" stroke-linejoin="round" stroke-linecap="round" stroke-width="0.0800" fill="currentColor" stroke="currentColor" points="7.9199 -0.2000 7.9199 0.2000 0.0400 0.2000 0.0400 -0.2000"/>
<a style="color:inherit;" xlink:href="textedit:///Users/jwy/Documents/GitHub/sf004/public/pieces/sf004/notation/notes04.ly:147:11:12">
<line transform="translate(51.0842, 14.8500)" stroke-linejoin="round" stroke-linecap="round" stroke-width="0.1600" stroke="currentColor" x1="8.1599" y1="-0.0000" x2="8.1599" y2="0.7000"/>
<line transform="translate(51.0842, 14.8500)" stroke-linejoin="round" stroke-linecap="round" stroke-width="0.1600" stroke="currentColor" x1="-0.2000" y1="-0.0000" x2="-0.2000" y2="0.7000"/>
<line transform="translate(51.0842, 14.8500)" stroke-linejoin="round" stroke-linecap="round" stroke-width="0.1600" stroke="currentColor" x1="8.1599" y1="-0.0000" x2="5.0238" y2="-0.0000"/>
<line transform="translate(51.0842, 14.8500)" stroke-linejoin="round" stroke-linecap="round" stroke-width="0.1600" stroke="currentColor" x1="-0.2000" y1="-0.0000" x2="3.1361" y2="-0.0000"/>
</a>
<a style="color:inherit;" xlink:href="textedit:///Users/jwy/Documents/GitHub/sf004/public/pieces/sf004/notation/notes04.ly:148:11:12">
<line transform="translate(61.9248, 14.8500)" stroke-linejoin="round" stroke-linecap="round" stroke-width="0.1600" stroke="currentColor" x1="8.1599" y1="-0.0000" x2="8.1599" y2="0.7000"/>
<line transform="translate(61.9248, 14.8500)" stroke-linejoin="round" stroke-linecap="round" stroke-width="0.1600" stroke="currentColor" x1="-0.2000" y1="-0.0000" x2="-0.2000" y2="0.7000"/>
<line transform="translate(61.9248, 14.8500)" stroke-linejoin="round" stroke-linecap="round" stroke-width="0.1600" stroke="currentColor" x1="8.1599" y1="-0.0000" x2="5.0238" y2="-0.0000"/>
<line transform="translate(61.9248, 14.8500)" stroke-linejoin="round" stroke-linecap="round" stroke-width="0.1600" stroke="currentColor" x1="-0.2000" y1="-0.0000" x2="3.1361" y2="-0.0000"/>
</a>
<a style="color:inherit;" xlink:href="textedit:///Users/jwy/Documents/GitHub/sf004/public/pieces/sf004/notation/notes04.ly:148:11:12">
<text transform="translate(65.4609, 15.4134)" font-family="serif" font-style="italic" font-size="1.7461" text-anchor="start" fill="currentColor">
<tspan>5</tspan>
</text>
</a>
<polygon transform="translate(51.0842, 16.1900)" stroke-linejoin="round" stroke-linecap="round" stroke-width="0.0800" fill="currentColor" stroke="currentColor" points="7.9199 -0.2000 7.9199 0.2000 0.0400 0.2000 0.0400 -0.2000"/>
<polygon transform="translate(51.0842, 17.0000)" stroke-linejoin="round" stroke-linecap="round" stroke-width="0.0800" fill="currentColor" stroke="currentColor" points="7.9199 -0.2000 7.9199 0.2000 0.0400 0.2000 0.0400 -0.2000"/>
<a style="color:inherit;" xlink:href="textedit:///Users/jwy/Documents/GitHub/sf004/public/pieces/sf004/notation/notes04.ly:149:11:12">
<line transform="translate(71.4957, 15.8500)" stroke-linejoin="round" stroke-linecap="round" stroke-width="0.1600" stroke="currentColor" x1="8.1599" y1="-0.0000" x2="8.1599" y2="0.7000"/>
<line transform="translate(71.4957, 15.8500)" stroke-linejoin="round" stroke-linecap="round" stroke-width="0.1600" stroke="currentColor" x1="-0.2000" y1="-0.0000" x2="-0.2000" y2="0.7000"/>
<line transform="translate(71.4957, 15.8500)" stroke-linejoin="round" stroke-linecap="round" stroke-width="0.1600" stroke="currentColor" x1="8.1599" y1="-0.0000" x2="5.0238" y2="-0.0000"/>
<line transform="translate(71.4957, 15.8500)" stroke-linejoin="round" stroke-linecap="round" stroke-width="0.1600" stroke="currentColor" x1="-0.2000" y1="-0.0000" x2="3.1361" y2="-0.0000"/>
</a>
<a style="color:inherit;" xlink:href="textedit:///Users/jwy/Documents/GitHub/sf004/public/pieces/sf004/notation/notes04.ly:149:11:12">
<text transform="translate(75.0318, 16.4134)" font-family="serif" font-style="italic" font-size="1.7461" text-anchor="start" fill="currentColor">
<tspan>5</tspan>
</text>
</a>
<polygon transform="translate(61.9248, 16.1900)" stroke-linejoin="round" stroke-linecap="round" stroke-width="0.0800" fill="currentColor" stroke="currentColor" points="7.9199 -0.2000 7.9199 0.2000 0.0400 0.2000 0.0400 -0.2000"/>
<polygon transform="translate(61.9248, 17.0000)" stroke-linejoin="round" stroke-linecap="round" stroke-width="0.0800" fill="currentColor" stroke="currentColor" points="7.9199 -0.2000 7.9199 0.2000 0.0400 0.2000 0.0400 -0.2000"/>
<a style="color:inherit;" xlink:href="textedit:///Users/jwy/Documents/GitHub/sf004/public/pieces/sf004/notation/notes04.ly:150:11:12">
<line transform="translate(81.2831, 16.6600)" stroke-linejoin="round" stroke-linecap="round" stroke-width="0.1600" stroke="currentColor" x1="8.1599" y1="-0.0000" x2="8.1599" y2="0.7000"/>
<line transform="translate(81.2831, 16.6600)" stroke-linejoin="round" stroke-linecap="round" stroke-width="0.1600" stroke="currentColor" x1="-0.2000" y1="-0.0000" x2="-0.2000" y2="0.7000"/>
<line transform="translate(81.2831, 16.6600)" stroke-linejoin="round" stroke-linecap="round" stroke-width="0.1600" stroke="currentColor" x1="8.1599" y1="-0.0000" x2="5.0238" y2="-0.0000"/>
<line transform="translate(81.2831, 16.6600)" stroke-linejoin="round" stroke-linecap="round" stroke-width="0.1600" stroke="currentColor" x1="-0.2000" y1="-0.0000" x2="3.1361" y2="-0.0000"/>
</a>
<a style="color:inherit;" xlink:href="textedit:///Users/jwy/Documents/GitHub/sf004/public/pieces/sf004/notation/notes04.ly:150:11:12">
<text transform="translate(84.8191, 17.2234)" font-family="serif" font-style="italic" font-size="1.7461" text-anchor="start" fill="currentColor">
<tspan>5</tspan>
</text>
</a>
<a style="color:inherit;" xlink:href="textedit:///Users/jwy/Documents/GitHub/sf004/public/pieces/sf004/notation/notes04.ly:143:10:11">
<path transform="translate(18.1548, 24.5000) scale(0.0036, -0.0036)" d="M215 137c57 0 111 -29 111 -92c0 -71 -54 -120 -101 -148c-35 -21 -74 -34 -114 -34c-57 0 -111 29 -111 92c0 71 54 120 101 148c35 21 74 34 114 34z" fill="currentColor"/>
</a>
<rect transform="translate(21.7071, 20.0000)" x="-0.0650" y="-2.0000" width="0.1300" height="6.3402" ry="0.0400" fill="currentColor"/>
<a style="color:inherit;" xlink:href="textedit:///Users/jwy/Documents/GitHub/sf004/public/pieces/sf004/notation/notes04.ly:143:16:17">
<path transform="translate(20.6114, 24.5000) scale(0.0036, -0.0036)" d="M215 137c57 0 111 -29 111 -92c0 -71 -54 -120 -101 -148c-35 -21 -74 -34 -114 -34c-57 0 -111 29 -111 92c0 71 54 120 101 148c35 21 74 34 114 34z" fill="currentColor"/>
</a>
<path transform="translate(16.7048, 24.5000) scale(0.0040, -0.0040)" d="M216 -312c0 -10 -8 -19 -18 -19s-19 9 -19 19v145l-83 -31v-158c0 -10 -9 -19 -19 -19s-18 9 -18 19v145l-32 -12c-2 -1 -5 -1 -7 -1c-11 0 -20 9 -20 20v60c0 8 5 16 13 19l46 16v160l-32 -11c-2 -1 -5 -1 -7 -1c-11 0 -20 9 -20 20v60c0 8 5 15 13 18l46 17v158
c0 10 8 19 18 19s19 -9 19 -19v-145l83 31v158c0 10 9 19 19 19s18 -9 18 -19v-145l32 12c2 1 5 1 7 1c11 0 20 -9 20 -20v-60c0 -8 -5 -16 -13 -19l-46 -16v-160l32 11c2 1 5 1 7 1c11 0 20 -9 20 -20v-60c0 -8 -5 -15 -13 -18l-46 -17v-158zM96 65v-160l83 30v160z" fill="currentColor"/>
<rect transform="translate(19.2504, 20.0000)" x="-0.0650" y="-2.0000" width="0.1300" height="6.3402" ry="0.0400" fill="currentColor"/>
<rect transform="translate(16.2398, 20.0000)" x="-0.0650" y="-2.0000" width="0.1300" height="6.3402" ry="0.0400" fill="currentColor"/>
<a style="color:inherit;" xlink:href="textedit:///Users/jwy/Documents/GitHub/sf004/public/pieces/sf004/notation/notes04.ly:142:18:19">
<path transform="translate(15.1441, 24.5000) scale(0.0036, -0.0036)" d="M215 137c57 0 111 -29 111 -92c0 -71 -54 -120 -101 -148c-35 -21 -74 -34 -114 -34c-57 0 -111 29 -111 92c0 71 54 120 101 148c35 21 74 34 114 34z" fill="currentColor"/>
</a>
<rect transform="translate(29.3271, 20.0000)" x="-0.0650" y="-4.8100" width="0.1300" height="6.6502" ry="0.0400" fill="currentColor"/>
<a style="color:inherit;" xlink:href="textedit:///Users/jwy/Documents/GitHub/sf004/public/pieces/sf004/notation/notes04.ly:144:24:25">
<path transform="translate(28.2315, 22.0000) scale(0.0036, -0.0036)" d="M215 137c57 0 111 -29 111 -92c0 -71 -54 -120 -101 -148c-35 -21 -74 -34 -114 -34c-57 0 -111 29 -111 92c0 71 54 120 101 148c35 21 74 34 114 34z" fill="currentColor"/>
</a>
<rect transform="translate(26.6205, 20.0000)" x="-0.0650" y="-2.0000" width="0.1300" height="6.3402" ry="0.0400" fill="currentColor"/>
<a style="color:inherit;" xlink:href="textedit:///Users/jwy/Documents/GitHub/sf004/public/pieces/sf004/notation/notes04.ly:143:24:25">
<path transform="translate(25.5248, 24.5000) scale(0.0036, -0.0036)" d="M215 137c57 0 111 -29 111 -92c0 -71 -54 -120 -101 -148c-35 -21 -74 -34 -114 -34c-57 0 -111 29 -111 92c0 71 54 120 101 148c35 21 74 34 114 34z" fill="currentColor"/>
</a>
<rect transform="translate(24.1638, 20.0000)" x="-0.0650" y="-2.0000" width="0.1300" height="6.3402" ry="0.0400" fill="currentColor"/>
<a style="color:inherit;" xlink:href="textedit:///Users/jwy/Documents/GitHub/sf004/public/pieces/sf004/notation/notes04.ly:143:20:21">
<path transform="translate(23.0681, 24.5000) scale(0.0036, -0.0036)" d="M215 137c57 0 111 -29 111 -92c0 -71 -54 -120 -101 -148c-35 -21 -74 -34 -114 -34c-57 0 -111 29 -111 92c0 71 54 120 101 148c35 21 74 34 114 34z" fill="currentColor"/>
</a>
<rect transform="translate(47.9976, 20.0000)" x="-0.0650" y="-5.1900" width="0.1300" height="6.5302" ry="0.0400" fill="currentColor"/>
<rect transform="translate(51.1492, 20.0000)" x="-0.0650" y="-3.8100" width="0.1300" height="6.6502" ry="0.0400" fill="currentColor"/>
<a style="color:inherit;" xlink:href="textedit:///Users/jwy/Documents/GitHub/sf004/public/pieces/sf004/notation/notes04.ly:147:24:25">
<path transform="translate(50.0536, 23.0000) scale(0.0036, -0.0036)" d="M215 137c57 0 111 -29 111 -92c0 -71 -54 -120 -101 -148c-35 -21 -74 -34 -114 -34c-57 0 -111 29 -111 92c0 71 54 120 101 148c35 21 74 34 114 34z" fill="currentColor"/>
</a>
<a style="color:inherit;" xlink:href="textedit:///Users/jwy/Documents/GitHub/sf004/public/pieces/sf004/notation/notes04.ly:145:46:47">
<path transform="translate(46.9019, 21.5000) scale(0.0036, -0.0036)" d="M215 137c57 0 111 -29 111 -92c0 -71 -54 -120 -101 -148c-35 -21 -74 -34 -114 -34c-57 0 -111 29 -111 92c0 71 54 120 101 148c35 21 74 34 114 34z" fill="currentColor"/>
</a>
<rect transform="translate(46.0401, 20.0000)" x="-0.0650" y="-5.1900" width="0.1300" height="6.5302" ry="0.0400" fill="currentColor"/>
<a style="color:inherit;" xlink:href="textedit:///Users/jwy/Documents/GitHub/sf004/public/pieces/sf004/notation/notes04.ly:145:41:42">
<path transform="translate(44.9444, 21.5000) scale(0.0036, -0.0036)" d="M215 137c57 0 111 -29 111 -92c0 -71 -54 -120 -101 -148c-35 -21 -74 -34 -114 -34c-57 0 -111 29 -111 92c0 71 54 120 101 148c35 21 74 34 114 34z" fill="currentColor"/>
</a>
<rect transform="translate(55.0642, 20.0000)" x="-0.0650" y="-3.8100" width="0.1300" height="6.6502" ry="0.0400" fill="currentColor"/>
<a style="color:inherit;" xlink:href="textedit:///Users/jwy/Documents/GitHub/sf004/public/pieces/sf004/notation/notes04.ly:147:32:33">
<path transform="translate(53.9685, 23.0000) scale(0.0036, -0.0036)" d="M215 137c57 0 111 -29 111 -92c0 -71 -54 -120 -101 -148c-35 -21 -74 -34 -114 -34c-57 0 -111 29 -111 92c0 71 54 120 101 148c35 21 74 34 114 34z" fill="currentColor"/>
</a>
<rect transform="translate(53.1067, 20.0000)" x="-0.0650" y="-3.8100" width="0.1300" height="6.6502" ry="0.0400" fill="currentColor"/>
<rect transform="translate(37.1570, 20.0000)" x="-0.0650" y="-4.8100" width="0.1300" height="6.6502" ry="0.0400" fill="currentColor"/>
<a style="color:inherit;" xlink:href="textedit:///Users/jwy/Documents/GitHub/sf004/public/pieces/sf004/notation/notes04.ly:144:38:39">
<path transform="translate(36.0614, 22.0000) scale(0.0036, -0.0036)" d="M215 137c57 0 111 -29 111 -92c0 -71 -54 -120 -101 -148c-35 -21 -74 -34 -114 -34c-57 0 -111 29 -111 92c0 71 54 120 101 148c35 21 74 34 114 34z" fill="currentColor"/>
</a>
<path transform="translate(1.3691, 21.0000) scale(0.0040, -0.0040)" d="M376 262c4 0 9 1 13 1c155 0 256 -128 256 -261c0 -76 -33 -154 -107 -210c-22 -17 -47 -28 -73 -36c3 -35 5 -70 5 -105c0 -19 -1 -39 -2 -58c-7 -120 -90 -228 -208 -228c-108 0 -195 88 -195 197c0 58 53 103 112 103c54 0 95 -47 95 -103c0 -52 -43 -95 -95 -95
c-11 0 -21 2 -31 6c26 -39 68 -65 117 -65c96 0 157 92 163 191c1 18 2 37 2 55c0 31 -1 61 -4 92c-29 -5 -58 -8 -89 -8c-188 0 -333 172 -333 374c0 177 131 306 248 441c-19 62 -37 125 -45 190c-6 52 -7 104 -7 156c0 115 55 224 149 292c3 2 7 3 10 3c4 0 7 0 10 -3
c71 -84 133 -245 133 -358c0 -143 -86 -255 -180 -364c21 -68 39 -138 56 -207zM461 -203c68 24 113 95 113 164c0 90 -66 179 -173 190c24 -116 46 -231 60 -354zM74 28c0 -135 129 -247 264 -247c28 0 55 2 82 6c-14 127 -37 245 -63 364c-79 -8 -124 -61 -124 -119
c0 -44 25 -91 81 -123c5 -5 7 -10 7 -15c0 -11 -10 -22 -22 -22c-3 0 -6 1 -9 2c-80 43 -117 115 -117 185c0 88 58 174 160 197c-14 58 -29 117 -46 175c-107 -121 -213 -243 -213 -403zM408 1045c-99 -48 -162 -149 -162 -259c0 -74 18 -133 36 -194
c80 97 146 198 146 324c0 55 -4 79 -20 129z" fill="currentColor"/>
<rect transform="translate(44.0826, 20.0000)" x="-0.0650" y="-5.1900" width="0.1300" height="6.5302" ry="0.0400" fill="currentColor"/>
<a style="color:inherit;" xlink:href="textedit:///Users/jwy/Documents/GitHub/sf004/public/pieces/sf004/notation/notes04.ly:145:36:37">
<path transform="translate(42.9870, 21.5000) scale(0.0036, -0.0036)" d="M215 137c57 0 111 -29 111 -92c0 -71 -54 -120 -101 -148c-35 -21 -74 -34 -114 -34c-57 0 -111 29 -111 92c0 71 54 120 101 148c35 21 74 34 114 34z" fill="currentColor"/>
</a>
<rect transform="translate(42.1252, 20.0000)" x="-0.0650" y="-5.1900" width="0.1300" height="6.5302" ry="0.0400" fill="currentColor"/>
<a style="color:inherit;" xlink:href="textedit:///Users/jwy/Documents/GitHub/sf004/public/pieces/sf004/notation/notes04.ly:145:31:32">
<path transform="translate(41.0295, 21.5000) scale(0.0036, -0.0036)" d="M215 137c57 0 111 -29 111 -92c0 -71 -54 -120 -101 -148c-35 -21 -74 -34 -114 -34c-57 0 -111 29 -111 92c0 71 54 120 101 148c35 21 74 34 114 34z" fill="currentColor"/>
</a>
<a style="color:inherit;" xlink:href="textedit:///Users/jwy/Documents/GitHub/sf004/public/pieces/sf004/notation/notes04.ly:147:29:30">
<path transform="translate(52.0110, 23.0000) scale(0.0036, -0.0036)" d="M215 137c57 0 111 -29 111 -92c0 -71 -54 -120 -101 -148c-35 -21 -74 -34 -114 -34c-57 0 -111 29 -111 92c0 71 54 120 101 148c35 21 74 34 114 34z" fill="currentColor"/>
</a>
<path transform="translate(37.6220, 21.5000) scale(0.0040, -0.0040)" d="M216 -312c0 -10 -8 -19 -18 -19s-19 9 -19 19v145l-83 -31v-158c0 -10 -9 -19 -19 -19s-18 9 -18 19v145l-32 -12c-2 -1 -5 -1 -7 -1c-11 0 -20 9 -20 20v60c0 8 5 16 13 19l46 16v160l-32 -11c-2 -1 -5 -1 -7 -1c-11 0 -20 9 -20 20v60c0 8 5 15 13 18l46 17v158
c0 10 8 19 18 19s19 -9 19 -19v-145l83 31v158c0 10 9 19 19 19s18 -9 18 -19v-145l32 12c2 1 5 1 7 1c11 0 20 -9 20 -20v-60c0 -8 -5 -16 -13 -19l-46 -16v-160l32 11c2 1 5 1 7 1c11 0 20 -9 20 -20v-60c0 -8 -5 -15 -13 -18l-46 -17v-158zM96 65v-160l83 30v160z" fill="currentColor"/>
<rect transform="translate(40.1677, 20.0000)" x="-0.0650" y="-5.1900" width="0.1300" height="6.5302" ry="0.0400" fill="currentColor"/>
<a style="color:inherit;" xlink:href="textedit:///Users/jwy/Documents/GitHub/sf004/public/pieces/sf004/notation/notes04.ly:145:24:25">
<path transform="translate(39.0720, 21.5000) scale(0.0036, -0.0036)" d="M215 137c57 0 111 -29 111 -92c0 -71 -54 -120 -101 -148c-35 -21 -74 -34 -114 -34c-57 0 -111 29 -111 92c0 71 54 120 101 148c35 21 74 34 114 34z" fill="currentColor"/>
</a>
<a style="color:inherit;" xlink:href="textedit:///Users/jwy/Documents/GitHub/sf004/public/pieces/sf004/notation/notes04.ly:148:36:37">
<path transform="translate(64.8091, 23.0000) scale(0.0036, -0.0036)" d="M215 137c57 0 111 -29 111 -92c0 -71 -54 -120 -101 -148c-35 -21 -74 -34 -114 -34c-57 0 -111 29 -111 92c0 71 54 120 101 148c35 21 74 34 114 34z" fill="currentColor"/>
</a>
<rect transform="translate(67.8622, 20.0000)" x="-0.0650" y="-3.8100" width="0.1300" height="6.6502" ry="0.0400" fill="currentColor"/>
<a style="color:inherit;" xlink:href="textedit:///Users/jwy/Documents/GitHub/sf004/public/pieces/sf004/notation/notes04.ly:148:41:42">
<path transform="translate(66.7666, 23.0000) scale(0.0036, -0.0036)" d="M215 137c57 0 111 -29 111 -92c0 -71 -54 -120 -101 -148c-35 -21 -74 -34 -114 -34c-57 0 -111 29 -111 92c0 71 54 120 101 148c35 21 74 34 114 34z" fill="currentColor"/>
</a>
<rect transform="translate(65.9048, 20.0000)" x="-0.0650" y="-3.8100" width="0.1300" height="6.6502" ry="0.0400" fill="currentColor"/>
<rect transform="translate(63.9473, 20.0000)" x="-0.0650" y="-3.8100" width="0.1300" height="6.6502" ry="0.0400" fill="currentColor"/>
<a style="color:inherit;" xlink:href="textedit:///Users/jwy/Documents/GitHub/sf004/public/pieces/sf004/notation/notes04.ly:148:31:32">
<path transform="translate(62.8516, 23.0000) scale(0.0036, -0.0036)" d="M215 137c57 0 111 -29 111 -92c0 -71 -54 -120 -101 -148c-35 -21 -74 -34 -114 -34c-57 0 -111 29 -111 92c0 71 54 120 101 148c35 21 74 34 114 34z" fill="currentColor"/>
</a>
<path transform="translate(59.4441, 23.0000) scale(0.0040, -0.0040)" d="M216 -312c0 -10 -8 -19 -18 -19s-19 9 -19 19v145l-83 -31v-158c0 -10 -9 -19 -19 -19s-18 9 -18 19v145l-32 -12c-2 -1 -5 -1 -7 -1c-11 0 -20 9 -20 20v60c0 8 5 16 13 19l46 16v160l-32 -11c-2 -1 -5 -1 -7 -1c-11 0 -20 9 -20 20v60c0 8 5 15 13 18l46 17v158
c0 10 8 19 18 19s19 -9 19 -19v-145l83 31v158c0 10 9 19 19 19s18 -9 18 -19v-145l32 12c2 1 5 1 7 1c11 0 20 -9 20 -20v-60c0 -8 -5 -16 -13 -19l-46 -16v-160l32 11c2 1 5 1 7 1c11 0 20 -9 20 -20v-60c0 -8 -5 -15 -13 -18l-46 -17v-158zM96 65v-160l83 30v160z" fill="currentColor"/>
<a style="color:inherit;" xlink:href="textedit:///Users/jwy/Documents/GitHub/sf004/public/pieces/sf004/notation/notes04.ly:149:24:25">
<path transform="translate(70.4650, 24.0000) scale(0.0036, -0.0036)" d="M215 137c57 0 111 -29 111 -92c0 -71 -54 -120 -101 -148c-35 -21 -74 -34 -114 -34c-57 0 -111 29 -111 92c0 71 54 120 101 148c35 21 74 34 114 34z" fill="currentColor"/>
</a>
<rect transform="translate(73.5182, 20.0000)" x="-0.0650" y="-2.8100" width="0.1300" height="6.6502" ry="0.0400" fill="currentColor"/>
<a style="color:inherit;" xlink:href="textedit:///Users/jwy/Documents/GitHub/sf004/public/pieces/sf004/notation/notes04.ly:149:28:29">
<path transform="translate(72.4225, 24.0000) scale(0.0036, -0.0036)" d="M215 137c57 0 111 -29 111 -92c0 -71 -54 -120 -101 -148c-35 -21 -74 -34 -114 -34c-57 0 -111 29 -111 92c0 71 54 120 101 148c35 21 74 34 114 34z" fill="currentColor"/>
</a>
<rect transform="translate(71.5607, 20.0000)" x="-0.0650" y="-2.8100" width="0.1300" height="6.6502" ry="0.0400" fill="currentColor"/>
<rect transform="translate(69.8197, 20.0000)" x="-0.0650" y="-3.8100" width="0.1300" height="6.6502" ry="0.0400" fill="currentColor"/>
<a style="color:inherit;" xlink:href="textedit:///Users/jwy/Documents/GitHub/sf004/public/pieces/sf004/notation/notes04.ly:148:46:47">
<path transform="translate(68.7240, 23.0000) scale(0.0036, -0.0036)" d="M215 137c57 0 111 -29 111 -92c0 -71 -54 -120 -101 -148c-35 -21 -74 -34 -114 -34c-57 0 -111 29 -111 92c0 71 54 120 101 148c35 21 74 34 114 34z" fill="currentColor"/>
</a>
<a style="color:inherit;" xlink:href="textedit:///Users/jwy/Documents/GitHub/sf004/public/pieces/sf004/notation/notes04.ly:147:35:36">
<path transform="translate(55.9260, 23.0000) scale(0.0036, -0.0036)" d="M215 137c57 0 111 -29 111 -92c0 -71 -54 -120 -101 -148c-35 -21 -74 -34 -114 -34c-57 0 -111 29 -111 92c0 71 54 120 101 148c35 21 74 34 114 34z" fill="currentColor"/>
</a>
<rect transform="translate(57.0217, 20.0000)" x="-0.0650" y="-3.8100" width="0.1300" height="6.6502" ry="0.0400" fill="currentColor"/>
<a style="color:inherit;" xlink:href="textedit:///Users/jwy/Documents/GitHub/sf004/public/pieces/sf004/notation/notes04.ly:147:38:39">
<path transform="translate(57.8835, 23.0000) scale(0.0036, -0.0036)" d="M215 137c57 0 111 -29 111 -92c0 -71 -54 -120 -101 -148c-35 -21 -74 -34 -114 -34c-57 0 -111 29 -111 92c0 71 54 120 101 148c35 21 74 34 114 34z" fill="currentColor"/>
</a>
<rect transform="translate(58.9791, 20.0000)" x="-0.0650" y="-3.8100" width="0.1300" height="6.6502" ry="0.0400" fill="currentColor"/>
<a style="color:inherit;" xlink:href="textedit:///Users/jwy/Documents/GitHub/sf004/public/pieces/sf004/notation/notes04.ly:148:24:25">
<path transform="translate(60.8941, 23.0000) scale(0.0036, -0.0036)" d="M215 137c57 0 111 -29 111 -92c0 -71 -54 -120 -101 -148c-35 -21 -74 -34 -114 -34c-57 0 -111 29 -111 92c0 71 54 120 101 148c35 21 74 34 114 34z" fill="currentColor"/>
</a>
<rect transform="translate(61.9898, 20.0000)" x="-0.0650" y="-3.8100" width="0.1300" height="6.6502" ry="0.0400" fill="currentColor"/>
<path transform="translate(88.6398, 34.5000) scale(0.0040, -0.0040)" d="M0 0c0 31 25 56 56 56s56 -25 56 -56s-25 -56 -56 -56s-56 25 -56 56z" fill="currentColor"/>
<path transform="translate(88.6398, 35.5000) scale(0.0040, -0.0040)" d="M0 0c0 31 25 56 56 56s56 -25 56 -56s-25 -56 -56 -56s-56 25 -56 56z" fill="currentColor"/>
<rect transform="translate(89.8798, 35.0000)" x="0.0000" y="-2.0000" width="0.6000" height="4.0000" ry="0.0000" fill="currentColor"/>
<rect transform="translate(89.3898, 35.0000)" x="0.0000" y="-2.0000" width="0.1900" height="4.0000" ry="0.0000" fill="currentColor"/>
<rect transform="translate(47.1921, 35.0000)" x="0.0000" y="-2.0000" width="0.1900" height="4.0000" ry="0.0000" fill="currentColor"/>
<line transform="translate(0.5691, 37.0000)" stroke-linejoin="round" stroke-linecap="round" stroke-width="0.1000" stroke="currentColor" x1="0.0500" y1="-0.0000" x2="89.8607" y2="-0.0000"/>
<line transform="translate(0.5691, 36.0000)" stroke-linejoin="round" stroke-linecap="round" stroke-width="0.1000" stroke="currentColor" x1="0.0500" y1="-0.0000" x2="89.8607" y2="-0.0000"/>
<line transform="translate(0.5691, 35.0000)" stroke-linejoin="round" stroke-linecap="round" stroke-width="0.1000" stroke="currentColor" x1="0.0500" y1="-0.0000" x2="89.8607" y2="-0.0000"/>
<line transform="translate(0.5691, 34.0000)" stroke-linejoin="round" stroke-linecap="round" stroke-width="0.1000" stroke="currentColor" x1="0.0500" y1="-0.0000" x2="89.8607" y2="-0.0000"/>
<line transform="translate(0.5691, 33.0000)" stroke-linejoin="round" stroke-linecap="round" stroke-width="0.1000" stroke="currentColor" x1="0.0500" y1="-0.0000" x2="89.8607" y2="-0.0000"/>
<rect transform="translate(0.5691, 38.0000)" x="77.6605" y="-0.1000" width="1.7410" height="0.2000" ry="0.1000" fill="currentColor"/>
<rect transform="translate(0.5691, 38.0000)" x="67.5404" y="-0.1000" width="1.7410" height="0.2000" ry="0.1000" fill="currentColor"/>
<rect transform="translate(0.5691, 38.0000)" x="57.4203" y="-0.1000" width="1.7410" height="0.2000" ry="0.1000" fill="currentColor"/>
<rect transform="translate(0.5691, 38.0000)" x="47.3002" y="-0.1000" width="1.7410" height="0.2000" ry="0.1000" fill="currentColor"/>
<rect transform="translate(0.5691, 38.0000)" x="35.9628" y="-0.1000" width="1.7410" height="0.2000" ry="0.1000" fill="currentColor"/>
<rect transform="translate(0.5691, 38.0000)" x="25.8427" y="-0.1000" width="1.7410" height="0.2000" ry="0.1000" fill="currentColor"/>
<rect transform="translate(0.5691, 38.0000)" x="15.7226" y="-0.1000" width="1.7410" height="0.2000" ry="0.1000" fill="currentColor"/>
<rect transform="translate(0.5691, 38.0000)" x="13.4800" y="-0.1000" width="1.7410" height="0.2000" ry="0.1000" fill="currentColor"/>
<rect transform="translate(0.5691, 39.0000)" x="13.4800" y="-0.1000" width="1.7410" height="0.2000" ry="0.1000" fill="currentColor"/>
<rect transform="translate(0.5691, 38.0000)" x="11.4875" y="-0.1000" width="1.7410" height="0.2000" ry="0.1000" fill="currentColor"/>
<rect transform="translate(0.5691, 39.0000)" x="11.4875" y="-0.1000" width="1.7410" height="0.2000" ry="0.1000" fill="currentColor"/>
<rect transform="translate(0.5691, 38.0000)" x="9.4949" y="-0.1000" width="1.7410" height="0.2000" ry="0.1000" fill="currentColor"/>
<rect transform="translate(0.5691, 39.0000)" x="9.4949" y="-0.1000" width="1.7410" height="0.2000" ry="0.1000" fill="currentColor"/>
<rect transform="translate(0.5691, 38.0000)" x="7.5024" y="-0.1000" width="1.7410" height="0.2000" ry="0.1000" fill="currentColor"/>
<rect transform="translate(0.5691, 39.0000)" x="7.5024" y="-0.1000" width="1.7410" height="0.2000" ry="0.1000" fill="currentColor"/>
<rect transform="translate(0.5691, 38.0000)" x="5.5098" y="-0.1000" width="1.7410" height="0.2000" ry="0.1000" fill="currentColor"/>
<rect transform="translate(0.5691, 39.0000)" x="5.6250" y="-0.1000" width="1.6258" height="0.2000" ry="0.1000" fill="currentColor"/>
<a style="color:inherit;" xlink:href="textedit:///Users/jwy/Documents/GitHub/sf004/public/pieces/sf004/notation/notes04.ly:152:38:39">
<path transform="translate(12.3467, 39.5000) scale(0.0036, -0.0036)" d="M215 137c57 0 111 -29 111 -92c0 -71 -54 -120 -101 -148c-35 -21 -74 -34 -114 -34c-57 0 -111 29 -111 92c0 71 54 120 101 148c35 21 74 34 114 34z" fill="currentColor"/>
</a>
<rect transform="translate(13.4424, 35.0000)" x="-0.0650" y="-2.0000" width="0.1300" height="6.3402" ry="0.0400" fill="currentColor"/>
<a style="color:inherit;" xlink:href="textedit:///Users/jwy/Documents/GitHub/sf004/public/pieces/sf004/notation/notes04.ly:152:24:25">
<path transform="translate(6.3691, 39.5000) scale(0.0036, -0.0036)" d="M215 137c57 0 111 -29 111 -92c0 -71 -54 -120 -101 -148c-35 -21 -74 -34 -114 -34c-57 0 -111 29 -111 92c0 71 54 120 101 148c35 21 74 34 114 34z" fill="currentColor"/>
</a>
<a style="color:inherit;" xlink:href="textedit:///Users/jwy/Documents/GitHub/sf004/public/pieces/sf004/notation/notes04.ly:152:34:35">
<path transform="translate(10.3542, 39.5000) scale(0.0036, -0.0036)" d="M215 137c57 0 111 -29 111 -92c0 -71 -54 -120 -101 -148c-35 -21 -74 -34 -114 -34c-57 0 -111 29 -111 92c0 71 54 120 101 148c35 21 74 34 114 34z" fill="currentColor"/>
</a>
<rect transform="translate(7.4647, 35.0000)" x="-0.0650" y="-2.0000" width="0.1300" height="6.3402" ry="0.0400" fill="currentColor"/>
<rect transform="translate(11.4498, 35.0000)" x="-0.0650" y="-2.0000" width="0.1300" height="6.3402" ry="0.0400" fill="currentColor"/>
<a style="color:inherit;" xlink:href="textedit:///Users/jwy/Documents/GitHub/sf004/public/pieces/sf004/notation/notes04.ly:152:11:12">
<line transform="translate(7.3997, 31.6600)" stroke-linejoin="round" stroke-linecap="round" stroke-width="0.1600" stroke="currentColor" x1="8.3002" y1="-0.0000" x2="8.3002" y2="0.7000"/>
<line transform="translate(7.3997, 31.6600)" stroke-linejoin="round" stroke-linecap="round" stroke-width="0.1600" stroke="currentColor" x1="-0.2000" y1="-0.0000" x2="-0.2000" y2="0.7000"/>
<line transform="translate(7.3997, 31.6600)" stroke-linejoin="round" stroke-linecap="round" stroke-width="0.1600" stroke="currentColor" x1="8.3002" y1="-0.0000" x2="5.0940" y2="-0.0000"/>
<line transform="translate(7.3997, 31.6600)" stroke-linejoin="round" stroke-linecap="round" stroke-width="0.1600" stroke="currentColor" x1="-0.2000" y1="-0.0000" x2="3.2062" y2="-0.0000"/>
</a>
<a style="color:inherit;" xlink:href="textedit:///Users/jwy/Documents/GitHub/sf004/public/pieces/sf004/notation/notes04.ly:152:11:12">
<text transform="translate(11.0060, 32.2234)" font-family="serif" font-style="italic" font-size="1.7461" text-anchor="start" fill="currentColor">
<tspan>5</tspan>
</text>
</a>
<polygon transform="translate(7.3997, 33.0000)" stroke-linejoin="round" stroke-linecap="round" stroke-width="0.0800" fill="currentColor" stroke="currentColor" points="8.0602 -0.2000 8.0602 0.2000 0.0400 0.2000 0.0400 -0.2000"/>
<polygon transform="translate(7.3997, 33.8100)" stroke-linejoin="round" stroke-linecap="round" stroke-width="0.0800" fill="currentColor" stroke="currentColor" points="8.0602 -0.2000 8.0602 0.2000 0.0400 0.2000 0.0400 -0.2000"/>
<rect transform="translate(37.9177, 35.0000)" x="-0.0650" y="-4.0000" width="0.1300" height="6.8402" ry="0.0400" fill="currentColor"/>
<a style="color:inherit;" xlink:href="textedit:///Users/jwy/Documents/GitHub/sf004/public/pieces/sf004/notation/notes04.ly:153:16:17">
<path transform="translate(36.8220, 38.0000) scale(0.0036, -0.0036)" d="M215 137c57 0 111 -29 111 -92c0 -71 -54 -120 -101 -148c-35 -21 -74 -34 -114 -34c-57 0 -111 29 -111 92c0 71 54 120 101 148c35 21 74 34 114 34z" fill="currentColor"/>
</a>
<rect transform="translate(27.7976, 35.0000)" x="-0.0650" y="-4.0000" width="0.1300" height="6.8402" ry="0.0400" fill="currentColor"/>
<a style="color:inherit;" xlink:href="textedit:///Users/jwy/Documents/GitHub/sf004/public/pieces/sf004/notation/notes04.ly:153:14:15">
<path transform="translate(26.7019, 38.0000) scale(0.0036, -0.0036)" d="M215 137c57 0 111 -29 111 -92c0 -71 -54 -120 -101 -148c-35 -21 -74 -34 -114 -34c-57 0 -111 29 -111 92c0 71 54 120 101 148c35 21 74 34 114 34z" fill="currentColor"/>
</a>
<rect transform="translate(17.6775, 35.0000)" x="-0.0650" y="-4.0000" width="0.1300" height="6.8402" ry="0.0400" fill="currentColor"/>
<a style="color:inherit;" xlink:href="textedit:///Users/jwy/Documents/GitHub/sf004/public/pieces/sf004/notation/notes04.ly:153:11:12">
<path transform="translate(16.5818, 38.0000) scale(0.0036, -0.0036)" d="M215 137c57 0 111 -29 111 -92c0 -71 -54 -120 -101 -148c-35 -21 -74 -34 -114 -34c-57 0 -111 29 -111 92c0 71 54 120 101 148c35 21 74 34 114 34z" fill="currentColor"/>
</a>
<a style="color:inherit;" xlink:href="textedit:///Users/jwy/Documents/GitHub/sf004/public/pieces/sf004/notation/notes04.ly:152:30:31">
<path transform="translate(8.3616, 39.5000) scale(0.0036, -0.0036)" d="M215 137c57 0 111 -29 111 -92c0 -71 -54 -120 -101 -148c-35 -21 -74 -34 -114 -34c-57 0 -111 29 -111 92c0 71 54 120 101 148c35 21 74 34 114 34z" fill="currentColor"/>
</a>
<rect transform="translate(15.4349, 35.0000)" x="-0.0650" y="-2.0000" width="0.1300" height="6.3402" ry="0.0400" fill="currentColor"/>
<a style="color:inherit;" xlink:href="textedit:///Users/jwy/Documents/GitHub/sf004/public/pieces/sf004/notation/notes04.ly:152:42:43">
<path transform="translate(14.3393, 39.5000) scale(0.0036, -0.0036)" d="M215 137c57 0 111 -29 111 -92c0 -71 -54 -120 -101 -148c-35 -21 -74 -34 -114 -34c-57 0 -111 29 -111 92c0 71 54 120 101 148c35 21 74 34 114 34z" fill="currentColor"/>
</a>
<path transform="translate(4.9191, 39.5000) scale(0.0040, -0.0040)" d="M216 -312c0 -10 -8 -19 -18 -19s-19 9 -19 19v145l-83 -31v-158c0 -10 -9 -19 -19 -19s-18 9 -18 19v145l-32 -12c-2 -1 -5 -1 -7 -1c-11 0 -20 9 -20 20v60c0 8 5 16 13 19l46 16v160l-32 -11c-2 -1 -5 -1 -7 -1c-11 0 -20 9 -20 20v60c0 8 5 15 13 18l46 17v158
c0 10 8 19 18 19s19 -9 19 -19v-145l83 31v158c0 10 9 19 19 19s18 -9 18 -19v-145l32 12c2 1 5 1 7 1c11 0 20 -9 20 -20v-60c0 -8 -5 -16 -13 -19l-46 -16v-160l32 11c2 1 5 1 7 1c11 0 20 -9 20 -20v-60c0 -8 -5 -15 -13 -18l-46 -17v-158zM96 65v-160l83 30v160z" fill="currentColor"/>
<rect transform="translate(49.2551, 35.0000)" x="-0.0650" y="-4.0000" width="0.1300" height="6.8402" ry="0.0400" fill="currentColor"/>
<a style="color:inherit;" xlink:href="textedit:///Users/jwy/Documents/GitHub/sf004/public/pieces/sf004/notation/notes04.ly:153:18:19">
<path transform="translate(48.1594, 38.0000) scale(0.0036, -0.0036)" d="M215 137c57 0 111 -29 111 -92c0 -71 -54 -120 -101 -148c-35 -21 -74 -34 -114 -34c-57 0 -111 29 -111 92c0 71 54 120 101 148c35 21 74 34 114 34z" fill="currentColor"/>
</a>
<path transform="translate(1.3691, 36.0000) scale(0.0040, -0.0040)" d="M376 262c4 0 9 1 13 1c155 0 256 -128 256 -261c0 -76 -33 -154 -107 -210c-22 -17 -47 -28 -73 -36c3 -35 5 -70 5 -105c0 -19 -1 -39 -2 -58c-7 -120 -90 -228 -208 -228c-108 0 -195 88 -195 197c0 58 53 103 112 103c54 0 95 -47 95 -103c0 -52 -43 -95 -95 -95
c-11 0 -21 2 -31 6c26 -39 68 -65 117 -65c96 0 157 92 163 191c1 18 2 37 2 55c0 31 -1 61 -4 92c-29 -5 -58 -8 -89 -8c-188 0 -333 172 -333 374c0 177 131 306 248 441c-19 62 -37 125 -45 190c-6 52 -7 104 -7 156c0 115 55 224 149 292c3 2 7 3 10 3c4 0 7 0 10 -3
c71 -84 133 -245 133 -358c0 -143 -86 -255 -180 -364c21 -68 39 -138 56 -207zM461 -203c68 24 113 95 113 164c0 90 -66 179 -173 190c24 -116 46 -231 60 -354zM74 28c0 -135 129 -247 264 -247c28 0 55 2 82 6c-14 127 -37 245 -63 364c-79 -8 -124 -61 -124 -119
c0 -44 25 -91 81 -123c5 -5 7 -10 7 -15c0 -11 -10 -22 -22 -22c-3 0 -6 1 -9 2c-80 43 -117 115 -117 185c0 88 58 174 160 197c-14 58 -29 117 -46 175c-107 -121 -213 -243 -213 -403zM408 1045c-99 -48 -162 -149 -162 -259c0 -74 18 -133 36 -194
c80 97 146 198 146 324c0 55 -4 79 -20 129z" fill="currentColor"/>
<rect transform="translate(79.6153, 35.0000)" x="-0.0650" y="-4.0000" width="0.1300" height="6.8402" ry="0.0400" fill="currentColor"/>
<a style="color:inherit;" xlink:href="textedit:///Users/jwy/Documents/GitHub/sf004/public/pieces/sf004/notation/notes04.ly:153:25:26">
<path transform="translate(78.5197, 38.0000) scale(0.0036, -0.0036)" d="M215 137c57 0 111 -29 111 -92c0 -71 -54 -120 -101 -148c-35 -21 -74 -34 -114 -34c-57 0 -111 29 -111 92c0 71 54 120 101 148c35 21 74 34 114 34z" fill="currentColor"/>
</a>
<rect transform="translate(9.4573, 35.0000)" x="-0.0650" y="-2.0000" width="0.1300" height="6.3402" ry="0.0400" fill="currentColor"/>
<rect transform="translate(69.4952, 35.0000)" x="-0.0650" y="-4.0000" width="0.1300" height="6.8402" ry="0.0400" fill="currentColor"/>
<a style="color:inherit;" xlink:href="textedit:///Users/jwy/Documents/GitHub/sf004/public/pieces/sf004/notation/notes04.ly:153:23:24">
<path transform="translate(68.3996, 38.0000) scale(0.0036, -0.0036)" d="M215 137c57 0 111 -29 111 -92c0 -71 -54 -120 -101 -148c-35 -21 -74 -34 -114 -34c-57 0 -111 29 -111 92c0 71 54 120 101 148c35 21 74 34 114 34z" fill="currentColor"/>
</a>
<a style="color:inherit;" xlink:href="textedit:///Users/jwy/Documents/GitHub/sf004/public/pieces/sf004/notation/notes04.ly:153:21:22">
<path transform="translate(58.2795, 38.0000) scale(0.0036, -0.0036)" d="M215 137c57 0 111 -29 111 -92c0 -71 -54 -120 -101 -148c-35 -21 -74 -34 -114 -34c-57 0 -111 29 -111 92c0 71 54 120 101 148c35 21 74 34 114 34z" fill="currentColor"/>
</a>
<rect transform="translate(59.3752, 35.0000)" x="-0.0650" y="-4.0000" width="0.1300" height="6.8402" ry="0.0400" fill="currentColor"/>
<rect transform="translate(70.8071, 50.0000)" x="-0.0650" y="-4.0000" width="0.1300" height="6.8402" ry="0.0400" fill="currentColor"/>
<rect transform="translate(60.4229, 50.0000)" x="-0.0650" y="-4.0000" width="0.1300" height="6.8402" ry="0.0400" fill="currentColor"/>
<a style="color:inherit;" xlink:href="textedit:///Users/jwy/Documents/GitHub/sf004/public/pieces/sf004/notation/notes04.ly:170:19:20">
<path transform="translate(59.3272, 53.0000) scale(0.0036, -0.0036)" d="M215 137c57 0 111 -29 111 -92c0 -71 -54 -120 -101 -148c-35 -21 -74 -34 -114 -34c-57 0 -111 29 -111 92c0 71 54 120 101 148c35 21 74 34 114 34z" fill="currentColor"/>
</a>
<rect transform="translate(50.0387, 50.0000)" x="-0.0650" y="-4.0000" width="0.1300" height="6.8402" ry="0.0400" fill="currentColor"/>
<a style="color:inherit;" xlink:href="textedit:///Users/jwy/Documents/GitHub/sf004/public/pieces/sf004/notation/notes04.ly:170:21:22">
<path transform="translate(69.7114, 53.0000) scale(0.0036, -0.0036)" d="M215 137c57 0 111 -29 111 -92c0 -71 -54 -120 -101 -148c-35 -21 -74 -34 -114 -34c-57 0 -111 29 -111 92c0 71 54 120 101 148c35 21 74 34 114 34z" fill="currentColor"/>
</a>
<rect transform="translate(81.1912, 50.0000)" x="-0.0650" y="-4.0000" width="0.1300" height="6.8402" ry="0.0400" fill="currentColor"/>
<a style="color:inherit;" xlink:href="textedit:///Users/jwy/Documents/GitHub/sf004/public/pieces/sf004/notation/notes04.ly:170:23:24">
<path transform="translate(80.0956, 53.0000) scale(0.0036, -0.0036)" d="M215 137c57 0 111 -29 111 -92c0 -71 -54 -120 -101 -148c-35 -21 -74 -34 -114 -34c-57 0 -111 29 -111 92c0 71 54 120 101 148c35 21 74 34 114 34z" fill="currentColor"/>
</a>
<a style="color:inherit;" xlink:href="textedit:///Users/jwy/Documents/GitHub/sf004/public/pieces/sf004/notation/notes04.ly:170:17:18">
<path transform="translate(48.9430, 53.0000) scale(0.0036, -0.0036)" d="M215 137c57 0 111 -29 111 -92c0 -71 -54 -120 -101 -148c-35 -21 -74 -34 -114 -34c-57 0 -111 29 -111 92c0 71 54 120 101 148c35 21 74 34 114 34z" fill="currentColor"/>
</a>
<rect transform="translate(7.4647, 50.0000)" x="-0.0650" y="-4.0000" width="0.1300" height="6.8402" ry="0.0400" fill="currentColor"/>
<a style="color:inherit;" xlink:href="textedit:///Users/jwy/Documents/GitHub/sf004/public/pieces/sf004/notation/notes04.ly:170:8:9">
<path transform="translate(6.3691, 53.0000) scale(0.0036, -0.0036)" d="M215 137c57 0 111 -29 111 -92c0 -71 -54 -120 -101 -148c-35 -21 -74 -34 -114 -34c-57 0 -111 29 -111 92c0 71 54 120 101 148c35 21 74 34 114 34z" fill="currentColor"/>
</a>
<a style="color:inherit;" xlink:href="textedit:///Users/jwy/Documents/GitHub/sf004/public/pieces/sf004/notation/notes04.ly:170:15:16">
<path transform="translate(37.5216, 53.0000) scale(0.0036, -0.0036)" d="M215 137c57 0 111 -29 111 -92c0 -71 -54 -120 -101 -148c-35 -21 -74 -34 -114 -34c-57 0 -111 29 -111 92c0 71 54 120 101 148c35 21 74 34 114 34z" fill="currentColor"/>
</a>
<rect transform="translate(38.6173, 50.0000)" x="-0.0650" y="-4.0000" width="0.1300" height="6.8402" ry="0.0400" fill="currentColor"/>
<rect transform="translate(28.2331, 50.0000)" x="-0.0650" y="-4.0000" width="0.1300" height="6.8402" ry="0.0400" fill="currentColor"/>
<a style="color:inherit;" xlink:href="textedit:///Users/jwy/Documents/GitHub/sf004/public/pieces/sf004/notation/notes04.ly:170:13:14">
<path transform="translate(27.1374, 53.0000) scale(0.0036, -0.0036)" d="M215 137c57 0 111 -29 111 -92c0 -71 -54 -120 -101 -148c-35 -21 -74 -34 -114 -34c-57 0 -111 29 -111 92c0 71 54 120 101 148c35 21 74 34 114 34z" fill="currentColor"/>
</a>
<rect transform="translate(17.8489, 50.0000)" x="-0.0650" y="-4.0000" width="0.1300" height="6.8402" ry="0.0400" fill="currentColor"/>
<a style="color:inherit;" xlink:href="textedit:///Users/jwy/Documents/GitHub/sf004/public/pieces/sf004/notation/notes04.ly:170:11:12">
<path transform="translate(16.7532, 53.0000) scale(0.0036, -0.0036)" d="M215 137c57 0 111 -29 111 -92c0 -71 -54 -120 -101 -148c-35 -21 -74 -34 -114 -34c-57 0 -111 29 -111 92c0 71 54 120 101 148c35 21 74 34 114 34z" fill="currentColor"/>
</a>
</svg>
