<svg xmlns="http://www.w3.org/2000/svg" xmlns:xlink="http://www.w3.org/1999/xlink" version="1.2" width="160.00mm" height="100.00mm" viewBox="0 0 91.0488 56.9055">
<style text="style/css">
<![CDATA[
tspan { white-space: pre; }
]]>
</style>
<!-- Page: 1/1 -->
<text transform="translate(0.5691, -0.0000)" font-family="serif" font-size="2.2001" text-anchor="start" fill="currentColor">
<tspan/>
</text>
<line transform="translate(16.7543, 37.0000)" stroke-linejoin="round" stroke-linecap="round" stroke-width="0.1000" stroke="currentColor" x1="0.0500" y1="-0.0000" x2="10.7007" y2="-0.0000"/>
<line transform="translate(16.7543, 36.0000)" stroke-linejoin="round" stroke-linecap="round" stroke-width="0.1000" stroke="currentColor" x1="0.0500" y1="-0.0000" x2="10.7007" y2="-0.0000"/>
<line transform="translate(16.7543, 35.0000)" stroke-linejoin="round" stroke-linecap="round" stroke-width="0.1000" stroke="currentColor" x1="0.0500" y1="-0.0000" x2="10.7007" y2="-0.0000"/>
<line transform="translate(16.7543, 34.0000)" stroke-linejoin="round" stroke-linecap="round" stroke-width="0.1000" stroke="currentColor" x1="0.0500" y1="-0.0000" x2="10.7007" y2="-0.0000"/>
<line transform="translate(16.7543, 33.0000)" stroke-linejoin="round" stroke-linecap="round" stroke-width="0.1000" stroke="currentColor" x1="0.0500" y1="-0.0000" x2="10.7007" y2="-0.0000"/>
<rect transform="translate(0.5691, 38.0000)" x="16.2606" y="-0.1000" width="1.7410" height="0.2000" ry="0.1000" fill="currentColor"/>
<a style="color:inherit;" xlink:href="textedit:///Users/jwy/Documents/OPUS/GitHub/sf004/public/pieces/sf004/notationArchive/sf.ly:107:10:11">
</a>
<a style="color:inherit;" xlink:href="textedit:///Users/jwy/Documents/OPUS/GitHub/sf004/public/pieces/sf004/notationArchive/sf.ly:106:10:11">
</a>
<a style="color:inherit;" xlink:href="textedit:///Users/jwy/Documents/OPUS/GitHub/sf004/public/pieces/sf004/notationArchive/sf.ly:102:10:11">
</a>
<a style="color:inherit;" xlink:href="textedit:///Users/jwy/Documents/OPUS/GitHub/sf004/public/pieces/sf004/notationArchive/sf.ly:101:10:11">
</a>
<rect transform="translate(18.2154, 35.0000)" x="-0.0650" y="-4.0000" width="0.1300" height="6.8402" ry="0.0400" fill="currentColor"/>
<a style="color:inherit;" xlink:href="textedit:///Users/jwy/Documents/OPUS/GitHub/sf004/public/pieces/sf004/notationArchive/sf.ly:89:10:11">
<path transform="translate(17.1198, 38.0000) scale(0.0036, -0.0036)" d="M215 137c57 0 111 -29 111 -92c0 -71 -54 -120 -101 -148c-35 -21 -74 -34 -114 -34c-57 0 -111 29 -111 92c0 71 54 120 101 148c35 21 74 34 114 34z" fill="currentColor"/>
</a>
<a style="color:inherit;" xlink:href="textedit:///Users/jwy/Documents/OPUS/GitHub/sf004/public/pieces/sf004/notationArchive/sf.ly:89:13:14">
<g transform="translate(16.6587, 40.7590)" >
<path transform="scale(0.0040, -0.0040)" d="M180 216c0 10 9 19 9 29c0 13 -6 23 -18 23c-26 0 -47 -20 -47 -45c0 -17 16 -28 31 -37c33 -19 68 -42 68 -80c0 -61 -56 -106 -120 -106c-43 0 -81 28 -81 68c0 21 12 42 31 42c18 0 32 -14 32 -32c0 -13 -21 -16 -21 -29c0 -15 18 -22 35 -22c33 0 64 20 64 51
c0 57 -100 60 -100 117c0 54 45 97 99 97c56 0 79 -34 79 -62c0 -19 -11 -36 -30 -36c-18 0 -31 11 -31 22z" fill="currentColor"/>

<path transform="translate(0.8194, 0.0000) scale(0.0040, -0.0040)" d="M253 245l-50 -163c-30 -99 -121 -255 -218 -255c-45 0 -87 27 -87 69c0 39 17 77 52 77c24 0 44 -20 44 -44c0 -30 -38 -24 -38 -54c0 -10 11 -11 23 -11h6c48 0 61 58 73 108l68 273h-49c-11 0 -19 8 -19 19s8 19 19 19h60c32 96 118 191 213 191c45 0 87 -27 87 -69
c0 -39 -17 -77 -52 -77c-24 0 -44 19 -44 43c0 30 38 25 38 55c0 10 -10 11 -22 11h-7c-62 0 -70 -88 -86 -154h55c11 0 19 -8 19 -19s-8 -19 -19 -19h-66z" fill="currentColor"/>
</g>
</a>
</svg>
