<svg xmlns="http://www.w3.org/2000/svg" xmlns:xlink="http://www.w3.org/1999/xlink" version="1.2" width="160.00mm" height="100.00mm" viewBox="0 0 91.0488 56.9055">
<style text="style/css">
<![CDATA[
tspan { white-space: pre; }
]]>
</style>
<!-- Page: 1/1 -->
<text transform="translate(0.5691, -0.0000)" font-family="serif" font-size="2.2001" text-anchor="start" fill="currentColor">
<tspan/>
</text>
<line transform="translate(0.5691, 37.0000)" stroke-linejoin="round" stroke-linecap="round" stroke-width="0.1000" stroke="currentColor" x1="0.0500" y1="-0.0000" x2="16.2450" y2="-0.0000"/>
<line transform="translate(0.5691, 36.0000)" stroke-linejoin="round" stroke-linecap="round" stroke-width="0.1000" stroke="currentColor" x1="0.0500" y1="-0.0000" x2="16.2450" y2="-0.0000"/>
<line transform="translate(0.5691, 35.0000)" stroke-linejoin="round" stroke-linecap="round" stroke-width="0.1000" stroke="currentColor" x1="0.0500" y1="-0.0000" x2="16.2450" y2="-0.0000"/>
<line transform="translate(0.5691, 34.0000)" stroke-linejoin="round" stroke-linecap="round" stroke-width="0.1000" stroke="currentColor" x1="0.0500" y1="-0.0000" x2="16.2450" y2="-0.0000"/>
<line transform="translate(0.5691, 33.0000)" stroke-linejoin="round" stroke-linecap="round" stroke-width="0.1000" stroke="currentColor" x1="0.0500" y1="-0.0000" x2="16.2450" y2="-0.0000"/>
<a style="color:inherit;" xlink:href="textedit:///Users/jwy/Documents/GitHub/sf004/public/pieces/sf004/notation/b9_rest.ly:93:9:10">
<path transform="translate(6.3691, 35.0000) scale(0.0040, -0.0040)" d="M-23 -116c0 28 11 42 40 42c33 0 78 -13 119 -31l-132 158c-7 9 -10 17 -10 25c0 34 50 66 87 99c25 22 37 52 37 83c0 24 -8 49 -25 69l-35 42c-3 3 -4 7 -4 10c0 9 9 15 17 15c4 0 8 -1 11 -5l151 -180c7 -9 10 -17 10 -25c0 -34 -50 -66 -87 -99
c-25 -22 -37 -52 -37 -83c0 -24 7 -49 24 -69l84 -99c3 -3 4 -7 4 -10c0 -9 -8 -16 -16 -16c-4 0 -9 2 -12 6c-18 21 -63 38 -97 38c-41 0 -53 -26 -53 -67c0 -35 11 -74 28 -94c5 -6 0 -13 -6 -13c-2 0 -4 0 -6 2c-45 54 -92 148 -92 202z" fill="currentColor"/>
</a>
<a style="color:inherit;" xlink:href="textedit:///Users/jwy/Documents/GitHub/sf004/public/pieces/sf004/notation/b9_rest.ly:114:10:11">
</a>
<a style="color:inherit;" xlink:href="textedit:///Users/jwy/Documents/GitHub/sf004/public/pieces/sf004/notation/b9_rest.ly:113:10:11">
</a>
<a style="color:inherit;" xlink:href="textedit:///Users/jwy/Documents/GitHub/sf004/public/pieces/sf004/notation/b9_rest.ly:106:10:11">
</a>
<a style="color:inherit;" xlink:href="textedit:///Users/jwy/Documents/GitHub/sf004/public/pieces/sf004/notation/b9_rest.ly:105:10:11">
</a>
</svg>
