<?xml version="1.0" encoding="UTF-8" standalone="no"?>
<svg
   xmlns:dc="http://purl.org/dc/elements/1.1/"
   xmlns:cc="http://creativecommons.org/ns#"
   xmlns:rdf="http://www.w3.org/1999/02/22-rdf-syntax-ns#"
   xmlns:svg="http://www.w3.org/2000/svg"
   xmlns="http://www.w3.org/2000/svg"
   xmlns:xlink="http://www.w3.org/1999/xlink"
   id="svg8357"
   version="1.1"
   viewBox="0 0 17.688622 14.814034"
   height="14.814034mm"
   width="17.688622mm">
  <defs
     id="defs8351" />
  <metadata
     id="metadata8354">
    <rdf:RDF>
      <cc:Work
         rdf:about="">
        <dc:format>image/svg+xml</dc:format>
        <dc:type
           rdf:resource="http://purl.org/dc/dcmitype/StillImage" />
        <dc:title></dc:title>
      </cc:Work>
    </rdf:RDF>
  </metadata>
  <g
     transform="translate(85.598095,-39.88572)"
     id="layer1">
    <g
       id="g3703"
       transform="matrix(1.7572994,0,0,1.7572994,-158.33184,-201.54794)">
      <a
         transform="translate(-6.0789006,107.81903)"
         style="color:inherit"
         xlink:href="textedit:///Users/jwy/Documents/GitHub/sf004/public/pieces/sf004/notation/notes03.ly:136:27:28"
         id="a2362">
        <path
           transform="matrix(0.0036,0,0,-0.0036,56.3606,36.5)"
           d="m 215,137 c 57,0 111,-29 111,-92 0,-71 -54,-120 -101,-148 -35,-21 -74,-34 -114,-34 -57,0 -111,29 -111,92 0,71 54,120 101,148 35,21 74,34 114,34 z"
           fill="currentColor"
           id="path2360" />
      </a>
      <rect
         style="stroke-width:1"
         x="51.312302"
         y="137.62903"
         width="0.13"
         height="6.5302005"
         ry="0.039999999"
         fill="currentColor"
         id="rect2364" />
      <rect
         style="stroke-width:1"
         x="48.831604"
         y="137.62903"
         width="0.13"
         height="6.5302005"
         ry="0.039999999"
         fill="currentColor"
         id="rect2372" />
      <polygon
         transform="translate(43.870201,137.62903)"
         stroke-linejoin="round"
         stroke-linecap="round"
         stroke-width="0.08"
         fill="currentColor"
         stroke="currentColor"
         points="7.5321,0.2 0.04,0.2 0.04,-0.2 7.5321,-0.2 "
         id="polygon2386" />
      <polygon
         transform="translate(43.870201,138.43903)"
         stroke-linejoin="round"
         stroke-linecap="round"
         stroke-width="0.08"
         fill="currentColor"
         stroke="currentColor"
         points="7.5321,0.2 0.04,0.2 0.04,-0.2 7.5321,-0.2 "
         id="polygon2388" />
      <path
         style="stroke-width:0.00399999"
         d="m 42.2535,145.56703 c 0,0.04 -0.032,0.076 -0.072,0.076 -0.04,0 -0.076,-0.036 -0.076,-0.076 v -0.57999 l -0.332,0.124 v 0.63199 c 0,0.04 -0.036,0.076 -0.076,0.076 -0.04,0 -0.072,-0.036 -0.072,-0.076 v -0.57999 l -0.127999,0.048 c -0.008,0.004 -0.02,0.004 -0.028,0.004 -0.044,0 -0.08,-0.036 -0.08,-0.08 v -0.24001 c 0,-0.032 0.02,-0.064 0.052,-0.076 l 0.184,-0.064 v -0.64 l -0.127999,0.044 c -0.008,0.004 -0.02,0.004 -0.028,0.004 -0.044,0 -0.08,-0.036 -0.08,-0.08 v -0.24 c 0,-0.032 0.02,-0.06 0.052,-0.072 l 0.184,-0.068 v -0.632 c 0,-0.04 0.032,-0.076 0.072,-0.076 0.04,0 0.076,0.036 0.076,0.076 v 0.58 l 0.332,-0.124 v -0.632 c 0,-0.04 0.036,-0.076 0.076,-0.076 0.04,0 0.072,0.036 0.072,0.076 v 0.58 l 0.128,-0.048 c 0.008,-0.004 0.02,-0.004 0.028,-0.004 0.044,0 0.08,0.036 0.08,0.08 v 0.24 c 0,0.032 -0.02,0.064 -0.052,0.076 l -0.184,0.064 v 0.64 l 0.128,-0.044 c 0.008,-0.004 0.02,-0.004 0.028,-0.004 0.044,0 0.08,0.036 0.08,0.08 v 0.24 c 0,0.032 -0.02,0.06 -0.052,0.072 l -0.184,0.068 z m -0.48,-1.508 v 0.64 l 0.332,-0.12 v -0.64 z"
         fill="currentColor"
         id="path2448" />
      <a
         transform="translate(-6.0789006,107.81903)"
         style="color:inherit"
         xlink:href="textedit:///Users/jwy/Documents/GitHub/sf004/public/pieces/sf004/notation/notes03.ly:136:10:11"
         id="a2452">
        <path
           transform="matrix(0.0036,0,0,-0.0036,48.9184,36.5)"
           d="m 215,137 c 57,0 111,-29 111,-92 0,-71 -54,-120 -101,-148 -35,-21 -74,-34 -114,-34 -57,0 -111,29 -111,92 0,71 54,120 101,148 35,21 74,34 114,34 z"
           fill="currentColor"
           id="path2450" />
      </a>
      <rect
         style="stroke-width:1"
         x="43.870201"
         y="137.62903"
         width="0.13"
         height="6.5302005"
         ry="0.039999999"
         fill="currentColor"
         id="rect2454" />
      <a
         transform="translate(-6.0789006,107.81903)"
         style="color:inherit"
         xlink:href="textedit:///Users/jwy/Documents/GitHub/sf004/public/pieces/sf004/notation/notes03.ly:136:17:18"
         id="a2460">
        <path
           transform="matrix(0.0036,0,0,-0.0036,51.3991,36.5)"
           d="m 215,137 c 57,0 111,-29 111,-92 0,-71 -54,-120 -101,-148 -35,-21 -74,-34 -114,-34 -57,0 -111,29 -111,92 0,71 54,120 101,148 35,21 74,34 114,34 z"
           fill="currentColor"
           id="path2458" />
      </a>
      <rect
         style="stroke-width:1"
         x="46.350903"
         y="137.62903"
         width="0.13"
         height="6.5302005"
         ry="0.039999999"
         fill="currentColor"
         id="rect2462" />
      <a
         transform="translate(-6.0789006,107.81903)"
         style="color:inherit"
         xlink:href="textedit:///Users/jwy/Documents/GitHub/sf004/public/pieces/sf004/notation/notes03.ly:136:22:23"
         id="a2466">
        <path
           transform="matrix(0.0036,0,0,-0.0036,53.8799,36.5)"
           d="m 215,137 c 57,0 111,-29 111,-92 0,-71 -54,-120 -101,-148 -35,-21 -74,-34 -114,-34 -57,0 -111,29 -111,92 0,71 54,120 101,148 35,21 74,34 114,34 z"
           fill="currentColor"
           id="path2464" />
      </a>
    </g>
  </g>
</svg>
