<?xml version="1.0" encoding="UTF-8" standalone="no"?>
<svg
   xmlns:dc="http://purl.org/dc/elements/1.1/"
   xmlns:cc="http://creativecommons.org/ns#"
   xmlns:rdf="http://www.w3.org/1999/02/22-rdf-syntax-ns#"
   xmlns:svg="http://www.w3.org/2000/svg"
   xmlns="http://www.w3.org/2000/svg"
   xmlns:xlink="http://www.w3.org/1999/xlink"
   id="svg3485"
   version="1.1"
   viewBox="0 0 18.839304 17.788631"
   height="17.788631mm"
   width="18.839304mm">
  <defs
     id="defs3479" />
  <metadata
     id="metadata3482">
    <rdf:RDF>
      <cc:Work
         rdf:about="">
        <dc:format>image/svg+xml</dc:format>
        <dc:type
           rdf:resource="http://purl.org/dc/dcmitype/StillImage" />
        <dc:title></dc:title>
      </cc:Work>
    </rdf:RDF>
  </metadata>
  <g
     transform="translate(-94.469302,-146.16383)"
     id="layer1">
    <g
       id="g5991"
       transform="matrix(1.7572994,0,0,1.7572994,28.356184,123.53457)">
      <a
         id="a5411"
         xlink:href="textedit:///Users/jwy/Documents/GitHub/sf004/public/pieces/sf004/notation/notes04.ly:145:11:12"
         style="color:inherit">
        <line
           id="line5403"
           y2="0.69999999"
           x2="8.1598997"
           y1="0"
           x1="8.1598997"
           stroke="currentColor"
           stroke-width="0.16"
           stroke-linecap="round"
           stroke-linejoin="round"
           transform="translate(40.1027,13.47)" />
        <line
           id="line5405"
           y2="0.69999999"
           x2="-0.2"
           y1="0"
           x1="-0.2"
           stroke="currentColor"
           stroke-width="0.16"
           stroke-linecap="round"
           stroke-linejoin="round"
           transform="translate(40.1027,13.47)" />
        <line
           id="line5407"
           y2="0"
           x2="5.0237999"
           y1="0"
           x1="8.1598997"
           stroke="currentColor"
           stroke-width="0.16"
           stroke-linecap="round"
           stroke-linejoin="round"
           transform="translate(40.1027,13.47)" />
        <line
           id="line5409"
           y2="0"
           x2="3.1361001"
           y1="0"
           x1="-0.2"
           stroke="currentColor"
           stroke-width="0.16"
           stroke-linecap="round"
           stroke-linejoin="round"
           transform="translate(40.1027,13.47)" />
      </a>
      <a
         id="a5417"
         xlink:href="textedit:///Users/jwy/Documents/GitHub/sf004/public/pieces/sf004/notation/notes04.ly:145:11:12"
         style="color:inherit">
        <text
           id="text5415"
           fill="currentColor"
           text-anchor="start"
           font-size="1.7461px"
           font-style="italic"
           font-family="serif"
           transform="translate(43.6388,14.0334)"><tspan
             id="tspan5413">5</tspan></text>
      </a>
      <polygon
         id="polygon5423"
         points="0.04,-0.2 7.9199,-0.2 7.9199,0.2 0.04,0.2 "
         stroke="currentColor"
         fill="currentColor"
         stroke-width="0.08"
         stroke-linecap="round"
         stroke-linejoin="round"
         transform="translate(40.1027,14.81)" />
      <polygon
         id="polygon5425"
         points="0.04,-0.2 7.9199,-0.2 7.9199,0.2 0.04,0.2 "
         stroke="currentColor"
         fill="currentColor"
         stroke-width="0.08"
         stroke-linecap="round"
         stroke-linejoin="round"
         transform="translate(40.1027,15.62)" />
      <rect
         id="rect5531"
         fill="currentColor"
         ry="0.039999999"
         height="6.5302"
         width="0.13"
         y="-5.1900001"
         x="-0.064999998"
         transform="translate(47.9976,20)" />
      <a
         id="a5541"
         xlink:href="textedit:///Users/jwy/Documents/GitHub/sf004/public/pieces/sf004/notation/notes04.ly:145:46:47"
         style="color:inherit">
        <path
           id="path5539"
           fill="currentColor"
           d="m 215,137 c 57,0 111,-29 111,-92 0,-71 -54,-120 -101,-148 -35,-21 -74,-34 -114,-34 -57,0 -111,29 -111,92 0,71 54,120 101,148 35,21 74,34 114,34 z"
           transform="matrix(0.0036,0,0,-0.0036,46.9019,21.5)" />
      </a>
      <rect
         id="rect5543"
         fill="currentColor"
         ry="0.039999999"
         height="6.5302"
         width="0.13"
         y="-5.1900001"
         x="-0.064999998"
         transform="translate(46.0401,20)" />
      <a
         id="a5547"
         xlink:href="textedit:///Users/jwy/Documents/GitHub/sf004/public/pieces/sf004/notation/notes04.ly:145:41:42"
         style="color:inherit">
        <path
           id="path5545"
           fill="currentColor"
           d="m 215,137 c 57,0 111,-29 111,-92 0,-71 -54,-120 -101,-148 -35,-21 -74,-34 -114,-34 -57,0 -111,29 -111,92 0,71 54,120 101,148 35,21 74,34 114,34 z"
           transform="matrix(0.0036,0,0,-0.0036,44.9444,21.5)" />
      </a>
      <rect
         id="rect5565"
         fill="currentColor"
         ry="0.039999999"
         height="6.5302"
         width="0.13"
         y="-5.1900001"
         x="-0.064999998"
         transform="translate(44.0826,20)" />
      <a
         id="a5569"
         xlink:href="textedit:///Users/jwy/Documents/GitHub/sf004/public/pieces/sf004/notation/notes04.ly:145:36:37"
         style="color:inherit">
        <path
           id="path5567"
           fill="currentColor"
           d="m 215,137 c 57,0 111,-29 111,-92 0,-71 -54,-120 -101,-148 -35,-21 -74,-34 -114,-34 -57,0 -111,29 -111,92 0,71 54,120 101,148 35,21 74,34 114,34 z"
           transform="matrix(0.0036,0,0,-0.0036,42.987,21.5)" />
      </a>
      <rect
         id="rect5571"
         fill="currentColor"
         ry="0.039999999"
         height="6.5302"
         width="0.13"
         y="-5.1900001"
         x="-0.064999998"
         transform="translate(42.1252,20)" />
      <a
         id="a5575"
         xlink:href="textedit:///Users/jwy/Documents/GitHub/sf004/public/pieces/sf004/notation/notes04.ly:145:31:32"
         style="color:inherit">
        <path
           id="path5573"
           fill="currentColor"
           d="m 215,137 c 57,0 111,-29 111,-92 0,-71 -54,-120 -101,-148 -35,-21 -74,-34 -114,-34 -57,0 -111,29 -111,92 0,71 54,120 101,148 35,21 74,34 114,34 z"
           transform="matrix(0.0036,0,0,-0.0036,41.0295,21.5)" />
      </a>
      <path
         id="path5581"
         fill="currentColor"
         d="m 216,-312 c 0,-10 -8,-19 -18,-19 -10,0 -19,9 -19,19 v 145 l -83,-31 v -158 c 0,-10 -9,-19 -19,-19 -10,0 -18,9 -18,19 v 145 l -32,-12 c -2,-1 -5,-1 -7,-1 -11,0 -20,9 -20,20 v 60 c 0,8 5,16 13,19 l 46,16 V 51 L 27,40 C 25,39 22,39 20,39 9,39 0,48 0,59 v 60 c 0,8 5,15 13,18 l 46,17 v 158 c 0,10 8,19 18,19 10,0 19,-9 19,-19 V 167 l 83,31 v 158 c 0,10 9,19 19,19 10,0 18,-9 18,-19 V 211 l 32,12 c 2,1 5,1 7,1 11,0 20,-9 20,-20 v -60 c 0,-8 -5,-16 -13,-19 L 216,109 V -51 l 32,11 c 2,1 5,1 7,1 11,0 20,-9 20,-20 v -60 c 0,-8 -5,-15 -13,-18 l -46,-17 z M 96,65 V -95 l 83,30 V 95 Z"
         transform="matrix(0.004,0,0,-0.004,37.622,21.5)" />
      <rect
         id="rect5583"
         fill="currentColor"
         ry="0.039999999"
         height="6.5302"
         width="0.13"
         y="-5.1900001"
         x="-0.064999998"
         transform="translate(40.1677,20)" />
      <a
         id="a5587"
         xlink:href="textedit:///Users/jwy/Documents/GitHub/sf004/public/pieces/sf004/notation/notes04.ly:145:24:25"
         style="color:inherit">
        <path
           id="path5585"
           fill="currentColor"
           d="m 215,137 c 57,0 111,-29 111,-92 0,-71 -54,-120 -101,-148 -35,-21 -74,-34 -114,-34 -57,0 -111,29 -111,92 0,71 54,120 101,148 35,21 74,34 114,34 z"
           transform="matrix(0.0036,0,0,-0.0036,39.072,21.5)" />
      </a>
    </g>
  </g>
</svg>
