<?xml version="1.0" encoding="UTF-8" standalone="no"?>
<svg
   xmlns:dc="http://purl.org/dc/elements/1.1/"
   xmlns:cc="http://creativecommons.org/ns#"
   xmlns:rdf="http://www.w3.org/1999/02/22-rdf-syntax-ns#"
   xmlns:svg="http://www.w3.org/2000/svg"
   xmlns="http://www.w3.org/2000/svg"
   xmlns:xlink="http://www.w3.org/1999/xlink"
   id="svg7457"
   version="1.1"
   viewBox="0 0 17.054413 17.800707"
   height="17.800707mm"
   width="17.054413mm">
  <defs
     id="defs7451" />
  <metadata
     id="metadata7454">
    <rdf:RDF>
      <cc:Work
         rdf:about="">
        <dc:format>image/svg+xml</dc:format>
        <dc:type
           rdf:resource="http://purl.org/dc/dcmitype/StillImage" />
        <dc:title></dc:title>
      </cc:Work>
    </rdf:RDF>
  </metadata>
  <g
     transform="translate(-97.306127,-139.26631)"
     id="layer1">
    <g
       id="g3574"
       transform="matrix(1.7572994,0,0,1.7572994,5.7569773,-72.821182)">
      <polygon
         transform="translate(54.577102,122.62903)"
         stroke-linejoin="round"
         stroke-linecap="round"
         stroke-width="0.08"
         fill="currentColor"
         stroke="currentColor"
         points="0.04,0.2 0.04,-0.2 6.9043,-0.2 6.9043,0.2 "
         id="polygon2030" />
      <a
         transform="translate(-6.0789006,107.81903)"
         style="color:inherit"
         xlink:href="textedit:///Users/jwy/Documents/GitHub/sf004/public/pieces/sf004/notation/notes03.ly:127:10:11"
         id="a2080">
        <text
           transform="translate(63.6843,14.0504)"
           font-family="serif"
           font-style="italic"
           font-size="1.7461px"
           text-anchor="start"
           fill="currentColor"
           id="text2078"><tspan
             id="tspan2076">3</tspan></text>
      </a>
      <a
         transform="translate(-6.0789006,107.81903)"
         style="color:inherit"
         xlink:href="textedit:///Users/jwy/Documents/GitHub/sf004/public/pieces/sf004/notation/notes03.ly:127:10:11"
         id="a2090">
        <line
           transform="translate(60.656,13.47)"
           stroke-linejoin="round"
           stroke-linecap="round"
           stroke-width="0.16"
           stroke="currentColor"
           x1="7.1443"
           y1="0"
           x2="7.1443"
           y2="0.69999999"
           id="line2082" />
        <line
           transform="translate(60.656,13.47)"
           stroke-linejoin="round"
           stroke-linecap="round"
           stroke-width="0.16"
           stroke="currentColor"
           x1="-0.2"
           y1="0"
           x2="-0.2"
           y2="0.69999999"
           id="line2084" />
        <line
           transform="translate(60.656,13.47)"
           stroke-linejoin="round"
           stroke-linecap="round"
           stroke-width="0.16"
           stroke="currentColor"
           x1="7.1443"
           y1="0"
           x2="4.5159998"
           y2="0"
           id="line2086" />
        <line
           transform="translate(60.656,13.47)"
           stroke-linejoin="round"
           stroke-linecap="round"
           stroke-width="0.16"
           stroke="currentColor"
           x1="-0.2"
           y1="0"
           x2="2.6283"
           y2="0"
           id="line2088" />
      </a>
      <a
         transform="translate(-6.0789006,107.81903)"
         style="color:inherit"
         xlink:href="textedit:///Users/jwy/Documents/GitHub/sf004/public/pieces/sf004/notation/notes03.ly:127:33:34"
         id="a2148">
        <path
           transform="matrix(0.0036,0,0,-0.0036,66.4397,21.5)"
           d="m 215,137 c 57,0 111,-29 111,-92 0,-71 -54,-120 -101,-148 -35,-21 -74,-34 -114,-34 -57,0 -111,29 -111,92 0,71 54,120 101,148 35,21 74,34 114,34 z"
           fill="currentColor"
           id="path2146" />
      </a>
      <path
         style="stroke-width:0.00399999"
         d="m 52.960502,130.56703 c 0,0.04 -0.032,0.076 -0.072,0.076 -0.04,0 -0.076,-0.036 -0.076,-0.076 v -0.58 l -0.332001,0.124 v 0.632 c 0,0.04 -0.036,0.076 -0.076,0.076 -0.04,0 -0.072,-0.036 -0.072,-0.076 v -0.58 l -0.128,0.048 c -0.008,0.004 -0.02,0.004 -0.028,0.004 -0.044,0 -0.08,-0.036 -0.08,-0.08 v -0.24 c 0,-0.032 0.02,-0.064 0.052,-0.076 l 0.184,-0.064 v -0.64 l -0.128,0.044 c -0.008,0.004 -0.02,0.004 -0.028,0.004 -0.044,0 -0.08,-0.036 -0.08,-0.08 v -0.24 c 0,-0.032 0.02,-0.06 0.052,-0.072 l 0.184,-0.068 v -0.632 c 0,-0.04 0.032,-0.076 0.072,-0.076 0.04,0 0.076,0.036 0.076,0.076 v 0.58 l 0.332001,-0.124 v -0.632 c 0,-0.04 0.036,-0.076 0.076,-0.076 0.04,0 0.072,0.036 0.072,0.076 v 0.58 l 0.127999,-0.048 c 0.008,-0.004 0.02,-0.004 0.028,-0.004 0.044,0 0.08,0.036 0.08,0.08 v 0.24 c 0,0.032 -0.02,0.064 -0.052,0.076 l -0.184,0.064 v 0.64 l 0.127999,-0.044 c 0.008,-0.004 0.02,-0.004 0.028,-0.004 0.044,0 0.08,0.036 0.08,0.08 v 0.24 c 0,0.032 -0.02,0.06 -0.052,0.072 l -0.184,0.068 z m -0.480001,-1.508 v 0.64 l 0.332001,-0.12 v -0.64 z"
         fill="currentColor"
         id="path2150" />
      <a
         transform="translate(-6.0789006,107.81903)"
         style="color:inherit"
         xlink:href="textedit:///Users/jwy/Documents/GitHub/sf004/public/pieces/sf004/notation/notes03.ly:127:29:30"
         id="a2154">
        <path
           transform="matrix(0.0036,0,0,-0.0036,63.0325,21.5)"
           d="m 215,137 c 57,0 111,-29 111,-92 0,-71 -54,-120 -101,-148 -35,-21 -74,-34 -114,-34 -57,0 -111,29 -111,92 0,71 54,120 101,148 35,21 74,34 114,34 z"
           fill="currentColor"
           id="path2152" />
      </a>
      <rect
         style="stroke-width:1"
         x="57.984303"
         y="122.62904"
         width="0.13"
         height="6.5302005"
         ry="0.039999999"
         fill="currentColor"
         id="rect2156" />
      <rect
         style="stroke-width:1"
         x="54.577099"
         y="122.62904"
         width="0.13"
         height="6.5302005"
         ry="0.039999999"
         fill="currentColor"
         id="rect2158" />
      <rect
         style="stroke-width:1"
         x="61.391403"
         y="122.62904"
         width="0.13"
         height="6.5302005"
         ry="0.039999999"
         fill="currentColor"
         id="rect2160" />
      <a
         transform="translate(-6.0789006,107.81903)"
         style="color:inherit"
         xlink:href="textedit:///Users/jwy/Documents/GitHub/sf004/public/pieces/sf004/notation/notes03.ly:127:23:24"
         id="a2178">
        <path
           transform="matrix(0.0036,0,0,-0.0036,59.6254,21.5)"
           d="m 215,137 c 57,0 111,-29 111,-92 0,-71 -54,-120 -101,-148 -35,-21 -74,-34 -114,-34 -57,0 -111,29 -111,92 0,71 54,120 101,148 35,21 74,34 114,34 z"
           fill="currentColor"
           id="path2176" />
      </a>
    </g>
  </g>
</svg>
