<?xml version="1.0" encoding="UTF-8" standalone="no"?>
<svg
   xmlns:dc="http://purl.org/dc/elements/1.1/"
   xmlns:cc="http://creativecommons.org/ns#"
   xmlns:rdf="http://www.w3.org/1999/02/22-rdf-syntax-ns#"
   xmlns:svg="http://www.w3.org/2000/svg"
   xmlns="http://www.w3.org/2000/svg"
   xmlns:xlink="http://www.w3.org/1999/xlink"
   id="svg2927"
   version="1.1"
   viewBox="0 0 11.150591 12.710897"
   height="12.710897mm"
   width="11.150591mm">
  <defs
     id="defs2921" />
  <metadata
     id="metadata2924">
    <rdf:RDF>
      <cc:Work
         rdf:about="">
        <dc:format>image/svg+xml</dc:format>
        <dc:type
           rdf:resource="http://purl.org/dc/dcmitype/StillImage" />
        <dc:title></dc:title>
      </cc:Work>
    </rdf:RDF>
  </metadata>
  <g
     transform="translate(-70.405178,-137.06837)"
     id="layer1">
    <g
       transform="matrix(1.7572993,0,0,1.7572993,7.0612158,79.499242)"
       id="g5152">
      <rect
         id="rect4678"
         fill="currentColor"
         ry="0.1"
         height="0.2"
         width="1.7410001"
         y="-0.1"
         x="38.0047"
         transform="translate(0.5691,38)" />
      <rect
         id="rect4680"
         fill="currentColor"
         ry="0.1"
         height="0.2"
         width="1.7410001"
         y="-0.1"
         x="38.0047"
         transform="translate(0.5691,39)" />
      <rect
         id="rect4682"
         fill="currentColor"
         ry="0.1"
         height="0.2"
         width="1.7410001"
         y="-0.1"
         x="35.4771"
         transform="translate(0.5691,38)" />
      <rect
         id="rect4684"
         fill="currentColor"
         ry="0.1"
         height="0.2"
         width="1.7410001"
         y="-0.1"
         x="35.4771"
         transform="translate(0.5691,39)" />
      <a
         id="a4728"
         xlink:href="textedit:///Users/jwy/Documents/GitHub/sf004/public/pieces/sf004/notation/notes02.ly:113:10:11"
         style="color:inherit">
        <path
           id="path4726"
           fill="currentColor"
           d="m 215,137 c 57,0 111,-29 111,-92 0,-71 -54,-120 -101,-148 -35,-21 -74,-34 -114,-34 -57,0 -111,29 -111,92 0,71 54,120 101,148 35,21 74,34 114,34 z"
           transform="matrix(0.0036,0,0,-0.0036,36.3363,39.5)" />
      </a>
      <rect
         id="rect4730"
         fill="currentColor"
         ry="0.039999999"
         height="6.3401999"
         width="0.13"
         y="-2"
         x="-0.064999998"
         transform="translate(37.432,35)" />
      <a
         id="a4790"
         xlink:href="textedit:///Users/jwy/Documents/GitHub/sf004/public/pieces/sf004/notation/notes02.ly:113:14:15"
         style="color:inherit">
        <polygon
           id="polygon4786"
           points="0.04,-0.2 4.5495,-0.2 4.5495,0.2 0.04,0.2 "
           stroke="currentColor"
           fill="currentColor"
           stroke-width="0.08"
           stroke-linecap="round"
           stroke-linejoin="round"
           transform="translate(37.367,33)" />
        <polygon
           id="polygon4788"
           points="0.04,-0.2 2.6176,-0.2 2.6176,0.2 0.04,0.2 "
           stroke="currentColor"
           fill="currentColor"
           stroke-width="0.08"
           stroke-linecap="round"
           stroke-linejoin="round"
           transform="translate(37.367,33.81)" />
      </a>
      <a
         id="a4816"
         xlink:href="textedit:///Users/jwy/Documents/GitHub/sf004/public/pieces/sf004/notation/notes02.ly:113:15:16"
         style="color:inherit">
        <path
           id="path4814"
           fill="currentColor"
           d="m 215,137 c 57,0 111,-29 111,-92 0,-71 -54,-120 -101,-148 -35,-21 -74,-34 -114,-34 -57,0 -111,29 -111,92 0,71 54,120 101,148 35,21 74,34 114,34 z"
           transform="matrix(0.0036,0,0,-0.0036,38.8639,39.5)" />
      </a>
      <rect
         id="rect4818"
         fill="currentColor"
         ry="0.039999999"
         height="6.3401999"
         width="0.13"
         y="-2"
         x="-0.064999998"
         transform="translate(39.9596,35)" />
      <a
         id="a4822"
         xlink:href="textedit:///Users/jwy/Documents/GitHub/sf004/public/pieces/sf004/notation/notes02.ly:113:17:18"
         style="color:inherit">
        <path
           id="path4820"
           fill="currentColor"
           d="M 72,-250 189,76 C 155,64 120,54 84,54 38,54 -3,87 -3,133 c 0,40 33,72 73,72 25,0 48,-15 56,-39 10,-28 6,-59 35,-59 16,0 54,48 61,63 6,12 23,12 28,0 L 127,-250 c -8,-7 -17,-10 -27,-10 -10,0 -20,3 -28,10 z"
           transform="matrix(0.004,0,0,-0.004,41.3915,35)" />
      </a>
    </g>
  </g>
</svg>
