<?xml version="1.0" encoding="UTF-8" standalone="no"?>
<svg
   xmlns:dc="http://purl.org/dc/elements/1.1/"
   xmlns:cc="http://creativecommons.org/ns#"
   xmlns:rdf="http://www.w3.org/1999/02/22-rdf-syntax-ns#"
   xmlns:svg="http://www.w3.org/2000/svg"
   xmlns="http://www.w3.org/2000/svg"
   xmlns:xlink="http://www.w3.org/1999/xlink"
   id="svg1063"
   version="1.1"
   viewBox="0 0 2.0623665 13.167796"
   height="13.167796mm"
   width="2.0623665mm">
  <defs
     id="defs1057" />
  <metadata
     id="metadata1060">
    <rdf:RDF>
      <cc:Work
         rdf:about="">
        <dc:format>image/svg+xml</dc:format>
        <dc:type
           rdf:resource="http://purl.org/dc/dcmitype/StillImage" />
        <dc:title></dc:title>
      </cc:Work>
    </rdf:RDF>
  </metadata>
  <g
     transform="translate(-88.053479,-139.51495)"
     id="layer1">
    <g
       transform="matrix(1.7572994,0,0,1.7572994,74.392058,113.15546)"
       id="g909">
      <rect
         id="rect658"
         fill="currentColor"
         ry="0.039999999"
         height="6.8401999"
         width="0.13"
         y="-5"
         x="-0.064999998"
         transform="translate(8.8697,20)" />
      <a
         id="a662"
         xlink:href="textedit:///Users/jwy/Documents/GitHub/sf004/public/pieces/sf004/notation/notes01.ly:79:10:11"
         style="color:inherit">
        <path
           id="path660"
           fill="currentColor"
           d="m 215,137 c 57,0 111,-29 111,-92 0,-71 -54,-120 -101,-148 -35,-21 -74,-34 -114,-34 -57,0 -111,29 -111,92 0,71 54,120 101,148 35,21 74,34 114,34 z"
           transform="matrix(0.0036,0,0,-0.0036,7.7741,22)" />
      </a>
    </g>
  </g>
</svg>
