<?xml version="1.0" encoding="UTF-8" standalone="no"?>
<svg
   xmlns:dc="http://purl.org/dc/elements/1.1/"
   xmlns:cc="http://creativecommons.org/ns#"
   xmlns:rdf="http://www.w3.org/1999/02/22-rdf-syntax-ns#"
   xmlns:svg="http://www.w3.org/2000/svg"
   xmlns="http://www.w3.org/2000/svg"
   xmlns:xlink="http://www.w3.org/1999/xlink"
   width="18.925455mm"
   height="16.569576mm"
   viewBox="0 0 18.925456 16.569576"
   version="1.1"
   id="svg8273">
  <defs
     id="defs8267" />
  <metadata
     id="metadata8270">
    <rdf:RDF>
      <cc:Work
         rdf:about="">
        <dc:format>image/svg+xml</dc:format>
        <dc:type
           rdf:resource="http://purl.org/dc/dcmitype/StillImage" />
        <dc:title></dc:title>
      </cc:Work>
    </rdf:RDF>
  </metadata>
  <g
     id="layer1"
     transform="matrix(1.25,0,0,1.25,-122.82894,-176.92354)">
    <g
       transform="matrix(1.7572994,0,0,1.7572994,44.794331,-100.5626)"
       id="g3719">
      <rect
         id="rect2300"
         fill="currentColor"
         ry="0.039999999"
         height="6.6501999"
         width="0.13"
         y="138.00903"
         x="31.457401"
         style="stroke-width:1" />
      <a
         id="a2304"
         xlink:href="textedit:///Users/jwy/Documents/GitHub/sf004/public/pieces/sf004/notation/notes03.ly:134:10:11"
         style="color:inherit"
         transform="translate(-6.0789006,107.81903)">
        <path
           id="path2302"
           fill="currentColor"
           d="m 215,137 c 57,0 111,-29 111,-92 0,-71 -54,-120 -101,-148 -35,-21 -74,-34 -114,-34 -57,0 -111,29 -111,92 0,71 54,120 101,148 35,21 74,34 114,34 z"
           transform="matrix(0.0036,0,0,-0.0036,36.5056,37)" />
      </a>
      <a
         id="a2318"
         xlink:href="textedit:///Users/jwy/Documents/GitHub/sf004/public/pieces/sf004/notation/notes03.ly:134:15:16"
         style="color:inherit"
         transform="translate(-6.0789006,107.81903)">
        <path
           id="path2316"
           fill="currentColor"
           d="m 215,137 c 57,0 111,-29 111,-92 0,-71 -54,-120 -101,-148 -35,-21 -74,-34 -114,-34 -57,0 -111,29 -111,92 0,71 54,120 101,148 35,21 74,34 114,34 z"
           transform="matrix(0.0036,0,0,-0.0036,38.9863,37)" />
      </a>
      <rect
         id="rect2320"
         fill="currentColor"
         ry="0.039999999"
         height="6.6501999"
         width="0.13"
         y="138.00903"
         x="33.938103"
         style="stroke-width:1" />
      <a
         id="a2324"
         xlink:href="textedit:///Users/jwy/Documents/GitHub/sf004/public/pieces/sf004/notation/notes03.ly:134:17:18"
         style="color:inherit"
         transform="translate(-6.0789006,107.81903)">
        <path
           id="path2322"
           fill="currentColor"
           d="m 215,137 c 57,0 111,-29 111,-92 0,-71 -54,-120 -101,-148 -35,-21 -74,-34 -114,-34 -57,0 -111,29 -111,92 0,71 54,120 101,148 35,21 74,34 114,34 z"
           transform="matrix(0.0036,0,0,-0.0036,41.467,37)" />
      </a>
      <rect
         id="rect2326"
         fill="currentColor"
         ry="0.039999999"
         height="6.6501999"
         width="0.13"
         y="138.00903"
         x="36.4188"
         style="stroke-width:1" />
      <a
         id="a2330"
         xlink:href="textedit:///Users/jwy/Documents/GitHub/sf004/public/pieces/sf004/notation/notes03.ly:134:19:20"
         style="color:inherit"
         transform="translate(-6.0789006,107.81903)">
        <path
           id="path2328"
           fill="currentColor"
           d="m 215,137 c 57,0 111,-29 111,-92 0,-71 -54,-120 -101,-148 -35,-21 -74,-34 -114,-34 -57,0 -111,29 -111,92 0,71 54,120 101,148 35,21 74,34 114,34 z"
           transform="matrix(0.0036,0,0,-0.0036,43.9477,37)" />
      </a>
      <polygon
         id="polygon2390"
         points="7.5321,0.2 0.04,0.2 0.04,-0.2 7.5321,-0.2 "
         stroke="currentColor"
         fill="currentColor"
         stroke-width="0.08"
         stroke-linecap="round"
         stroke-linejoin="round"
         transform="translate(31.4574,138.00903)" />
      <polygon
         id="polygon2392"
         points="7.5321,0.2 0.04,0.2 0.04,-0.2 7.5321,-0.2 "
         stroke="currentColor"
         fill="currentColor"
         stroke-width="0.08"
         stroke-linecap="round"
         stroke-linejoin="round"
         transform="translate(31.4574,138.81903)" />
      <rect
         id="rect2456"
         fill="currentColor"
         ry="0.039999999"
         height="6.6501999"
         width="0.13"
         y="138.00903"
         x="38.899502"
         style="stroke-width:1" />
    </g>
  </g>
</svg>
