<?xml version="1.0" encoding="UTF-8" standalone="no"?>
<svg
   xmlns:dc="http://purl.org/dc/elements/1.1/"
   xmlns:cc="http://creativecommons.org/ns#"
   xmlns:rdf="http://www.w3.org/1999/02/22-rdf-syntax-ns#"
   xmlns:svg="http://www.w3.org/2000/svg"
   xmlns="http://www.w3.org/2000/svg"
   xmlns:xlink="http://www.w3.org/1999/xlink"
   id="svg8273"
   version="1.1"
   viewBox="0 0 15.140365 13.255661"
   height="13.255661mm"
   width="15.140365mm">
  <defs
     id="defs8267" />
  <metadata
     id="metadata8270">
    <rdf:RDF>
      <cc:Work
         rdf:about="">
        <dc:format>image/svg+xml</dc:format>
        <dc:type
           rdf:resource="http://purl.org/dc/dcmitype/StillImage" />
        <dc:title></dc:title>
      </cc:Work>
    </rdf:RDF>
  </metadata>
  <g
     transform="translate(-98.263152,-141.53883)"
     id="layer1">
    <g
       id="g3719"
       transform="matrix(1.7572994,0,0,1.7572994,44.794331,-100.5626)">
      <rect
         style="stroke-width:1"
         x="31.457401"
         y="138.00903"
         width="0.13"
         height="6.6501999"
         ry="0.039999999"
         fill="currentColor"
         id="rect2300" />
      <a
         transform="translate(-6.0789006,107.81903)"
         style="color:inherit"
         xlink:href="textedit:///Users/jwy/Documents/GitHub/sf004/public/pieces/sf004/notation/notes03.ly:134:10:11"
         id="a2304">
        <path
           transform="matrix(0.0036,0,0,-0.0036,36.5056,37)"
           d="m 215,137 c 57,0 111,-29 111,-92 0,-71 -54,-120 -101,-148 -35,-21 -74,-34 -114,-34 -57,0 -111,29 -111,92 0,71 54,120 101,148 35,21 74,34 114,34 z"
           fill="currentColor"
           id="path2302" />
      </a>
      <a
         transform="translate(-6.0789006,107.81903)"
         style="color:inherit"
         xlink:href="textedit:///Users/jwy/Documents/GitHub/sf004/public/pieces/sf004/notation/notes03.ly:134:15:16"
         id="a2318">
        <path
           transform="matrix(0.0036,0,0,-0.0036,38.9863,37)"
           d="m 215,137 c 57,0 111,-29 111,-92 0,-71 -54,-120 -101,-148 -35,-21 -74,-34 -114,-34 -57,0 -111,29 -111,92 0,71 54,120 101,148 35,21 74,34 114,34 z"
           fill="currentColor"
           id="path2316" />
      </a>
      <rect
         style="stroke-width:1"
         x="33.938103"
         y="138.00903"
         width="0.13"
         height="6.6501999"
         ry="0.039999999"
         fill="currentColor"
         id="rect2320" />
      <a
         transform="translate(-6.0789006,107.81903)"
         style="color:inherit"
         xlink:href="textedit:///Users/jwy/Documents/GitHub/sf004/public/pieces/sf004/notation/notes03.ly:134:17:18"
         id="a2324">
        <path
           transform="matrix(0.0036,0,0,-0.0036,41.467,37)"
           d="m 215,137 c 57,0 111,-29 111,-92 0,-71 -54,-120 -101,-148 -35,-21 -74,-34 -114,-34 -57,0 -111,29 -111,92 0,71 54,120 101,148 35,21 74,34 114,34 z"
           fill="currentColor"
           id="path2322" />
      </a>
      <rect
         style="stroke-width:1"
         x="36.4188"
         y="138.00903"
         width="0.13"
         height="6.6501999"
         ry="0.039999999"
         fill="currentColor"
         id="rect2326" />
      <a
         transform="translate(-6.0789006,107.81903)"
         style="color:inherit"
         xlink:href="textedit:///Users/jwy/Documents/GitHub/sf004/public/pieces/sf004/notation/notes03.ly:134:19:20"
         id="a2330">
        <path
           transform="matrix(0.0036,0,0,-0.0036,43.9477,37)"
           d="m 215,137 c 57,0 111,-29 111,-92 0,-71 -54,-120 -101,-148 -35,-21 -74,-34 -114,-34 -57,0 -111,29 -111,92 0,71 54,120 101,148 35,21 74,34 114,34 z"
           fill="currentColor"
           id="path2328" />
      </a>
      <polygon
         transform="translate(31.4574,138.00903)"
         stroke-linejoin="round"
         stroke-linecap="round"
         stroke-width="0.08"
         fill="currentColor"
         stroke="currentColor"
         points="0.04,0.2 0.04,-0.2 7.5321,-0.2 7.5321,0.2 "
         id="polygon2390" />
      <polygon
         transform="translate(31.4574,138.81903)"
         stroke-linejoin="round"
         stroke-linecap="round"
         stroke-width="0.08"
         fill="currentColor"
         stroke="currentColor"
         points="0.04,0.2 0.04,-0.2 7.5321,-0.2 7.5321,0.2 "
         id="polygon2392" />
      <rect
         style="stroke-width:1"
         x="38.899502"
         y="138.00903"
         width="0.13"
         height="6.6501999"
         ry="0.039999999"
         fill="currentColor"
         id="rect2456" />
    </g>
  </g>
</svg>
