<?xml version="1.0" encoding="UTF-8" standalone="no"?>
<svg
   xmlns:dc="http://purl.org/dc/elements/1.1/"
   xmlns:cc="http://creativecommons.org/ns#"
   xmlns:rdf="http://www.w3.org/1999/02/22-rdf-syntax-ns#"
   xmlns:svg="http://www.w3.org/2000/svg"
   xmlns="http://www.w3.org/2000/svg"
   xmlns:xlink="http://www.w3.org/1999/xlink"
   id="svg1473"
   version="1.1"
   viewBox="0 0 15.867181 12.710897"
   height="12.710897mm"
   width="15.867181mm">
  <defs
     id="defs1467" />
  <metadata
     id="metadata1470">
    <rdf:RDF>
      <cc:Work
         rdf:about="">
        <dc:format>image/svg+xml</dc:format>
        <dc:type
           rdf:resource="http://purl.org/dc/dcmitype/StillImage" />
        <dc:title></dc:title>
      </cc:Work>
    </rdf:RDF>
  </metadata>
  <g
     transform="translate(-93.55955,-132.94887)"
     id="layer1">
    <g
       id="g5010"
       transform="matrix(1.7572993,0,0,1.7572993,6.5524987,101.73923)">
      <rect
         id="rect4434"
         fill="currentColor"
         ry="0.1"
         height="0.2"
         width="1.7410001"
         y="-0.1"
         x="56.230999"
         transform="translate(0.5691,23)" />
      <rect
         id="rect4436"
         fill="currentColor"
         ry="0.1"
         height="0.2"
         width="1.7410001"
         y="-0.1"
         x="56.230999"
         transform="translate(0.5691,24)" />
      <rect
         id="rect4438"
         fill="currentColor"
         ry="0.1"
         height="0.2"
         width="1.7410001"
         y="-0.1"
         x="53.6684"
         transform="translate(0.5691,23)" />
      <rect
         id="rect4440"
         fill="currentColor"
         ry="0.1"
         height="0.2"
         width="1.7410001"
         y="-0.1"
         x="53.6684"
         transform="translate(0.5691,24)" />
      <a
         id="a4540"
         xlink:href="textedit:///Users/jwy/Documents/GitHub/sf004/public/pieces/sf004/notation/notes02.ly:105:13:14"
         style="color:inherit">
        <polygon
           id="polygon4536"
           points="0.04,0.2 0.04,-0.2 8.2521,-0.2 8.2521,0.2 "
           stroke="currentColor"
           fill="currentColor"
           stroke-width="0.08"
           stroke-linecap="round"
           stroke-linejoin="round"
           transform="translate(49.9588,18)" />
        <polygon
           id="polygon4538"
           points="0.04,0.2 0.04,-0.2 2.6526,-0.2 2.6526,0.2 "
           stroke="currentColor"
           fill="currentColor"
           stroke-width="0.08"
           stroke-linecap="round"
           stroke-linejoin="round"
           transform="translate(55.5583,18.81)" />
      </a>
      <a
         id="a4592"
         xlink:href="textedit:///Users/jwy/Documents/GitHub/sf004/public/pieces/sf004/notation/notes02.ly:105:14:15"
         style="color:inherit">
        <path
           id="path4590"
           fill="currentColor"
           d="m 215,137 c 57,0 111,-29 111,-92 0,-71 -54,-120 -101,-148 -35,-21 -74,-34 -114,-34 -57,0 -111,29 -111,92 0,71 54,120 101,148 35,21 74,34 114,34 z"
           transform="matrix(0.0036,0,0,-0.0036,54.5277,24.5)" />
      </a>
      <rect
         id="rect4594"
         fill="currentColor"
         ry="0.039999999"
         height="6.3401999"
         width="0.13"
         y="-2"
         x="-0.064999998"
         transform="translate(55.6233,20)" />
      <a
         id="a4598"
         xlink:href="textedit:///Users/jwy/Documents/GitHub/sf004/public/pieces/sf004/notation/notes02.ly:105:18:19"
         style="color:inherit">
        <path
           id="path4596"
           fill="currentColor"
           d="m 215,137 c 57,0 111,-29 111,-92 0,-71 -54,-120 -101,-148 -35,-21 -74,-34 -114,-34 -57,0 -111,29 -111,92 0,71 54,120 101,148 35,21 74,34 114,34 z"
           transform="matrix(0.0036,0,0,-0.0036,57.0902,24.5)" />
      </a>
      <rect
         id="rect4600"
         fill="currentColor"
         ry="0.039999999"
         height="6.3401999"
         width="0.13"
         y="-2"
         x="-0.064999998"
         transform="translate(58.1859,20)" />
      <a
         id="a4616"
         xlink:href="textedit:///Users/jwy/Documents/GitHub/sf004/public/pieces/sf004/notation/notes02.ly:105:10:11"
         style="color:inherit">
        <path
           id="path4614"
           fill="currentColor"
           d="M 72,-250 189,76 C 155,64 120,54 84,54 38,54 -3,87 -3,133 c 0,40 33,72 73,72 25,0 48,-15 56,-39 10,-28 6,-59 35,-59 16,0 54,48 61,63 6,12 23,12 28,0 L 127,-250 c -8,-7 -17,-10 -27,-10 -10,0 -20,3 -28,10 z"
           transform="matrix(0.004,0,0,-0.004,49.5238,20)" />
      </a>
    </g>
  </g>
</svg>
