<?xml version="1.0" encoding="UTF-8" standalone="no"?>
<svg
   xmlns:dc="http://purl.org/dc/elements/1.1/"
   xmlns:cc="http://creativecommons.org/ns#"
   xmlns:rdf="http://www.w3.org/1999/02/22-rdf-syntax-ns#"
   xmlns:svg="http://www.w3.org/2000/svg"
   xmlns="http://www.w3.org/2000/svg"
   xmlns:xlink="http://www.w3.org/1999/xlink"
   id="svg4097"
   viewBox="0 0 91.0488 29.5909"
   height="52.00mm"
   width="160.00mm"
   version="1.2">
  <metadata
     id="metadata4103">
    <rdf:RDF>
      <cc:Work
         rdf:about="">
        <dc:format>image/svg+xml</dc:format>
        <dc:type
           rdf:resource="http://purl.org/dc/dcmitype/StillImage" />
        <dc:title></dc:title>
      </cc:Work>
    </rdf:RDF>
  </metadata>
  <defs
     id="defs4101" />
  <style
     id="style4069"
     text="style/css"><![CDATA[
tspan { white-space: pre; }
]]></style>
  <!-- Page: 1/1 -->
  <text
     id="text4073"
     fill="currentColor"
     text-anchor="start"
     font-size="2.2001"
     font-family="serif"
     transform="translate(0.5691, -0.0000)"><tspan
       id="tspan4071" /></text>
  <a
     id="a4085"
     xlink:href="textedit:///Users/jwy/Documents/GitHub/sf004/public/pieces/sf004/notation/rest_ly.ly:80:11:12"
     style="color:inherit;" />
  <a
     id="a4087"
     xlink:href="textedit:///Users/jwy/Documents/GitHub/sf004/public/pieces/sf004/notation/rest_ly.ly:82:11:12"
     style="color:inherit;" />
  <a
     id="a4091"
     xlink:href="textedit:///Users/jwy/Documents/GitHub/sf004/public/pieces/sf004/notation/rest_ly.ly:62:11:12"
     style="color:inherit;">
    <path
       id="path4089"
       fill="currentColor"
       d="M-23 -116c0 28 11 42 40 42c33 0 78 -13 119 -31l-132 158c-7 9 -10 17 -10 25c0 34 50 66 87 99c25 22 37 52 37 83c0 24 -8 49 -25 69l-35 42c-3 3 -4 7 -4 10c0 9 9 15 17 15c4 0 8 -1 11 -5l151 -180c7 -9 10 -17 10 -25c0 -34 -50 -66 -87 -99 c-25 -22 -37 -52 -37 -83c0 -24 7 -49 24 -69l84 -99c3 -3 4 -7 4 -10c0 -9 -8 -16 -16 -16c-4 0 -9 2 -12 6c-18 21 -63 38 -97 38c-41 0 -53 -26 -53 -67c0 -35 11 -74 28 -94c5 -6 0 -13 -6 -13c-2 0 -4 0 -6 2c-45 54 -92 148 -92 202z"
       transform="translate(6.3691, 6.6848) scale(0.0040, -0.0040)" />
  </a>
  <a
     id="a4093"
     xlink:href="textedit:///Users/jwy/Documents/GitHub/sf004/public/pieces/sf004/notation/rest_ly.ly:94:69:70"
     style="color:inherit;" />
  <a
     id="a4095"
     xlink:href="textedit:///Users/jwy/Documents/GitHub/sf004/public/pieces/sf004/notation/rest_ly.ly:94:22:23"
     style="color:inherit;" />
</svg>
