<svg xmlns="http://www.w3.org/2000/svg" xmlns:xlink="http://www.w3.org/1999/xlink" version="1.2" width="160.00mm" height="52.00mm" viewBox="0 0 91.0488 29.5909">
<style text="style/css">
<![CDATA[
tspan { white-space: pre; }
]]>
</style>
<!-- Page: 1/1 -->
<text transform="translate(0.5691, -0.0000)" font-family="serif" font-size="2.2001" text-anchor="start" fill="currentColor">
<tspan/>
</text>
<line transform="translate(0.5691, 8.6848)" stroke-linejoin="round" stroke-linecap="round" stroke-width="0.2000" stroke="currentColor" x1="0.1000" y1="-0.0000" x2="89.8107" y2="-0.0000"/>
<line transform="translate(0.5691, 7.6848)" stroke-linejoin="round" stroke-linecap="round" stroke-width="0.2000" stroke="currentColor" x1="0.1000" y1="-0.0000" x2="89.8107" y2="-0.0000"/>
<line transform="translate(0.5691, 6.6848)" stroke-linejoin="round" stroke-linecap="round" stroke-width="0.2000" stroke="currentColor" x1="0.1000" y1="-0.0000" x2="89.8107" y2="-0.0000"/>
<line transform="translate(0.5691, 5.6848)" stroke-linejoin="round" stroke-linecap="round" stroke-width="0.2000" stroke="currentColor" x1="0.1000" y1="-0.0000" x2="89.8107" y2="-0.0000"/>
<line transform="translate(0.5691, 4.6848)" stroke-linejoin="round" stroke-linecap="round" stroke-width="0.2000" stroke="currentColor" x1="0.1000" y1="-0.0000" x2="89.8107" y2="-0.0000"/>
<rect transform="translate(47.8655, 6.6848)" x="0.0000" y="-2.0000" width="0.1900" height="4.0000" ry="0.0000" fill="currentColor"/>
<rect transform="translate(90.2898, 6.6848)" x="0.0000" y="-2.0000" width="0.1900" height="4.0000" ry="0.0000" fill="currentColor"/>
<rect transform="translate(0.5691, 9.6848)" x="78.8528" y="-0.1500" width="1.7410" height="0.3000" ry="0.1500" fill="currentColor"/>
<rect transform="translate(0.5691, 9.6848)" x="68.5250" y="-0.1500" width="1.7410" height="0.3000" ry="0.1500" fill="currentColor"/>
<rect transform="translate(0.5691, 9.6848)" x="58.1972" y="-0.1500" width="1.7410" height="0.3000" ry="0.1500" fill="currentColor"/>
<rect transform="translate(0.5691, 9.6848)" x="55.6448" y="-0.1500" width="1.7410" height="0.3000" ry="0.1500" fill="currentColor"/>
<rect transform="translate(0.5691, 9.6848)" x="53.0923" y="-0.1500" width="1.7410" height="0.3000" ry="0.1500" fill="currentColor"/>
<rect transform="translate(0.5691, 9.6848)" x="50.5399" y="-0.1500" width="1.7410" height="0.3000" ry="0.1500" fill="currentColor"/>
<rect transform="translate(0.5691, 9.6848)" x="47.9874" y="-0.1500" width="1.7410" height="0.3000" ry="0.1500" fill="currentColor"/>
<rect transform="translate(0.5691, 9.6848)" x="36.4285" y="-0.1500" width="1.7410" height="0.3000" ry="0.1500" fill="currentColor"/>
<rect transform="translate(0.5691, 2.6848)" x="34.8944" y="-0.1500" width="1.7410" height="0.3000" ry="0.1500" fill="currentColor"/>
<rect transform="translate(0.5691, 3.6848)" x="34.8944" y="-0.1500" width="1.7410" height="0.3000" ry="0.1500" fill="currentColor"/>
<rect transform="translate(0.5691, 2.6848)" x="32.8603" y="-0.1500" width="1.7410" height="0.3000" ry="0.1500" fill="currentColor"/>
<rect transform="translate(0.5691, 3.6848)" x="32.8603" y="-0.1500" width="1.7410" height="0.3000" ry="0.1500" fill="currentColor"/>
<rect transform="translate(0.5691, 2.6848)" x="30.8262" y="-0.1500" width="1.7410" height="0.3000" ry="0.1500" fill="currentColor"/>
<rect transform="translate(0.5691, 3.6848)" x="30.8262" y="-0.1500" width="1.7410" height="0.3000" ry="0.1500" fill="currentColor"/>
<rect transform="translate(0.5691, 2.6848)" x="28.7921" y="-0.1500" width="1.7410" height="0.3000" ry="0.1500" fill="currentColor"/>
<rect transform="translate(0.5691, 3.6848)" x="28.7921" y="-0.1500" width="1.7410" height="0.3000" ry="0.1500" fill="currentColor"/>
<rect transform="translate(0.5691, 2.6848)" x="26.7581" y="-0.1500" width="1.7410" height="0.3000" ry="0.1500" fill="currentColor"/>
<rect transform="translate(0.5691, 3.6848)" x="26.7581" y="-0.1500" width="1.7410" height="0.3000" ry="0.1500" fill="currentColor"/>
<rect transform="translate(0.5691, 9.6848)" x="15.9303" y="-0.1500" width="1.7410" height="0.3000" ry="0.1500" fill="currentColor"/>
<rect transform="translate(0.5691, 9.6848)" x="13.6462" y="-0.1500" width="1.7410" height="0.3000" ry="0.1500" fill="currentColor"/>
<rect transform="translate(0.5691, 10.6848)" x="13.6462" y="-0.1500" width="1.7410" height="0.3000" ry="0.1500" fill="currentColor"/>
<rect transform="translate(0.5691, 11.6848)" x="13.6462" y="-0.1500" width="1.7410" height="0.3000" ry="0.1500" fill="currentColor"/>
<rect transform="translate(0.5691, 9.6848)" x="11.6121" y="-0.1500" width="1.7410" height="0.3000" ry="0.1500" fill="currentColor"/>
<rect transform="translate(0.5691, 10.6848)" x="11.6121" y="-0.1500" width="1.7410" height="0.3000" ry="0.1500" fill="currentColor"/>
<rect transform="translate(0.5691, 11.6848)" x="11.6121" y="-0.1500" width="1.7410" height="0.3000" ry="0.1500" fill="currentColor"/>
<rect transform="translate(0.5691, 9.6848)" x="9.5780" y="-0.1500" width="1.7410" height="0.3000" ry="0.1500" fill="currentColor"/>
<rect transform="translate(0.5691, 10.6848)" x="9.5780" y="-0.1500" width="1.7410" height="0.3000" ry="0.1500" fill="currentColor"/>
<rect transform="translate(0.5691, 11.6848)" x="9.5780" y="-0.1500" width="1.7410" height="0.3000" ry="0.1500" fill="currentColor"/>
<rect transform="translate(0.5691, 9.6848)" x="7.5439" y="-0.1500" width="1.7410" height="0.3000" ry="0.1500" fill="currentColor"/>
<rect transform="translate(0.5691, 10.6848)" x="7.5439" y="-0.1500" width="1.7410" height="0.3000" ry="0.1500" fill="currentColor"/>
<rect transform="translate(0.5691, 11.6848)" x="7.5439" y="-0.1500" width="1.7410" height="0.3000" ry="0.1500" fill="currentColor"/>
<rect transform="translate(0.5691, 9.6848)" x="5.5098" y="-0.1500" width="1.7410" height="0.3000" ry="0.1500" fill="currentColor"/>
<rect transform="translate(0.5691, 10.6848)" x="5.5098" y="-0.1500" width="1.7410" height="0.3000" ry="0.1500" fill="currentColor"/>
<rect transform="translate(0.5691, 11.6848)" x="5.5098" y="-0.1500" width="1.7410" height="0.3000" ry="0.1500" fill="currentColor"/>
<a style="color:inherit;" xlink:href="textedit:///Users/jwy/Documents/GitHub/sf004/public/pieces/sf004/notation/sampleFilledStaff2.ly:52:117:118">
<path transform="translate(35.7536, 2.6848) scale(0.0036, -0.0036)" d="M215 137c57 0 111 -29 111 -92c0 -71 -54 -120 -101 -148c-35 -21 -74 -34 -114 -34c-57 0 -111 29 -111 92c0 71 54 120 101 148c35 21 74 34 114 34z" fill="currentColor"/>
</a>
<rect transform="translate(35.8836, 6.6848)" x="-0.1300" y="-3.8402" width="0.2600" height="6.7002" ry="0.0400" fill="currentColor"/>
<a style="color:inherit;" xlink:href="textedit:///Users/jwy/Documents/GitHub/sf004/public/pieces/sf004/notation/sampleFilledStaff2.ly:52:138:139">
<path transform="translate(37.2877, 9.6848) scale(0.0036, -0.0036)" d="M215 137c57 0 111 -29 111 -92c0 -71 -54 -120 -101 -148c-35 -21 -74 -34 -114 -34c-57 0 -111 29 -111 92c0 71 54 120 101 148c35 21 74 34 114 34z" fill="currentColor"/>
</a>
<rect transform="translate(38.3184, 6.6848)" x="-0.1300" y="-4.0000" width="0.2600" height="6.8402" ry="0.0400" fill="currentColor"/>
<a style="color:inherit;" xlink:href="textedit:///Users/jwy/Documents/GitHub/sf004/public/pieces/sf004/notation/sampleFilledStaff2.ly:54:11:12">
<path transform="translate(48.8466, 9.6848) scale(0.0036, -0.0036)" d="M215 137c57 0 111 -29 111 -92c0 -71 -54 -120 -101 -148c-35 -21 -74 -34 -114 -34c-57 0 -111 29 -111 92c0 71 54 120 101 148c35 21 74 34 114 34z" fill="currentColor"/>
</a>
<rect transform="translate(49.8773, 6.6848)" x="-0.1300" y="-3.8600" width="0.2600" height="6.7002" ry="0.0400" fill="currentColor"/>
<a style="color:inherit;" xlink:href="textedit:///Users/jwy/Documents/GitHub/sf004/public/pieces/sf004/notation/sampleFilledStaff2.ly:52:105:106">
<path transform="translate(29.6514, 2.6848) scale(0.0036, -0.0036)" d="M215 137c57 0 111 -29 111 -92c0 -71 -54 -120 -101 -148c-35 -21 -74 -34 -114 -34c-57 0 -111 29 -111 92c0 71 54 120 101 148c35 21 74 34 114 34z" fill="currentColor"/>
</a>
<rect transform="translate(29.7814, 6.6848)" x="-0.1300" y="-3.8402" width="0.2600" height="6.7002" ry="0.0400" fill="currentColor"/>
<a style="color:inherit;" xlink:href="textedit:///Users/jwy/Documents/GitHub/sf004/public/pieces/sf004/notation/sampleFilledStaff2.ly:52:109:110">
<path transform="translate(31.6855, 2.6848) scale(0.0036, -0.0036)" d="M215 137c57 0 111 -29 111 -92c0 -71 -54 -120 -101 -148c-35 -21 -74 -34 -114 -34c-57 0 -111 29 -111 92c0 71 54 120 101 148c35 21 74 34 114 34z" fill="currentColor"/>
</a>
<rect transform="translate(31.8155, 6.6848)" x="-0.1300" y="-3.8402" width="0.2600" height="6.7002" ry="0.0400" fill="currentColor"/>
<a style="color:inherit;" xlink:href="textedit:///Users/jwy/Documents/GitHub/sf004/public/pieces/sf004/notation/sampleFilledStaff2.ly:52:23:24">
<line transform="translate(7.2697, 3.4848)" stroke-linejoin="round" stroke-linecap="round" stroke-width="0.3200" stroke="currentColor" x1="8.5964" y1="-0.0000" x2="8.5964" y2="0.7000"/>
<line transform="translate(7.2697, 3.4848)" stroke-linejoin="round" stroke-linecap="round" stroke-width="0.3200" stroke="currentColor" x1="-0.2000" y1="-0.0000" x2="-0.2000" y2="0.7000"/>
<line transform="translate(7.2697, 3.4848)" stroke-linejoin="round" stroke-linecap="round" stroke-width="0.3200" stroke="currentColor" x1="8.5964" y1="-0.0000" x2="5.2420" y2="-0.0000"/>
<line transform="translate(7.2697, 3.4848)" stroke-linejoin="round" stroke-linecap="round" stroke-width="0.3200" stroke="currentColor" x1="-0.2000" y1="-0.0000" x2="3.3543" y2="-0.0000"/>
</a>
<a style="color:inherit;" xlink:href="textedit:///Users/jwy/Documents/GitHub/sf004/public/pieces/sf004/notation/sampleFilledStaff2.ly:52:113:114">
<path transform="translate(33.7196, 2.6848) scale(0.0036, -0.0036)" d="M215 137c57 0 111 -29 111 -92c0 -71 -54 -120 -101 -148c-35 -21 -74 -34 -114 -34c-57 0 -111 29 -111 92c0 71 54 120 101 148c35 21 74 34 114 34z" fill="currentColor"/>
</a>
<rect transform="translate(33.8496, 6.6848)" x="-0.1300" y="-3.8402" width="0.2600" height="6.7002" ry="0.0400" fill="currentColor"/>
<a style="color:inherit;" xlink:href="textedit:///Users/jwy/Documents/GitHub/sf004/public/pieces/sf004/notation/sampleFilledStaff2.ly:54:19:20">
<path transform="translate(56.5040, 9.6848) scale(0.0036, -0.0036)" d="M215 137c57 0 111 -29 111 -92c0 -71 -54 -120 -101 -148c-35 -21 -74 -34 -114 -34c-57 0 -111 29 -111 92c0 71 54 120 101 148c35 21 74 34 114 34z" fill="currentColor"/>
</a>
<rect transform="translate(57.5347, 6.6848)" x="-0.1300" y="-3.8600" width="0.2600" height="6.7002" ry="0.0400" fill="currentColor"/>
<a style="color:inherit;" xlink:href="textedit:///Users/jwy/Documents/GitHub/sf004/public/pieces/sf004/notation/sampleFilledStaff2.ly:54:28:29">
<path transform="translate(59.0564, 9.6848) scale(0.0036, -0.0036)" d="M215 137c57 0 111 -29 111 -92c0 -71 -54 -120 -101 -148c-35 -21 -74 -34 -114 -34c-57 0 -111 29 -111 92c0 71 54 120 101 148c35 21 74 34 114 34z" fill="currentColor"/>
</a>
<rect transform="translate(60.0871, 6.6848)" x="-0.1300" y="-4.0000" width="0.2600" height="6.8402" ry="0.0400" fill="currentColor"/>
<a style="color:inherit;" xlink:href="textedit:///Users/jwy/Documents/GitHub/sf004/public/pieces/sf004/notation/sampleFilledStaff2.ly:54:36:37">
<path transform="translate(69.3842, 9.6848) scale(0.0036, -0.0036)" d="M215 137c57 0 111 -29 111 -92c0 -71 -54 -120 -101 -148c-35 -21 -74 -34 -114 -34c-57 0 -111 29 -111 92c0 71 54 120 101 148c35 21 74 34 114 34z" fill="currentColor"/>
</a>
<rect transform="translate(70.4149, 6.6848)" x="-0.1300" y="-4.0000" width="0.2600" height="6.8402" ry="0.0400" fill="currentColor"/>
<polygon transform="translate(49.7473, 2.8248)" stroke-linejoin="round" stroke-linecap="round" stroke-width="0.0800" fill="currentColor" stroke="currentColor" points="7.8773 -0.2000 7.8773 0.2000 0.0400 0.2000 0.0400 -0.2000"/>
<polygon transform="translate(49.7473, 3.6848)" stroke-linejoin="round" stroke-linecap="round" stroke-width="0.0800" fill="currentColor" stroke="currentColor" points="7.8773 -0.2000 7.8773 0.2000 0.0400 0.2000 0.0400 -0.2000"/>
<polygon transform="translate(27.6173, 8.6848)" stroke-linejoin="round" stroke-linecap="round" stroke-width="0.0800" fill="currentColor" stroke="currentColor" points="8.3564 -0.2000 8.3564 0.2000 0.0400 0.2000 0.0400 -0.2000"/>
<polygon transform="translate(27.6173, 9.5448)" stroke-linejoin="round" stroke-linecap="round" stroke-width="0.0800" fill="currentColor" stroke="currentColor" points="8.3564 -0.2000 8.3564 0.2000 0.0400 0.2000 0.0400 -0.2000"/>
<a style="color:inherit;" xlink:href="textedit:///Users/jwy/Documents/GitHub/sf004/public/pieces/sf004/notation/sampleFilledStaff2.ly:52:83:84">
<text transform="translate(31.3716, 11.4481)" font-family="serif" font-style="italic" font-size="1.7461" text-anchor="start" fill="currentColor">
<tspan>5</tspan>
</text>
</a>
<a style="color:inherit;" xlink:href="textedit:///Users/jwy/Documents/GitHub/sf004/public/pieces/sf004/notation/sampleFilledStaff2.ly:52:83:84">
<line transform="translate(27.6173, 10.8848)" stroke-linejoin="round" stroke-linecap="round" stroke-width="0.3200" stroke="currentColor" x1="8.5964" y1="-0.0000" x2="8.5964" y2="-0.7000"/>
<line transform="translate(27.6173, 10.8848)" stroke-linejoin="round" stroke-linecap="round" stroke-width="0.3200" stroke="currentColor" x1="-0.2000" y1="-0.0000" x2="-0.2000" y2="-0.7000"/>
<line transform="translate(27.6173, 10.8848)" stroke-linejoin="round" stroke-linecap="round" stroke-width="0.3200" stroke="currentColor" x1="8.5964" y1="-0.0000" x2="5.2420" y2="-0.0000"/>
<line transform="translate(27.6173, 10.8848)" stroke-linejoin="round" stroke-linecap="round" stroke-width="0.3200" stroke="currentColor" x1="-0.2000" y1="-0.0000" x2="3.3543" y2="-0.0000"/>
</a>
<polygon transform="translate(7.2697, 4.8248)" stroke-linejoin="round" stroke-linecap="round" stroke-width="0.0800" fill="currentColor" stroke="currentColor" points="8.3564 -0.2000 8.3564 0.2000 0.0400 0.2000 0.0400 -0.2000"/>
<polygon transform="translate(7.2697, 5.6848)" stroke-linejoin="round" stroke-linecap="round" stroke-width="0.0800" fill="currentColor" stroke="currentColor" points="8.3564 -0.2000 8.3564 0.2000 0.0400 0.2000 0.0400 -0.2000"/>
<a style="color:inherit;" xlink:href="textedit:///Users/jwy/Documents/GitHub/sf004/public/pieces/sf004/notation/sampleFilledStaff2.ly:52:23:24">
<text transform="translate(11.0240, 4.0481)" font-family="serif" font-style="italic" font-size="1.7461" text-anchor="start" fill="currentColor">
<tspan>5</tspan>
</text>
</a>
<rect transform="translate(52.4298, 6.6848)" x="-0.1300" y="-3.8600" width="0.2600" height="6.7002" ry="0.0400" fill="currentColor"/>
<a style="color:inherit;" xlink:href="textedit:///Users/jwy/Documents/GitHub/sf004/public/pieces/sf004/notation/sampleFilledStaff2.ly:54:15:16">
<path transform="translate(51.3991, 9.6848) scale(0.0036, -0.0036)" d="M215 137c57 0 111 -29 111 -92c0 -71 -54 -120 -101 -148c-35 -21 -74 -34 -114 -34c-57 0 -111 29 -111 92c0 71 54 120 101 148c35 21 74 34 114 34z" fill="currentColor"/>
</a>
<a style="color:inherit;" xlink:href="textedit:///Users/jwy/Documents/GitHub/sf004/public/pieces/sf004/notation/sampleFilledStaff2.ly:54:17:18">
<path transform="translate(53.9515, 9.6848) scale(0.0036, -0.0036)" d="M215 137c57 0 111 -29 111 -92c0 -71 -54 -120 -101 -148c-35 -21 -74 -34 -114 -34c-57 0 -111 29 -111 92c0 71 54 120 101 148c35 21 74 34 114 34z" fill="currentColor"/>
</a>
<rect transform="translate(54.9822, 6.6848)" x="-0.1300" y="-3.8600" width="0.2600" height="6.7002" ry="0.0400" fill="currentColor"/>
<rect transform="translate(9.4338, 6.6848)" x="-0.1300" y="-1.8600" width="0.2600" height="6.7002" ry="0.0400" fill="currentColor"/>
<a style="color:inherit;" xlink:href="textedit:///Users/jwy/Documents/GitHub/sf004/public/pieces/sf004/notation/sampleFilledStaff2.ly:52:40:41">
<path transform="translate(6.3691, 11.6848) scale(0.0036, -0.0036)" d="M215 137c57 0 111 -29 111 -92c0 -71 -54 -120 -101 -148c-35 -21 -74 -34 -114 -34c-57 0 -111 29 -111 92c0 71 54 120 101 148c35 21 74 34 114 34z" fill="currentColor"/>
</a>
<a style="color:inherit;" xlink:href="textedit:///Users/jwy/Documents/GitHub/sf004/public/pieces/sf004/notation/sampleFilledStaff2.ly:52:55:56">
<path transform="translate(10.4372, 11.6848) scale(0.0036, -0.0036)" d="M215 137c57 0 111 -29 111 -92c0 -71 -54 -120 -101 -148c-35 -21 -74 -34 -114 -34c-57 0 -111 29 -111 92c0 71 54 120 101 148c35 21 74 34 114 34z" fill="currentColor"/>
</a>
<rect transform="translate(11.4679, 6.6848)" x="-0.1300" y="-1.8600" width="0.2600" height="6.7002" ry="0.0400" fill="currentColor"/>
<a style="color:inherit;" xlink:href="textedit:///Users/jwy/Documents/GitHub/sf004/public/pieces/sf004/notation/sampleFilledStaff2.ly:54:44:45">
<path transform="translate(79.7120, 9.6848) scale(0.0036, -0.0036)" d="M215 137c57 0 111 -29 111 -92c0 -71 -54 -120 -101 -148c-35 -21 -74 -34 -114 -34c-57 0 -111 29 -111 92c0 71 54 120 101 148c35 21 74 34 114 34z" fill="currentColor"/>
</a>
<rect transform="translate(80.7427, 6.6848)" x="-0.1300" y="-4.0000" width="0.2600" height="6.8402" ry="0.0400" fill="currentColor"/>
<path transform="translate(1.3691, 7.6848) scale(0.0040, -0.0040)" d="M376 262c4 0 9 1 13 1c155 0 256 -128 256 -261c0 -76 -33 -154 -107 -210c-22 -17 -47 -28 -73 -36c3 -35 5 -70 5 -105c0 -19 -1 -39 -2 -58c-7 -120 -90 -228 -208 -228c-108 0 -195 88 -195 197c0 58 53 103 112 103c54 0 95 -47 95 -103c0 -52 -43 -95 -95 -95
c-11 0 -21 2 -31 6c26 -39 68 -65 117 -65c96 0 157 92 163 191c1 18 2 37 2 55c0 31 -1 61 -4 92c-29 -5 -58 -8 -89 -8c-188 0 -333 172 -333 374c0 177 131 306 248 441c-19 62 -37 125 -45 190c-6 52 -7 104 -7 156c0 115 55 224 149 292c3 2 7 3 10 3c4 0 7 0 10 -3
c71 -84 133 -245 133 -358c0 -143 -86 -255 -180 -364c21 -68 39 -138 56 -207zM461 -203c68 24 113 95 113 164c0 90 -66 179 -173 190c24 -116 46 -231 60 -354zM74 28c0 -135 129 -247 264 -247c28 0 55 2 82 6c-14 127 -37 245 -63 364c-79 -8 -124 -61 -124 -119
c0 -44 25 -91 81 -123c5 -5 7 -10 7 -15c0 -11 -10 -22 -22 -22c-3 0 -6 1 -9 2c-80 43 -117 115 -117 185c0 88 58 174 160 197c-14 58 -29 117 -46 175c-107 -121 -213 -243 -213 -403zM408 1045c-99 -48 -162 -149 -162 -259c0 -74 18 -133 36 -194
c80 97 146 198 146 324c0 55 -4 79 -20 129z" fill="currentColor"/>
<a style="color:inherit;" xlink:href="textedit:///Users/jwy/Documents/GitHub/sf004/public/pieces/sf004/notation/sampleFilledStaff2.ly:52:53:54">
<path transform="translate(8.4031, 11.6848) scale(0.0036, -0.0036)" d="M215 137c57 0 111 -29 111 -92c0 -71 -54 -120 -101 -148c-35 -21 -74 -34 -114 -34c-57 0 -111 29 -111 92c0 71 54 120 101 148c35 21 74 34 114 34z" fill="currentColor"/>
</a>
<rect transform="translate(7.3997, 6.6848)" x="-0.1300" y="-1.8600" width="0.2600" height="6.7002" ry="0.0400" fill="currentColor"/>
<a style="color:inherit;" xlink:href="textedit:///Users/jwy/Documents/GitHub/sf004/public/pieces/sf004/notation/sampleFilledStaff2.ly:52:69:70">
<path transform="translate(16.7895, 9.6848) scale(0.0036, -0.0036)" d="M215 137c57 0 111 -29 111 -92c0 -71 -54 -120 -101 -148c-35 -21 -74 -34 -114 -34c-57 0 -111 29 -111 92c0 71 54 120 101 148c35 21 74 34 114 34z" fill="currentColor"/>
</a>
<rect transform="translate(17.8202, 6.6848)" x="-0.1300" y="-4.0000" width="0.2600" height="6.8402" ry="0.0400" fill="currentColor"/>
<a style="color:inherit;" xlink:href="textedit:///Users/jwy/Documents/GitHub/sf004/public/pieces/sf004/notation/sampleFilledStaff2.ly:52:96:97">
<path transform="translate(27.6173, 2.6848) scale(0.0036, -0.0036)" d="M215 137c57 0 111 -29 111 -92c0 -71 -54 -120 -101 -148c-35 -21 -74 -34 -114 -34c-57 0 -111 29 -111 92c0 71 54 120 101 148c35 21 74 34 114 34z" fill="currentColor"/>
</a>
<a style="color:inherit;" xlink:href="textedit:///Users/jwy/Documents/GitHub/sf004/public/pieces/sf004/notation/sampleFilledStaff2.ly:52:102:103">
<path transform="translate(28.1976, 1.5000) scale(0.0040, -0.0040)" d="M-211 88c-8 2 -14 9 -14 18c0 10 9 19 19 19c2 0 3 -1 4 -1l408 -105c13 0 19 -6 19 -19s-6 -19 -19 -19l-408 -105c-1 0 -2 -1 -4 -1c-10 0 -19 9 -19 19c0 9 6 16 14 18l251 65l140 23l-140 23z" fill="currentColor"/>
</a>
<rect transform="translate(27.7473, 6.6848)" x="-0.1300" y="-3.8402" width="0.2600" height="6.7002" ry="0.0400" fill="currentColor"/>
<rect transform="translate(13.5020, 6.6848)" x="-0.1300" y="-1.8600" width="0.2600" height="6.7002" ry="0.0400" fill="currentColor"/>
<a style="color:inherit;" xlink:href="textedit:///Users/jwy/Documents/GitHub/sf004/public/pieces/sf004/notation/sampleFilledStaff2.ly:52:43:44">
<path transform="translate(6.9494, 12.8695) scale(0.0040, -0.0040)" d="M-211 88c-8 2 -14 9 -14 18c0 10 9 19 19 19c2 0 3 -1 4 -1l408 -105c13 0 19 -6 19 -19s-6 -19 -19 -19l-408 -105c-1 0 -2 -1 -4 -1c-10 0 -19 9 -19 19c0 9 6 16 14 18l251 65l140 23l-140 23z" fill="currentColor"/>
</a>
<a style="color:inherit;" xlink:href="textedit:///Users/jwy/Documents/GitHub/sf004/public/pieces/sf004/notation/sampleFilledStaff2.ly:52:57:58">
<path transform="translate(12.4713, 11.6848) scale(0.0036, -0.0036)" d="M215 137c57 0 111 -29 111 -92c0 -71 -54 -120 -101 -148c-35 -21 -74 -34 -114 -34c-57 0 -111 29 -111 92c0 71 54 120 101 148c35 21 74 34 114 34z" fill="currentColor"/>
</a>
<rect transform="translate(15.5361, 6.6848)" x="-0.1300" y="-1.8600" width="0.2600" height="6.7002" ry="0.0400" fill="currentColor"/>
<a style="color:inherit;" xlink:href="textedit:///Users/jwy/Documents/GitHub/sf004/public/pieces/sf004/notation/sampleFilledStaff2.ly:52:59:60">
<path transform="translate(14.5054, 11.6848) scale(0.0036, -0.0036)" d="M215 137c57 0 111 -29 111 -92c0 -71 -54 -120 -101 -148c-35 -21 -74 -34 -114 -34c-57 0 -111 29 -111 92c0 71 54 120 101 148c35 21 74 34 114 34z" fill="currentColor"/>
</a>
<line transform="translate(0.5691, 23.6848)" stroke-linejoin="round" stroke-linecap="round" stroke-width="0.2000" stroke="currentColor" x1="0.1000" y1="-0.0000" x2="89.8107" y2="-0.0000"/>
<line transform="translate(0.5691, 22.6848)" stroke-linejoin="round" stroke-linecap="round" stroke-width="0.2000" stroke="currentColor" x1="0.1000" y1="-0.0000" x2="89.8107" y2="-0.0000"/>
<line transform="translate(0.5691, 21.6848)" stroke-linejoin="round" stroke-linecap="round" stroke-width="0.2000" stroke="currentColor" x1="0.1000" y1="-0.0000" x2="89.8107" y2="-0.0000"/>
<line transform="translate(0.5691, 20.6848)" stroke-linejoin="round" stroke-linecap="round" stroke-width="0.2000" stroke="currentColor" x1="0.1000" y1="-0.0000" x2="89.8107" y2="-0.0000"/>
<line transform="translate(0.5691, 19.6848)" stroke-linejoin="round" stroke-linecap="round" stroke-width="0.2000" stroke="currentColor" x1="0.1000" y1="-0.0000" x2="89.8107" y2="-0.0000"/>
<path transform="translate(88.6398, 21.1848) scale(0.0040, -0.0040)" d="M0 0c0 31 25 56 56 56s56 -25 56 -56s-25 -56 -56 -56s-56 25 -56 56z" fill="currentColor"/>
<path transform="translate(88.6398, 22.1848) scale(0.0040, -0.0040)" d="M0 0c0 31 25 56 56 56s56 -25 56 -56s-25 -56 -56 -56s-56 25 -56 56z" fill="currentColor"/>
<rect transform="translate(89.8798, 21.6848)" x="0.0000" y="-2.0000" width="0.6000" height="4.0000" ry="0.0000" fill="currentColor"/>
<rect transform="translate(89.3898, 21.6848)" x="0.0000" y="-2.0000" width="0.1900" height="4.0000" ry="0.0000" fill="currentColor"/>
<rect transform="translate(47.1128, 21.6848)" x="0.0000" y="-2.0000" width="0.1900" height="4.0000" ry="0.0000" fill="currentColor"/>
<rect transform="translate(0.5691, 24.6848)" x="77.6409" y="-0.1500" width="1.7410" height="0.3000" ry="0.1500" fill="currentColor"/>
<rect transform="translate(0.5691, 24.6848)" x="67.5014" y="-0.1500" width="1.7410" height="0.3000" ry="0.1500" fill="currentColor"/>
<rect transform="translate(0.5691, 24.6848)" x="57.3618" y="-0.1500" width="1.7410" height="0.3000" ry="0.1500" fill="currentColor"/>
<rect transform="translate(0.5691, 24.6848)" x="47.2222" y="-0.1500" width="1.7410" height="0.3000" ry="0.1500" fill="currentColor"/>
<rect transform="translate(0.5691, 24.6848)" x="35.8640" y="-0.1500" width="1.7410" height="0.3000" ry="0.1500" fill="currentColor"/>
<rect transform="translate(0.5691, 24.6848)" x="33.6175" y="-0.1500" width="1.7410" height="0.3000" ry="0.1500" fill="currentColor"/>
<rect transform="translate(0.5691, 25.6848)" x="33.6175" y="-0.1500" width="1.7410" height="0.3000" ry="0.1500" fill="currentColor"/>
<rect transform="translate(0.5691, 26.6848)" x="33.6175" y="-0.1500" width="1.7410" height="0.3000" ry="0.1500" fill="currentColor"/>
<rect transform="translate(0.5691, 24.6848)" x="31.6211" y="-0.1500" width="1.7410" height="0.3000" ry="0.1500" fill="currentColor"/>
<rect transform="translate(0.5691, 25.6848)" x="31.6211" y="-0.1500" width="1.7410" height="0.3000" ry="0.1500" fill="currentColor"/>
<rect transform="translate(0.5691, 26.6848)" x="31.6211" y="-0.1500" width="1.7410" height="0.3000" ry="0.1500" fill="currentColor"/>
<rect transform="translate(0.5691, 24.6848)" x="29.6246" y="-0.1500" width="1.7410" height="0.3000" ry="0.1500" fill="currentColor"/>
<rect transform="translate(0.5691, 25.6848)" x="29.6246" y="-0.1500" width="1.7410" height="0.3000" ry="0.1500" fill="currentColor"/>
<rect transform="translate(0.5691, 26.6848)" x="29.6246" y="-0.1500" width="1.7410" height="0.3000" ry="0.1500" fill="currentColor"/>
<rect transform="translate(0.5691, 24.6848)" x="27.6282" y="-0.1500" width="1.7410" height="0.3000" ry="0.1500" fill="currentColor"/>
<rect transform="translate(0.5691, 25.6848)" x="27.6282" y="-0.1500" width="1.7410" height="0.3000" ry="0.1500" fill="currentColor"/>
<rect transform="translate(0.5691, 26.6848)" x="27.6282" y="-0.1500" width="1.7410" height="0.3000" ry="0.1500" fill="currentColor"/>
<rect transform="translate(0.5691, 24.6848)" x="25.6317" y="-0.1500" width="1.7410" height="0.3000" ry="0.1500" fill="currentColor"/>
<rect transform="translate(0.5691, 25.6848)" x="25.6317" y="-0.1500" width="1.7410" height="0.3000" ry="0.1500" fill="currentColor"/>
<rect transform="translate(0.5691, 26.6848)" x="25.6317" y="-0.1500" width="1.7410" height="0.3000" ry="0.1500" fill="currentColor"/>
<rect transform="translate(0.5691, 17.6848)" x="24.1352" y="-0.1500" width="1.7410" height="0.3000" ry="0.1500" fill="currentColor"/>
<rect transform="translate(0.5691, 18.6848)" x="24.1352" y="-0.1500" width="1.7410" height="0.3000" ry="0.1500" fill="currentColor"/>
<rect transform="translate(0.5691, 17.6848)" x="22.1388" y="-0.1500" width="1.7410" height="0.3000" ry="0.1500" fill="currentColor"/>
<rect transform="translate(0.5691, 18.6848)" x="22.1388" y="-0.1500" width="1.7410" height="0.3000" ry="0.1500" fill="currentColor"/>
<rect transform="translate(0.5691, 17.6848)" x="20.1423" y="-0.1500" width="1.7410" height="0.3000" ry="0.1500" fill="currentColor"/>
<rect transform="translate(0.5691, 18.6848)" x="20.1423" y="-0.1500" width="1.7410" height="0.3000" ry="0.1500" fill="currentColor"/>
<rect transform="translate(0.5691, 17.6848)" x="18.1459" y="-0.1500" width="1.7410" height="0.3000" ry="0.1500" fill="currentColor"/>
<rect transform="translate(0.5691, 18.6848)" x="18.1459" y="-0.1500" width="1.7410" height="0.3000" ry="0.1500" fill="currentColor"/>
<rect transform="translate(0.5691, 17.6848)" x="16.1494" y="-0.1500" width="1.7410" height="0.3000" ry="0.1500" fill="currentColor"/>
<rect transform="translate(0.5691, 18.6848)" x="16.1494" y="-0.1500" width="1.7410" height="0.3000" ry="0.1500" fill="currentColor"/>
<rect transform="translate(0.5691, 24.6848)" x="5.5098" y="-0.1500" width="1.7410" height="0.3000" ry="0.1500" fill="currentColor"/>
<rect transform="translate(33.5109, 21.6848)" x="-0.1300" y="-1.8600" width="0.2600" height="6.7002" ry="0.0400" fill="currentColor"/>
<a style="color:inherit;" xlink:href="textedit:///Users/jwy/Documents/GitHub/sf004/public/pieces/sf004/notation/sampleFilledStaff2.ly:56:94:95">
<path transform="translate(34.4767, 26.6848) scale(0.0036, -0.0036)" d="M215 137c57 0 111 -29 111 -92c0 -71 -54 -120 -101 -148c-35 -21 -74 -34 -114 -34c-57 0 -111 29 -111 92c0 71 54 120 101 148c35 21 74 34 114 34z" fill="currentColor"/>
</a>
<rect transform="translate(35.5074, 21.6848)" x="-0.1300" y="-1.8600" width="0.2600" height="6.7002" ry="0.0400" fill="currentColor"/>
<rect transform="translate(27.5216, 21.6848)" x="-0.1300" y="-1.8600" width="0.2600" height="6.7002" ry="0.0400" fill="currentColor"/>
<a style="color:inherit;" xlink:href="textedit:///Users/jwy/Documents/GitHub/sf004/public/pieces/sf004/notation/sampleFilledStaff2.ly:56:102:103">
<path transform="translate(36.7232, 24.6848) scale(0.0036, -0.0036)" d="M215 137c57 0 111 -29 111 -92c0 -71 -54 -120 -101 -148c-35 -21 -74 -34 -114 -34c-57 0 -111 29 -111 92c0 71 54 120 101 148c35 21 74 34 114 34z" fill="currentColor"/>
</a>
<rect transform="translate(37.7539, 21.6848)" x="-0.1300" y="-4.0000" width="0.2600" height="6.8402" ry="0.0400" fill="currentColor"/>
<a style="color:inherit;" xlink:href="textedit:///Users/jwy/Documents/GitHub/sf004/public/pieces/sf004/notation/sampleFilledStaff2.ly:56:22:23">
<line transform="translate(17.0087, 25.8848)" stroke-linejoin="round" stroke-linecap="round" stroke-width="0.3200" stroke="currentColor" x1="8.4458" y1="-0.0000" x2="8.4458" y2="-0.7000"/>
<line transform="translate(17.0087, 25.8848)" stroke-linejoin="round" stroke-linecap="round" stroke-width="0.3200" stroke="currentColor" x1="-0.2000" y1="-0.0000" x2="-0.2000" y2="-0.7000"/>
<line transform="translate(17.0087, 25.8848)" stroke-linejoin="round" stroke-linecap="round" stroke-width="0.3200" stroke="currentColor" x1="8.4458" y1="-0.0000" x2="5.1668" y2="-0.0000"/>
<line transform="translate(17.0087, 25.8848)" stroke-linejoin="round" stroke-linecap="round" stroke-width="0.3200" stroke="currentColor" x1="-0.2000" y1="-0.0000" x2="3.2790" y2="-0.0000"/>
</a>
<a style="color:inherit;" xlink:href="textedit:///Users/jwy/Documents/GitHub/sf004/public/pieces/sf004/notation/sampleFilledStaff2.ly:56:88:89">
<path transform="translate(28.4874, 26.6848) scale(0.0036, -0.0036)" d="M215 137c57 0 111 -29 111 -92c0 -71 -54 -120 -101 -148c-35 -21 -74 -34 -114 -34c-57 0 -111 29 -111 92c0 71 54 120 101 148c35 21 74 34 114 34z" fill="currentColor"/>
</a>
<rect transform="translate(29.5180, 21.6848)" x="-0.1300" y="-1.8600" width="0.2600" height="6.7002" ry="0.0400" fill="currentColor"/>
<a style="color:inherit;" xlink:href="textedit:///Users/jwy/Documents/GitHub/sf004/public/pieces/sf004/notation/sampleFilledStaff2.ly:56:92:93">
<path transform="translate(32.4803, 26.6848) scale(0.0036, -0.0036)" d="M215 137c57 0 111 -29 111 -92c0 -71 -54 -120 -101 -148c-35 -21 -74 -34 -114 -34c-57 0 -111 29 -111 92c0 71 54 120 101 148c35 21 74 34 114 34z" fill="currentColor"/>
</a>
<a style="color:inherit;" xlink:href="textedit:///Users/jwy/Documents/GitHub/sf004/public/pieces/sf004/notation/sampleFilledStaff2.ly:56:90:91">
<path transform="translate(30.4838, 26.6848) scale(0.0036, -0.0036)" d="M215 137c57 0 111 -29 111 -92c0 -71 -54 -120 -101 -148c-35 -21 -74 -34 -114 -34c-57 0 -111 29 -111 92c0 71 54 120 101 148c35 21 74 34 114 34z" fill="currentColor"/>
</a>
<rect transform="translate(31.5145, 21.6848)" x="-0.1300" y="-1.8600" width="0.2600" height="6.7002" ry="0.0400" fill="currentColor"/>
<rect transform="translate(79.5308, 21.6848)" x="-0.1300" y="-4.0000" width="0.2600" height="6.8402" ry="0.0400" fill="currentColor"/>
<a style="color:inherit;" xlink:href="textedit:///Users/jwy/Documents/GitHub/sf004/public/pieces/sf004/notation/sampleFilledStaff2.ly:58:19:20">
<path transform="translate(68.3606, 24.6848) scale(0.0036, -0.0036)" d="M215 137c57 0 111 -29 111 -92c0 -71 -54 -120 -101 -148c-35 -21 -74 -34 -114 -34c-57 0 -111 29 -111 92c0 71 54 120 101 148c35 21 74 34 114 34z" fill="currentColor"/>
</a>
<rect transform="translate(69.3912, 21.6848)" x="-0.1300" y="-4.0000" width="0.2600" height="6.8402" ry="0.0400" fill="currentColor"/>
<a style="color:inherit;" xlink:href="textedit:///Users/jwy/Documents/GitHub/sf004/public/pieces/sf004/notation/sampleFilledStaff2.ly:58:23:24">
<path transform="translate(78.5002, 24.6848) scale(0.0036, -0.0036)" d="M215 137c57 0 111 -29 111 -92c0 -71 -54 -120 -101 -148c-35 -21 -74 -34 -114 -34c-57 0 -111 29 -111 92c0 71 54 120 101 148c35 21 74 34 114 34z" fill="currentColor"/>
</a>
<polygon transform="translate(27.3916, 19.8248)" stroke-linejoin="round" stroke-linecap="round" stroke-width="0.0800" fill="currentColor" stroke="currentColor" points="8.2058 -0.2000 8.2058 0.2000 0.0400 0.2000 0.0400 -0.2000"/>
<polygon transform="translate(27.3916, 20.6848)" stroke-linejoin="round" stroke-linecap="round" stroke-width="0.0800" fill="currentColor" stroke="currentColor" points="8.2058 -0.2000 8.2058 0.2000 0.0400 0.2000 0.0400 -0.2000"/>
<polygon transform="translate(17.0087, 23.6848)" stroke-linejoin="round" stroke-linecap="round" stroke-width="0.0800" fill="currentColor" stroke="currentColor" points="8.2058 -0.2000 8.2058 0.2000 0.0400 0.2000 0.0400 -0.2000"/>
<polygon transform="translate(17.0087, 24.5448)" stroke-linejoin="round" stroke-linecap="round" stroke-width="0.0800" fill="currentColor" stroke="currentColor" points="8.2058 -0.2000 8.2058 0.2000 0.0400 0.2000 0.0400 -0.2000"/>
<a style="color:inherit;" xlink:href="textedit:///Users/jwy/Documents/GitHub/sf004/public/pieces/sf004/notation/sampleFilledStaff2.ly:56:69:70">
<text transform="translate(31.0706, 19.0481)" font-family="serif" font-style="italic" font-size="1.7461" text-anchor="start" fill="currentColor">
<tspan>5</tspan>
</text>
</a>
<a style="color:inherit;" xlink:href="textedit:///Users/jwy/Documents/GitHub/sf004/public/pieces/sf004/notation/sampleFilledStaff2.ly:56:69:70">
<line transform="translate(27.3916, 18.4848)" stroke-linejoin="round" stroke-linecap="round" stroke-width="0.3200" stroke="currentColor" x1="8.4458" y1="-0.0000" x2="8.4458" y2="0.7000"/>
<line transform="translate(27.3916, 18.4848)" stroke-linejoin="round" stroke-linecap="round" stroke-width="0.3200" stroke="currentColor" x1="-0.2000" y1="-0.0000" x2="-0.2000" y2="0.7000"/>
<line transform="translate(27.3916, 18.4848)" stroke-linejoin="round" stroke-linecap="round" stroke-width="0.3200" stroke="currentColor" x1="8.4458" y1="-0.0000" x2="5.1668" y2="-0.0000"/>
<line transform="translate(27.3916, 18.4848)" stroke-linejoin="round" stroke-linecap="round" stroke-width="0.3200" stroke="currentColor" x1="-0.2000" y1="-0.0000" x2="3.2790" y2="-0.0000"/>
</a>
<a style="color:inherit;" xlink:href="textedit:///Users/jwy/Documents/GitHub/sf004/public/pieces/sf004/notation/sampleFilledStaff2.ly:56:22:23">
<text transform="translate(20.6877, 26.4481)" font-family="serif" font-style="italic" font-size="1.7461" text-anchor="start" fill="currentColor">
<tspan>5</tspan>
</text>
</a>
<rect transform="translate(49.1120, 21.6848)" x="-0.1300" y="-4.0000" width="0.2600" height="6.8402" ry="0.0400" fill="currentColor"/>
<a style="color:inherit;" xlink:href="textedit:///Users/jwy/Documents/GitHub/sf004/public/pieces/sf004/notation/sampleFilledStaff2.ly:58:11:12">
<path transform="translate(48.0814, 24.6848) scale(0.0036, -0.0036)" d="M215 137c57 0 111 -29 111 -92c0 -71 -54 -120 -101 -148c-35 -21 -74 -34 -114 -34c-57 0 -111 29 -111 92c0 71 54 120 101 148c35 21 74 34 114 34z" fill="currentColor"/>
</a>
<a style="color:inherit;" xlink:href="textedit:///Users/jwy/Documents/GitHub/sf004/public/pieces/sf004/notation/sampleFilledStaff2.ly:58:15:16">
<path transform="translate(58.2210, 24.6848) scale(0.0036, -0.0036)" d="M215 137c57 0 111 -29 111 -92c0 -71 -54 -120 -101 -148c-35 -21 -74 -34 -114 -34c-57 0 -111 29 -111 92c0 71 54 120 101 148c35 21 74 34 114 34z" fill="currentColor"/>
</a>
<rect transform="translate(59.2516, 21.6848)" x="-0.1300" y="-4.0000" width="0.2600" height="6.8402" ry="0.0400" fill="currentColor"/>
<a style="color:inherit;" xlink:href="textedit:///Users/jwy/Documents/GitHub/sf004/public/pieces/sf004/notation/sampleFilledStaff2.ly:56:11:12">
<path transform="translate(6.3691, 24.6848) scale(0.0036, -0.0036)" d="M215 137c57 0 111 -29 111 -92c0 -71 -54 -120 -101 -148c-35 -21 -74 -34 -114 -34c-57 0 -111 29 -111 92c0 71 54 120 101 148c35 21 74 34 114 34z" fill="currentColor"/>
</a>
<rect transform="translate(7.3997, 21.6848)" x="-0.1300" y="-4.0000" width="0.2600" height="6.8402" ry="0.0400" fill="currentColor"/>
<a style="color:inherit;" xlink:href="textedit:///Users/jwy/Documents/GitHub/sf004/public/pieces/sf004/notation/sampleFilledStaff2.ly:56:35:36">
<path transform="translate(17.0087, 17.6848) scale(0.0036, -0.0036)" d="M215 137c57 0 111 -29 111 -92c0 -71 -54 -120 -101 -148c-35 -21 -74 -34 -114 -34c-57 0 -111 29 -111 92c0 71 54 120 101 148c35 21 74 34 114 34z" fill="currentColor"/>
</a>
<a style="color:inherit;" xlink:href="textedit:///Users/jwy/Documents/GitHub/sf004/public/pieces/sf004/notation/sampleFilledStaff2.ly:56:41:42">
<path transform="translate(17.5890, 16.5000) scale(0.0040, -0.0040)" d="M-211 88c-8 2 -14 9 -14 18c0 10 9 19 19 19c2 0 3 -1 4 -1l408 -105c13 0 19 -6 19 -19s-6 -19 -19 -19l-408 -105c-1 0 -2 -1 -4 -1c-10 0 -19 9 -19 19c0 9 6 16 14 18l251 65l140 23l-140 23z" fill="currentColor"/>
</a>
<rect transform="translate(17.1387, 21.6848)" x="-0.1300" y="-3.8402" width="0.2600" height="6.7002" ry="0.0400" fill="currentColor"/>
<path transform="translate(1.3691, 22.6848) scale(0.0040, -0.0040)" d="M376 262c4 0 9 1 13 1c155 0 256 -128 256 -261c0 -76 -33 -154 -107 -210c-22 -17 -47 -28 -73 -36c3 -35 5 -70 5 -105c0 -19 -1 -39 -2 -58c-7 -120 -90 -228 -208 -228c-108 0 -195 88 -195 197c0 58 53 103 112 103c54 0 95 -47 95 -103c0 -52 -43 -95 -95 -95
c-11 0 -21 2 -31 6c26 -39 68 -65 117 -65c96 0 157 92 163 191c1 18 2 37 2 55c0 31 -1 61 -4 92c-29 -5 -58 -8 -89 -8c-188 0 -333 172 -333 374c0 177 131 306 248 441c-19 62 -37 125 -45 190c-6 52 -7 104 -7 156c0 115 55 224 149 292c3 2 7 3 10 3c4 0 7 0 10 -3
c71 -84 133 -245 133 -358c0 -143 -86 -255 -180 -364c21 -68 39 -138 56 -207zM461 -203c68 24 113 95 113 164c0 90 -66 179 -173 190c24 -116 46 -231 60 -354zM74 28c0 -135 129 -247 264 -247c28 0 55 2 82 6c-14 127 -37 245 -63 364c-79 -8 -124 -61 -124 -119
c0 -44 25 -91 81 -123c5 -5 7 -10 7 -15c0 -11 -10 -22 -22 -22c-3 0 -6 1 -9 2c-80 43 -117 115 -117 185c0 88 58 174 160 197c-14 58 -29 117 -46 175c-107 -121 -213 -243 -213 -403zM408 1045c-99 -48 -162 -149 -162 -259c0 -74 18 -133 36 -194
c80 97 146 198 146 324c0 55 -4 79 -20 129z" fill="currentColor"/>
<a style="color:inherit;" xlink:href="textedit:///Users/jwy/Documents/GitHub/sf004/public/pieces/sf004/notation/sampleFilledStaff2.ly:56:82:83">
<path transform="translate(26.4909, 26.6848) scale(0.0036, -0.0036)" d="M215 137c57 0 111 -29 111 -92c0 -71 -54 -120 -101 -148c-35 -21 -74 -34 -114 -34c-57 0 -111 29 -111 92c0 71 54 120 101 148c35 21 74 34 114 34z" fill="currentColor"/>
</a>
<a style="color:inherit;" xlink:href="textedit:///Users/jwy/Documents/GitHub/sf004/public/pieces/sf004/notation/sampleFilledStaff2.ly:56:52:53">
<path transform="translate(22.9980, 17.6848) scale(0.0036, -0.0036)" d="M215 137c57 0 111 -29 111 -92c0 -71 -54 -120 -101 -148c-35 -21 -74 -34 -114 -34c-57 0 -111 29 -111 92c0 71 54 120 101 148c35 21 74 34 114 34z" fill="currentColor"/>
</a>
<rect transform="translate(23.1280, 21.6848)" x="-0.1300" y="-3.8402" width="0.2600" height="6.7002" ry="0.0400" fill="currentColor"/>
<a style="color:inherit;" xlink:href="textedit:///Users/jwy/Documents/GitHub/sf004/public/pieces/sf004/notation/sampleFilledStaff2.ly:56:56:57">
<path transform="translate(24.9945, 17.6848) scale(0.0036, -0.0036)" d="M215 137c57 0 111 -29 111 -92c0 -71 -54 -120 -101 -148c-35 -21 -74 -34 -114 -34c-57 0 -111 29 -111 92c0 71 54 120 101 148c35 21 74 34 114 34z" fill="currentColor"/>
</a>
<rect transform="translate(25.1245, 21.6848)" x="-0.1300" y="-3.8402" width="0.2600" height="6.7002" ry="0.0400" fill="currentColor"/>
<a style="color:inherit;" xlink:href="textedit:///Users/jwy/Documents/GitHub/sf004/public/pieces/sf004/notation/sampleFilledStaff2.ly:56:85:86">
<path transform="translate(27.0713, 27.8695) scale(0.0040, -0.0040)" d="M-211 88c-8 2 -14 9 -14 18c0 10 9 19 19 19c2 0 3 -1 4 -1l408 -105c13 0 19 -6 19 -19s-6 -19 -19 -19l-408 -105c-1 0 -2 -1 -4 -1c-10 0 -19 9 -19 19c0 9 6 16 14 18l251 65l140 23l-140 23z" fill="currentColor"/>
</a>
<rect transform="translate(21.1316, 21.6848)" x="-0.1300" y="-3.8402" width="0.2600" height="6.7002" ry="0.0400" fill="currentColor"/>
<a style="color:inherit;" xlink:href="textedit:///Users/jwy/Documents/GitHub/sf004/public/pieces/sf004/notation/sampleFilledStaff2.ly:56:44:45">
<path transform="translate(19.0051, 17.6848) scale(0.0036, -0.0036)" d="M215 137c57 0 111 -29 111 -92c0 -71 -54 -120 -101 -148c-35 -21 -74 -34 -114 -34c-57 0 -111 29 -111 92c0 71 54 120 101 148c35 21 74 34 114 34z" fill="currentColor"/>
</a>
<rect transform="translate(19.1351, 21.6848)" x="-0.1300" y="-3.8402" width="0.2600" height="6.7002" ry="0.0400" fill="currentColor"/>
<a style="color:inherit;" xlink:href="textedit:///Users/jwy/Documents/GitHub/sf004/public/pieces/sf004/notation/sampleFilledStaff2.ly:56:48:49">
<path transform="translate(21.0016, 17.6848) scale(0.0036, -0.0036)" d="M215 137c57 0 111 -29 111 -92c0 -71 -54 -120 -101 -148c-35 -21 -74 -34 -114 -34c-57 0 -111 29 -111 92c0 71 54 120 101 148c35 21 74 34 114 34z" fill="currentColor"/>
</a>
</svg>
