<svg xmlns="http://www.w3.org/2000/svg" xmlns:xlink="http://www.w3.org/1999/xlink" version="1.2" width="160.00mm" height="52.00mm" viewBox="0 0 91.0488 29.5909">
<style text="style/css">
<![CDATA[
tspan { white-space: pre; }
]]>
</style>
<!-- Page: 1/1 -->
<text transform="translate(0.5691, -0.0000)" font-family="serif" font-size="2.2001" text-anchor="start" fill="currentColor">
<tspan/>
</text>
<line transform="translate(0.5691, 8.6848)" stroke-linejoin="round" stroke-linecap="round" stroke-width="0.2000" stroke="currentColor" x1="0.1000" y1="-0.0000" x2="89.8107" y2="-0.0000"/>
<line transform="translate(0.5691, 7.6848)" stroke-linejoin="round" stroke-linecap="round" stroke-width="0.2000" stroke="currentColor" x1="0.1000" y1="-0.0000" x2="89.8107" y2="-0.0000"/>
<line transform="translate(0.5691, 6.6848)" stroke-linejoin="round" stroke-linecap="round" stroke-width="0.2000" stroke="currentColor" x1="0.1000" y1="-0.0000" x2="89.8107" y2="-0.0000"/>
<line transform="translate(0.5691, 5.6848)" stroke-linejoin="round" stroke-linecap="round" stroke-width="0.2000" stroke="currentColor" x1="0.1000" y1="-0.0000" x2="89.8107" y2="-0.0000"/>
<line transform="translate(0.5691, 4.6848)" stroke-linejoin="round" stroke-linecap="round" stroke-width="0.2000" stroke="currentColor" x1="0.1000" y1="-0.0000" x2="89.8107" y2="-0.0000"/>
<rect transform="translate(90.2898, 6.6848)" x="0.0000" y="-2.0000" width="0.1900" height="4.0000" ry="0.0000" fill="currentColor"/>
<rect transform="translate(47.6810, 6.6848)" x="0.0000" y="-2.0000" width="0.1900" height="4.0000" ry="0.0000" fill="currentColor"/>
<rect transform="translate(0.5691, 9.6848)" x="78.8364" y="-0.1500" width="1.7410" height="0.3000" ry="0.1500" fill="currentColor"/>
<rect transform="translate(0.5691, 9.6848)" x="68.4923" y="-0.1500" width="1.7410" height="0.3000" ry="0.1500" fill="currentColor"/>
<rect transform="translate(0.5691, 9.6848)" x="58.1481" y="-0.1500" width="1.7410" height="0.3000" ry="0.1500" fill="currentColor"/>
<rect transform="translate(0.5691, 9.6848)" x="47.8040" y="-0.1500" width="1.7410" height="0.3000" ry="0.1500" fill="currentColor"/>
<rect transform="translate(0.5691, 9.6848)" x="36.2276" y="-0.1500" width="1.7410" height="0.3000" ry="0.1500" fill="currentColor"/>
<rect transform="translate(0.5691, 9.6848)" x="25.8835" y="-0.1500" width="1.7410" height="0.3000" ry="0.1500" fill="currentColor"/>
<rect transform="translate(0.5691, 2.6848)" x="24.3461" y="-0.1500" width="1.7410" height="0.3000" ry="0.1500" fill="currentColor"/>
<rect transform="translate(0.5691, 3.6848)" x="24.3461" y="-0.1500" width="1.7410" height="0.3000" ry="0.1500" fill="currentColor"/>
<rect transform="translate(0.5691, 2.6848)" x="22.3087" y="-0.1500" width="1.7410" height="0.3000" ry="0.1500" fill="currentColor"/>
<rect transform="translate(0.5691, 3.6848)" x="22.3087" y="-0.1500" width="1.7410" height="0.3000" ry="0.1500" fill="currentColor"/>
<rect transform="translate(0.5691, 2.6848)" x="20.2714" y="-0.1500" width="1.7410" height="0.3000" ry="0.1500" fill="currentColor"/>
<rect transform="translate(0.5691, 3.6848)" x="20.2714" y="-0.1500" width="1.7410" height="0.3000" ry="0.1500" fill="currentColor"/>
<rect transform="translate(0.5691, 2.6848)" x="18.2340" y="-0.1500" width="1.7410" height="0.3000" ry="0.1500" fill="currentColor"/>
<rect transform="translate(0.5691, 3.6848)" x="18.2340" y="-0.1500" width="1.7410" height="0.3000" ry="0.1500" fill="currentColor"/>
<rect transform="translate(0.5691, 2.6848)" x="16.1966" y="-0.1500" width="1.7410" height="0.3000" ry="0.1500" fill="currentColor"/>
<rect transform="translate(0.5691, 3.6848)" x="16.1966" y="-0.1500" width="1.7410" height="0.3000" ry="0.1500" fill="currentColor"/>
<rect transform="translate(0.5691, 9.6848)" x="13.6593" y="-0.1500" width="1.7410" height="0.3000" ry="0.1500" fill="currentColor"/>
<rect transform="translate(0.5691, 10.6848)" x="13.6593" y="-0.1500" width="1.7410" height="0.3000" ry="0.1500" fill="currentColor"/>
<rect transform="translate(0.5691, 11.6848)" x="13.6593" y="-0.1500" width="1.7410" height="0.3000" ry="0.1500" fill="currentColor"/>
<rect transform="translate(0.5691, 9.6848)" x="11.6219" y="-0.1500" width="1.7410" height="0.3000" ry="0.1500" fill="currentColor"/>
<rect transform="translate(0.5691, 10.6848)" x="11.6219" y="-0.1500" width="1.7410" height="0.3000" ry="0.1500" fill="currentColor"/>
<rect transform="translate(0.5691, 11.6848)" x="11.6219" y="-0.1500" width="1.7410" height="0.3000" ry="0.1500" fill="currentColor"/>
<rect transform="translate(0.5691, 9.6848)" x="9.5846" y="-0.1500" width="1.7410" height="0.3000" ry="0.1500" fill="currentColor"/>
<rect transform="translate(0.5691, 10.6848)" x="9.5846" y="-0.1500" width="1.7410" height="0.3000" ry="0.1500" fill="currentColor"/>
<rect transform="translate(0.5691, 11.6848)" x="9.5846" y="-0.1500" width="1.7410" height="0.3000" ry="0.1500" fill="currentColor"/>
<rect transform="translate(0.5691, 9.6848)" x="7.5472" y="-0.1500" width="1.7410" height="0.3000" ry="0.1500" fill="currentColor"/>
<rect transform="translate(0.5691, 10.6848)" x="7.5472" y="-0.1500" width="1.7410" height="0.3000" ry="0.1500" fill="currentColor"/>
<rect transform="translate(0.5691, 11.6848)" x="7.5472" y="-0.1500" width="1.7410" height="0.3000" ry="0.1500" fill="currentColor"/>
<rect transform="translate(0.5691, 9.6848)" x="5.5098" y="-0.1500" width="1.7410" height="0.3000" ry="0.1500" fill="currentColor"/>
<rect transform="translate(0.5691, 10.6848)" x="5.5098" y="-0.1500" width="1.7410" height="0.3000" ry="0.1500" fill="currentColor"/>
<rect transform="translate(0.5691, 11.6848)" x="5.5098" y="-0.1500" width="1.7410" height="0.3000" ry="0.1500" fill="currentColor"/>
<rect transform="translate(27.7734, 6.6848)" x="-0.1300" y="-4.0000" width="0.2600" height="6.8402" ry="0.0400" fill="currentColor"/>
<a style="color:inherit;" xlink:href="textedit:///Users/jwy/Documents/GitHub/sf004/public/pieces/sf004/notation/sampleFilledStaff5.ly:53:138:139">
<path transform="translate(37.0868, 9.6848) scale(0.0036, -0.0036)" d="M215 137c57 0 111 -29 111 -92c0 -71 -54 -120 -101 -148c-35 -21 -74 -34 -114 -34c-57 0 -111 29 -111 92c0 71 54 120 101 148c35 21 74 34 114 34z" fill="currentColor"/>
</a>
<rect transform="translate(38.1175, 6.6848)" x="-0.1300" y="-4.0000" width="0.2600" height="6.8402" ry="0.0400" fill="currentColor"/>
<a style="color:inherit;" xlink:href="textedit:///Users/jwy/Documents/GitHub/sf004/public/pieces/sf004/notation/sampleFilledStaff5.ly:55:11:12">
<path transform="translate(48.6632, 9.6848) scale(0.0036, -0.0036)" d="M215 137c57 0 111 -29 111 -92c0 -71 -54 -120 -101 -148c-35 -21 -74 -34 -114 -34c-57 0 -111 29 -111 92c0 71 54 120 101 148c35 21 74 34 114 34z" fill="currentColor"/>
</a>
<rect transform="translate(49.6939, 6.6848)" x="-0.1300" y="-4.0000" width="0.2600" height="6.8402" ry="0.0400" fill="currentColor"/>
<a style="color:inherit;" xlink:href="textedit:///Users/jwy/Documents/GitHub/sf004/public/pieces/sf004/notation/sampleFilledStaff5.ly:53:23:24">
<line transform="translate(7.2697, 3.4848)" stroke-linejoin="round" stroke-linecap="round" stroke-width="0.3200" stroke="currentColor" x1="8.6095" y1="-0.0000" x2="8.6095" y2="0.7000"/>
<line transform="translate(7.2697, 3.4848)" stroke-linejoin="round" stroke-linecap="round" stroke-width="0.3200" stroke="currentColor" x1="-0.2000" y1="-0.0000" x2="-0.2000" y2="0.7000"/>
<line transform="translate(7.2697, 3.4848)" stroke-linejoin="round" stroke-linecap="round" stroke-width="0.3200" stroke="currentColor" x1="8.6095" y1="-0.0000" x2="5.2486" y2="-0.0000"/>
<line transform="translate(7.2697, 3.4848)" stroke-linejoin="round" stroke-linecap="round" stroke-width="0.3200" stroke="currentColor" x1="-0.2000" y1="-0.0000" x2="3.3609" y2="-0.0000"/>
</a>
<rect transform="translate(25.3353, 6.6848)" x="-0.1300" y="-3.8402" width="0.2600" height="6.7002" ry="0.0400" fill="currentColor"/>
<a style="color:inherit;" xlink:href="textedit:///Users/jwy/Documents/GitHub/sf004/public/pieces/sf004/notation/sampleFilledStaff5.ly:53:126:127">
<path transform="translate(26.7427, 9.6848) scale(0.0036, -0.0036)" d="M215 137c57 0 111 -29 111 -92c0 -71 -54 -120 -101 -148c-35 -21 -74 -34 -114 -34c-57 0 -111 29 -111 92c0 71 54 120 101 148c35 21 74 34 114 34z" fill="currentColor"/>
</a>
<a style="color:inherit;" xlink:href="textedit:///Users/jwy/Documents/GitHub/sf004/public/pieces/sf004/notation/sampleFilledStaff5.ly:55:37:38">
<path transform="translate(79.6956, 9.6848) scale(0.0036, -0.0036)" d="M215 137c57 0 111 -29 111 -92c0 -71 -54 -120 -101 -148c-35 -21 -74 -34 -114 -34c-57 0 -111 29 -111 92c0 71 54 120 101 148c35 21 74 34 114 34z" fill="currentColor"/>
</a>
<rect transform="translate(80.7263, 6.6848)" x="-0.1300" y="-4.0000" width="0.2600" height="6.8402" ry="0.0400" fill="currentColor"/>
<a style="color:inherit;" xlink:href="textedit:///Users/jwy/Documents/GitHub/sf004/public/pieces/sf004/notation/sampleFilledStaff5.ly:53:53:54">
<path transform="translate(8.4064, 11.6848) scale(0.0036, -0.0036)" d="M215 137c57 0 111 -29 111 -92c0 -71 -54 -120 -101 -148c-35 -21 -74 -34 -114 -34c-57 0 -111 29 -111 92c0 71 54 120 101 148c35 21 74 34 114 34z" fill="currentColor"/>
</a>
<rect transform="translate(9.4371, 6.6848)" x="-0.1300" y="-1.8600" width="0.2600" height="6.7002" ry="0.0400" fill="currentColor"/>
<a style="color:inherit;" xlink:href="textedit:///Users/jwy/Documents/GitHub/sf004/public/pieces/sf004/notation/sampleFilledStaff5.ly:53:40:41">
<path transform="translate(6.3691, 11.6848) scale(0.0036, -0.0036)" d="M215 137c57 0 111 -29 111 -92c0 -71 -54 -120 -101 -148c-35 -21 -74 -34 -114 -34c-57 0 -111 29 -111 92c0 71 54 120 101 148c35 21 74 34 114 34z" fill="currentColor"/>
</a>
<polygon transform="translate(17.0559, 8.6848)" stroke-linejoin="round" stroke-linecap="round" stroke-width="0.0800" fill="currentColor" stroke="currentColor" points="8.3695 -0.2000 8.3695 0.2000 0.0400 0.2000 0.0400 -0.2000"/>
<polygon transform="translate(17.0559, 9.5448)" stroke-linejoin="round" stroke-linecap="round" stroke-width="0.0800" fill="currentColor" stroke="currentColor" points="8.3695 -0.2000 8.3695 0.2000 0.0400 0.2000 0.0400 -0.2000"/>
<polygon transform="translate(7.2697, 4.8248)" stroke-linejoin="round" stroke-linecap="round" stroke-width="0.0800" fill="currentColor" stroke="currentColor" points="8.3695 -0.2000 8.3695 0.2000 0.0400 0.2000 0.0400 -0.2000"/>
<polygon transform="translate(7.2697, 5.6848)" stroke-linejoin="round" stroke-linecap="round" stroke-width="0.0800" fill="currentColor" stroke="currentColor" points="8.3695 -0.2000 8.3695 0.2000 0.0400 0.2000 0.0400 -0.2000"/>
<a style="color:inherit;" xlink:href="textedit:///Users/jwy/Documents/GitHub/sf004/public/pieces/sf004/notation/sampleFilledStaff5.ly:53:80:81">
<text transform="translate(20.8167, 11.4481)" font-family="serif" font-style="italic" font-size="1.7461" text-anchor="start" fill="currentColor">
<tspan>5</tspan>
</text>
</a>
<a style="color:inherit;" xlink:href="textedit:///Users/jwy/Documents/GitHub/sf004/public/pieces/sf004/notation/sampleFilledStaff5.ly:53:80:81">
<line transform="translate(17.0559, 10.8848)" stroke-linejoin="round" stroke-linecap="round" stroke-width="0.3200" stroke="currentColor" x1="8.6095" y1="-0.0000" x2="8.6095" y2="-0.7000"/>
<line transform="translate(17.0559, 10.8848)" stroke-linejoin="round" stroke-linecap="round" stroke-width="0.3200" stroke="currentColor" x1="-0.2000" y1="-0.0000" x2="-0.2000" y2="-0.7000"/>
<line transform="translate(17.0559, 10.8848)" stroke-linejoin="round" stroke-linecap="round" stroke-width="0.3200" stroke="currentColor" x1="8.6095" y1="-0.0000" x2="5.2486" y2="-0.0000"/>
<line transform="translate(17.0559, 10.8848)" stroke-linejoin="round" stroke-linecap="round" stroke-width="0.3200" stroke="currentColor" x1="-0.2000" y1="-0.0000" x2="3.3609" y2="-0.0000"/>
</a>
<a style="color:inherit;" xlink:href="textedit:///Users/jwy/Documents/GitHub/sf004/public/pieces/sf004/notation/sampleFilledStaff5.ly:55:21:22">
<path transform="translate(59.0073, 9.6848) scale(0.0036, -0.0036)" d="M215 137c57 0 111 -29 111 -92c0 -71 -54 -120 -101 -148c-35 -21 -74 -34 -114 -34c-57 0 -111 29 -111 92c0 71 54 120 101 148c35 21 74 34 114 34z" fill="currentColor"/>
</a>
<a style="color:inherit;" xlink:href="textedit:///Users/jwy/Documents/GitHub/sf004/public/pieces/sf004/notation/sampleFilledStaff5.ly:53:23:24">
<text transform="translate(11.0306, 4.0481)" font-family="serif" font-style="italic" font-size="1.7461" text-anchor="start" fill="currentColor">
<tspan>5</tspan>
</text>
</a>
<rect transform="translate(60.0380, 6.6848)" x="-0.1300" y="-4.0000" width="0.2600" height="6.8402" ry="0.0400" fill="currentColor"/>
<a style="color:inherit;" xlink:href="textedit:///Users/jwy/Documents/GitHub/sf004/public/pieces/sf004/notation/sampleFilledStaff5.ly:55:29:30">
<path transform="translate(69.3515, 9.6848) scale(0.0036, -0.0036)" d="M215 137c57 0 111 -29 111 -92c0 -71 -54 -120 -101 -148c-35 -21 -74 -34 -114 -34c-57 0 -111 29 -111 92c0 71 54 120 101 148c35 21 74 34 114 34z" fill="currentColor"/>
</a>
<rect transform="translate(70.3821, 6.6848)" x="-0.1300" y="-4.0000" width="0.2600" height="6.8402" ry="0.0400" fill="currentColor"/>
<rect transform="translate(13.5118, 6.6848)" x="-0.1300" y="-1.8600" width="0.2600" height="6.7002" ry="0.0400" fill="currentColor"/>
<path transform="translate(1.3691, 7.6848) scale(0.0040, -0.0040)" d="M376 262c4 0 9 1 13 1c155 0 256 -128 256 -261c0 -76 -33 -154 -107 -210c-22 -17 -47 -28 -73 -36c3 -35 5 -70 5 -105c0 -19 -1 -39 -2 -58c-7 -120 -90 -228 -208 -228c-108 0 -195 88 -195 197c0 58 53 103 112 103c54 0 95 -47 95 -103c0 -52 -43 -95 -95 -95
c-11 0 -21 2 -31 6c26 -39 68 -65 117 -65c96 0 157 92 163 191c1 18 2 37 2 55c0 31 -1 61 -4 92c-29 -5 -58 -8 -89 -8c-188 0 -333 172 -333 374c0 177 131 306 248 441c-19 62 -37 125 -45 190c-6 52 -7 104 -7 156c0 115 55 224 149 292c3 2 7 3 10 3c4 0 7 0 10 -3
c71 -84 133 -245 133 -358c0 -143 -86 -255 -180 -364c21 -68 39 -138 56 -207zM461 -203c68 24 113 95 113 164c0 90 -66 179 -173 190c24 -116 46 -231 60 -354zM74 28c0 -135 129 -247 264 -247c28 0 55 2 82 6c-14 127 -37 245 -63 364c-79 -8 -124 -61 -124 -119
c0 -44 25 -91 81 -123c5 -5 7 -10 7 -15c0 -11 -10 -22 -22 -22c-3 0 -6 1 -9 2c-80 43 -117 115 -117 185c0 88 58 174 160 197c-14 58 -29 117 -46 175c-107 -121 -213 -243 -213 -403zM408 1045c-99 -48 -162 -149 -162 -259c0 -74 18 -133 36 -194
c80 97 146 198 146 324c0 55 -4 79 -20 129z" fill="currentColor"/>
<a style="color:inherit;" xlink:href="textedit:///Users/jwy/Documents/GitHub/sf004/public/pieces/sf004/notation/sampleFilledStaff5.ly:53:59:60">
<path transform="translate(14.5185, 11.6848) scale(0.0036, -0.0036)" d="M215 137c57 0 111 -29 111 -92c0 -71 -54 -120 -101 -148c-35 -21 -74 -34 -114 -34c-57 0 -111 29 -111 92c0 71 54 120 101 148c35 21 74 34 114 34z" fill="currentColor"/>
</a>
<rect transform="translate(15.5492, 6.6848)" x="-0.1300" y="-1.8600" width="0.2600" height="6.7002" ry="0.0400" fill="currentColor"/>
<a style="color:inherit;" xlink:href="textedit:///Users/jwy/Documents/GitHub/sf004/public/pieces/sf004/notation/sampleFilledStaff5.ly:53:57:58">
<path transform="translate(12.4811, 11.6848) scale(0.0036, -0.0036)" d="M215 137c57 0 111 -29 111 -92c0 -71 -54 -120 -101 -148c-35 -21 -74 -34 -114 -34c-57 0 -111 29 -111 92c0 71 54 120 101 148c35 21 74 34 114 34z" fill="currentColor"/>
</a>
<a style="color:inherit;" xlink:href="textedit:///Users/jwy/Documents/GitHub/sf004/public/pieces/sf004/notation/sampleFilledStaff5.ly:53:93:94">
<path transform="translate(17.0559, 2.6848) scale(0.0036, -0.0036)" d="M215 137c57 0 111 -29 111 -92c0 -71 -54 -120 -101 -148c-35 -21 -74 -34 -114 -34c-57 0 -111 29 -111 92c0 71 54 120 101 148c35 21 74 34 114 34z" fill="currentColor"/>
</a>
<a style="color:inherit;" xlink:href="textedit:///Users/jwy/Documents/GitHub/sf004/public/pieces/sf004/notation/sampleFilledStaff5.ly:53:99:100">
<path transform="translate(17.6362, 1.5000) scale(0.0040, -0.0040)" d="M-211 88c-8 2 -14 9 -14 18c0 10 9 19 19 19c2 0 3 -1 4 -1l408 -105c13 0 19 -6 19 -19s-6 -19 -19 -19l-408 -105c-1 0 -2 -1 -4 -1c-10 0 -19 9 -19 19c0 9 6 16 14 18l251 65l140 23l-140 23z" fill="currentColor"/>
</a>
<rect transform="translate(17.1859, 6.6848)" x="-0.1300" y="-3.8402" width="0.2600" height="6.7002" ry="0.0400" fill="currentColor"/>
<a style="color:inherit;" xlink:href="textedit:///Users/jwy/Documents/GitHub/sf004/public/pieces/sf004/notation/sampleFilledStaff5.ly:53:55:56">
<path transform="translate(10.4438, 11.6848) scale(0.0036, -0.0036)" d="M215 137c57 0 111 -29 111 -92c0 -71 -54 -120 -101 -148c-35 -21 -74 -34 -114 -34c-57 0 -111 29 -111 92c0 71 54 120 101 148c35 21 74 34 114 34z" fill="currentColor"/>
</a>
<rect transform="translate(11.4744, 6.6848)" x="-0.1300" y="-1.8600" width="0.2600" height="6.7002" ry="0.0400" fill="currentColor"/>
<a style="color:inherit;" xlink:href="textedit:///Users/jwy/Documents/GitHub/sf004/public/pieces/sf004/notation/sampleFilledStaff5.ly:53:43:44">
<path transform="translate(6.9494, 12.8695) scale(0.0040, -0.0040)" d="M-211 88c-8 2 -14 9 -14 18c0 10 9 19 19 19c2 0 3 -1 4 -1l408 -105c13 0 19 -6 19 -19s-6 -19 -19 -19l-408 -105c-1 0 -2 -1 -4 -1c-10 0 -19 9 -19 19c0 9 6 16 14 18l251 65l140 23l-140 23z" fill="currentColor"/>
</a>
<a style="color:inherit;" xlink:href="textedit:///Users/jwy/Documents/GitHub/sf004/public/pieces/sf004/notation/sampleFilledStaff5.ly:53:110:111">
<path transform="translate(23.1680, 2.6848) scale(0.0036, -0.0036)" d="M215 137c57 0 111 -29 111 -92c0 -71 -54 -120 -101 -148c-35 -21 -74 -34 -114 -34c-57 0 -111 29 -111 92c0 71 54 120 101 148c35 21 74 34 114 34z" fill="currentColor"/>
</a>
<a style="color:inherit;" xlink:href="textedit:///Users/jwy/Documents/GitHub/sf004/public/pieces/sf004/notation/sampleFilledStaff5.ly:53:106:107">
<path transform="translate(21.1306, 2.6848) scale(0.0036, -0.0036)" d="M215 137c57 0 111 -29 111 -92c0 -71 -54 -120 -101 -148c-35 -21 -74 -34 -114 -34c-57 0 -111 29 -111 92c0 71 54 120 101 148c35 21 74 34 114 34z" fill="currentColor"/>
</a>
<rect transform="translate(21.2606, 6.6848)" x="-0.1300" y="-3.8402" width="0.2600" height="6.7002" ry="0.0400" fill="currentColor"/>
<rect transform="translate(23.2980, 6.6848)" x="-0.1300" y="-3.8402" width="0.2600" height="6.7002" ry="0.0400" fill="currentColor"/>
<a style="color:inherit;" xlink:href="textedit:///Users/jwy/Documents/GitHub/sf004/public/pieces/sf004/notation/sampleFilledStaff5.ly:53:114:115">
<path transform="translate(25.2053, 2.6848) scale(0.0036, -0.0036)" d="M215 137c57 0 111 -29 111 -92c0 -71 -54 -120 -101 -148c-35 -21 -74 -34 -114 -34c-57 0 -111 29 -111 92c0 71 54 120 101 148c35 21 74 34 114 34z" fill="currentColor"/>
</a>
<a style="color:inherit;" xlink:href="textedit:///Users/jwy/Documents/GitHub/sf004/public/pieces/sf004/notation/sampleFilledStaff5.ly:53:102:103">
<path transform="translate(19.0932, 2.6848) scale(0.0036, -0.0036)" d="M215 137c57 0 111 -29 111 -92c0 -71 -54 -120 -101 -148c-35 -21 -74 -34 -114 -34c-57 0 -111 29 -111 92c0 71 54 120 101 148c35 21 74 34 114 34z" fill="currentColor"/>
</a>
<rect transform="translate(19.2232, 6.6848)" x="-0.1300" y="-3.8402" width="0.2600" height="6.7002" ry="0.0400" fill="currentColor"/>
<rect transform="translate(7.3997, 6.6848)" x="-0.1300" y="-1.8600" width="0.2600" height="6.7002" ry="0.0400" fill="currentColor"/>
<line transform="translate(0.5691, 23.6848)" stroke-linejoin="round" stroke-linecap="round" stroke-width="0.2000" stroke="currentColor" x1="0.1000" y1="-0.0000" x2="89.8107" y2="-0.0000"/>
<line transform="translate(0.5691, 22.6848)" stroke-linejoin="round" stroke-linecap="round" stroke-width="0.2000" stroke="currentColor" x1="0.1000" y1="-0.0000" x2="89.8107" y2="-0.0000"/>
<line transform="translate(0.5691, 21.6848)" stroke-linejoin="round" stroke-linecap="round" stroke-width="0.2000" stroke="currentColor" x1="0.1000" y1="-0.0000" x2="89.8107" y2="-0.0000"/>
<line transform="translate(0.5691, 20.6848)" stroke-linejoin="round" stroke-linecap="round" stroke-width="0.2000" stroke="currentColor" x1="0.1000" y1="-0.0000" x2="89.8107" y2="-0.0000"/>
<line transform="translate(0.5691, 19.6848)" stroke-linejoin="round" stroke-linecap="round" stroke-width="0.2000" stroke="currentColor" x1="0.1000" y1="-0.0000" x2="89.8107" y2="-0.0000"/>
<path transform="translate(88.6398, 21.1848) scale(0.0040, -0.0040)" d="M0 0c0 31 25 56 56 56s56 -25 56 -56s-25 -56 -56 -56s-56 25 -56 56z" fill="currentColor"/>
<path transform="translate(88.6398, 22.1848) scale(0.0040, -0.0040)" d="M0 0c0 31 25 56 56 56s56 -25 56 -56s-25 -56 -56 -56s-56 25 -56 56z" fill="currentColor"/>
<rect transform="translate(89.8798, 21.6848)" x="0.0000" y="-2.0000" width="0.6000" height="4.0000" ry="0.0000" fill="currentColor"/>
<rect transform="translate(89.3898, 21.6848)" x="0.0000" y="-2.0000" width="0.1900" height="4.0000" ry="0.0000" fill="currentColor"/>
<rect transform="translate(46.8607, 21.6848)" x="0.0000" y="-2.0000" width="0.1900" height="4.0000" ry="0.0000" fill="currentColor"/>
<rect transform="translate(0.5691, 24.6848)" x="77.5790" y="-0.1500" width="1.7410" height="0.3000" ry="0.1500" fill="currentColor"/>
<rect transform="translate(0.5691, 24.6848)" x="67.3774" y="-0.1500" width="1.7410" height="0.3000" ry="0.1500" fill="currentColor"/>
<rect transform="translate(0.5691, 24.6848)" x="57.1758" y="-0.1500" width="1.7410" height="0.3000" ry="0.1500" fill="currentColor"/>
<rect transform="translate(0.5691, 24.6848)" x="46.9742" y="-0.1500" width="1.7410" height="0.3000" ry="0.1500" fill="currentColor"/>
<rect transform="translate(0.5691, 24.6848)" x="35.5499" y="-0.1500" width="1.7410" height="0.3000" ry="0.1500" fill="currentColor"/>
<rect transform="translate(0.5691, 24.6848)" x="25.3483" y="-0.1500" width="1.7410" height="0.3000" ry="0.1500" fill="currentColor"/>
<rect transform="translate(0.5691, 24.6848)" x="23.0895" y="-0.1500" width="1.7410" height="0.3000" ry="0.1500" fill="currentColor"/>
<rect transform="translate(0.5691, 25.6848)" x="23.0895" y="-0.1500" width="1.7410" height="0.3000" ry="0.1500" fill="currentColor"/>
<rect transform="translate(0.5691, 26.6848)" x="23.0895" y="-0.1500" width="1.7410" height="0.3000" ry="0.1500" fill="currentColor"/>
<rect transform="translate(0.5691, 24.6848)" x="21.0806" y="-0.1500" width="1.7410" height="0.3000" ry="0.1500" fill="currentColor"/>
<rect transform="translate(0.5691, 25.6848)" x="21.0806" y="-0.1500" width="1.7410" height="0.3000" ry="0.1500" fill="currentColor"/>
<rect transform="translate(0.5691, 26.6848)" x="21.0806" y="-0.1500" width="1.7410" height="0.3000" ry="0.1500" fill="currentColor"/>
<rect transform="translate(0.5691, 24.6848)" x="19.0718" y="-0.1500" width="1.7410" height="0.3000" ry="0.1500" fill="currentColor"/>
<rect transform="translate(0.5691, 25.6848)" x="19.0718" y="-0.1500" width="1.7410" height="0.3000" ry="0.1500" fill="currentColor"/>
<rect transform="translate(0.5691, 26.6848)" x="19.0718" y="-0.1500" width="1.7410" height="0.3000" ry="0.1500" fill="currentColor"/>
<rect transform="translate(0.5691, 24.6848)" x="17.0629" y="-0.1500" width="1.7410" height="0.3000" ry="0.1500" fill="currentColor"/>
<rect transform="translate(0.5691, 25.6848)" x="17.0629" y="-0.1500" width="1.7410" height="0.3000" ry="0.1500" fill="currentColor"/>
<rect transform="translate(0.5691, 26.6848)" x="17.0629" y="-0.1500" width="1.7410" height="0.3000" ry="0.1500" fill="currentColor"/>
<rect transform="translate(0.5691, 24.6848)" x="15.0541" y="-0.1500" width="1.7410" height="0.3000" ry="0.1500" fill="currentColor"/>
<rect transform="translate(0.5691, 25.6848)" x="15.0541" y="-0.1500" width="1.7410" height="0.3000" ry="0.1500" fill="currentColor"/>
<rect transform="translate(0.5691, 26.6848)" x="15.0541" y="-0.1500" width="1.7410" height="0.3000" ry="0.1500" fill="currentColor"/>
<rect transform="translate(0.5691, 17.6848)" x="13.5452" y="-0.1500" width="1.7410" height="0.3000" ry="0.1500" fill="currentColor"/>
<rect transform="translate(0.5691, 18.6848)" x="13.5452" y="-0.1500" width="1.7410" height="0.3000" ry="0.1500" fill="currentColor"/>
<rect transform="translate(0.5691, 17.6848)" x="11.5364" y="-0.1500" width="1.7410" height="0.3000" ry="0.1500" fill="currentColor"/>
<rect transform="translate(0.5691, 18.6848)" x="11.5364" y="-0.1500" width="1.7410" height="0.3000" ry="0.1500" fill="currentColor"/>
<rect transform="translate(0.5691, 17.6848)" x="9.5275" y="-0.1500" width="1.7410" height="0.3000" ry="0.1500" fill="currentColor"/>
<rect transform="translate(0.5691, 18.6848)" x="9.5275" y="-0.1500" width="1.7410" height="0.3000" ry="0.1500" fill="currentColor"/>
<rect transform="translate(0.5691, 17.6848)" x="7.5187" y="-0.1500" width="1.7410" height="0.3000" ry="0.1500" fill="currentColor"/>
<rect transform="translate(0.5691, 18.6848)" x="7.5187" y="-0.1500" width="1.7410" height="0.3000" ry="0.1500" fill="currentColor"/>
<rect transform="translate(0.5691, 17.6848)" x="5.5098" y="-0.1500" width="1.7410" height="0.3000" ry="0.1500" fill="currentColor"/>
<rect transform="translate(0.5691, 18.6848)" x="5.5098" y="-0.1500" width="1.7410" height="0.3000" ry="0.1500" fill="currentColor"/>
<rect transform="translate(27.2382, 21.6848)" x="-0.1300" y="-4.0000" width="0.2600" height="6.8402" ry="0.0400" fill="currentColor"/>
<a style="color:inherit;" xlink:href="textedit:///Users/jwy/Documents/GitHub/sf004/public/pieces/sf004/notation/sampleFilledStaff5.ly:57:91:92">
<path transform="translate(23.9487, 26.6848) scale(0.0036, -0.0036)" d="M215 137c57 0 111 -29 111 -92c0 -71 -54 -120 -101 -148c-35 -21 -74 -34 -114 -34c-57 0 -111 29 -111 92c0 71 54 120 101 148c35 21 74 34 114 34z" fill="currentColor"/>
</a>
<rect transform="translate(24.9794, 21.6848)" x="-0.1300" y="-1.8600" width="0.2600" height="6.7002" ry="0.0400" fill="currentColor"/>
<a style="color:inherit;" xlink:href="textedit:///Users/jwy/Documents/GitHub/sf004/public/pieces/sf004/notation/sampleFilledStaff5.ly:57:96:97">
<path transform="translate(26.2076, 24.6848) scale(0.0036, -0.0036)" d="M215 137c57 0 111 -29 111 -92c0 -71 -54 -120 -101 -148c-35 -21 -74 -34 -114 -34c-57 0 -111 29 -111 92c0 71 54 120 101 148c35 21 74 34 114 34z" fill="currentColor"/>
</a>
<a style="color:inherit;" xlink:href="textedit:///Users/jwy/Documents/GitHub/sf004/public/pieces/sf004/notation/sampleFilledStaff5.ly:57:85:86">
<path transform="translate(17.9222, 26.6848) scale(0.0036, -0.0036)" d="M215 137c57 0 111 -29 111 -92c0 -71 -54 -120 -101 -148c-35 -21 -74 -34 -114 -34c-57 0 -111 29 -111 92c0 71 54 120 101 148c35 21 74 34 114 34z" fill="currentColor"/>
</a>
<a style="color:inherit;" xlink:href="textedit:///Users/jwy/Documents/GitHub/sf004/public/pieces/sf004/notation/sampleFilledStaff5.ly:57:102:103">
<path transform="translate(36.4091, 24.6848) scale(0.0036, -0.0036)" d="M215 137c57 0 111 -29 111 -92c0 -71 -54 -120 -101 -148c-35 -21 -74 -34 -114 -34c-57 0 -111 29 -111 92c0 71 54 120 101 148c35 21 74 34 114 34z" fill="currentColor"/>
</a>
<rect transform="translate(37.4398, 21.6848)" x="-0.1300" y="-4.0000" width="0.2600" height="6.8402" ry="0.0400" fill="currentColor"/>
<a style="color:inherit;" xlink:href="textedit:///Users/jwy/Documents/GitHub/sf004/public/pieces/sf004/notation/sampleFilledStaff5.ly:57:14:15">
<line transform="translate(6.3691, 25.8848)" stroke-linejoin="round" stroke-linecap="round" stroke-width="0.3200" stroke="currentColor" x1="8.4954" y1="-0.0000" x2="8.4954" y2="-0.7000"/>
<line transform="translate(6.3691, 25.8848)" stroke-linejoin="round" stroke-linecap="round" stroke-width="0.3200" stroke="currentColor" x1="-0.2000" y1="-0.0000" x2="-0.2000" y2="-0.7000"/>
<line transform="translate(6.3691, 25.8848)" stroke-linejoin="round" stroke-linecap="round" stroke-width="0.3200" stroke="currentColor" x1="8.4954" y1="-0.0000" x2="5.1916" y2="-0.0000"/>
<line transform="translate(6.3691, 25.8848)" stroke-linejoin="round" stroke-linecap="round" stroke-width="0.3200" stroke="currentColor" x1="-0.2000" y1="-0.0000" x2="3.3038" y2="-0.0000"/>
</a>
<rect transform="translate(18.9528, 21.6848)" x="-0.1300" y="-1.8600" width="0.2600" height="6.7002" ry="0.0400" fill="currentColor"/>
<a style="color:inherit;" xlink:href="textedit:///Users/jwy/Documents/GitHub/sf004/public/pieces/sf004/notation/sampleFilledStaff5.ly:57:87:88">
<path transform="translate(19.9310, 26.6848) scale(0.0036, -0.0036)" d="M215 137c57 0 111 -29 111 -92c0 -71 -54 -120 -101 -148c-35 -21 -74 -34 -114 -34c-57 0 -111 29 -111 92c0 71 54 120 101 148c35 21 74 34 114 34z" fill="currentColor"/>
</a>
<rect transform="translate(20.9617, 21.6848)" x="-0.1300" y="-1.8600" width="0.2600" height="6.7002" ry="0.0400" fill="currentColor"/>
<a style="color:inherit;" xlink:href="textedit:///Users/jwy/Documents/GitHub/sf004/public/pieces/sf004/notation/sampleFilledStaff5.ly:57:89:90">
<path transform="translate(21.9399, 26.6848) scale(0.0036, -0.0036)" d="M215 137c57 0 111 -29 111 -92c0 -71 -54 -120 -101 -148c-35 -21 -74 -34 -114 -34c-57 0 -111 29 -111 92c0 71 54 120 101 148c35 21 74 34 114 34z" fill="currentColor"/>
</a>
<rect transform="translate(22.9705, 21.6848)" x="-0.1300" y="-1.8600" width="0.2600" height="6.7002" ry="0.0400" fill="currentColor"/>
<rect transform="translate(79.4689, 21.6848)" x="-0.1300" y="-4.0000" width="0.2600" height="6.8402" ry="0.0400" fill="currentColor"/>
<a style="color:inherit;" xlink:href="textedit:///Users/jwy/Documents/GitHub/sf004/public/pieces/sf004/notation/sampleFilledStaff5.ly:59:19:20">
<path transform="translate(68.2366, 24.6848) scale(0.0036, -0.0036)" d="M215 137c57 0 111 -29 111 -92c0 -71 -54 -120 -101 -148c-35 -21 -74 -34 -114 -34c-57 0 -111 29 -111 92c0 71 54 120 101 148c35 21 74 34 114 34z" fill="currentColor"/>
</a>
<rect transform="translate(69.2673, 21.6848)" x="-0.1300" y="-4.0000" width="0.2600" height="6.8402" ry="0.0400" fill="currentColor"/>
<a style="color:inherit;" xlink:href="textedit:///Users/jwy/Documents/GitHub/sf004/public/pieces/sf004/notation/sampleFilledStaff5.ly:59:23:24">
<path transform="translate(78.4382, 24.6848) scale(0.0036, -0.0036)" d="M215 137c57 0 111 -29 111 -92c0 -71 -54 -120 -101 -148c-35 -21 -74 -34 -114 -34c-57 0 -111 29 -111 92c0 71 54 120 101 148c35 21 74 34 114 34z" fill="currentColor"/>
</a>
<polygon transform="translate(16.8140, 19.8248)" stroke-linejoin="round" stroke-linecap="round" stroke-width="0.0800" fill="currentColor" stroke="currentColor" points="8.2554 -0.2000 8.2554 0.2000 0.0400 0.2000 0.0400 -0.2000"/>
<polygon transform="translate(16.8140, 20.6848)" stroke-linejoin="round" stroke-linecap="round" stroke-width="0.0800" fill="currentColor" stroke="currentColor" points="8.2554 -0.2000 8.2554 0.2000 0.0400 0.2000 0.0400 -0.2000"/>
<polygon transform="translate(6.3691, 23.6848)" stroke-linejoin="round" stroke-linecap="round" stroke-width="0.0800" fill="currentColor" stroke="currentColor" points="8.2554 -0.2000 8.2554 0.2000 0.0400 0.2000 0.0400 -0.2000"/>
<polygon transform="translate(6.3691, 24.5448)" stroke-linejoin="round" stroke-linecap="round" stroke-width="0.0800" fill="currentColor" stroke="currentColor" points="8.2554 -0.2000 8.2554 0.2000 0.0400 0.2000 0.0400 -0.2000"/>
<a style="color:inherit;" xlink:href="textedit:///Users/jwy/Documents/GitHub/sf004/public/pieces/sf004/notation/sampleFilledStaff5.ly:57:66:67">
<text transform="translate(20.5178, 19.0481)" font-family="serif" font-style="italic" font-size="1.7461" text-anchor="start" fill="currentColor">
<tspan>5</tspan>
</text>
</a>
<a style="color:inherit;" xlink:href="textedit:///Users/jwy/Documents/GitHub/sf004/public/pieces/sf004/notation/sampleFilledStaff5.ly:57:66:67">
<line transform="translate(16.8140, 18.4848)" stroke-linejoin="round" stroke-linecap="round" stroke-width="0.3200" stroke="currentColor" x1="8.4954" y1="-0.0000" x2="8.4954" y2="0.7000"/>
<line transform="translate(16.8140, 18.4848)" stroke-linejoin="round" stroke-linecap="round" stroke-width="0.3200" stroke="currentColor" x1="-0.2000" y1="-0.0000" x2="-0.2000" y2="0.7000"/>
<line transform="translate(16.8140, 18.4848)" stroke-linejoin="round" stroke-linecap="round" stroke-width="0.3200" stroke="currentColor" x1="8.4954" y1="-0.0000" x2="5.1916" y2="-0.0000"/>
<line transform="translate(16.8140, 18.4848)" stroke-linejoin="round" stroke-linecap="round" stroke-width="0.3200" stroke="currentColor" x1="-0.2000" y1="-0.0000" x2="3.3038" y2="-0.0000"/>
</a>
<a style="color:inherit;" xlink:href="textedit:///Users/jwy/Documents/GitHub/sf004/public/pieces/sf004/notation/sampleFilledStaff5.ly:57:14:15">
<text transform="translate(10.0729, 26.4481)" font-family="serif" font-style="italic" font-size="1.7461" text-anchor="start" fill="currentColor">
<tspan>5</tspan>
</text>
</a>
<rect transform="translate(48.8641, 21.6848)" x="-0.1300" y="-4.0000" width="0.2600" height="6.8402" ry="0.0400" fill="currentColor"/>
<a style="color:inherit;" xlink:href="textedit:///Users/jwy/Documents/GitHub/sf004/public/pieces/sf004/notation/sampleFilledStaff5.ly:59:11:12">
<path transform="translate(47.8334, 24.6848) scale(0.0036, -0.0036)" d="M215 137c57 0 111 -29 111 -92c0 -71 -54 -120 -101 -148c-35 -21 -74 -34 -114 -34c-57 0 -111 29 -111 92c0 71 54 120 101 148c35 21 74 34 114 34z" fill="currentColor"/>
</a>
<a style="color:inherit;" xlink:href="textedit:///Users/jwy/Documents/GitHub/sf004/public/pieces/sf004/notation/sampleFilledStaff5.ly:59:15:16">
<path transform="translate(58.0350, 24.6848) scale(0.0036, -0.0036)" d="M215 137c57 0 111 -29 111 -92c0 -71 -54 -120 -101 -148c-35 -21 -74 -34 -114 -34c-57 0 -111 29 -111 92c0 71 54 120 101 148c35 21 74 34 114 34z" fill="currentColor"/>
</a>
<rect transform="translate(59.0657, 21.6848)" x="-0.1300" y="-4.0000" width="0.2600" height="6.8402" ry="0.0400" fill="currentColor"/>
<rect transform="translate(6.4991, 21.6848)" x="-0.1300" y="-3.8402" width="0.2600" height="6.7002" ry="0.0400" fill="currentColor"/>
<a style="color:inherit;" xlink:href="textedit:///Users/jwy/Documents/GitHub/sf004/public/pieces/sf004/notation/sampleFilledStaff5.ly:57:27:28">
<path transform="translate(6.3691, 17.6848) scale(0.0036, -0.0036)" d="M215 137c57 0 111 -29 111 -92c0 -71 -54 -120 -101 -148c-35 -21 -74 -34 -114 -34c-57 0 -111 29 -111 92c0 71 54 120 101 148c35 21 74 34 114 34z" fill="currentColor"/>
</a>
<a style="color:inherit;" xlink:href="textedit:///Users/jwy/Documents/GitHub/sf004/public/pieces/sf004/notation/sampleFilledStaff5.ly:57:33:34">
<path transform="translate(6.9494, 16.5000) scale(0.0040, -0.0040)" d="M-211 88c-8 2 -14 9 -14 18c0 10 9 19 19 19c2 0 3 -1 4 -1l408 -105c13 0 19 -6 19 -19s-6 -19 -19 -19l-408 -105c-1 0 -2 -1 -4 -1c-10 0 -19 9 -19 19c0 9 6 16 14 18l251 65l140 23l-140 23z" fill="currentColor"/>
</a>
<a style="color:inherit;" xlink:href="textedit:///Users/jwy/Documents/GitHub/sf004/public/pieces/sf004/notation/sampleFilledStaff5.ly:57:36:37">
<path transform="translate(8.3779, 17.6848) scale(0.0036, -0.0036)" d="M215 137c57 0 111 -29 111 -92c0 -71 -54 -120 -101 -148c-35 -21 -74 -34 -114 -34c-57 0 -111 29 -111 92c0 71 54 120 101 148c35 21 74 34 114 34z" fill="currentColor"/>
</a>
<rect transform="translate(8.5079, 21.6848)" x="-0.1300" y="-3.8402" width="0.2600" height="6.7002" ry="0.0400" fill="currentColor"/>
<path transform="translate(1.3691, 22.6848) scale(0.0040, -0.0040)" d="M376 262c4 0 9 1 13 1c155 0 256 -128 256 -261c0 -76 -33 -154 -107 -210c-22 -17 -47 -28 -73 -36c3 -35 5 -70 5 -105c0 -19 -1 -39 -2 -58c-7 -120 -90 -228 -208 -228c-108 0 -195 88 -195 197c0 58 53 103 112 103c54 0 95 -47 95 -103c0 -52 -43 -95 -95 -95
c-11 0 -21 2 -31 6c26 -39 68 -65 117 -65c96 0 157 92 163 191c1 18 2 37 2 55c0 31 -1 61 -4 92c-29 -5 -58 -8 -89 -8c-188 0 -333 172 -333 374c0 177 131 306 248 441c-19 62 -37 125 -45 190c-6 52 -7 104 -7 156c0 115 55 224 149 292c3 2 7 3 10 3c4 0 7 0 10 -3
c71 -84 133 -245 133 -358c0 -143 -86 -255 -180 -364c21 -68 39 -138 56 -207zM461 -203c68 24 113 95 113 164c0 90 -66 179 -173 190c24 -116 46 -231 60 -354zM74 28c0 -135 129 -247 264 -247c28 0 55 2 82 6c-14 127 -37 245 -63 364c-79 -8 -124 -61 -124 -119
c0 -44 25 -91 81 -123c5 -5 7 -10 7 -15c0 -11 -10 -22 -22 -22c-3 0 -6 1 -9 2c-80 43 -117 115 -117 185c0 88 58 174 160 197c-14 58 -29 117 -46 175c-107 -121 -213 -243 -213 -403zM408 1045c-99 -48 -162 -149 -162 -259c0 -74 18 -133 36 -194
c80 97 146 198 146 324c0 55 -4 79 -20 129z" fill="currentColor"/>
<a style="color:inherit;" xlink:href="textedit:///Users/jwy/Documents/GitHub/sf004/public/pieces/sf004/notation/sampleFilledStaff5.ly:57:48:49">
<path transform="translate(14.4045, 17.6848) scale(0.0036, -0.0036)" d="M215 137c57 0 111 -29 111 -92c0 -71 -54 -120 -101 -148c-35 -21 -74 -34 -114 -34c-57 0 -111 29 -111 92c0 71 54 120 101 148c35 21 74 34 114 34z" fill="currentColor"/>
</a>
<rect transform="translate(14.5345, 21.6848)" x="-0.1300" y="-3.8402" width="0.2600" height="6.7002" ry="0.0400" fill="currentColor"/>
<a style="color:inherit;" xlink:href="textedit:///Users/jwy/Documents/GitHub/sf004/public/pieces/sf004/notation/sampleFilledStaff5.ly:57:79:80">
<path transform="translate(15.9133, 26.6848) scale(0.0036, -0.0036)" d="M215 137c57 0 111 -29 111 -92c0 -71 -54 -120 -101 -148c-35 -21 -74 -34 -114 -34c-57 0 -111 29 -111 92c0 71 54 120 101 148c35 21 74 34 114 34z" fill="currentColor"/>
</a>
<a style="color:inherit;" xlink:href="textedit:///Users/jwy/Documents/GitHub/sf004/public/pieces/sf004/notation/sampleFilledStaff5.ly:57:82:83">
<path transform="translate(16.4936, 27.8695) scale(0.0040, -0.0040)" d="M-211 88c-8 2 -14 9 -14 18c0 10 9 19 19 19c2 0 3 -1 4 -1l408 -105c13 0 19 -6 19 -19s-6 -19 -19 -19l-408 -105c-1 0 -2 -1 -4 -1c-10 0 -19 9 -19 19c0 9 6 16 14 18l251 65l140 23l-140 23z" fill="currentColor"/>
</a>
<rect transform="translate(16.9440, 21.6848)" x="-0.1300" y="-1.8600" width="0.2600" height="6.7002" ry="0.0400" fill="currentColor"/>
<a style="color:inherit;" xlink:href="textedit:///Users/jwy/Documents/GitHub/sf004/public/pieces/sf004/notation/sampleFilledStaff5.ly:57:44:45">
<path transform="translate(12.3956, 17.6848) scale(0.0036, -0.0036)" d="M215 137c57 0 111 -29 111 -92c0 -71 -54 -120 -101 -148c-35 -21 -74 -34 -114 -34c-57 0 -111 29 -111 92c0 71 54 120 101 148c35 21 74 34 114 34z" fill="currentColor"/>
</a>
<a style="color:inherit;" xlink:href="textedit:///Users/jwy/Documents/GitHub/sf004/public/pieces/sf004/notation/sampleFilledStaff5.ly:57:40:41">
<path transform="translate(10.3868, 17.6848) scale(0.0036, -0.0036)" d="M215 137c57 0 111 -29 111 -92c0 -71 -54 -120 -101 -148c-35 -21 -74 -34 -114 -34c-57 0 -111 29 -111 92c0 71 54 120 101 148c35 21 74 34 114 34z" fill="currentColor"/>
</a>
<rect transform="translate(10.5168, 21.6848)" x="-0.1300" y="-3.8402" width="0.2600" height="6.7002" ry="0.0400" fill="currentColor"/>
<rect transform="translate(12.5256, 21.6848)" x="-0.1300" y="-3.8402" width="0.2600" height="6.7002" ry="0.0400" fill="currentColor"/>
</svg>
