<?xml version="1.0" encoding="UTF-8" standalone="no"?>
<svg
   xmlns:dc="http://purl.org/dc/elements/1.1/"
   xmlns:cc="http://creativecommons.org/ns#"
   xmlns:rdf="http://www.w3.org/1999/02/22-rdf-syntax-ns#"
   xmlns:svg="http://www.w3.org/2000/svg"
   xmlns="http://www.w3.org/2000/svg"
   xmlns:xlink="http://www.w3.org/1999/xlink"
   id="svg7372"
   version="1.1"
   viewBox="0 0 15.867008 13.25566"
   height="13.25566mm"
   width="15.867008mm">
  <defs
     id="defs7366" />
  <metadata
     id="metadata7369">
    <rdf:RDF>
      <cc:Work
         rdf:about="">
        <dc:format>image/svg+xml</dc:format>
        <dc:type
           rdf:resource="http://purl.org/dc/dcmitype/StillImage" />
        <dc:title></dc:title>
      </cc:Work>
    </rdf:RDF>
  </metadata>
  <g
     transform="translate(-73.659021,-185.41311)"
     id="layer1">
    <g
       id="g5038"
       transform="matrix(1.7572993,0,0,1.7572993,42.219003,157.38419)">
      <rect
         transform="translate(0.5691,23)"
         x="24.610201"
         y="-0.1"
         width="1.7410001"
         height="0.2"
         ry="0.1"
         fill="currentColor"
         id="rect4454" />
      <rect
         transform="translate(0.5691,23)"
         x="22.047701"
         y="-0.1"
         width="1.7410001"
         height="0.2"
         ry="0.1"
         fill="currentColor"
         id="rect4456" />
      <a
         style="color:inherit"
         xlink:href="textedit:///Users/jwy/Documents/GitHub/sf004/public/pieces/sf004/notation/notes02.ly:101:10:11"
         id="a4472">
        <path
           transform="matrix(0.004,0,0,-0.004,17.9031,20)"
           d="M 72,-250 189,76 C 155,64 120,54 84,54 38,54 -3,87 -3,133 c 0,40 33,72 73,72 25,0 48,-15 56,-39 10,-28 6,-59 35,-59 16,0 54,48 61,63 6,12 23,12 28,0 L 127,-250 c -8,-7 -17,-10 -27,-10 -10,0 -20,3 -28,10 z"
           fill="currentColor"
           id="path4470" />
      </a>
      <a
         style="color:inherit"
         xlink:href="textedit:///Users/jwy/Documents/GitHub/sf004/public/pieces/sf004/notation/notes02.ly:101:14:15"
         id="a4486">
        <path
           transform="matrix(0.0036,0,0,-0.0036,22.9069,23)"
           d="m 215,137 c 57,0 111,-29 111,-92 0,-71 -54,-120 -101,-148 -35,-21 -74,-34 -114,-34 -57,0 -111,29 -111,92 0,71 54,120 101,148 35,21 74,34 114,34 z"
           fill="currentColor"
           id="path4484" />
      </a>
      <rect
         transform="translate(24.0025,20)"
         x="-0.064999998"
         y="-3.8099999"
         width="0.13"
         height="6.6501999"
         ry="0.039999999"
         fill="currentColor"
         id="rect4488" />
      <a
         style="color:inherit"
         xlink:href="textedit:///Users/jwy/Documents/GitHub/sf004/public/pieces/sf004/notation/notes02.ly:101:13:14"
         id="a4558">
        <polygon
           transform="translate(18.3381,16.19)"
           stroke-linejoin="round"
           stroke-linecap="round"
           stroke-width="0.08"
           fill="currentColor"
           stroke="currentColor"
           points="8.2521,-0.2 8.2521,0.2 0.04,0.2 0.04,-0.2 "
           id="polygon4554" />
        <polygon
           transform="translate(23.9375,17)"
           stroke-linejoin="round"
           stroke-linecap="round"
           stroke-width="0.08"
           fill="currentColor"
           stroke="currentColor"
           points="2.6526,-0.2 2.6526,0.2 0.04,0.2 0.04,-0.2 "
           id="polygon4556" />
      </a>
      <rect
         transform="translate(26.5651,20)"
         x="-0.064999998"
         y="-3.8099999"
         width="0.13"
         height="6.6501999"
         ry="0.039999999"
         fill="currentColor"
         id="rect4566" />
      <a
         style="color:inherit"
         xlink:href="textedit:///Users/jwy/Documents/GitHub/sf004/public/pieces/sf004/notation/notes02.ly:101:19:20"
         id="a4580">
        <path
           transform="matrix(0.0036,0,0,-0.0036,25.4695,23)"
           d="m 215,137 c 57,0 111,-29 111,-92 0,-71 -54,-120 -101,-148 -35,-21 -74,-34 -114,-34 -57,0 -111,29 -111,92 0,71 54,120 101,148 35,21 74,34 114,34 z"
           fill="currentColor"
           id="path4578" />
      </a>
    </g>
  </g>
</svg>
