<svg xmlns="http://www.w3.org/2000/svg" xmlns:xlink="http://www.w3.org/1999/xlink" version="1.2" width="160.00mm" height="100.00mm" viewBox="0 0 91.0488 56.9055">
<style text="style/css">
<![CDATA[
tspan { white-space: pre; }
]]>
</style>
<!-- Page: 1/1 -->
<text transform="translate(0.5691, -0.0000)" font-family="serif" font-size="2.2001" text-anchor="start" fill="currentColor">
<tspan/>
</text>
<rect transform="translate(90.2898, 5.0000)" x="0.0000" y="-2.0000" width="0.1900" height="4.0000" ry="0.0000" fill="currentColor"/>
<line transform="translate(0.5691, 22.0000)" stroke-linejoin="round" stroke-linecap="round" stroke-width="0.1000" stroke="currentColor" x1="0.0500" y1="-0.0000" x2="89.8607" y2="-0.0000"/>
<line transform="translate(0.5691, 21.0000)" stroke-linejoin="round" stroke-linecap="round" stroke-width="0.1000" stroke="currentColor" x1="0.0500" y1="-0.0000" x2="89.8607" y2="-0.0000"/>
<line transform="translate(0.5691, 20.0000)" stroke-linejoin="round" stroke-linecap="round" stroke-width="0.1000" stroke="currentColor" x1="0.0500" y1="-0.0000" x2="89.8607" y2="-0.0000"/>
<line transform="translate(0.5691, 19.0000)" stroke-linejoin="round" stroke-linecap="round" stroke-width="0.1000" stroke="currentColor" x1="0.0500" y1="-0.0000" x2="89.8607" y2="-0.0000"/>
<line transform="translate(0.5691, 18.0000)" stroke-linejoin="round" stroke-linecap="round" stroke-width="0.1000" stroke="currentColor" x1="0.0500" y1="-0.0000" x2="89.8607" y2="-0.0000"/>
<rect transform="translate(0.5691, 23.0000)" x="85.7734" y="-0.1000" width="1.7410" height="0.2000" ry="0.1000" fill="currentColor"/>
<rect transform="translate(0.5691, 23.0000)" x="82.3662" y="-0.1000" width="1.7410" height="0.2000" ry="0.1000" fill="currentColor"/>
<rect transform="translate(0.5691, 23.0000)" x="79.0742" y="-0.1000" width="1.6258" height="0.2000" ry="0.1000" fill="currentColor"/>
<rect transform="translate(0.5691, 23.0000)" x="75.5519" y="-0.1000" width="1.7410" height="0.2000" ry="0.1000" fill="currentColor"/>
<rect transform="translate(0.5691, 23.0000)" x="72.1448" y="-0.1000" width="1.7410" height="0.2000" ry="0.1000" fill="currentColor"/>
<rect transform="translate(0.5691, 23.0000)" x="68.7376" y="-0.1000" width="1.7410" height="0.2000" ry="0.1000" fill="currentColor"/>
<rect transform="translate(0.5691, 23.0000)" x="44.7698" y="-0.1000" width="1.7410" height="0.2000" ry="0.1000" fill="currentColor"/>
<rect transform="translate(0.5691, 24.0000)" x="44.8850" y="-0.1000" width="1.6258" height="0.2000" ry="0.1000" fill="currentColor"/>
<rect transform="translate(0.5691, 23.0000)" x="34.6697" y="-0.1000" width="1.7410" height="0.2000" ry="0.1000" fill="currentColor"/>
<rect transform="translate(0.5691, 24.0000)" x="34.6697" y="-0.1000" width="1.7410" height="0.2000" ry="0.1000" fill="currentColor"/>
<rect transform="translate(0.5691, 23.0000)" x="24.5696" y="-0.1000" width="1.7410" height="0.2000" ry="0.1000" fill="currentColor"/>
<rect transform="translate(0.5691, 24.0000)" x="24.5696" y="-0.1000" width="1.7410" height="0.2000" ry="0.1000" fill="currentColor"/>
<rect transform="translate(0.5691, 23.0000)" x="14.5846" y="-0.1000" width="1.6258" height="0.2000" ry="0.1000" fill="currentColor"/>
<rect transform="translate(48.4246, 20.0000)" x="0.0000" y="-2.0000" width="0.1900" height="4.0000" ry="0.0000" fill="currentColor"/>
<rect transform="translate(90.2898, 20.0000)" x="0.0000" y="-2.0000" width="0.1900" height="4.0000" ry="0.0000" fill="currentColor"/>
<path transform="translate(6.0241, 19.5000) scale(0.0040, -0.0040)" d="M0 0c0 31 25 56 56 56s56 -25 56 -56s-25 -56 -56 -56s-56 25 -56 56z" fill="currentColor"/>
<path transform="translate(6.0241, 20.5000) scale(0.0040, -0.0040)" d="M0 0c0 31 25 56 56 56s56 -25 56 -56s-25 -56 -56 -56s-56 25 -56 56z" fill="currentColor"/>
<rect transform="translate(5.5341, 20.0000)" x="0.0000" y="-2.0000" width="0.1900" height="4.0000" ry="0.0000" fill="currentColor"/>
<rect transform="translate(4.6341, 20.0000)" x="0.0000" y="-2.0000" width="0.6000" height="4.0000" ry="0.0000" fill="currentColor"/>
<path transform="translate(29.4243, 19.5000) scale(0.0040, -0.0040)" d="M0 0c0 31 25 56 56 56s56 -25 56 -56s-25 -56 -56 -56s-56 25 -56 56z" fill="currentColor"/>
<a style="color:inherit;" xlink:href="textedit:///Users/jwy/Documents/GitHub/sf004/public/pieces/sf004/notation/notes03.ly:123:10:11">
<path transform="translate(27.9743, 20.0000) scale(0.0040, -0.0040)" d="M72 -250l117 326c-34 -12 -69 -22 -105 -22c-46 0 -87 33 -87 79c0 40 33 72 73 72c25 0 48 -15 56 -39c10 -28 6 -59 35 -59c16 0 54 48 61 63c6 12 23 12 28 0l-123 -420c-8 -7 -17 -10 -27 -10s-20 3 -28 10z" fill="currentColor"/>
</a>
<rect transform="translate(26.5245, 20.0000)" x="-0.0650" y="-2.8100" width="0.1300" height="6.6502" ry="0.0400" fill="currentColor"/>
<a style="color:inherit;" xlink:href="textedit:///Users/jwy/Documents/GitHub/sf004/public/pieces/sf004/notation/notes03.ly:122:15:16">
<path transform="translate(25.4288, 24.0000) scale(0.0036, -0.0036)" d="M215 137c57 0 111 -29 111 -92c0 -71 -54 -120 -101 -148c-35 -21 -74 -34 -114 -34c-57 0 -111 29 -111 92c0 71 54 120 101 148c35 21 74 34 114 34z" fill="currentColor"/>
</a>
<a style="color:inherit;" xlink:href="textedit:///Users/jwy/Documents/GitHub/sf004/public/pieces/sf004/notation/notes03.ly:123:15:16">
<path transform="translate(35.5289, 24.5000) scale(0.0036, -0.0036)" d="M215 137c57 0 111 -29 111 -92c0 -71 -54 -120 -101 -148c-35 -21 -74 -34 -114 -34c-57 0 -111 29 -111 92c0 71 54 120 101 148c35 21 74 34 114 34z" fill="currentColor"/>
</a>
<rect transform="translate(36.6246, 20.0000)" x="-0.0650" y="-2.0000" width="0.1300" height="6.3402" ry="0.0400" fill="currentColor"/>
<a style="color:inherit;" xlink:href="textedit:///Users/jwy/Documents/GitHub/sf004/public/pieces/sf004/notation/notes03.ly:124:10:11">
<path transform="translate(38.0745, 20.0000) scale(0.0040, -0.0040)" d="M72 -250l117 326c-34 -12 -69 -22 -105 -22c-46 0 -87 33 -87 79c0 40 33 72 73 72c25 0 48 -15 56 -39c10 -28 6 -59 35 -59c16 0 54 48 61 63c6 12 23 12 28 0l-123 -420c-8 -7 -17 -10 -27 -10s-20 3 -28 10z" fill="currentColor"/>
</a>
<path transform="translate(39.5245, 19.5000) scale(0.0040, -0.0040)" d="M0 0c0 31 25 56 56 56s56 -25 56 -56s-25 -56 -56 -56s-56 25 -56 56z" fill="currentColor"/>
<a style="color:inherit;" xlink:href="textedit:///Users/jwy/Documents/GitHub/sf004/public/pieces/sf004/notation/notes03.ly:121:15:16">
<path transform="translate(15.3287, 23.0000) scale(0.0036, -0.0036)" d="M215 137c57 0 111 -29 111 -92c0 -71 -54 -120 -101 -148c-35 -21 -74 -34 -114 -34c-57 0 -111 29 -111 92c0 71 54 120 101 148c35 21 74 34 114 34z" fill="currentColor"/>
</a>
<a style="color:inherit;" xlink:href="textedit:///Users/jwy/Documents/GitHub/sf004/public/pieces/sf004/notation/notes03.ly:121:10:11">
<path transform="translate(7.7741, 20.0000) scale(0.0040, -0.0040)" d="M72 -250l117 326c-34 -12 -69 -22 -105 -22c-46 0 -87 33 -87 79c0 40 33 72 73 72c25 0 48 -15 56 -39c10 -28 6 -59 35 -59c16 0 54 48 61 63c6 12 23 12 28 0l-123 -420c-8 -7 -17 -10 -27 -10s-20 3 -28 10z" fill="currentColor"/>
</a>
<path transform="translate(9.2241, 19.5000) scale(0.0040, -0.0040)" d="M0 0c0 31 25 56 56 56s56 -25 56 -56s-25 -56 -56 -56s-56 25 -56 56z" fill="currentColor"/>
<rect transform="translate(16.4243, 20.0000)" x="-0.0650" y="-3.8100" width="0.1300" height="6.6502" ry="0.0400" fill="currentColor"/>
<path transform="translate(13.8787, 23.0000) scale(0.0040, -0.0040)" d="M216 -312c0 -10 -8 -19 -18 -19s-19 9 -19 19v145l-83 -31v-158c0 -10 -9 -19 -19 -19s-18 9 -18 19v145l-32 -12c-2 -1 -5 -1 -7 -1c-11 0 -20 9 -20 20v60c0 8 5 16 13 19l46 16v160l-32 -11c-2 -1 -5 -1 -7 -1c-11 0 -20 9 -20 20v60c0 8 5 15 13 18l46 17v158
c0 10 8 19 18 19s19 -9 19 -19v-145l83 31v158c0 10 9 19 19 19s18 -9 18 -19v-145l32 12c2 1 5 1 7 1c11 0 20 -9 20 -20v-60c0 -8 -5 -16 -13 -19l-46 -16v-160l32 11c2 1 5 1 7 1c11 0 20 -9 20 -20v-60c0 -8 -5 -15 -13 -18l-46 -17v-158zM96 65v-160l83 30v160z" fill="currentColor"/>
<a style="color:inherit;" xlink:href="textedit:///Users/jwy/Documents/GitHub/sf004/public/pieces/sf004/notation/notes03.ly:122:10:11">
<path transform="translate(17.8742, 20.0000) scale(0.0040, -0.0040)" d="M72 -250l117 326c-34 -12 -69 -22 -105 -22c-46 0 -87 33 -87 79c0 40 33 72 73 72c25 0 48 -15 56 -39c10 -28 6 -59 35 -59c16 0 54 48 61 63c6 12 23 12 28 0l-123 -420c-8 -7 -17 -10 -27 -10s-20 3 -28 10z" fill="currentColor"/>
</a>
<path transform="translate(19.3242, 19.5000) scale(0.0040, -0.0040)" d="M0 0c0 31 25 56 56 56s56 -25 56 -56s-25 -56 -56 -56s-56 25 -56 56z" fill="currentColor"/>
<polygon transform="translate(60.6560, 14.8100)" stroke-linejoin="round" stroke-linecap="round" stroke-width="0.0800" fill="currentColor" stroke="currentColor" points="6.9043 -0.2000 6.9043 0.2000 0.0400 0.2000 0.0400 -0.2000"/>
<a style="color:inherit;" xlink:href="textedit:///Users/jwy/Documents/GitHub/sf004/public/pieces/sf004/notation/notes03.ly:126:27:28">
<path transform="translate(52.8110, 22.0000) scale(0.0036, -0.0036)" d="M215 137c57 0 111 -29 111 -92c0 -71 -54 -120 -101 -148c-35 -21 -74 -34 -114 -34c-57 0 -111 29 -111 92c0 71 54 120 101 148c35 21 74 34 114 34z" fill="currentColor"/>
</a>
<rect transform="translate(53.9067, 20.0000)" x="-0.0650" y="-4.8100" width="0.1300" height="6.6502" ry="0.0400" fill="currentColor"/>
<polygon transform="translate(80.8490, 16.1900)" stroke-linejoin="round" stroke-linecap="round" stroke-width="0.0800" fill="currentColor" stroke="currentColor" points="6.9043 -0.2000 6.9043 0.2000 0.0400 0.2000 0.0400 -0.2000"/>
<polygon transform="translate(70.6275, 16.1900)" stroke-linejoin="round" stroke-linecap="round" stroke-width="0.0800" fill="currentColor" stroke="currentColor" points="6.9043 -0.2000 6.9043 0.2000 0.0400 0.2000 0.0400 -0.2000"/>
<a style="color:inherit;" xlink:href="textedit:///Users/jwy/Documents/GitHub/sf004/public/pieces/sf004/notation/notes03.ly:129:10:11">
<text transform="translate(83.8773, 15.4304)" font-family="serif" font-style="italic" font-size="1.7461" text-anchor="start" fill="currentColor">
<tspan>3</tspan>
</text>
</a>
<a style="color:inherit;" xlink:href="textedit:///Users/jwy/Documents/GitHub/sf004/public/pieces/sf004/notation/notes03.ly:129:10:11">
<line transform="translate(80.8490, 14.8500)" stroke-linejoin="round" stroke-linecap="round" stroke-width="0.1600" stroke="currentColor" x1="7.1443" y1="-0.0000" x2="7.1443" y2="0.7000"/>
<line transform="translate(80.8490, 14.8500)" stroke-linejoin="round" stroke-linecap="round" stroke-width="0.1600" stroke="currentColor" x1="-0.2000" y1="-0.0000" x2="-0.2000" y2="0.7000"/>
<line transform="translate(80.8490, 14.8500)" stroke-linejoin="round" stroke-linecap="round" stroke-width="0.1600" stroke="currentColor" x1="7.1443" y1="-0.0000" x2="4.5160" y2="-0.0000"/>
<line transform="translate(80.8490, 14.8500)" stroke-linejoin="round" stroke-linecap="round" stroke-width="0.1600" stroke="currentColor" x1="-0.2000" y1="-0.0000" x2="2.6283" y2="-0.0000"/>
</a>
<a style="color:inherit;" xlink:href="textedit:///Users/jwy/Documents/GitHub/sf004/public/pieces/sf004/notation/notes03.ly:128:10:11">
<text transform="translate(73.6558, 15.4304)" font-family="serif" font-style="italic" font-size="1.7461" text-anchor="start" fill="currentColor">
<tspan>3</tspan>
</text>
</a>
<a style="color:inherit;" xlink:href="textedit:///Users/jwy/Documents/GitHub/sf004/public/pieces/sf004/notation/notes03.ly:128:10:11">
<line transform="translate(70.6275, 14.8500)" stroke-linejoin="round" stroke-linecap="round" stroke-width="0.1600" stroke="currentColor" x1="7.1443" y1="-0.0000" x2="7.1443" y2="0.7000"/>
<line transform="translate(70.6275, 14.8500)" stroke-linejoin="round" stroke-linecap="round" stroke-width="0.1600" stroke="currentColor" x1="-0.2000" y1="-0.0000" x2="-0.2000" y2="0.7000"/>
<line transform="translate(70.6275, 14.8500)" stroke-linejoin="round" stroke-linecap="round" stroke-width="0.1600" stroke="currentColor" x1="7.1443" y1="-0.0000" x2="4.5160" y2="-0.0000"/>
<line transform="translate(70.6275, 14.8500)" stroke-linejoin="round" stroke-linecap="round" stroke-width="0.1600" stroke="currentColor" x1="-0.2000" y1="-0.0000" x2="2.6283" y2="-0.0000"/>
</a>
<polygon transform="translate(50.4346, 15.1900)" stroke-linejoin="round" stroke-linecap="round" stroke-width="0.0800" fill="currentColor" stroke="currentColor" points="6.9043 -0.2000 6.9043 0.2000 0.0400 0.2000 0.0400 -0.2000"/>
<a style="color:inherit;" xlink:href="textedit:///Users/jwy/Documents/GitHub/sf004/public/pieces/sf004/notation/notes03.ly:127:10:11">
<text transform="translate(63.6843, 14.0504)" font-family="serif" font-style="italic" font-size="1.7461" text-anchor="start" fill="currentColor">
<tspan>3</tspan>
</text>
</a>
<a style="color:inherit;" xlink:href="textedit:///Users/jwy/Documents/GitHub/sf004/public/pieces/sf004/notation/notes03.ly:127:10:11">
<line transform="translate(60.6560, 13.4700)" stroke-linejoin="round" stroke-linecap="round" stroke-width="0.1600" stroke="currentColor" x1="7.1443" y1="-0.0000" x2="7.1443" y2="0.7000"/>
<line transform="translate(60.6560, 13.4700)" stroke-linejoin="round" stroke-linecap="round" stroke-width="0.1600" stroke="currentColor" x1="-0.2000" y1="-0.0000" x2="-0.2000" y2="0.7000"/>
<line transform="translate(60.6560, 13.4700)" stroke-linejoin="round" stroke-linecap="round" stroke-width="0.1600" stroke="currentColor" x1="7.1443" y1="-0.0000" x2="4.5160" y2="-0.0000"/>
<line transform="translate(60.6560, 13.4700)" stroke-linejoin="round" stroke-linecap="round" stroke-width="0.1600" stroke="currentColor" x1="-0.2000" y1="-0.0000" x2="2.6283" y2="-0.0000"/>
</a>
<a style="color:inherit;" xlink:href="textedit:///Users/jwy/Documents/GitHub/sf004/public/pieces/sf004/notation/notes03.ly:126:10:11">
<text transform="translate(53.4629, 14.4304)" font-family="serif" font-style="italic" font-size="1.7461" text-anchor="start" fill="currentColor">
<tspan>3</tspan>
</text>
</a>
<a style="color:inherit;" xlink:href="textedit:///Users/jwy/Documents/GitHub/sf004/public/pieces/sf004/notation/notes03.ly:126:10:11">
<line transform="translate(50.4346, 13.8500)" stroke-linejoin="round" stroke-linecap="round" stroke-width="0.1600" stroke="currentColor" x1="7.1443" y1="-0.0000" x2="7.1443" y2="0.7000"/>
<line transform="translate(50.4346, 13.8500)" stroke-linejoin="round" stroke-linecap="round" stroke-width="0.1600" stroke="currentColor" x1="-0.2000" y1="-0.0000" x2="-0.2000" y2="0.7000"/>
<line transform="translate(50.4346, 13.8500)" stroke-linejoin="round" stroke-linecap="round" stroke-width="0.1600" stroke="currentColor" x1="7.1443" y1="-0.0000" x2="4.5160" y2="-0.0000"/>
<line transform="translate(50.4346, 13.8500)" stroke-linejoin="round" stroke-linecap="round" stroke-width="0.1600" stroke="currentColor" x1="-0.2000" y1="-0.0000" x2="2.6283" y2="-0.0000"/>
</a>
<a style="color:inherit;" xlink:href="textedit:///Users/jwy/Documents/GitHub/sf004/public/pieces/sf004/notation/notes03.ly:124:14:15">
<polygon transform="translate(38.5095, 18.0000)" stroke-linejoin="round" stroke-linecap="round" stroke-width="0.0800" fill="currentColor" stroke="currentColor" points="8.2403 -0.2000 8.2403 0.2000 0.0400 0.2000 0.0400 -0.2000"/>
<polygon transform="translate(45.6247, 18.8100)" stroke-linejoin="round" stroke-linecap="round" stroke-width="0.0800" fill="currentColor" stroke="currentColor" points="1.1250 -0.2000 1.1250 0.2000 0.0400 0.2000 0.0400 -0.2000"/>
</a>
<a style="color:inherit;" xlink:href="textedit:///Users/jwy/Documents/GitHub/sf004/public/pieces/sf004/notation/notes03.ly:123:14:15">
<polygon transform="translate(28.4093, 18.0000)" stroke-linejoin="round" stroke-linecap="round" stroke-width="0.0800" fill="currentColor" stroke="currentColor" points="8.2403 -0.2000 8.2403 0.2000 0.0400 0.2000 0.0400 -0.2000"/>
<polygon transform="translate(35.5246, 18.8100)" stroke-linejoin="round" stroke-linecap="round" stroke-width="0.0800" fill="currentColor" stroke="currentColor" points="1.1250 -0.2000 1.1250 0.2000 0.0400 0.2000 0.0400 -0.2000"/>
</a>
<a style="color:inherit;" xlink:href="textedit:///Users/jwy/Documents/GitHub/sf004/public/pieces/sf004/notation/notes03.ly:122:14:15">
<polygon transform="translate(18.3092, 17.1900)" stroke-linejoin="round" stroke-linecap="round" stroke-width="0.0800" fill="currentColor" stroke="currentColor" points="8.2403 -0.2000 8.2403 0.2000 0.0400 0.2000 0.0400 -0.2000"/>
<polygon transform="translate(25.4245, 18.0000)" stroke-linejoin="round" stroke-linecap="round" stroke-width="0.0800" fill="currentColor" stroke="currentColor" points="1.1250 -0.2000 1.1250 0.2000 0.0400 0.2000 0.0400 -0.2000"/>
</a>
<a style="color:inherit;" xlink:href="textedit:///Users/jwy/Documents/GitHub/sf004/public/pieces/sf004/notation/notes03.ly:121:14:15">
<polygon transform="translate(8.2091, 16.1900)" stroke-linejoin="round" stroke-linecap="round" stroke-width="0.0800" fill="currentColor" stroke="currentColor" points="8.2403 -0.2000 8.2403 0.2000 0.0400 0.2000 0.0400 -0.2000"/>
<polygon transform="translate(15.3243, 17.0000)" stroke-linejoin="round" stroke-linecap="round" stroke-width="0.0800" fill="currentColor" stroke="currentColor" points="1.1250 -0.2000 1.1250 0.2000 0.0400 0.2000 0.0400 -0.2000"/>
</a>
<a style="color:inherit;" xlink:href="textedit:///Users/jwy/Documents/GitHub/sf004/public/pieces/sf004/notation/notes03.ly:124:15:16">
<path transform="translate(45.6291, 24.5000) scale(0.0036, -0.0036)" d="M215 137c57 0 111 -29 111 -92c0 -71 -54 -120 -101 -148c-35 -21 -74 -34 -114 -34c-57 0 -111 29 -111 92c0 71 54 120 101 148c35 21 74 34 114 34z" fill="currentColor"/>
</a>
<rect transform="translate(46.7247, 20.0000)" x="-0.0650" y="-2.0000" width="0.1300" height="6.3402" ry="0.0400" fill="currentColor"/>
<path transform="translate(44.1791, 24.5000) scale(0.0040, -0.0040)" d="M216 -312c0 -10 -8 -19 -18 -19s-19 9 -19 19v145l-83 -31v-158c0 -10 -9 -19 -19 -19s-18 9 -18 19v145l-32 -12c-2 -1 -5 -1 -7 -1c-11 0 -20 9 -20 20v60c0 8 5 16 13 19l46 16v160l-32 -11c-2 -1 -5 -1 -7 -1c-11 0 -20 9 -20 20v60c0 8 5 15 13 18l46 17v158
c0 10 8 19 18 19s19 -9 19 -19v-145l83 31v158c0 10 9 19 19 19s18 -9 18 -19v-145l32 12c2 1 5 1 7 1c11 0 20 -9 20 -20v-60c0 -8 -5 -16 -13 -19l-46 -16v-160l32 11c2 1 5 1 7 1c11 0 20 -9 20 -20v-60c0 -8 -5 -15 -13 -18l-46 -17v-158zM96 65v-160l83 30v160z" fill="currentColor"/>
<a style="color:inherit;" xlink:href="textedit:///Users/jwy/Documents/GitHub/sf004/public/pieces/sf004/notation/notes03.ly:126:23:24">
<path transform="translate(49.4039, 22.0000) scale(0.0036, -0.0036)" d="M215 137c57 0 111 -29 111 -92c0 -71 -54 -120 -101 -148c-35 -21 -74 -34 -114 -34c-57 0 -111 29 -111 92c0 71 54 120 101 148c35 21 74 34 114 34z" fill="currentColor"/>
</a>
<rect transform="translate(50.4996, 20.0000)" x="-0.0650" y="-4.8100" width="0.1300" height="6.6502" ry="0.0400" fill="currentColor"/>
<a style="color:inherit;" xlink:href="textedit:///Users/jwy/Documents/GitHub/sf004/public/pieces/sf004/notation/notes03.ly:127:33:34">
<path transform="translate(66.4397, 21.5000) scale(0.0036, -0.0036)" d="M215 137c57 0 111 -29 111 -92c0 -71 -54 -120 -101 -148c-35 -21 -74 -34 -114 -34c-57 0 -111 29 -111 92c0 71 54 120 101 148c35 21 74 34 114 34z" fill="currentColor"/>
</a>
<path transform="translate(58.1754, 21.5000) scale(0.0040, -0.0040)" d="M216 -312c0 -10 -8 -19 -18 -19s-19 9 -19 19v145l-83 -31v-158c0 -10 -9 -19 -19 -19s-18 9 -18 19v145l-32 -12c-2 -1 -5 -1 -7 -1c-11 0 -20 9 -20 20v60c0 8 5 16 13 19l46 16v160l-32 -11c-2 -1 -5 -1 -7 -1c-11 0 -20 9 -20 20v60c0 8 5 15 13 18l46 17v158
c0 10 8 19 18 19s19 -9 19 -19v-145l83 31v158c0 10 9 19 19 19s18 -9 18 -19v-145l32 12c2 1 5 1 7 1c11 0 20 -9 20 -20v-60c0 -8 -5 -16 -13 -19l-46 -16v-160l32 11c2 1 5 1 7 1c11 0 20 -9 20 -20v-60c0 -8 -5 -15 -13 -18l-46 -17v-158zM96 65v-160l83 30v160z" fill="currentColor"/>
<a style="color:inherit;" xlink:href="textedit:///Users/jwy/Documents/GitHub/sf004/public/pieces/sf004/notation/notes03.ly:127:29:30">
<path transform="translate(63.0325, 21.5000) scale(0.0036, -0.0036)" d="M215 137c57 0 111 -29 111 -92c0 -71 -54 -120 -101 -148c-35 -21 -74 -34 -114 -34c-57 0 -111 29 -111 92c0 71 54 120 101 148c35 21 74 34 114 34z" fill="currentColor"/>
</a>
<rect transform="translate(64.1282, 20.0000)" x="-0.0650" y="-5.1900" width="0.1300" height="6.5302" ry="0.0400" fill="currentColor"/>
<rect transform="translate(60.7210, 20.0000)" x="-0.0650" y="-5.1900" width="0.1300" height="6.5302" ry="0.0400" fill="currentColor"/>
<rect transform="translate(67.5353, 20.0000)" x="-0.0650" y="-5.1900" width="0.1300" height="6.5302" ry="0.0400" fill="currentColor"/>
<a style="color:inherit;" xlink:href="textedit:///Users/jwy/Documents/GitHub/sf004/public/pieces/sf004/notation/notes03.ly:128:23:24">
<path transform="translate(69.5968, 23.0000) scale(0.0036, -0.0036)" d="M215 137c57 0 111 -29 111 -92c0 -71 -54 -120 -101 -148c-35 -21 -74 -34 -114 -34c-57 0 -111 29 -111 92c0 71 54 120 101 148c35 21 74 34 114 34z" fill="currentColor"/>
</a>
<rect transform="translate(70.6925, 20.0000)" x="-0.0650" y="-3.8100" width="0.1300" height="6.6502" ry="0.0400" fill="currentColor"/>
<path transform="translate(1.3691, 21.0000) scale(0.0040, -0.0040)" d="M376 262c4 0 9 1 13 1c155 0 256 -128 256 -261c0 -76 -33 -154 -107 -210c-22 -17 -47 -28 -73 -36c3 -35 5 -70 5 -105c0 -19 -1 -39 -2 -58c-7 -120 -90 -228 -208 -228c-108 0 -195 88 -195 197c0 58 53 103 112 103c54 0 95 -47 95 -103c0 -52 -43 -95 -95 -95
c-11 0 -21 2 -31 6c26 -39 68 -65 117 -65c96 0 157 92 163 191c1 18 2 37 2 55c0 31 -1 61 -4 92c-29 -5 -58 -8 -89 -8c-188 0 -333 172 -333 374c0 177 131 306 248 441c-19 62 -37 125 -45 190c-6 52 -7 104 -7 156c0 115 55 224 149 292c3 2 7 3 10 3c4 0 7 0 10 -3
c71 -84 133 -245 133 -358c0 -143 -86 -255 -180 -364c21 -68 39 -138 56 -207zM461 -203c68 24 113 95 113 164c0 90 -66 179 -173 190c24 -116 46 -231 60 -354zM74 28c0 -135 129 -247 264 -247c28 0 55 2 82 6c-14 127 -37 245 -63 364c-79 -8 -124 -61 -124 -119
c0 -44 25 -91 81 -123c5 -5 7 -10 7 -15c0 -11 -10 -22 -22 -22c-3 0 -6 1 -9 2c-80 43 -117 115 -117 185c0 88 58 174 160 197c-14 58 -29 117 -46 175c-107 -121 -213 -243 -213 -403zM408 1045c-99 -48 -162 -149 -162 -259c0 -74 18 -133 36 -194
c80 97 146 198 146 324c0 55 -4 79 -20 129z" fill="currentColor"/>
<a style="color:inherit;" xlink:href="textedit:///Users/jwy/Documents/GitHub/sf004/public/pieces/sf004/notation/notes03.ly:126:29:30">
<path transform="translate(56.2182, 22.0000) scale(0.0036, -0.0036)" d="M215 137c57 0 111 -29 111 -92c0 -71 -54 -120 -101 -148c-35 -21 -74 -34 -114 -34c-57 0 -111 29 -111 92c0 71 54 120 101 148c35 21 74 34 114 34z" fill="currentColor"/>
</a>
<rect transform="translate(57.3139, 20.0000)" x="-0.0650" y="-4.8100" width="0.1300" height="6.6502" ry="0.0400" fill="currentColor"/>
<a style="color:inherit;" xlink:href="textedit:///Users/jwy/Documents/GitHub/sf004/public/pieces/sf004/notation/notes03.ly:127:23:24">
<path transform="translate(59.6254, 21.5000) scale(0.0036, -0.0036)" d="M215 137c57 0 111 -29 111 -92c0 -71 -54 -120 -101 -148c-35 -21 -74 -34 -114 -34c-57 0 -111 29 -111 92c0 71 54 120 101 148c35 21 74 34 114 34z" fill="currentColor"/>
</a>
<a style="color:inherit;" xlink:href="textedit:///Users/jwy/Documents/GitHub/sf004/public/pieces/sf004/notation/notes03.ly:129:33:34">
<path transform="translate(86.6326, 23.0000) scale(0.0036, -0.0036)" d="M215 137c57 0 111 -29 111 -92c0 -71 -54 -120 -101 -148c-35 -21 -74 -34 -114 -34c-57 0 -111 29 -111 92c0 71 54 120 101 148c35 21 74 34 114 34z" fill="currentColor"/>
</a>
<a style="color:inherit;" xlink:href="textedit:///Users/jwy/Documents/GitHub/sf004/public/pieces/sf004/notation/notes03.ly:129:29:30">
<path transform="translate(83.2255, 23.0000) scale(0.0036, -0.0036)" d="M215 137c57 0 111 -29 111 -92c0 -71 -54 -120 -101 -148c-35 -21 -74 -34 -114 -34c-57 0 -111 29 -111 92c0 71 54 120 101 148c35 21 74 34 114 34z" fill="currentColor"/>
</a>
<rect transform="translate(84.3211, 20.0000)" x="-0.0650" y="-3.8100" width="0.1300" height="6.6502" ry="0.0400" fill="currentColor"/>
<path transform="translate(78.3683, 23.0000) scale(0.0040, -0.0040)" d="M216 -312c0 -10 -8 -19 -18 -19s-19 9 -19 19v145l-83 -31v-158c0 -10 -9 -19 -19 -19s-18 9 -18 19v145l-32 -12c-2 -1 -5 -1 -7 -1c-11 0 -20 9 -20 20v60c0 8 5 16 13 19l46 16v160l-32 -11c-2 -1 -5 -1 -7 -1c-11 0 -20 9 -20 20v60c0 8 5 15 13 18l46 17v158
c0 10 8 19 18 19s19 -9 19 -19v-145l83 31v158c0 10 9 19 19 19s18 -9 18 -19v-145l32 12c2 1 5 1 7 1c11 0 20 -9 20 -20v-60c0 -8 -5 -16 -13 -19l-46 -16v-160l32 11c2 1 5 1 7 1c11 0 20 -9 20 -20v-60c0 -8 -5 -15 -13 -18l-46 -17v-158zM96 65v-160l83 30v160z" fill="currentColor"/>
<rect transform="translate(87.7283, 20.0000)" x="-0.0650" y="-3.8100" width="0.1300" height="6.6502" ry="0.0400" fill="currentColor"/>
<a style="color:inherit;" xlink:href="textedit:///Users/jwy/Documents/GitHub/sf004/public/pieces/sf004/notation/notes03.ly:128:27:28">
<path transform="translate(73.0040, 23.0000) scale(0.0036, -0.0036)" d="M215 137c57 0 111 -29 111 -92c0 -71 -54 -120 -101 -148c-35 -21 -74 -34 -114 -34c-57 0 -111 29 -111 92c0 71 54 120 101 148c35 21 74 34 114 34z" fill="currentColor"/>
</a>
<rect transform="translate(77.5068, 20.0000)" x="-0.0650" y="-3.8100" width="0.1300" height="6.6502" ry="0.0400" fill="currentColor"/>
<a style="color:inherit;" xlink:href="textedit:///Users/jwy/Documents/GitHub/sf004/public/pieces/sf004/notation/notes03.ly:128:29:30">
<path transform="translate(76.4111, 23.0000) scale(0.0036, -0.0036)" d="M215 137c57 0 111 -29 111 -92c0 -71 -54 -120 -101 -148c-35 -21 -74 -34 -114 -34c-57 0 -111 29 -111 92c0 71 54 120 101 148c35 21 74 34 114 34z" fill="currentColor"/>
</a>
<rect transform="translate(80.9140, 20.0000)" x="-0.0650" y="-3.8100" width="0.1300" height="6.6502" ry="0.0400" fill="currentColor"/>
<a style="color:inherit;" xlink:href="textedit:///Users/jwy/Documents/GitHub/sf004/public/pieces/sf004/notation/notes03.ly:129:23:24">
<path transform="translate(79.8183, 23.0000) scale(0.0036, -0.0036)" d="M215 137c57 0 111 -29 111 -92c0 -71 -54 -120 -101 -148c-35 -21 -74 -34 -114 -34c-57 0 -111 29 -111 92c0 71 54 120 101 148c35 21 74 34 114 34z" fill="currentColor"/>
</a>
<rect transform="translate(74.0997, 20.0000)" x="-0.0650" y="-3.8100" width="0.1300" height="6.6502" ry="0.0400" fill="currentColor"/>
<line transform="translate(0.5691, 37.0000)" stroke-linejoin="round" stroke-linecap="round" stroke-width="0.1000" stroke="currentColor" x1="0.0500" y1="-0.0000" x2="89.8607" y2="-0.0000"/>
<line transform="translate(0.5691, 36.0000)" stroke-linejoin="round" stroke-linecap="round" stroke-width="0.1000" stroke="currentColor" x1="0.0500" y1="-0.0000" x2="89.8607" y2="-0.0000"/>
<line transform="translate(0.5691, 35.0000)" stroke-linejoin="round" stroke-linecap="round" stroke-width="0.1000" stroke="currentColor" x1="0.0500" y1="-0.0000" x2="89.8607" y2="-0.0000"/>
<line transform="translate(0.5691, 34.0000)" stroke-linejoin="round" stroke-linecap="round" stroke-width="0.1000" stroke="currentColor" x1="0.0500" y1="-0.0000" x2="89.8607" y2="-0.0000"/>
<line transform="translate(0.5691, 33.0000)" stroke-linejoin="round" stroke-linecap="round" stroke-width="0.1000" stroke="currentColor" x1="0.0500" y1="-0.0000" x2="89.8607" y2="-0.0000"/>
<rect transform="translate(0.5691, 38.0000)" x="85.2998" y="-0.1000" width="1.7410" height="0.2000" ry="0.1000" fill="currentColor"/>
<rect transform="translate(0.5691, 39.0000)" x="85.2998" y="-0.1000" width="1.7410" height="0.2000" ry="0.1000" fill="currentColor"/>
<rect transform="translate(0.5691, 38.0000)" x="82.8191" y="-0.1000" width="1.7410" height="0.2000" ry="0.1000" fill="currentColor"/>
<rect transform="translate(0.5691, 39.0000)" x="82.8191" y="-0.1000" width="1.7410" height="0.2000" ry="0.1000" fill="currentColor"/>
<rect transform="translate(0.5691, 38.0000)" x="80.3384" y="-0.1000" width="1.7410" height="0.2000" ry="0.1000" fill="currentColor"/>
<rect transform="translate(0.5691, 39.0000)" x="80.3384" y="-0.1000" width="1.7410" height="0.2000" ry="0.1000" fill="currentColor"/>
<rect transform="translate(0.5691, 38.0000)" x="77.8577" y="-0.1000" width="1.7410" height="0.2000" ry="0.1000" fill="currentColor"/>
<rect transform="translate(0.5691, 39.0000)" x="77.8577" y="-0.1000" width="1.7410" height="0.2000" ry="0.1000" fill="currentColor"/>
<rect transform="translate(0.5691, 38.0000)" x="75.6270" y="-0.1000" width="1.7410" height="0.2000" ry="0.1000" fill="currentColor"/>
<rect transform="translate(0.5691, 38.0000)" x="73.1463" y="-0.1000" width="1.7410" height="0.2000" ry="0.1000" fill="currentColor"/>
<rect transform="translate(0.5691, 38.0000)" x="70.6656" y="-0.1000" width="1.7410" height="0.2000" ry="0.1000" fill="currentColor"/>
<rect transform="translate(0.5691, 38.0000)" x="68.3000" y="-0.1000" width="1.6258" height="0.2000" ry="0.1000" fill="currentColor"/>
<rect transform="translate(0.5691, 38.0000)" x="65.1742" y="-0.1000" width="1.7410" height="0.2000" ry="0.1000" fill="currentColor"/>
<rect transform="translate(0.5691, 38.0000)" x="62.6935" y="-0.1000" width="1.7410" height="0.2000" ry="0.1000" fill="currentColor"/>
<rect transform="translate(0.5691, 38.0000)" x="60.2128" y="-0.1000" width="1.7410" height="0.2000" ry="0.1000" fill="currentColor"/>
<rect transform="translate(0.5691, 38.0000)" x="57.7321" y="-0.1000" width="1.7410" height="0.2000" ry="0.1000" fill="currentColor"/>
<rect transform="translate(0.5691, 38.0000)" x="32.0756" y="-0.1000" width="1.7410" height="0.2000" ry="0.1000" fill="currentColor"/>
<rect transform="translate(0.5691, 39.0000)" x="32.0756" y="-0.1000" width="1.7410" height="0.2000" ry="0.1000" fill="currentColor"/>
<rect transform="translate(0.5691, 38.0000)" x="28.7549" y="-0.1000" width="1.7410" height="0.2000" ry="0.1000" fill="currentColor"/>
<rect transform="translate(0.5691, 39.0000)" x="28.7549" y="-0.1000" width="1.7410" height="0.2000" ry="0.1000" fill="currentColor"/>
<rect transform="translate(0.5691, 38.0000)" x="25.4342" y="-0.1000" width="1.7410" height="0.2000" ry="0.1000" fill="currentColor"/>
<rect transform="translate(0.5691, 39.0000)" x="25.5494" y="-0.1000" width="1.6258" height="0.2000" ry="0.1000" fill="currentColor"/>
<rect transform="translate(0.5691, 38.0000)" x="22.1135" y="-0.1000" width="1.7410" height="0.2000" ry="0.1000" fill="currentColor"/>
<rect transform="translate(0.5691, 39.0000)" x="22.1135" y="-0.1000" width="1.7410" height="0.2000" ry="0.1000" fill="currentColor"/>
<rect transform="translate(0.5691, 38.0000)" x="18.7927" y="-0.1000" width="1.7410" height="0.2000" ry="0.1000" fill="currentColor"/>
<rect transform="translate(0.5691, 39.0000)" x="18.7927" y="-0.1000" width="1.7410" height="0.2000" ry="0.1000" fill="currentColor"/>
<rect transform="translate(0.5691, 38.0000)" x="15.4720" y="-0.1000" width="1.7410" height="0.2000" ry="0.1000" fill="currentColor"/>
<rect transform="translate(0.5691, 39.0000)" x="15.4720" y="-0.1000" width="1.7410" height="0.2000" ry="0.1000" fill="currentColor"/>
<rect transform="translate(0.5691, 38.0000)" x="12.1513" y="-0.1000" width="1.7410" height="0.2000" ry="0.1000" fill="currentColor"/>
<rect transform="translate(0.5691, 39.0000)" x="12.1513" y="-0.1000" width="1.7410" height="0.2000" ry="0.1000" fill="currentColor"/>
<rect transform="translate(0.5691, 38.0000)" x="8.8306" y="-0.1000" width="1.7410" height="0.2000" ry="0.1000" fill="currentColor"/>
<rect transform="translate(0.5691, 39.0000)" x="8.8306" y="-0.1000" width="1.7410" height="0.2000" ry="0.1000" fill="currentColor"/>
<rect transform="translate(0.5691, 38.0000)" x="5.5098" y="-0.1000" width="1.7410" height="0.2000" ry="0.1000" fill="currentColor"/>
<rect transform="translate(0.5691, 39.0000)" x="5.5098" y="-0.1000" width="1.7410" height="0.2000" ry="0.1000" fill="currentColor"/>
<rect transform="translate(46.6784, 35.0000)" x="0.0000" y="-2.0000" width="0.1900" height="4.0000" ry="0.0000" fill="currentColor"/>
<path transform="translate(88.6398, 34.5000) scale(0.0040, -0.0040)" d="M0 0c0 31 25 56 56 56s56 -25 56 -56s-25 -56 -56 -56s-56 25 -56 56z" fill="currentColor"/>
<path transform="translate(88.6398, 35.5000) scale(0.0040, -0.0040)" d="M0 0c0 31 25 56 56 56s56 -25 56 -56s-25 -56 -56 -56s-56 25 -56 56z" fill="currentColor"/>
<rect transform="translate(89.8798, 35.0000)" x="0.0000" y="-2.0000" width="0.6000" height="4.0000" ry="0.0000" fill="currentColor"/>
<rect transform="translate(89.3898, 35.0000)" x="0.0000" y="-2.0000" width="0.1900" height="4.0000" ry="0.0000" fill="currentColor"/>
<rect transform="translate(37.6013, 35.0000)" x="-0.0650" y="-4.8100" width="0.1300" height="6.6502" ry="0.0400" fill="currentColor"/>
<a style="color:inherit;" xlink:href="textedit:///Users/jwy/Documents/GitHub/sf004/public/pieces/sf004/notation/notes03.ly:134:10:11">
<path transform="translate(36.5056, 37.0000) scale(0.0036, -0.0036)" d="M215 137c57 0 111 -29 111 -92c0 -71 -54 -120 -101 -148c-35 -21 -74 -34 -114 -34c-57 0 -111 29 -111 92c0 71 54 120 101 148c35 21 74 34 114 34z" fill="currentColor"/>
</a>
<rect transform="translate(34.0305, 35.0000)" x="-0.0650" y="-2.1900" width="0.1300" height="6.5302" ry="0.0400" fill="currentColor"/>
<a style="color:inherit;" xlink:href="textedit:///Users/jwy/Documents/GitHub/sf004/public/pieces/sf004/notation/notes03.ly:133:32:33">
<path transform="translate(32.9349, 39.5000) scale(0.0036, -0.0036)" d="M215 137c57 0 111 -29 111 -92c0 -71 -54 -120 -101 -148c-35 -21 -74 -34 -114 -34c-57 0 -111 29 -111 92c0 71 54 120 101 148c35 21 74 34 114 34z" fill="currentColor"/>
</a>
<a style="color:inherit;" xlink:href="textedit:///Users/jwy/Documents/GitHub/sf004/public/pieces/sf004/notation/notes03.ly:133:28:29">
<path transform="translate(29.6141, 39.5000) scale(0.0036, -0.0036)" d="M215 137c57 0 111 -29 111 -92c0 -71 -54 -120 -101 -148c-35 -21 -74 -34 -114 -34c-57 0 -111 29 -111 92c0 71 54 120 101 148c35 21 74 34 114 34z" fill="currentColor"/>
</a>
<a style="color:inherit;" xlink:href="textedit:///Users/jwy/Documents/GitHub/sf004/public/pieces/sf004/notation/notes03.ly:134:15:16">
<path transform="translate(38.9863, 37.0000) scale(0.0036, -0.0036)" d="M215 137c57 0 111 -29 111 -92c0 -71 -54 -120 -101 -148c-35 -21 -74 -34 -114 -34c-57 0 -111 29 -111 92c0 71 54 120 101 148c35 21 74 34 114 34z" fill="currentColor"/>
</a>
<rect transform="translate(40.0820, 35.0000)" x="-0.0650" y="-4.8100" width="0.1300" height="6.6502" ry="0.0400" fill="currentColor"/>
<a style="color:inherit;" xlink:href="textedit:///Users/jwy/Documents/GitHub/sf004/public/pieces/sf004/notation/notes03.ly:134:17:18">
<path transform="translate(41.4670, 37.0000) scale(0.0036, -0.0036)" d="M215 137c57 0 111 -29 111 -92c0 -71 -54 -120 -101 -148c-35 -21 -74 -34 -114 -34c-57 0 -111 29 -111 92c0 71 54 120 101 148c35 21 74 34 114 34z" fill="currentColor"/>
</a>
<rect transform="translate(42.5627, 35.0000)" x="-0.0650" y="-4.8100" width="0.1300" height="6.6502" ry="0.0400" fill="currentColor"/>
<a style="color:inherit;" xlink:href="textedit:///Users/jwy/Documents/GitHub/sf004/public/pieces/sf004/notation/notes03.ly:134:19:20">
<path transform="translate(43.9477, 37.0000) scale(0.0036, -0.0036)" d="M215 137c57 0 111 -29 111 -92c0 -71 -54 -120 -101 -148c-35 -21 -74 -34 -114 -34c-57 0 -111 29 -111 92c0 71 54 120 101 148c35 21 74 34 114 34z" fill="currentColor"/>
</a>
<a style="color:inherit;" xlink:href="textedit:///Users/jwy/Documents/GitHub/sf004/public/pieces/sf004/notation/notes03.ly:132:28:29">
<path transform="translate(22.9727, 39.5000) scale(0.0036, -0.0036)" d="M215 137c57 0 111 -29 111 -92c0 -71 -54 -120 -101 -148c-35 -21 -74 -34 -114 -34c-57 0 -111 29 -111 92c0 71 54 120 101 148c35 21 74 34 114 34z" fill="currentColor"/>
</a>
<a style="color:inherit;" xlink:href="textedit:///Users/jwy/Documents/GitHub/sf004/public/pieces/sf004/notation/notes03.ly:132:23:24">
<path transform="translate(16.3312, 39.5000) scale(0.0036, -0.0036)" d="M215 137c57 0 111 -29 111 -92c0 -71 -54 -120 -101 -148c-35 -21 -74 -34 -114 -34c-57 0 -111 29 -111 92c0 71 54 120 101 148c35 21 74 34 114 34z" fill="currentColor"/>
</a>
<rect transform="translate(17.4269, 35.0000)" x="-0.0650" y="-2.1900" width="0.1300" height="6.5302" ry="0.0400" fill="currentColor"/>
<a style="color:inherit;" xlink:href="textedit:///Users/jwy/Documents/GitHub/sf004/public/pieces/sf004/notation/notes03.ly:132:26:27">
<path transform="translate(19.6520, 39.5000) scale(0.0036, -0.0036)" d="M215 137c57 0 111 -29 111 -92c0 -71 -54 -120 -101 -148c-35 -21 -74 -34 -114 -34c-57 0 -111 29 -111 92c0 71 54 120 101 148c35 21 74 34 114 34z" fill="currentColor"/>
</a>
<rect transform="translate(20.7476, 35.0000)" x="-0.0650" y="-2.1900" width="0.1300" height="6.5302" ry="0.0400" fill="currentColor"/>
<rect transform="translate(30.7098, 35.0000)" x="-0.0650" y="-2.1900" width="0.1300" height="6.5302" ry="0.0400" fill="currentColor"/>
<rect transform="translate(24.0684, 35.0000)" x="-0.0650" y="-2.1900" width="0.1300" height="6.5302" ry="0.0400" fill="currentColor"/>
<a style="color:inherit;" xlink:href="textedit:///Users/jwy/Documents/GitHub/sf004/public/pieces/sf004/notation/notes03.ly:133:23:24">
<path transform="translate(26.2934, 39.5000) scale(0.0036, -0.0036)" d="M215 137c57 0 111 -29 111 -92c0 -71 -54 -120 -101 -148c-35 -21 -74 -34 -114 -34c-57 0 -111 29 -111 92c0 71 54 120 101 148c35 21 74 34 114 34z" fill="currentColor"/>
</a>
<rect transform="translate(27.3891, 35.0000)" x="-0.0650" y="-2.1900" width="0.1300" height="6.5302" ry="0.0400" fill="currentColor"/>
<path transform="translate(24.8434, 39.5000) scale(0.0040, -0.0040)" d="M216 -312c0 -10 -8 -19 -18 -19s-19 9 -19 19v145l-83 -31v-158c0 -10 -9 -19 -19 -19s-18 9 -18 19v145l-32 -12c-2 -1 -5 -1 -7 -1c-11 0 -20 9 -20 20v60c0 8 5 16 13 19l46 16v160l-32 -11c-2 -1 -5 -1 -7 -1c-11 0 -20 9 -20 20v60c0 8 5 15 13 18l46 17v158
c0 10 8 19 18 19s19 -9 19 -19v-145l83 31v158c0 10 9 19 19 19s18 -9 18 -19v-145l32 12c2 1 5 1 7 1c11 0 20 -9 20 -20v-60c0 -8 -5 -16 -13 -19l-46 -16v-160l32 11c2 1 5 1 7 1c11 0 20 -9 20 -20v-60c0 -8 -5 -15 -13 -18l-46 -17v-158zM96 65v-160l83 30v160z" fill="currentColor"/>
<a style="color:inherit;" xlink:href="textedit:///Users/jwy/Documents/GitHub/sf004/public/pieces/sf004/notation/notes03.ly:136:27:28">
<path transform="translate(56.3606, 36.5000) scale(0.0036, -0.0036)" d="M215 137c57 0 111 -29 111 -92c0 -71 -54 -120 -101 -148c-35 -21 -74 -34 -114 -34c-57 0 -111 29 -111 92c0 71 54 120 101 148c35 21 74 34 114 34z" fill="currentColor"/>
</a>
<rect transform="translate(57.4562, 35.0000)" x="-0.0650" y="-5.1900" width="0.1300" height="6.5302" ry="0.0400" fill="currentColor"/>
<a style="color:inherit;" xlink:href="textedit:///Users/jwy/Documents/GitHub/sf004/public/pieces/sf004/notation/notes03.ly:137:10:11">
<path transform="translate(58.5913, 38.0000) scale(0.0036, -0.0036)" d="M215 137c57 0 111 -29 111 -92c0 -71 -54 -120 -101 -148c-35 -21 -74 -34 -114 -34c-57 0 -111 29 -111 92c0 71 54 120 101 148c35 21 74 34 114 34z" fill="currentColor"/>
</a>
<rect transform="translate(59.6869, 35.0000)" x="-0.0650" y="-3.8100" width="0.1300" height="6.6502" ry="0.0400" fill="currentColor"/>
<rect transform="translate(54.9755, 35.0000)" x="-0.0650" y="-5.1900" width="0.1300" height="6.5302" ry="0.0400" fill="currentColor"/>
<polygon transform="translate(79.7476, 32.1900)" stroke-linejoin="round" stroke-linecap="round" stroke-width="0.0800" fill="currentColor" stroke="currentColor" points="7.5321 -0.2000 7.5321 0.2000 0.0400 0.2000 0.0400 -0.2000"/>
<polygon transform="translate(79.7476, 33.0000)" stroke-linejoin="round" stroke-linecap="round" stroke-width="0.0800" fill="currentColor" stroke="currentColor" points="7.5321 -0.2000 7.5321 0.2000 0.0400 0.2000 0.0400 -0.2000"/>
<polygon transform="translate(70.0747, 31.1900)" stroke-linejoin="round" stroke-linecap="round" stroke-width="0.0800" fill="currentColor" stroke="currentColor" points="7.5321 -0.2000 7.5321 0.2000 0.0400 0.2000 0.0400 -0.2000"/>
<polygon transform="translate(70.0747, 32.0000)" stroke-linejoin="round" stroke-linecap="round" stroke-width="0.0800" fill="currentColor" stroke="currentColor" points="7.5321 -0.2000 7.5321 0.2000 0.0400 0.2000 0.0400 -0.2000"/>
<polygon transform="translate(59.6219, 31.1900)" stroke-linejoin="round" stroke-linecap="round" stroke-width="0.0800" fill="currentColor" stroke="currentColor" points="7.5321 -0.2000 7.5321 0.2000 0.0400 0.2000 0.0400 -0.2000"/>
<polygon transform="translate(59.6219, 32.0000)" stroke-linejoin="round" stroke-linecap="round" stroke-width="0.0800" fill="currentColor" stroke="currentColor" points="7.5321 -0.2000 7.5321 0.2000 0.0400 0.2000 0.0400 -0.2000"/>
<polygon transform="translate(49.9491, 29.8100)" stroke-linejoin="round" stroke-linecap="round" stroke-width="0.0800" fill="currentColor" stroke="currentColor" points="7.5321 -0.2000 7.5321 0.2000 0.0400 0.2000 0.0400 -0.2000"/>
<polygon transform="translate(49.9491, 30.6200)" stroke-linejoin="round" stroke-linecap="round" stroke-width="0.0800" fill="currentColor" stroke="currentColor" points="7.5321 -0.2000 7.5321 0.2000 0.0400 0.2000 0.0400 -0.2000"/>
<polygon transform="translate(37.5363, 30.1900)" stroke-linejoin="round" stroke-linecap="round" stroke-width="0.0800" fill="currentColor" stroke="currentColor" points="7.5321 -0.2000 7.5321 0.2000 0.0400 0.2000 0.0400 -0.2000"/>
<polygon transform="translate(37.5363, 31.0000)" stroke-linejoin="round" stroke-linecap="round" stroke-width="0.0800" fill="currentColor" stroke="currentColor" points="7.5321 -0.2000 7.5321 0.2000 0.0400 0.2000 0.0400 -0.2000"/>
<polygon transform="translate(27.3241, 32.8100)" stroke-linejoin="round" stroke-linecap="round" stroke-width="0.0800" fill="currentColor" stroke="currentColor" points="6.7315 -0.2000 6.7315 0.2000 0.0400 0.2000 0.0400 -0.2000"/>
<polygon transform="translate(17.3619, 32.8100)" stroke-linejoin="round" stroke-linecap="round" stroke-width="0.0800" fill="currentColor" stroke="currentColor" points="6.7315 -0.2000 6.7315 0.2000 0.0400 0.2000 0.0400 -0.2000"/>
<a style="color:inherit;" xlink:href="textedit:///Users/jwy/Documents/GitHub/sf004/public/pieces/sf004/notation/notes03.ly:133:10:11">
<text transform="translate(30.2659, 32.0504)" font-family="serif" font-style="italic" font-size="1.7461" text-anchor="start" fill="currentColor">
<tspan>3</tspan>
</text>
</a>
<a style="color:inherit;" xlink:href="textedit:///Users/jwy/Documents/GitHub/sf004/public/pieces/sf004/notation/notes03.ly:133:10:11">
<line transform="translate(27.3241, 31.4700)" stroke-linejoin="round" stroke-linecap="round" stroke-width="0.1600" stroke="currentColor" x1="6.9715" y1="-0.0000" x2="6.9715" y2="0.7000"/>
<line transform="translate(27.3241, 31.4700)" stroke-linejoin="round" stroke-linecap="round" stroke-width="0.1600" stroke="currentColor" x1="-0.2000" y1="-0.0000" x2="-0.2000" y2="0.7000"/>
<line transform="translate(27.3241, 31.4700)" stroke-linejoin="round" stroke-linecap="round" stroke-width="0.1600" stroke="currentColor" x1="6.9715" y1="-0.0000" x2="4.4296" y2="-0.0000"/>
<line transform="translate(27.3241, 31.4700)" stroke-linejoin="round" stroke-linecap="round" stroke-width="0.1600" stroke="currentColor" x1="-0.2000" y1="-0.0000" x2="2.5419" y2="-0.0000"/>
</a>
<polygon transform="translate(7.3997, 32.1900)" stroke-linejoin="round" stroke-linecap="round" stroke-width="0.0800" fill="currentColor" stroke="currentColor" points="6.7315 -0.2000 6.7315 0.2000 0.0400 0.2000 0.0400 -0.2000"/>
<a style="color:inherit;" xlink:href="textedit:///Users/jwy/Documents/GitHub/sf004/public/pieces/sf004/notation/notes03.ly:132:10:11">
<text transform="translate(20.3038, 32.0504)" font-family="serif" font-style="italic" font-size="1.7461" text-anchor="start" fill="currentColor">
<tspan>3</tspan>
</text>
</a>
<a style="color:inherit;" xlink:href="textedit:///Users/jwy/Documents/GitHub/sf004/public/pieces/sf004/notation/notes03.ly:132:10:11">
<line transform="translate(17.3619, 31.4700)" stroke-linejoin="round" stroke-linecap="round" stroke-width="0.1600" stroke="currentColor" x1="6.9715" y1="-0.0000" x2="6.9715" y2="0.7000"/>
<line transform="translate(17.3619, 31.4700)" stroke-linejoin="round" stroke-linecap="round" stroke-width="0.1600" stroke="currentColor" x1="-0.2000" y1="-0.0000" x2="-0.2000" y2="0.7000"/>
<line transform="translate(17.3619, 31.4700)" stroke-linejoin="round" stroke-linecap="round" stroke-width="0.1600" stroke="currentColor" x1="6.9715" y1="-0.0000" x2="4.4296" y2="-0.0000"/>
<line transform="translate(17.3619, 31.4700)" stroke-linejoin="round" stroke-linecap="round" stroke-width="0.1600" stroke="currentColor" x1="-0.2000" y1="-0.0000" x2="2.5419" y2="-0.0000"/>
</a>
<a style="color:inherit;" xlink:href="textedit:///Users/jwy/Documents/GitHub/sf004/public/pieces/sf004/notation/notes03.ly:131:10:11">
<text transform="translate(10.3416, 31.4304)" font-family="serif" font-style="italic" font-size="1.7461" text-anchor="start" fill="currentColor">
<tspan>3</tspan>
</text>
</a>
<a style="color:inherit;" xlink:href="textedit:///Users/jwy/Documents/GitHub/sf004/public/pieces/sf004/notation/notes03.ly:131:10:11">
<line transform="translate(7.3997, 30.8500)" stroke-linejoin="round" stroke-linecap="round" stroke-width="0.1600" stroke="currentColor" x1="6.9715" y1="-0.0000" x2="6.9715" y2="0.7000"/>
<line transform="translate(7.3997, 30.8500)" stroke-linejoin="round" stroke-linecap="round" stroke-width="0.1600" stroke="currentColor" x1="-0.2000" y1="-0.0000" x2="-0.2000" y2="0.7000"/>
<line transform="translate(7.3997, 30.8500)" stroke-linejoin="round" stroke-linecap="round" stroke-width="0.1600" stroke="currentColor" x1="6.9715" y1="-0.0000" x2="4.4296" y2="-0.0000"/>
<line transform="translate(7.3997, 30.8500)" stroke-linejoin="round" stroke-linecap="round" stroke-width="0.1600" stroke="currentColor" x1="-0.2000" y1="-0.0000" x2="2.5419" y2="-0.0000"/>
</a>
<path transform="translate(47.4684, 36.5000) scale(0.0040, -0.0040)" d="M216 -312c0 -10 -8 -19 -18 -19s-19 9 -19 19v145l-83 -31v-158c0 -10 -9 -19 -19 -19s-18 9 -18 19v145l-32 -12c-2 -1 -5 -1 -7 -1c-11 0 -20 9 -20 20v60c0 8 5 16 13 19l46 16v160l-32 -11c-2 -1 -5 -1 -7 -1c-11 0 -20 9 -20 20v60c0 8 5 15 13 18l46 17v158
c0 10 8 19 18 19s19 -9 19 -19v-145l83 31v158c0 10 9 19 19 19s18 -9 18 -19v-145l32 12c2 1 5 1 7 1c11 0 20 -9 20 -20v-60c0 -8 -5 -16 -13 -19l-46 -16v-160l32 11c2 1 5 1 7 1c11 0 20 -9 20 -20v-60c0 -8 -5 -15 -13 -18l-46 -17v-158zM96 65v-160l83 30v160z" fill="currentColor"/>
<a style="color:inherit;" xlink:href="textedit:///Users/jwy/Documents/GitHub/sf004/public/pieces/sf004/notation/notes03.ly:136:10:11">
<path transform="translate(48.9184, 36.5000) scale(0.0036, -0.0036)" d="M215 137c57 0 111 -29 111 -92c0 -71 -54 -120 -101 -148c-35 -21 -74 -34 -114 -34c-57 0 -111 29 -111 92c0 71 54 120 101 148c35 21 74 34 114 34z" fill="currentColor"/>
</a>
<rect transform="translate(50.0141, 35.0000)" x="-0.0650" y="-5.1900" width="0.1300" height="6.5302" ry="0.0400" fill="currentColor"/>
<rect transform="translate(45.0434, 35.0000)" x="-0.0650" y="-4.8100" width="0.1300" height="6.6502" ry="0.0400" fill="currentColor"/>
<a style="color:inherit;" xlink:href="textedit:///Users/jwy/Documents/GitHub/sf004/public/pieces/sf004/notation/notes03.ly:136:17:18">
<path transform="translate(51.3991, 36.5000) scale(0.0036, -0.0036)" d="M215 137c57 0 111 -29 111 -92c0 -71 -54 -120 -101 -148c-35 -21 -74 -34 -114 -34c-57 0 -111 29 -111 92c0 71 54 120 101 148c35 21 74 34 114 34z" fill="currentColor"/>
</a>
<rect transform="translate(52.4948, 35.0000)" x="-0.0650" y="-5.1900" width="0.1300" height="6.5302" ry="0.0400" fill="currentColor"/>
<a style="color:inherit;" xlink:href="textedit:///Users/jwy/Documents/GitHub/sf004/public/pieces/sf004/notation/notes03.ly:136:22:23">
<path transform="translate(53.8799, 36.5000) scale(0.0036, -0.0036)" d="M215 137c57 0 111 -29 111 -92c0 -71 -54 -120 -101 -148c-35 -21 -74 -34 -114 -34c-57 0 -111 29 -111 92c0 71 54 120 101 148c35 21 74 34 114 34z" fill="currentColor"/>
</a>
<a style="color:inherit;" xlink:href="textedit:///Users/jwy/Documents/GitHub/sf004/public/pieces/sf004/notation/notes03.ly:138:10:11">
<path transform="translate(69.0441, 38.0000) scale(0.0036, -0.0036)" d="M215 137c57 0 111 -29 111 -92c0 -71 -54 -120 -101 -148c-35 -21 -74 -34 -114 -34c-57 0 -111 29 -111 92c0 71 54 120 101 148c35 21 74 34 114 34z" fill="currentColor"/>
</a>
<rect transform="translate(70.1397, 35.0000)" x="-0.0650" y="-3.8100" width="0.1300" height="6.6502" ry="0.0400" fill="currentColor"/>
<path transform="translate(67.5941, 38.0000) scale(0.0040, -0.0040)" d="M216 -312c0 -10 -8 -19 -18 -19s-19 9 -19 19v145l-83 -31v-158c0 -10 -9 -19 -19 -19s-18 9 -18 19v145l-32 -12c-2 -1 -5 -1 -7 -1c-11 0 -20 9 -20 20v60c0 8 5 16 13 19l46 16v160l-32 -11c-2 -1 -5 -1 -7 -1c-11 0 -20 9 -20 20v60c0 8 5 15 13 18l46 17v158
c0 10 8 19 18 19s19 -9 19 -19v-145l83 31v158c0 10 9 19 19 19s18 -9 18 -19v-145l32 12c2 1 5 1 7 1c11 0 20 -9 20 -20v-60c0 -8 -5 -16 -13 -19l-46 -16v-160l32 11c2 1 5 1 7 1c11 0 20 -9 20 -20v-60c0 -8 -5 -15 -13 -18l-46 -17v-158zM96 65v-160l83 30v160z" fill="currentColor"/>
<a style="color:inherit;" xlink:href="textedit:///Users/jwy/Documents/GitHub/sf004/public/pieces/sf004/notation/notes03.ly:138:17:18">
<path transform="translate(71.5248, 38.0000) scale(0.0036, -0.0036)" d="M215 137c57 0 111 -29 111 -92c0 -71 -54 -120 -101 -148c-35 -21 -74 -34 -114 -34c-57 0 -111 29 -111 92c0 71 54 120 101 148c35 21 74 34 114 34z" fill="currentColor"/>
</a>
<rect transform="translate(72.6205, 35.0000)" x="-0.0650" y="-3.8100" width="0.1300" height="6.6502" ry="0.0400" fill="currentColor"/>
<a style="color:inherit;" xlink:href="textedit:///Users/jwy/Documents/GitHub/sf004/public/pieces/sf004/notation/notes03.ly:138:22:23">
<path transform="translate(74.0055, 38.0000) scale(0.0036, -0.0036)" d="M215 137c57 0 111 -29 111 -92c0 -71 -54 -120 -101 -148c-35 -21 -74 -34 -114 -34c-57 0 -111 29 -111 92c0 71 54 120 101 148c35 21 74 34 114 34z" fill="currentColor"/>
</a>
<rect transform="translate(75.1012, 35.0000)" x="-0.0650" y="-3.8100" width="0.1300" height="6.6502" ry="0.0400" fill="currentColor"/>
<rect transform="translate(77.5819, 35.0000)" x="-0.0650" y="-3.8100" width="0.1300" height="6.6502" ry="0.0400" fill="currentColor"/>
<rect transform="translate(10.7854, 35.0000)" x="-0.0650" y="-2.8100" width="0.1300" height="6.6502" ry="0.0400" fill="currentColor"/>
<a style="color:inherit;" xlink:href="textedit:///Users/jwy/Documents/GitHub/sf004/public/pieces/sf004/notation/notes03.ly:137:15:16">
<path transform="translate(61.0720, 38.0000) scale(0.0036, -0.0036)" d="M215 137c57 0 111 -29 111 -92c0 -71 -54 -120 -101 -148c-35 -21 -74 -34 -114 -34c-57 0 -111 29 -111 92c0 71 54 120 101 148c35 21 74 34 114 34z" fill="currentColor"/>
</a>
<path transform="translate(1.3691, 36.0000) scale(0.0040, -0.0040)" d="M376 262c4 0 9 1 13 1c155 0 256 -128 256 -261c0 -76 -33 -154 -107 -210c-22 -17 -47 -28 -73 -36c3 -35 5 -70 5 -105c0 -19 -1 -39 -2 -58c-7 -120 -90 -228 -208 -228c-108 0 -195 88 -195 197c0 58 53 103 112 103c54 0 95 -47 95 -103c0 -52 -43 -95 -95 -95
c-11 0 -21 2 -31 6c26 -39 68 -65 117 -65c96 0 157 92 163 191c1 18 2 37 2 55c0 31 -1 61 -4 92c-29 -5 -58 -8 -89 -8c-188 0 -333 172 -333 374c0 177 131 306 248 441c-19 62 -37 125 -45 190c-6 52 -7 104 -7 156c0 115 55 224 149 292c3 2 7 3 10 3c4 0 7 0 10 -3
c71 -84 133 -245 133 -358c0 -143 -86 -255 -180 -364c21 -68 39 -138 56 -207zM461 -203c68 24 113 95 113 164c0 90 -66 179 -173 190c24 -116 46 -231 60 -354zM74 28c0 -135 129 -247 264 -247c28 0 55 2 82 6c-14 127 -37 245 -63 364c-79 -8 -124 -61 -124 -119
c0 -44 25 -91 81 -123c5 -5 7 -10 7 -15c0 -11 -10 -22 -22 -22c-3 0 -6 1 -9 2c-80 43 -117 115 -117 185c0 88 58 174 160 197c-14 58 -29 117 -46 175c-107 -121 -213 -243 -213 -403zM408 1045c-99 -48 -162 -149 -162 -259c0 -74 18 -133 36 -194
c80 97 146 198 146 324c0 55 -4 79 -20 129z" fill="currentColor"/>
<a style="color:inherit;" xlink:href="textedit:///Users/jwy/Documents/GitHub/sf004/public/pieces/sf004/notation/notes03.ly:138:27:28">
<path transform="translate(76.4862, 38.0000) scale(0.0036, -0.0036)" d="M215 137c57 0 111 -29 111 -92c0 -71 -54 -120 -101 -148c-35 -21 -74 -34 -114 -34c-57 0 -111 29 -111 92c0 71 54 120 101 148c35 21 74 34 114 34z" fill="currentColor"/>
</a>
<rect transform="translate(62.1677, 35.0000)" x="-0.0650" y="-3.8100" width="0.1300" height="6.6502" ry="0.0400" fill="currentColor"/>
<a style="color:inherit;" xlink:href="textedit:///Users/jwy/Documents/GitHub/sf004/public/pieces/sf004/notation/notes03.ly:137:18:19">
<path transform="translate(63.5527, 38.0000) scale(0.0036, -0.0036)" d="M215 137c57 0 111 -29 111 -92c0 -71 -54 -120 -101 -148c-35 -21 -74 -34 -114 -34c-57 0 -111 29 -111 92c0 71 54 120 101 148c35 21 74 34 114 34z" fill="currentColor"/>
</a>
<rect transform="translate(64.6484, 35.0000)" x="-0.0650" y="-3.8100" width="0.1300" height="6.6502" ry="0.0400" fill="currentColor"/>
<a style="color:inherit;" xlink:href="textedit:///Users/jwy/Documents/GitHub/sf004/public/pieces/sf004/notation/notes03.ly:137:21:22">
<path transform="translate(66.0334, 38.0000) scale(0.0036, -0.0036)" d="M215 137c57 0 111 -29 111 -92c0 -71 -54 -120 -101 -148c-35 -21 -74 -34 -114 -34c-57 0 -111 29 -111 92c0 71 54 120 101 148c35 21 74 34 114 34z" fill="currentColor"/>
</a>
<rect transform="translate(67.1291, 35.0000)" x="-0.0650" y="-3.8100" width="0.1300" height="6.6502" ry="0.0400" fill="currentColor"/>
<rect transform="translate(84.7740, 35.0000)" x="-0.0650" y="-2.8100" width="0.1300" height="6.6502" ry="0.0400" fill="currentColor"/>
<a style="color:inherit;" xlink:href="textedit:///Users/jwy/Documents/GitHub/sf004/public/pieces/sf004/notation/notes03.ly:139:18:19">
<path transform="translate(86.1591, 39.0000) scale(0.0036, -0.0036)" d="M215 137c57 0 111 -29 111 -92c0 -71 -54 -120 -101 -148c-35 -21 -74 -34 -114 -34c-57 0 -111 29 -111 92c0 71 54 120 101 148c35 21 74 34 114 34z" fill="currentColor"/>
</a>
<rect transform="translate(87.2547, 35.0000)" x="-0.0650" y="-2.8100" width="0.1300" height="6.6502" ry="0.0400" fill="currentColor"/>
<a style="color:inherit;" xlink:href="textedit:///Users/jwy/Documents/GitHub/sf004/public/pieces/sf004/notation/notes03.ly:131:28:29">
<path transform="translate(13.0105, 39.0000) scale(0.0036, -0.0036)" d="M215 137c57 0 111 -29 111 -92c0 -71 -54 -120 -101 -148c-35 -21 -74 -34 -114 -34c-57 0 -111 29 -111 92c0 71 54 120 101 148c35 21 74 34 114 34z" fill="currentColor"/>
</a>
<a style="color:inherit;" xlink:href="textedit:///Users/jwy/Documents/GitHub/sf004/public/pieces/sf004/notation/notes03.ly:131:23:24">
<path transform="translate(6.3691, 39.0000) scale(0.0036, -0.0036)" d="M215 137c57 0 111 -29 111 -92c0 -71 -54 -120 -101 -148c-35 -21 -74 -34 -114 -34c-57 0 -111 29 -111 92c0 71 54 120 101 148c35 21 74 34 114 34z" fill="currentColor"/>
</a>
<rect transform="translate(14.1062, 35.0000)" x="-0.0650" y="-2.8100" width="0.1300" height="6.6502" ry="0.0400" fill="currentColor"/>
<a style="color:inherit;" xlink:href="textedit:///Users/jwy/Documents/GitHub/sf004/public/pieces/sf004/notation/notes03.ly:139:14:15">
<path transform="translate(81.1976, 39.0000) scale(0.0036, -0.0036)" d="M215 137c57 0 111 -29 111 -92c0 -71 -54 -120 -101 -148c-35 -21 -74 -34 -114 -34c-57 0 -111 29 -111 92c0 71 54 120 101 148c35 21 74 34 114 34z" fill="currentColor"/>
</a>
<rect transform="translate(82.2933, 35.0000)" x="-0.0650" y="-2.8100" width="0.1300" height="6.6502" ry="0.0400" fill="currentColor"/>
<rect transform="translate(7.4647, 35.0000)" x="-0.0650" y="-2.8100" width="0.1300" height="6.6502" ry="0.0400" fill="currentColor"/>
<rect transform="translate(79.8126, 35.0000)" x="-0.0650" y="-2.8100" width="0.1300" height="6.6502" ry="0.0400" fill="currentColor"/>
<a style="color:inherit;" xlink:href="textedit:///Users/jwy/Documents/GitHub/sf004/public/pieces/sf004/notation/notes03.ly:131:26:27">
<path transform="translate(9.6898, 39.0000) scale(0.0036, -0.0036)" d="M215 137c57 0 111 -29 111 -92c0 -71 -54 -120 -101 -148c-35 -21 -74 -34 -114 -34c-57 0 -111 29 -111 92c0 71 54 120 101 148c35 21 74 34 114 34z" fill="currentColor"/>
</a>
<a style="color:inherit;" xlink:href="textedit:///Users/jwy/Documents/GitHub/sf004/public/pieces/sf004/notation/notes03.ly:139:10:11">
<path transform="translate(78.7169, 39.0000) scale(0.0036, -0.0036)" d="M215 137c57 0 111 -29 111 -92c0 -71 -54 -120 -101 -148c-35 -21 -74 -34 -114 -34c-57 0 -111 29 -111 92c0 71 54 120 101 148c35 21 74 34 114 34z" fill="currentColor"/>
</a>
<a style="color:inherit;" xlink:href="textedit:///Users/jwy/Documents/GitHub/sf004/public/pieces/sf004/notation/notes03.ly:139:16:17">
<path transform="translate(83.6783, 39.0000) scale(0.0036, -0.0036)" d="M215 137c57 0 111 -29 111 -92c0 -71 -54 -120 -101 -148c-35 -21 -74 -34 -114 -34c-57 0 -111 29 -111 92c0 71 54 120 101 148c35 21 74 34 114 34z" fill="currentColor"/>
</a>
<rect transform="translate(50.0387, 50.0000)" x="-0.0650" y="-4.0000" width="0.1300" height="6.8402" ry="0.0400" fill="currentColor"/>
<a style="color:inherit;" xlink:href="textedit:///Users/jwy/Documents/GitHub/sf004/public/pieces/sf004/notation/notes03.ly:159:17:18">
<path transform="translate(48.9430, 53.0000) scale(0.0036, -0.0036)" d="M215 137c57 0 111 -29 111 -92c0 -71 -54 -120 -101 -148c-35 -21 -74 -34 -114 -34c-57 0 -111 29 -111 92c0 71 54 120 101 148c35 21 74 34 114 34z" fill="currentColor"/>
</a>
<a style="color:inherit;" xlink:href="textedit:///Users/jwy/Documents/GitHub/sf004/public/pieces/sf004/notation/notes03.ly:159:8:9">
<path transform="translate(6.3691, 53.0000) scale(0.0036, -0.0036)" d="M215 137c57 0 111 -29 111 -92c0 -71 -54 -120 -101 -148c-35 -21 -74 -34 -114 -34c-57 0 -111 29 -111 92c0 71 54 120 101 148c35 21 74 34 114 34z" fill="currentColor"/>
</a>
<rect transform="translate(38.6173, 50.0000)" x="-0.0650" y="-4.0000" width="0.1300" height="6.8402" ry="0.0400" fill="currentColor"/>
<a style="color:inherit;" xlink:href="textedit:///Users/jwy/Documents/GitHub/sf004/public/pieces/sf004/notation/notes03.ly:159:15:16">
<path transform="translate(37.5216, 53.0000) scale(0.0036, -0.0036)" d="M215 137c57 0 111 -29 111 -92c0 -71 -54 -120 -101 -148c-35 -21 -74 -34 -114 -34c-57 0 -111 29 -111 92c0 71 54 120 101 148c35 21 74 34 114 34z" fill="currentColor"/>
</a>
<rect transform="translate(28.2331, 50.0000)" x="-0.0650" y="-4.0000" width="0.1300" height="6.8402" ry="0.0400" fill="currentColor"/>
<rect transform="translate(17.8489, 50.0000)" x="-0.0650" y="-4.0000" width="0.1300" height="6.8402" ry="0.0400" fill="currentColor"/>
<a style="color:inherit;" xlink:href="textedit:///Users/jwy/Documents/GitHub/sf004/public/pieces/sf004/notation/notes03.ly:159:11:12">
<path transform="translate(16.7532, 53.0000) scale(0.0036, -0.0036)" d="M215 137c57 0 111 -29 111 -92c0 -71 -54 -120 -101 -148c-35 -21 -74 -34 -114 -34c-57 0 -111 29 -111 92c0 71 54 120 101 148c35 21 74 34 114 34z" fill="currentColor"/>
</a>
<rect transform="translate(60.4229, 50.0000)" x="-0.0650" y="-4.0000" width="0.1300" height="6.8402" ry="0.0400" fill="currentColor"/>
<a style="color:inherit;" xlink:href="textedit:///Users/jwy/Documents/GitHub/sf004/public/pieces/sf004/notation/notes03.ly:159:19:20">
<path transform="translate(59.3272, 53.0000) scale(0.0036, -0.0036)" d="M215 137c57 0 111 -29 111 -92c0 -71 -54 -120 -101 -148c-35 -21 -74 -34 -114 -34c-57 0 -111 29 -111 92c0 71 54 120 101 148c35 21 74 34 114 34z" fill="currentColor"/>
</a>
<a style="color:inherit;" xlink:href="textedit:///Users/jwy/Documents/GitHub/sf004/public/pieces/sf004/notation/notes03.ly:159:13:14">
<path transform="translate(27.1374, 53.0000) scale(0.0036, -0.0036)" d="M215 137c57 0 111 -29 111 -92c0 -71 -54 -120 -101 -148c-35 -21 -74 -34 -114 -34c-57 0 -111 29 -111 92c0 71 54 120 101 148c35 21 74 34 114 34z" fill="currentColor"/>
</a>
<rect transform="translate(7.4647, 50.0000)" x="-0.0650" y="-4.0000" width="0.1300" height="6.8402" ry="0.0400" fill="currentColor"/>
<rect transform="translate(70.8071, 50.0000)" x="-0.0650" y="-4.0000" width="0.1300" height="6.8402" ry="0.0400" fill="currentColor"/>
<a style="color:inherit;" xlink:href="textedit:///Users/jwy/Documents/GitHub/sf004/public/pieces/sf004/notation/notes03.ly:159:21:22">
<path transform="translate(69.7114, 53.0000) scale(0.0036, -0.0036)" d="M215 137c57 0 111 -29 111 -92c0 -71 -54 -120 -101 -148c-35 -21 -74 -34 -114 -34c-57 0 -111 29 -111 92c0 71 54 120 101 148c35 21 74 34 114 34z" fill="currentColor"/>
</a>
<rect transform="translate(81.1912, 50.0000)" x="-0.0650" y="-4.0000" width="0.1300" height="6.8402" ry="0.0400" fill="currentColor"/>
<a style="color:inherit;" xlink:href="textedit:///Users/jwy/Documents/GitHub/sf004/public/pieces/sf004/notation/notes03.ly:159:23:24">
<path transform="translate(80.0956, 53.0000) scale(0.0036, -0.0036)" d="M215 137c57 0 111 -29 111 -92c0 -71 -54 -120 -101 -148c-35 -21 -74 -34 -114 -34c-57 0 -111 29 -111 92c0 71 54 120 101 148c35 21 74 34 114 34z" fill="currentColor"/>
</a>
</svg>
