<?xml version="1.0" encoding="UTF-8" standalone="no"?>
<svg
   xmlns:dc="http://purl.org/dc/elements/1.1/"
   xmlns:cc="http://creativecommons.org/ns#"
   xmlns:rdf="http://www.w3.org/1999/02/22-rdf-syntax-ns#"
   xmlns:svg="http://www.w3.org/2000/svg"
   xmlns="http://www.w3.org/2000/svg"
   xmlns:xlink="http://www.w3.org/1999/xlink"
   id="svg2492"
   version="1.1"
   viewBox="0 0 5.0977535 14.937045"
   height="14.937045mm"
   width="5.0977535mm">
  <defs
     id="defs2486" />
  <metadata
     id="metadata2489">
    <rdf:RDF>
      <cc:Work
         rdf:about="">
        <dc:format>image/svg+xml</dc:format>
        <dc:type
           rdf:resource="http://purl.org/dc/dcmitype/StillImage" />
        <dc:title></dc:title>
      </cc:Work>
    </rdf:RDF>
  </metadata>
  <g
     transform="translate(-103.28446,-140.69814)"
     id="layer1">
    <g
       transform="matrix(1.7572994,0,0,1.7572994,-17.287897,109.9454)"
       id="g950">
      <rect
         id="rect604"
         fill="currentColor"
         ry="0.1"
         height="0.2"
         width="1.7410001"
         y="-0.1"
         x="69.203102"
         transform="translate(0.5691,23)" />
      <rect
         id="rect606"
         fill="currentColor"
         ry="0.1"
         height="0.2"
         width="1.6258"
         y="-0.1"
         x="69.318298"
         transform="translate(0.5691,24)" />
      <a
         id="a642"
         xlink:href="textedit:///Users/jwy/Documents/GitHub/sf004/public/pieces/sf004/notation/notes01.ly:86:10:11"
         style="color:inherit">
        <path
           id="path640"
           fill="currentColor"
           d="m 215,137 c 57,0 111,-29 111,-92 0,-71 -54,-120 -101,-148 -35,-21 -74,-34 -114,-34 -57,0 -111,29 -111,92 0,71 54,120 101,148 35,21 74,34 114,34 z"
           transform="matrix(0.0036,0,0,-0.0036,70.0623,24.5)" />
      </a>
      <path
         id="path648"
         fill="currentColor"
         d="m 216,-312 c 0,-10 -8,-19 -18,-19 -10,0 -19,9 -19,19 v 145 l -83,-31 v -158 c 0,-10 -9,-19 -19,-19 -10,0 -18,9 -18,19 v 145 l -32,-12 c -2,-1 -5,-1 -7,-1 -11,0 -20,9 -20,20 v 60 c 0,8 5,16 13,19 l 46,16 V 51 L 27,40 C 25,39 22,39 20,39 9,39 0,48 0,59 v 60 c 0,8 5,15 13,18 l 46,17 v 158 c 0,10 8,19 18,19 10,0 19,-9 19,-19 V 167 l 83,31 v 158 c 0,10 9,19 19,19 10,0 18,-9 18,-19 V 211 l 32,12 c 2,1 5,1 7,1 11,0 20,-9 20,-20 v -60 c 0,-8 -5,-16 -13,-19 L 216,109 V -51 l 32,11 c 2,1 5,1 7,1 11,0 20,-9 20,-20 v -60 c 0,-8 -5,-15 -13,-18 l -46,-17 z M 96,65 V -95 l 83,30 V 95 Z"
         transform="matrix(0.004,0,0,-0.004,68.6123,24.5)" />
      <rect
         id="rect654"
         fill="currentColor"
         ry="0.039999999"
         height="6.8401999"
         width="0.13"
         y="-2.5"
         x="-0.064999998"
         transform="translate(71.158,20)" />
    </g>
  </g>
</svg>
