<?xml version="1.0" encoding="UTF-8" standalone="no"?>
<svg
   xmlns:dc="http://purl.org/dc/elements/1.1/"
   xmlns:cc="http://creativecommons.org/ns#"
   xmlns:rdf="http://www.w3.org/1999/02/22-rdf-syntax-ns#"
   xmlns:svg="http://www.w3.org/2000/svg"
   xmlns="http://www.w3.org/2000/svg"
   xmlns:xlink="http://www.w3.org/1999/xlink"
   id="svg34"
   viewBox="0 0 6.2594691 6.7593507"
   height="11.878168mm"
   width="10.999784mm"
   version="1.2">
  <metadata
     id="metadata40">
    <rdf:RDF>
      <cc:Work
         rdf:about="">
        <dc:format>image/svg+xml</dc:format>
        <dc:type
           rdf:resource="http://purl.org/dc/dcmitype/StillImage" />
        <dc:title></dc:title>
      </cc:Work>
    </rdf:RDF>
  </metadata>
  <defs
     id="defs38" />
  <style
     id="style10"
     text="style/css"><![CDATA[
tspan { white-space: pre; }
]]></style>
  <!-- Page: 1/1 -->
  <text
     y="-9.7477007"
     x="-6.819579e-05"
     id="text14"
     fill="currentColor"
     text-anchor="start"
     font-size="2.2001px"
     font-family="serif"><tspan
       id="tspan12" /></text>
  <line
     id="line16"
     y2="5.9623966"
     x2="6.2014012"
     y1="5.9623966"
     x1="0.058062688"
     stroke="currentColor"
     stroke-width="0.116162"
     stroke-linecap="round"
     stroke-linejoin="round" />
  <line
     id="line18"
     y2="4.4865561"
     x2="6.2014012"
     y1="4.4865561"
     x1="0.058062688"
     stroke="currentColor"
     stroke-width="0.116162"
     stroke-linecap="round"
     stroke-linejoin="round" />
  <line
     id="line20"
     y2="3.0107155"
     x2="6.2014012"
     y1="3.0107155"
     x1="0.058062688"
     stroke="currentColor"
     stroke-width="0.116162"
     stroke-linecap="round"
     stroke-linejoin="round" />
  <line
     id="line22"
     y2="1.5348749"
     x2="6.2014012"
     y1="1.5348749"
     x1="0.058062688"
     stroke="currentColor"
     stroke-width="0.116162"
     stroke-linecap="round"
     stroke-linejoin="round" />
  <line
     id="line24"
     y2="0.059033386"
     x2="6.2014012"
     y1="0.059033386"
     x1="0.058062688"
     stroke="currentColor"
     stroke-width="0.116162"
     stroke-linecap="round"
     stroke-linejoin="round" />
  <a
     transform="matrix(1.0001528,0,0,0.98389388,-0.56973321,-9.5339317)"
     id="a28"
     xlink:href="textedit:///Users/jwy/Documents/OPUS/GitHub/sf004/public/pieces/sf004/notationArchive/e4_two8ve.ly:85:10:11"
     style="color:inherit">
    <path
       id="path26"
       fill="currentColor"
       d="m 222,135 c 53,0 104,-27 104,-86 0,-71 -56,-120 -103,-148 -36,-22 -76,-36 -118,-36 -53,0 -105,27 -105,86 0,71 57,120 104,148 36,22 76,36 118,36 z"
       transform="matrix(0.006,0,0,-0.006,2.5691,15.75)" />
  </a>
  <a
     transform="matrix(1.0001528,0,0,0.98389388,-0.56973321,-9.5339317)"
     id="a32"
     xlink:href="textedit:///Users/jwy/Documents/OPUS/GitHub/sf004/public/pieces/sf004/notationArchive/e4_two8ve.ly:85:15:16"
     style="color:inherit">
    <path
       id="path30"
       fill="currentColor"
       d="m 222,135 c 53,0 104,-27 104,-86 0,-71 -56,-120 -103,-148 -36,-22 -76,-36 -118,-36 -53,0 -105,27 -105,86 0,71 57,120 104,148 36,22 76,36 118,36 z"
       transform="matrix(0.006,0,0,-0.006,2.5691,10.5)" />
  </a>
</svg>
