<?xml version="1.0" encoding="UTF-8" standalone="no"?>
<svg
   xmlns:dc="http://purl.org/dc/elements/1.1/"
   xmlns:cc="http://creativecommons.org/ns#"
   xmlns:rdf="http://www.w3.org/1999/02/22-rdf-syntax-ns#"
   xmlns:svg="http://www.w3.org/2000/svg"
   xmlns="http://www.w3.org/2000/svg"
   xmlns:xlink="http://www.w3.org/1999/xlink"
   width="10.5in"
   height="7.25in"
   viewBox="0 0 266.70001 184.15"
   version="1.1"
   id="svg994">
  <defs
     id="defs988" />
  <metadata
     id="metadata991">
    <rdf:RDF>
      <cc:Work
         rdf:about="">
        <dc:format>image/svg+xml</dc:format>
        <dc:type
           rdf:resource="http://purl.org/dc/dcmitype/StillImage" />
        <dc:title></dc:title>
      </cc:Work>
    </rdf:RDF>
  </metadata>
  <g
     id="layer1"
     transform="matrix(1.25,0,0,1.25,-122.75129,-176.92355)">
    <g
       id="g5163"
       transform="matrix(1.7572993,0,0,1.7572993,-4.6756633,88.907723)">
      <a
         style="color:inherit"
         xlink:href="textedit:///Users/jwy/Documents/GitHub/sf004/public/pieces/sf004/notation/notes02.ly:116:14:15"
         id="a4778">
        <polygon
           transform="translate(58.9895,30.19)"
           stroke-linejoin="round"
           stroke-linecap="round"
           stroke-width="0.08"
           fill="currentColor"
           stroke="currentColor"
           points="8.1865,0.2 0.04,0.2 0.04,-0.2 8.1865,-0.2 "
           id="polygon4774" />
        <polygon
           transform="translate(66.051,31)"
           stroke-linejoin="round"
           stroke-linecap="round"
           stroke-width="0.08"
           fill="currentColor"
           stroke="currentColor"
           points="1.125,0.2 0.04,0.2 0.04,-0.2 1.125,-0.2 "
           id="polygon4776" />
      </a>
      <a
         style="color:inherit"
         xlink:href="textedit:///Users/jwy/Documents/GitHub/sf004/public/pieces/sf004/notation/notes02.ly:116:10:11"
         id="a4832">
        <path
           transform="matrix(0.004,0,0,-0.004,58.5545,35)"
           d="M 72,-250 189,76 C 155,64 120,54 84,54 38,54 -3,87 -3,133 c 0,40 33,72 73,72 25,0 48,-15 56,-39 10,-28 6,-59 35,-59 16,0 54,48 61,63 6,12 23,12 28,0 L 127,-250 c -8,-7 -17,-10 -27,-10 -10,0 -20,3 -28,10 z"
           fill="currentColor"
           id="path4830" />
      </a>
      <path
         transform="matrix(0.004,0,0,-0.004,60.0045,34.5)"
         d="M 0,0 C 0,31 25,56 56,56 87,56 112,31 112,0 112,-31 87,-56 56,-56 25,-56 0,-31 0,0 Z"
         fill="currentColor"
         id="path4834" />
      <a
         style="color:inherit"
         xlink:href="textedit:///Users/jwy/Documents/GitHub/sf004/public/pieces/sf004/notation/notes02.ly:116:15:16"
         id="a4838">
        <path
           transform="matrix(0.0036,0,0,-0.0036,66.0553,37)"
           d="m 215,137 c 57,0 111,-29 111,-92 0,-71 -54,-120 -101,-148 -35,-21 -74,-34 -114,-34 -57,0 -111,29 -111,92 0,71 54,120 101,148 35,21 74,34 114,34 z"
           fill="currentColor"
           id="path4836" />
      </a>
      <rect
         transform="translate(67.151,35)"
         x="-0.064999998"
         y="-4.8099999"
         width="0.13"
         height="6.6501999"
         ry="0.039999999"
         fill="currentColor"
         id="rect4840" />
    </g>
  </g>
</svg>
