<?xml version="1.0" encoding="UTF-8" standalone="no"?>
<svg
   xmlns:dc="http://purl.org/dc/elements/1.1/"
   xmlns:cc="http://creativecommons.org/ns#"
   xmlns:rdf="http://www.w3.org/1999/02/22-rdf-syntax-ns#"
   xmlns:svg="http://www.w3.org/2000/svg"
   xmlns="http://www.w3.org/2000/svg"
   xmlns:xlink="http://www.w3.org/1999/xlink"
   width="2.5779583mm"
   height="16.459745mm"
   viewBox="0 0 2.5779584 16.459745"
   version="1.1"
   id="svg1063">
  <defs
     id="defs1057" />
  <metadata
     id="metadata1060">
    <rdf:RDF>
      <cc:Work
         rdf:about="">
        <dc:format>image/svg+xml</dc:format>
        <dc:type
           rdf:resource="http://purl.org/dc/dcmitype/StillImage" />
        <dc:title></dc:title>
      </cc:Work>
    </rdf:RDF>
  </metadata>
  <g
     id="layer1"
     transform="matrix(1.25,0,0,1.25,-110.06685,-174.39369)">
    <g
       id="g909"
       transform="matrix(1.7572994,0,0,1.7572994,74.392058,113.15546)">
      <rect
         transform="translate(8.8697,20)"
         x="-0.064999998"
         y="-5"
         width="0.13"
         height="6.8401999"
         ry="0.039999999"
         fill="currentColor"
         id="rect658" />
      <a
         style="color:inherit"
         xlink:href="textedit:///Users/jwy/Documents/GitHub/sf004/public/pieces/sf004/notation/notes01.ly:79:10:11"
         id="a662">
        <path
           transform="matrix(0.0036,0,0,-0.0036,7.7741,22)"
           d="m 215,137 c 57,0 111,-29 111,-92 0,-71 -54,-120 -101,-148 -35,-21 -74,-34 -114,-34 -57,0 -111,29 -111,92 0,71 54,120 101,148 35,21 74,34 114,34 z"
           fill="currentColor"
           id="path660" />
      </a>
    </g>
  </g>
</svg>
