<?xml version="1.0" encoding="UTF-8" standalone="no"?>
<svg
   xmlns:dc="http://purl.org/dc/elements/1.1/"
   xmlns:cc="http://creativecommons.org/ns#"
   xmlns:rdf="http://www.w3.org/1999/02/22-rdf-syntax-ns#"
   xmlns:svg="http://www.w3.org/2000/svg"
   xmlns="http://www.w3.org/2000/svg"
   xmlns:xlink="http://www.w3.org/1999/xlink"
   width="20.363806mm"
   height="20.287823mm"
   viewBox="0 0 20.363805 20.287823"
   version="1.1"
   id="svg3368">
  <defs
     id="defs3362" />
  <metadata
     id="metadata3365">
    <rdf:RDF>
      <cc:Work
         rdf:about="">
        <dc:format>image/svg+xml</dc:format>
        <dc:type
           rdf:resource="http://purl.org/dc/dcmitype/StillImage" />
        <dc:title></dc:title>
      </cc:Work>
    </rdf:RDF>
  </metadata>
  <g
     id="layer1"
     transform="matrix(1.25,0,0,1.25,-598.4213,-387.19257)">
    <g
       transform="matrix(1.7572994,0,0,1.7572994,429.12584,286.45703)"
       id="g5938">
      <rect
         transform="translate(33.2421,20)"
         x="-0.064999998"
         y="-4.8099999"
         width="0.13"
         height="6.6501999"
         ry="0.039999999"
         fill="currentColor"
         id="rect5347" />
      <rect
         transform="translate(35.1995,20)"
         x="-0.064999998"
         y="-4.8099999"
         width="0.13"
         height="6.6501999"
         ry="0.039999999"
         fill="currentColor"
         id="rect5353" />
      <a
         style="color:inherit"
         xlink:href="textedit:///Users/jwy/Documents/GitHub/sf004/public/pieces/sf004/notation/notes04.ly:144:35:36"
         id="a5357">
        <path
           transform="matrix(0.0036,0,0,-0.0036,34.1039,22)"
           d="m 215,137 c 57,0 111,-29 111,-92 0,-71 -54,-120 -101,-148 -35,-21 -74,-34 -114,-34 -57,0 -111,29 -111,92 0,71 54,120 101,148 35,21 74,34 114,34 z"
           fill="currentColor"
           id="path5355" />
      </a>
      <a
         style="color:inherit"
         xlink:href="textedit:///Users/jwy/Documents/GitHub/sf004/public/pieces/sf004/notation/notes04.ly:144:32:33"
         id="a5365">
        <path
           transform="matrix(0.0036,0,0,-0.0036,32.1464,22)"
           d="m 215,137 c 57,0 111,-29 111,-92 0,-71 -54,-120 -101,-148 -35,-21 -74,-34 -114,-34 -57,0 -111,29 -111,92 0,71 54,120 101,148 35,21 74,34 114,34 z"
           fill="currentColor"
           id="path5363" />
      </a>
      <rect
         transform="translate(31.2846,20)"
         x="-0.064999998"
         y="-4.8099999"
         width="0.13"
         height="6.6501999"
         ry="0.039999999"
         fill="currentColor"
         id="rect5367" />
      <a
         style="color:inherit"
         xlink:href="textedit:///Users/jwy/Documents/GitHub/sf004/public/pieces/sf004/notation/notes04.ly:144:29:30"
         id="a5371">
        <path
           transform="matrix(0.0036,0,0,-0.0036,30.1889,22)"
           d="m 215,137 c 57,0 111,-29 111,-92 0,-71 -54,-120 -101,-148 -35,-21 -74,-34 -114,-34 -57,0 -111,29 -111,92 0,71 54,120 101,148 35,21 74,34 114,34 z"
           fill="currentColor"
           id="path5369" />
      </a>
      <a
         style="color:inherit"
         xlink:href="textedit:///Users/jwy/Documents/GitHub/sf004/public/pieces/sf004/notation/notes04.ly:144:11:12"
         id="a5391">
        <line
           transform="translate(29.2621,13.85)"
           stroke-linejoin="round"
           stroke-linecap="round"
           stroke-width="0.16"
           stroke="currentColor"
           x1="8.1598997"
           y1="0"
           x2="8.1598997"
           y2="0.69999999"
           id="line5383" />
        <line
           transform="translate(29.2621,13.85)"
           stroke-linejoin="round"
           stroke-linecap="round"
           stroke-width="0.16"
           stroke="currentColor"
           x1="-0.2"
           y1="0"
           x2="-0.2"
           y2="0.69999999"
           id="line5385" />
        <line
           transform="translate(29.2621,13.85)"
           stroke-linejoin="round"
           stroke-linecap="round"
           stroke-width="0.16"
           stroke="currentColor"
           x1="8.1598997"
           y1="0"
           x2="5.0237999"
           y2="0"
           id="line5387" />
        <line
           transform="translate(29.2621,13.85)"
           stroke-linejoin="round"
           stroke-linecap="round"
           stroke-width="0.16"
           stroke="currentColor"
           x1="-0.2"
           y1="0"
           x2="3.1361001"
           y2="0"
           id="line5389" />
      </a>
      <a
         style="color:inherit"
         xlink:href="textedit:///Users/jwy/Documents/GitHub/sf004/public/pieces/sf004/notation/notes04.ly:144:11:12"
         id="a5397">
        <text
           transform="translate(32.7982,14.4134)"
           font-family="serif"
           font-style="italic"
           font-size="1.7461px"
           text-anchor="start"
           fill="currentColor"
           id="text5395"><tspan
             id="tspan5393">5</tspan></text>
      </a>
      <polygon
         transform="translate(29.2621,15.19)"
         stroke-linejoin="round"
         stroke-linecap="round"
         stroke-width="0.08"
         fill="currentColor"
         stroke="currentColor"
         points="0.04,-0.2 7.9199,-0.2 7.9199,0.2 0.04,0.2 "
         id="polygon5419" />
      <polygon
         transform="translate(29.2621,16)"
         stroke-linejoin="round"
         stroke-linecap="round"
         stroke-width="0.08"
         fill="currentColor"
         stroke="currentColor"
         points="0.04,-0.2 7.9199,-0.2 7.9199,0.2 0.04,0.2 "
         id="polygon5421" />
      <rect
         transform="translate(29.3271,20)"
         x="-0.064999998"
         y="-4.8099999"
         width="0.13"
         height="6.6501999"
         ry="0.039999999"
         fill="currentColor"
         id="rect5513" />
      <a
         style="color:inherit"
         xlink:href="textedit:///Users/jwy/Documents/GitHub/sf004/public/pieces/sf004/notation/notes04.ly:144:24:25"
         id="a5517">
        <path
           transform="matrix(0.0036,0,0,-0.0036,28.2315,22)"
           d="m 215,137 c 57,0 111,-29 111,-92 0,-71 -54,-120 -101,-148 -35,-21 -74,-34 -114,-34 -57,0 -111,29 -111,92 0,71 54,120 101,148 35,21 74,34 114,34 z"
           fill="currentColor"
           id="path5515" />
      </a>
      <rect
         transform="translate(37.157,20)"
         x="-0.064999998"
         y="-4.8099999"
         width="0.13"
         height="6.6501999"
         ry="0.039999999"
         fill="currentColor"
         id="rect5557" />
      <a
         style="color:inherit"
         xlink:href="textedit:///Users/jwy/Documents/GitHub/sf004/public/pieces/sf004/notation/notes04.ly:144:38:39"
         id="a5561">
        <path
           transform="matrix(0.0036,0,0,-0.0036,36.0614,22)"
           d="m 215,137 c 57,0 111,-29 111,-92 0,-71 -54,-120 -101,-148 -35,-21 -74,-34 -114,-34 -57,0 -111,29 -111,92 0,71 54,120 101,148 35,21 74,34 114,34 z"
           fill="currentColor"
           id="path5559" />
      </a>
    </g>
  </g>
</svg>
