<?xml version="1.0" encoding="UTF-8" standalone="no"?>
<svg
   xmlns:dc="http://purl.org/dc/elements/1.1/"
   xmlns:cc="http://creativecommons.org/ns#"
   xmlns:rdf="http://www.w3.org/1999/02/22-rdf-syntax-ns#"
   xmlns:svg="http://www.w3.org/2000/svg"
   xmlns="http://www.w3.org/2000/svg"
   xmlns:xlink="http://www.w3.org/1999/xlink"
   id="svg635"
   viewBox="0 0 6.2595001 6.8010498"
   height="11.951446mm"
   width="10.999784mm"
   version="1.2">
  <metadata
     id="metadata641">
    <rdf:RDF>
      <cc:Work
         rdf:about="">
        <dc:format>image/svg+xml</dc:format>
        <dc:type
           rdf:resource="http://purl.org/dc/dcmitype/StillImage" />
        <dc:title></dc:title>
      </cc:Work>
    </rdf:RDF>
  </metadata>
  <defs
     id="defs639" />
  <style
     id="style597"
     text="style/css"><![CDATA[
tspan { white-space: pre; }
]]></style>
  <!-- Page: 1/1 -->
  <text
     y="-4.999981e-05"
     x="-5.0000846e-05"
     id="text601"
     fill="currentColor"
     text-anchor="start"
     font-size="2.2001px"
     font-family="serif"><tspan
       id="tspan599" /></text>
  <line
     id="line603"
     y2="6.0585499"
     x2="6.2009501"
     y1="6.0585499"
     x1="0.05855"
     stroke="currentColor"
     stroke-width="0.1171"
     stroke-linecap="round"
     stroke-linejoin="round" />
  <line
     id="line605"
     y2="4.5585499"
     x2="6.2009501"
     y1="4.5585499"
     x1="0.05855"
     stroke="currentColor"
     stroke-width="0.1171"
     stroke-linecap="round"
     stroke-linejoin="round" />
  <line
     id="line607"
     y2="3.0585499"
     x2="6.2009501"
     y1="3.0585499"
     x1="0.05855"
     stroke="currentColor"
     stroke-width="0.1171"
     stroke-linecap="round"
     stroke-linejoin="round" />
  <line
     id="line609"
     y2="1.55855"
     x2="6.2009501"
     y1="1.55855"
     x1="0.05855"
     stroke="currentColor"
     stroke-width="0.1171"
     stroke-linecap="round"
     stroke-linejoin="round" />
  <line
     id="line611"
     y2="0.05855"
     x2="6.2009501"
     y1="0.05855"
     x1="0.05855"
     stroke="currentColor"
     stroke-width="0.1171"
     stroke-linecap="round"
     stroke-linejoin="round" />
  <path
     style="stroke-width:0.0038"
     id="path613"
     fill="currentColor"
     d="m 1.43125,4.99415 c 0,0.038 -0.0304,0.0722 -0.0684,0.0722 -0.038,0 -0.0722,-0.0342 -0.0722,-0.0722 v -0.551 l -0.3154,0.1178 v 0.6004 c 0,0.038 -0.0342,0.0722 -0.0722,0.0722 -0.038,0 -0.0684,-0.0342 -0.0684,-0.0722 v -0.551 l -0.1216,0.0456 c -0.0076,0.0038 -0.019,0.0038 -0.0266,0.0038 -0.0418,0 -0.076,-0.0342 -0.076,-0.076 v -0.228 c 0,-0.0304 0.019,-0.0608 0.0494,-0.0722 l 0.1748,-0.0608 v -0.608 l -0.1216,0.0418 c -0.0076,0.0038 -0.019,0.0038 -0.0266,0.0038 -0.0418,0 -0.076,-0.0342 -0.076,-0.076 v -0.228 c 0,-0.0304 0.019,-0.057 0.0494,-0.0684 l 0.1748,-0.0646 v -0.6004 c 0,-0.038 0.0304,-0.0722 0.0684,-0.0722 0.038,0 0.0722,0.0342 0.0722,0.0722 v 0.551 l 0.3154,-0.1178 v -0.6004 c 0,-0.038 0.0342,-0.0722 0.0722,-0.0722 0.038,0 0.0684,0.0342 0.0684,0.0722 v 0.551 l 0.1216,-0.0456 c 0.0076,-0.0038 0.019,-0.0038 0.0266,-0.0038 0.0418,0 0.076,0.0342 0.076,0.076 v 0.228 c 0,0.0304 -0.019,0.0608 -0.0494,0.0722 l -0.1748,0.0608 v 0.608 l 0.1216,-0.0418 c 0.0076,-0.0038 0.019,-0.0038 0.0266,-0.0038 0.0418,0 0.076,0.0342 0.076,0.076 v 0.228 c 0,0.0304 -0.019,0.057 -0.0494,0.0684 l -0.1748,0.0646 z m -0.456,-1.4326 v 0.608 l 0.3154,-0.114 v -0.608 z" />
  <a
     transform="translate(-0.56915,-4.9999809e-5)"
     id="a617"
     xlink:href="textedit:///Users/jwy/Documents/OPUS/GitHub/sf004/public/pieces/sf004/notationArchive/e4_e5_b4cluster.ly:95:24:25"
     style="color:inherit">
    <path
       id="path615"
       fill="currentColor"
       d="m 222,135 c 53,0 104,-27 104,-86 0,-71 -56,-120 -103,-148 -36,-22 -76,-36 -118,-36 -53,0 -105,27 -105,86 0,71 57,120 104,148 36,22 76,36 118,36 z"
       transform="matrix(0.0055,0,0,-0.0055,2.5691,2.3086)" />
  </a>
  <a
     transform="translate(-0.56915,-4.9999809e-5)"
     id="a621"
     xlink:href="textedit:///Users/jwy/Documents/OPUS/GitHub/sf004/public/pieces/sf004/notationArchive/e4_e5_b4cluster.ly:95:10:11"
     style="color:inherit">
    <path
       id="path619"
       fill="currentColor"
       d="m 222,135 c 53,0 104,-27 104,-86 0,-71 -56,-120 -103,-148 -36,-22 -76,-36 -118,-36 -53,0 -105,27 -105,86 0,71 57,120 104,148 36,22 76,36 118,36 z"
       transform="matrix(0.0055,0,0,-0.0055,2.5691,6.0586)" />
  </a>
  <a
     transform="translate(-0.56915,-4.9999809e-5)"
     id="a625"
     xlink:href="textedit:///Users/jwy/Documents/OPUS/GitHub/sf004/public/pieces/sf004/notationArchive/e4_e5_b4cluster.ly:95:16:17"
     style="color:inherit">
    <path
       id="path623"
       fill="currentColor"
       d="m 222,135 c 53,0 104,-27 104,-86 0,-71 -56,-120 -103,-148 -36,-22 -76,-36 -118,-36 -53,0 -105,27 -105,86 0,71 57,120 104,148 36,22 76,36 118,36 z"
       transform="matrix(0.0055,0,0,-0.0055,2.5691,3.8086)" />
  </a>
  <a
     transform="translate(-0.56915,-4.9999809e-5)"
     id="a629"
     xlink:href="textedit:///Users/jwy/Documents/OPUS/GitHub/sf004/public/pieces/sf004/notationArchive/e4_e5_b4cluster.ly:95:21:22"
     style="color:inherit">
    <path
       id="path627"
       fill="currentColor"
       d="m 222,135 c 53,0 104,-27 104,-86 0,-71 -56,-120 -103,-148 -36,-22 -76,-36 -118,-36 -53,0 -105,27 -105,86 0,71 57,120 104,148 36,22 76,36 118,36 z"
       transform="matrix(0.0055,0,0,-0.0055,4.2891,3.0586)" />
  </a>
  <a
     transform="translate(-0.56915,-4.9999809e-5)"
     id="a633"
     xlink:href="textedit:///Users/jwy/Documents/OPUS/GitHub/sf004/public/pieces/sf004/notationArchive/e4_e5_b4cluster.ly:95:29:30"
     style="color:inherit">
    <path
       id="path631"
       fill="currentColor"
       d="m 222,135 c 53,0 104,-27 104,-86 0,-71 -56,-120 -103,-148 -36,-22 -76,-36 -118,-36 -53,0 -105,27 -105,86 0,71 57,120 104,148 36,22 76,36 118,36 z"
       transform="matrix(0.0055,0,0,-0.0055,2.5691,0.8086)" />
  </a>
</svg>
