<?xml version="1.0" encoding="UTF-8" standalone="no"?>
<svg
   xmlns:dc="http://purl.org/dc/elements/1.1/"
   xmlns:cc="http://creativecommons.org/ns#"
   xmlns:rdf="http://www.w3.org/1999/02/22-rdf-syntax-ns#"
   xmlns:svg="http://www.w3.org/2000/svg"
   xmlns="http://www.w3.org/2000/svg"
   xmlns:xlink="http://www.w3.org/1999/xlink"
   id="svg50"
   viewBox="0 0 2.4794 2.5879999"
   height="4.5478907mm"
   width="4.357048mm"
   version="1.2">
  <metadata
     id="metadata56">
    <rdf:RDF>
      <cc:Work
         rdf:about="">
        <dc:format>image/svg+xml</dc:format>
        <dc:type
           rdf:resource="http://purl.org/dc/dcmitype/StillImage" />
        <dc:title></dc:title>
      </cc:Work>
    </rdf:RDF>
  </metadata>
  <defs
     id="defs54" />
  <style
     id="style10"
     text="style/css"><![CDATA[
tspan { white-space: pre; }
]]></style>
  <!-- Page: 1/1 -->
  <text
     y="-38.862999"
     x="-16.177601"
     id="text14"
     fill="currentColor"
     text-anchor="start"
     font-size="2.2001px"
     font-family="serif"><tspan
       id="tspan12" /></text>
  <a
     transform="translate(-16.7467,-38.863)"
     id="a28"
     xlink:href="textedit:///Users/jwy/Documents/OPUS/GitHub/sf004/public/pieces/sf004/notationArchive/sf.ly:107:10:11"
     style="color:inherit" />
  <a
     transform="translate(-16.7467,-38.863)"
     id="a30"
     xlink:href="textedit:///Users/jwy/Documents/OPUS/GitHub/sf004/public/pieces/sf004/notationArchive/sf.ly:106:10:11"
     style="color:inherit" />
  <a
     transform="translate(-16.7467,-38.863)"
     id="a32"
     xlink:href="textedit:///Users/jwy/Documents/OPUS/GitHub/sf004/public/pieces/sf004/notationArchive/sf.ly:102:10:11"
     style="color:inherit" />
  <a
     transform="translate(-16.7467,-38.863)"
     id="a34"
     xlink:href="textedit:///Users/jwy/Documents/OPUS/GitHub/sf004/public/pieces/sf004/notationArchive/sf.ly:101:10:11"
     style="color:inherit" />
  <a
     transform="translate(-16.7467,-38.863)"
     id="a48"
     xlink:href="textedit:///Users/jwy/Documents/OPUS/GitHub/sf004/public/pieces/sf004/notationArchive/sf.ly:89:13:14"
     style="color:inherit">
    <g
       id="g46"
       transform="translate(16.6587,40.759)">
      <path
         id="path42"
         fill="currentColor"
         d="m 180,216 c 0,10 9,19 9,29 0,13 -6,23 -18,23 -26,0 -47,-20 -47,-45 0,-17 16,-28 31,-37 33,-19 68,-42 68,-80 C 223,45 167,0 103,0 60,0 22,28 22,68 22,89 34,110 53,110 71,110 85,96 85,78 85,65 64,62 64,49 64,34 82,27 99,27 c 33,0 64,20 64,51 0,57 -100,60 -100,117 0,54 45,97 99,97 56,0 79,-34 79,-62 0,-19 -11,-36 -30,-36 -18,0 -31,11 -31,22 z"
         transform="scale(0.004,-0.004)" />
      <path
         id="path44"
         fill="currentColor"
         d="M 253,245 203,82 C 173,-17 82,-173 -15,-173 c -45,0 -87,27 -87,69 0,39 17,77 52,77 24,0 44,-20 44,-44 0,-30 -38,-24 -38,-54 0,-10 11,-11 23,-11 h 6 c 48,0 61,58 73,108 l 68,273 H 77 c -11,0 -19,8 -19,19 0,11 8,19 19,19 h 60 c 32,96 118,191 213,191 45,0 87,-27 87,-69 0,-39 -17,-77 -52,-77 -24,0 -44,19 -44,43 0,30 38,25 38,55 0,10 -10,11 -22,11 h -7 c -62,0 -70,-88 -86,-154 h 55 c 11,0 19,-8 19,-19 0,-11 -8,-19 -19,-19 z"
         transform="matrix(0.004,0,0,-0.004,0.8194,0)" />
    </g>
  </a>
</svg>
